<svg width="97" height="108" viewBox="0 0 97 108" fill="none" xmlns="http://www.w3.org/2000/svg">
<path d="M2.1582 106.269C2.20214 106.269 2.24607 106.269 7.24928 106.269C12.2525 106.269 22.2136 106.269 27.2908 104.899C32.368 103.528 32.2595 100.786 32.2352 99.1263C32.211 97.4666 32.2744 96.972 32.8189 95.0968C33.3634 93.2216 34.387 89.9807 36.0671 86.1501C37.7472 82.3195 40.0527 77.9975 41.343 75.7161C42.6333 73.4348 42.8385 73.3252 43.4723 73.1968C47.1568 72.4507 49.53 72.8419 50.4311 73.2121C50.7612 73.3476 51.1627 73.6494 52.7538 75.3969C54.345 77.1445 57.0946 80.368 59.3031 83.4973C61.5115 86.6265 63.0955 89.5638 64.3926 92.2625C65.6898 94.9612 66.6521 97.3321 67.2495 98.7048C67.9903 100.407 68.3959 100.808 68.698 101.027C69.0232 101.263 70.624 101.537 75.4927 101.885C78.9803 102.135 84.5614 101.97 88.0601 101.843C92.8233 101.67 94.2745 101.222 94.6029 101.131C94.7675 101.086 94.9076 100.979 94.9941 100.797C95.1935 100.379 95.051 99.7453 93.1456 94.1603C91.3174 88.901 87.7405 78.7181 85.612 72.5479C83.4835 66.3776 82.9117 64.5286 82.1692 62.3333" stroke="black" stroke-width="2" stroke-linecap="round"/>
<path d="M82.1692 62.3334C82.1629 62.3148 82.1567 62.2962 81.7526 61.7646C81.3485 61.233 80.5468 60.1891 77.4817 54.6842C74.4165 49.1793 69.1122 39.2451 65.432 32.8889C61.7519 26.5327 59.8566 24.0554 58.5415 22.1671C57.2263 20.2788 56.5487 19.0545 55.8561 17.8875C54.5136 15.6254 53.3041 13.5396 52.3001 11.1345C51.7605 9.7327 51.1599 7.96257 50.7624 6.86376C50.3649 5.76494 50.1887 5.39108 49.843 4.75928" stroke="black" stroke-width="2" stroke-linecap="round"/>
<path d="M49.8023 4.75912C49.5791 4.69866 48.6671 4.30226 47.6182 3.39318C46.8506 2.72787 46.3884 2.04619 46.0319 1.81493C45.7006 1.60008 45.2057 1.81736 44.7282 2.04739C44.4805 2.16676 44.2504 2.34709 43.2104 3.45487C42.1703 4.56266 40.3347 6.60664 37.9327 10.4614C35.5306 14.3161 32.6178 19.9196 28.4379 29.2968C24.258 38.674 18.8993 51.6551 16.079 58.4465C13.2587 65.2379 13.1392 65.4463 12.9924 65.5678C12.8456 65.6894 12.6751 65.7179 12.5508 65.8511C12.4264 65.9844 12.3534 66.2217 11.5027 68.8456C10.652 71.4696 9.02582 76.4731 7.83012 80.6104C6.63443 84.7477 5.91851 87.8672 5.25796 90.4108C4.10461 94.852 3.37635 97.0102 3.29651 97.4819C3.07709 98.2789 2.90303 98.9887 2.71318 100.129C2.54362 101.003 2.22541 102.479 1.81958 104.061" stroke="black" stroke-width="2" stroke-linecap="round"/>
<path d="M42.298 34.6795C42.298 34.6651 42.298 34.6507 40.802 37.517C39.306 40.3834 36.3141 46.1311 34.1627 50.1436C32.0112 54.1561 30.7909 56.2593 30.1283 57.4184C29.4658 58.5775 29.398 58.7287 29.4246 58.8687C29.4512 59.0086 29.5742 59.1327 35.248 58.8216C40.9218 58.5105 52.1426 57.7605 58.0226 57.394C63.9025 57.0275 64.1017 57.0672 64.1234 57.0589C64.145 57.0506 63.9831 56.9931 61.6812 54.8879C59.3793 52.7827 54.9423 48.6315 51.8015 45.3371C48.6607 42.0426 46.9504 39.7306 44.8478 37.0214" stroke="black" stroke-width="2" stroke-linecap="round"/>
</svg>
