<svg width="63" height="90" viewBox="0 0 63 90" fill="none" xmlns="http://www.w3.org/2000/svg">
<path d="M3.87421 3.69336C3.87421 3.72453 3.87421 3.7557 3.76071 8.0247C3.64722 12.2937 3.42022 20.7996 2.89857 31.6095C2.37692 42.4194 1.56748 55.2756 1.42028 64.724C1.27307 74.1724 1.81262 79.8234 2.07374 82.8279C2.38428 86.4012 2.53398 87.1955 2.94648 87.886C3.33247 88.5321 4.95373 88.5638 7.2649 88.8197C8.67824 88.9762 10.6014 88.9457 15.1867 88.6018C19.7719 88.258 26.9665 87.5402 31.8686 86.8562C36.7707 86.1722 39.1624 85.5437 41.0905 84.9275C43.0187 84.3113 44.4108 83.7263 46.6887 82.3525C48.9667 80.9786 52.0883 78.8336 54.1131 77.3093C57.076 75.0789 58.2516 73.4773 59.0118 72.2952C59.6883 71.2431 60.0542 70.0066 60.5016 68.049C60.8008 66.7391 61.0003 64.7366 61.139 63.1659C61.3735 60.5105 61.257 58.9722 61.1578 58.203C61.071 57.5301 60.2408 55.7665 59.1369 53.4697C58.6473 52.451 57.868 51.6799 56.6072 50.4873C55.393 49.3386 54.066 48.5609 51.7759 47.5071C50.1028 46.7372 47.2785 45.7503 45.7568 45.1863C43.4412 44.3281 41.7266 44.6623 39.2776 44.6089C36.8028 44.555 35.0965 43.949 34.7413 43.8408C34.4843 43.7626 35.8996 41.6889 37.7649 38.7562C38.9542 36.8864 39.5633 34.9988 40.1173 31.8752C40.4693 29.891 40.4548 27.0223 39.9721 23.9167C39.4894 20.8111 38.4084 17.5366 37.615 15.4317C36.8216 13.3268 36.3486 12.4908 36.046 11.9841C35.7435 11.4775 35.6257 11.3256 35.4682 11.1324" stroke="black" stroke-width="2" stroke-linecap="round"/>
<path d="M35.4681 11.1324C35.4556 11.1199 34.1428 10.0508 30.9684 7.7399C29.152 6.41755 26.7101 5.08963 24.7612 4.08134C22.8123 3.07304 21.3771 2.50085 20.0471 2.09164C18.717 1.68244 17.5356 1.45357 15.2196 1.30982C12.9037 1.16608 9.48893 1.1144 7.52857 1.11948C5.5682 1.12455 5.16568 1.18794 4.30908 1.43013" stroke="black" stroke-width="2" stroke-linecap="round"/>
<path d="M4.30908 1.46875L4.32747 1.48714" stroke="black" stroke-width="2" stroke-linecap="round"/>
<path d="M20.8232 16.9648C19.9812 16.9648 17.6902 17.0502 16.0141 17.7479C14.1089 18.5409 13.508 19.6922 13.0229 20.4229C12.7001 20.9093 12.4909 21.9337 12.2827 23.7512C11.7769 28.166 12.7997 29.3319 13.3565 30.3099C13.7411 30.9856 14.503 31.2846 16.6896 31.8186C17.9259 32.1206 20.072 32.274 21.7189 32.4012C24.4649 32.6132 26.3457 32.3068 27.6686 31.9328C29.5333 31.4057 30.5892 30.3694 31.0782 29.4333C31.7144 28.2154 31.2048 26.9968 30.3803 25.0026C29.9175 23.8833 29.2392 23.0678 28.6092 22.3624C27.9038 21.5726 25.3319 20.1936 21.85 18.4451C20.4249 17.7826 19.6937 17.5766 19.1707 17.4619C18.6477 17.3473 18.355 17.3304 18.0534 17.3129" stroke="black" stroke-width="2" stroke-linecap="round"/>
<path d="M30.9626 59.1445C30.9768 59.1156 29.1336 59.1265 26.0906 59.2586C23.3524 59.3776 22.1261 60.9185 21.441 61.7206C20.761 62.5166 20.6834 64.141 20.5912 67.2855C20.5529 68.595 20.975 69.5524 22.2255 71.9238C23.7615 74.8365 25.813 75.9148 27.9956 77.0851C30.2205 78.2782 32.999 77.9868 34.7914 77.8512C35.3551 77.8085 36.547 77.2473 38.4233 76.283C41.7405 74.5782 42.5672 72.812 43.2467 71.5074C44.0604 69.9451 43.6521 68.1901 43.3971 67.2438C42.862 65.2582 40.4236 63.5234 38.824 62.4515C38.0696 61.946 36.7623 61.6274 34.9904 61.2831C31.6584 61.1541 30.0785 61.7347 28.2186 62.5494C27.5247 62.8426 27.3385 62.8915 26.9704 62.9692" stroke="black" stroke-width="2" stroke-linecap="round"/>
</svg>
