<svg width="61" height="96" viewBox="0 0 61 96" fill="none" xmlns="http://www.w3.org/2000/svg">
<path d="M50.7844 1.52466C50.7844 1.53073 50.7844 1.53679 51.9362 3.43578C53.0881 5.33478 55.3917 9.12651 56.798 11.6094C58.2042 14.0924 58.6434 15.1516 58.9224 15.8757C59.2015 16.5999 59.3071 16.9568 58.3867 17.615C57.4663 18.2733 55.5167 19.222 53.1145 20.123C50.7123 21.0241 47.9166 21.8486 44.2891 23.4146C40.6616 24.9807 36.287 27.2634 32.5601 29.491C28.8331 31.7185 25.8864 33.8217 23.8925 35.4068C20.8231 37.8471 19.6265 39.5141 18.9965 40.4584C18.6951 40.9103 18.4768 41.3368 17.8906 42.7597C17.3043 44.1826 16.3685 46.5967 15.8023 49.3226C15.236 52.0484 15.0676 55.013 14.894 58.0673" stroke="black" stroke-width="2" stroke-linecap="round"/>
<path d="M14.894 58.0674C14.894 59.1225 15.0267 61.731 15.3397 62.5729C15.8779 64.0206 17.4938 64.9941 18.9655 65.7281C20.0406 66.2643 21.8863 66.9106 26.4704 67.9994C31.0545 69.0882 38.3476 70.5431 43.2184 71.3427C48.0893 72.1422 50.317 72.2424 51.5631 72.288C53.0058 72.3407 54.7684 72.0288 57.1656 71.6909C57.9976 71.5736 58.0739 71.8061 58.1056 72.1677C58.1373 72.5293 58.1285 73.0743 57.8033 74.7949C57.478 76.5154 56.8366 79.395 55.9646 82.1521C55.0926 84.9092 54.0096 87.4565 53.3899 88.907C52.3603 91.3168 51.9564 92.7515 51.5117 93.4041C51.4179 93.5419 51.217 93.5616 47.6998 93.7763C44.1826 93.9911 37.3112 94.3572 33.0459 94.433C28.7806 94.5089 27.3295 94.2833 26.4756 94.1354C25.409 93.9238 24.2782 93.6377 22.4564 93.1569C21.5461 92.8965 20.6647 92.603 19.7135 92.2999" stroke="black" stroke-width="2" stroke-linecap="round"/>
<path d="M19.7135 92.2999C19.4202 92.2892 18.4841 92.1006 16.9071 91.0314C16.2604 90.5929 15.5662 89.6908 14.2456 87.9425C12.9251 86.1941 11.0696 83.5371 9.8613 81.6266C8.65303 79.7161 8.1482 78.6326 7.22149 76.1856C6.29478 73.7386 4.96148 69.9609 4.23394 67.8508C3.50639 65.7408 3.42501 65.413 3.37022 65.1261C3.31543 64.8392 3.2897 64.6032 3.26318 64.3601" stroke="black" stroke-width="2" stroke-linecap="round"/>
<path d="M3.2632 64.3601C3.2632 64.3417 3.2632 64.3233 3.2588 61.9947C3.25441 59.6662 3.24562 55.028 3.00228 51.3779C2.75894 47.7278 2.28131 45.2064 2.00305 42.8438C1.72478 40.4811 1.66034 38.3537 1.55152 36.7587C1.44269 35.1638 1.29143 34.1659 1.21257 33.5475C1.13371 32.9291 1.13182 32.7205 1.12988 32.5056" stroke="black" stroke-width="2" stroke-linecap="round"/>
<path d="M1.12988 32.5057C1.13762 31.0907 1.36925 27.5155 2.35016 25.5348C2.54373 25.1439 2.67653 25.0155 3.57335 23.9944C4.47017 22.9734 6.15453 21.0786 8.81024 18.995C11.466 16.9114 15.042 14.6965 17.8927 12.9032C20.7434 11.1099 22.7604 9.80522 24.1908 8.96859C25.6212 8.13196 26.4038 7.80287 27.8201 7.4121C29.2364 7.02133 31.2626 6.57885 34.1411 6.19411C37.0196 5.80936 40.6889 5.49575 42.6734 5.31171C45.2739 5.07054 46.0085 4.68272 46.8544 4.23932C47.8575 3.70494 48.5222 3.35464 48.8612 3.23567C49.0299 3.18113 49.1918 3.13845 49.5716 3.09448" stroke="black" stroke-width="2" stroke-linecap="round"/>
</svg>
