<svg width="62" height="87" viewBox="0 0 62 87" fill="none" xmlns="http://www.w3.org/2000/svg">
<path d="M3.98027 1.9187C3.97043 2.14277 3.89901 2.98493 3.55658 4.60015C3.28654 5.87395 2.73675 8.0512 2.23928 15.0923C1.74182 22.1334 1.29181 33.9676 1.40476 44.2593C1.51772 54.551 2.20728 62.9416 2.97606 71.5744" stroke="black" stroke-width="2" stroke-linecap="round"/>
<path d="M2.97607 71.5744C2.97607 71.5987 2.97607 72.0934 3.25757 74.3894C3.48093 76.2112 4.10205 79.3338 4.42826 81.0448C4.79325 82.9593 5.0048 83.292 5.23032 83.5497C5.45537 83.8069 5.80208 83.9672 6.13824 84.1249C6.44657 84.2695 9.04223 84.5546 13.6361 84.9884C15.8087 85.1935 17.6789 85.1261 21.385 84.1694C25.0912 83.2127 30.5818 81.3068 33.4963 80.2783C36.5934 79.1854 37.2079 78.7227 38.7867 77.142C39.9745 75.9528 41.7195 73.7609 42.7233 72.539C43.7271 71.3171 43.8785 71.0763 44.0943 70.7615C44.3101 70.4466 44.5857 70.065 44.8695 69.6719" stroke="black" stroke-width="2" stroke-linecap="round"/>
<path d="M46.1802 71.1529C46.1802 71.1659 46.1802 70.945 46.6174 69.4742C46.993 68.2111 47.9292 65.9794 49.4542 62.751C50.9792 59.5227 53.1282 55.3859 54.9559 51.4425C56.7836 47.4991 58.2248 43.8743 59.0718 41.56C59.9188 39.2457 60.1278 38.3518 60.2647 37.5315C60.4017 36.7112 60.4603 35.9918 60.5206 35.2505" stroke="black" stroke-width="2" stroke-linecap="round"/>
<path d="M60.5204 35.2506C60.5204 34.2382 60.4304 31.6837 59.8708 29.638C59.4638 28.1501 58.5544 25.8239 57.7463 23.9162C56.9382 22.0086 56.1942 20.6092 54.8121 18.7782C53.43 16.9472 51.4322 14.7271 50.3316 13.5241C49.231 12.3212 49.0881 12.2028 48.9409 12.0808" stroke="black" stroke-width="2" stroke-linecap="round"/>
<path d="M48.8999 12.0808C48.5394 12.0624 47.4684 11.9028 42.1592 9.60498C40.0842 8.70689 37.3717 7.91421 34.6645 7.24999C31.9574 6.58577 29.3002 6.1663 27.8243 5.94917C26.3483 5.73203 26.1341 5.72994 25.9133 5.72778" stroke="black" stroke-width="2" stroke-linecap="round"/>
<path d="M25.7103 5.72769C25.6917 5.72769 25.6731 5.72769 21.8726 5.64108C18.0721 5.55446 10.4903 5.38124 6.45882 5.28279C2.42731 5.18435 2.17584 5.16594 1.91675 5.14697" stroke="black" stroke-width="2" stroke-linecap="round"/>
<path d="M17.5613 21.1795C17.5678 21.1728 17.5742 21.1661 17.5641 25.8737C17.5539 30.5814 17.527 40.0036 17.3941 45.4888C17.2613 50.9739 17.0234 52.2365 16.7783 53.6375" stroke="black" stroke-width="2" stroke-linecap="round"/>
<path d="M16.7783 53.6376C16.7783 53.6434 16.7783 53.6493 16.7783 55.7992C16.7783 57.9492 16.7783 62.243 17.2253 64.4584C17.6723 66.6738 18.5662 66.6808 19.8863 66.4673C22.9538 65.9711 25.436 65.0763 26.9944 64.3871C28.7391 63.6155 30.1164 62.5661 31.638 61.0125C32.6789 59.9497 34.0922 58.167 35.1887 56.7112C36.2852 55.2553 36.9777 54.1388 37.5959 52.8366C38.2142 51.5344 38.7372 50.0804 39.2761 48.5823" stroke="black" stroke-width="2" stroke-linecap="round"/>
<path d="M39.3168 48.5411C39.3249 47.8459 39.6831 44.405 40.1949 40.5732C40.5939 37.586 40.2532 35.7868 39.6902 34.1212C39.2153 32.9102 38.3563 30.9566 37.8605 29.8819C37.3646 28.8072 37.2579 28.6705 37.1479 28.5298" stroke="black" stroke-width="2" stroke-linecap="round"/>
<path d="M37.0605 28.486C37.0354 28.486 36.7804 28.4318 34.2541 27.6209C31.9698 26.8642 27.6506 25.4066 24.376 24.4221C21.1014 23.4375 19.0022 22.9701 16.4304 22.467" stroke="black" stroke-width="2" stroke-linecap="round"/>
</svg>
