<svg width="65" height="83" viewBox="0 0 65 83" fill="none" xmlns="http://www.w3.org/2000/svg">
<path d="M1.8667 2.0105C1.8667 2.02263 1.8667 2.03477 1.87831 5.07049C1.88992 8.10622 1.91314 14.1652 1.9749 19.345C2.03665 24.5248 2.13624 28.6418 2.28512 32.9172" stroke="black" stroke-width="2" stroke-linecap="round"/>
<path d="M2.28505 32.9172C2.28505 32.9354 2.28505 32.9536 2.28505 35.7378C2.28505 38.5219 2.28505 44.0714 2.16172 48.3456C2.03839 52.6197 1.79173 55.4504 1.5376 58.3668" stroke="black" stroke-width="2" stroke-linecap="round"/>
<path d="M1.5376 58.3667C1.5376 58.3851 1.5376 58.4035 1.5376 62.1061C1.5376 65.8087 1.5376 73.1948 1.59293 77.0637C1.64827 80.9325 1.75894 81.0601 4.27387 81.1412C6.78879 81.2223 11.7046 81.2531 16.2645 81.3907C20.8243 81.5283 24.8792 81.7718 29.4684 81.8592C34.0576 81.9466 39.0581 81.8704 41.7123 81.7818C44.3665 81.6932 44.5228 81.5944 44.6838 81.4927" stroke="black" stroke-width="2" stroke-linecap="round"/>
<path d="M44.6838 81.4927C44.7025 81.4927 44.7211 81.4927 47.0729 81.4877C49.4247 81.4826 54.1091 81.4726 56.616 81.4599C59.6676 81.4444 60.3516 81.0501 61.2564 80.5832C62.1722 80.1106 62.65 78.0484 63.2075 73.9867C63.5751 71.3094 63.5362 67.3175 63.5665 65.0563C63.4169 61.5712 62.6557 59.2711 61.8484 57.5875C61.6927 57.3434 61.5603 57.1798 61.4239 57.0112" stroke="black" stroke-width="2" stroke-linecap="round"/>
<path d="M61.3356 57.0112C61.2979 57.0112 61.0806 57.0259 58.5521 58.5261C56.1752 59.9365 51.7643 62.9679 48.9587 64.7125C46.1532 66.4572 45.1343 66.9007 43.9649 67.3056C42.7954 67.7106 41.5063 68.0635 40.105 68.2712C38.7037 68.4788 37.2294 68.5305 35.7104 68.5837" stroke="black" stroke-width="2" stroke-linecap="round"/>
<path d="M35.7106 68.5839C35.7106 68.5653 35.7106 68.5467 35.7106 66.4336C35.7106 64.3205 35.7106 60.1135 35.6707 55.4766" stroke="black" stroke-width="2" stroke-linecap="round"/>
<path d="M35.6707 55.4766C35.6767 55.4766 35.6828 55.4766 38.4678 55.4766C41.2528 55.4766 46.8165 55.4766 49.7747 55.4511C52.7328 55.4257 52.9167 55.3749 53.2215 55.3225" stroke="black" stroke-width="2" stroke-linecap="round"/>
<path d="M53.2214 43.3145V55.3225" stroke="black" stroke-width="2" stroke-linecap="round"/>
<path d="M53.2214 43.3145C53.1967 43.3145 53.1721 43.3145 48.9173 43.319C44.6625 43.3234 36.1784 43.3324 27.1836 43.395" stroke="black" stroke-width="2" stroke-linecap="round"/>
<path d="M26.9167 43.5545C26.9167 43.5296 26.9167 43.5048 26.9167 43.2486C26.9167 42.9925 26.9167 42.5059 26.8557 40.1253C26.7948 37.7447 26.6728 33.485 26.5471 29.0962" stroke="black" stroke-width="2" stroke-linecap="round"/>
<path d="M26.5471 29.0964C26.5471 29.0838 26.5471 27.7347 26.9421 25.6679C27.3371 24.9439 28.1271 24.8793 33.3425 23.5813C38.558 22.2833 48.175 19.7539 58.2178 17.1384" stroke="black" stroke-width="2" stroke-linecap="round"/>
<path d="M58.2579 17.1383C58.2579 17.1258 58.2579 17.1132 58.2579 14.9912C58.2579 12.8692 58.2579 8.63813 58.2109 3.83887" stroke="black" stroke-width="2" stroke-linecap="round"/>
<path d="M58.2108 3.83884C58.1794 3.83884 58.148 3.83884 48.9924 3.58904C39.8367 3.33925 21.5578 2.83965 12.0094 2.53877C2.46094 2.23789 2.19691 2.15086 1.97157 2.06889C1.74622 1.98692 1.56756 1.91265 1.32959 1.83105" stroke="black" stroke-width="2" stroke-linecap="round"/>
</svg>
