<svg width="53" height="86" viewBox="0 0 53 86" fill="none" xmlns="http://www.w3.org/2000/svg">
<path d="M5.21191 9.37012C5.21191 9.38895 5.21191 9.40777 5.39958 18.8912C5.58724 28.3745 5.96256 47.3219 6.14691 57.1727C6.33127 67.0236 6.31327 67.2037 6.26431 67.6809" stroke="black" stroke-width="2" stroke-linecap="round"/>
<path d="M6.2644 67.6808C6.2644 67.712 6.2644 67.7432 6.2644 70.4693C6.2644 73.1955 6.2644 78.6157 6.51608 81.4852C6.76776 84.3546 7.27113 84.509 7.76799 84.621C8.73176 84.8382 10.3425 84.8439 14.2193 84.3384C17.0017 83.9755 21.364 82.9052 23.7009 82.3898C26.5707 81.757 27.2341 81.625 27.6988 81.4914C27.9223 81.4271 28.0255 81.1496 28.0543 78.4319C28.0831 75.7143 28.01 70.5085 27.8194 66.6708C27.6287 62.8332 27.3227 60.5214 27.165 59.0548C27.0073 57.5883 27.0073 57.037 27.2618 56.8381C27.8638 56.3675 29.3414 57.0849 31.2004 57.2343C32.2655 57.3199 33.5869 57.2779 35.4165 56.9691C39.5888 56.265 42.1344 55.27 42.6149 54.848C43.968 53.6596 44.2498 52.0822 44.7753 48.7206C45.063 46.8803 44.6893 45.4801 44.3455 44.7213C44.1179 44.2189 43.5202 44.2249 42.157 44.161C40.9867 44.1336 38.8448 44.1162 35.8024 44.3988C32.7601 44.6814 28.8821 45.2645 24.5202 45.9274" stroke="black" stroke-width="2" stroke-linecap="round"/>
<path d="M24.52 46.1278C24.52 46.109 24.52 46.0902 24.5252 44.4916C24.5305 42.8931 24.5409 39.7154 24.5847 37.9572C24.6346 35.9534 24.8601 35.5623 25.0821 35.2509C25.3748 34.8402 26.6679 34.0148 28.5691 32.7866C29.4465 32.2197 30.2252 31.8937 32.7724 30.9565C35.3195 30.0193 39.6315 28.5129 42.6889 27.563C45.7462 26.6131 47.4183 26.2652 48.5807 25.9851C49.743 25.705 50.3452 25.5033 50.7469 25.3653C51.1486 25.2273 51.3316 25.1591 51.5202 25.0889" stroke="black" stroke-width="2" stroke-linecap="round"/>
<path d="M51.4026 25.0888C51.4026 25.0516 51.3882 23.8295 51.0395 20.435C50.813 18.2297 50.0517 15.0999 49.2904 11.9579C48.5291 8.81596 47.68 5.7709 47.2259 4.09774C46.7718 2.42457 46.7385 2.21557 46.6312 2.07401C46.5239 1.93245 46.3436 1.86466 46.1507 1.83497C45.9577 1.80529 45.7577 1.81575 38.4821 3.5376C31.2065 5.25946 16.8614 8.6924 1.98389 12.2471" stroke="black" stroke-width="2" stroke-linecap="round"/>
</svg>
