<svg width="51" height="71" viewBox="0 0 51 71" fill="none" xmlns="http://www.w3.org/2000/svg">
<path d="M3.37697 2.72266C3.37697 2.73415 3.37697 2.74564 3.06072 6.69513C2.74448 10.6446 2.11198 18.5318 1.81607 22.6679C1.52016 26.804 1.58001 26.95 1.72318 27.0511C2.0486 27.2808 3.61629 27.6303 7.24875 28.3943C9.56917 28.8823 12.9321 29.1824 15.6799 29.3875C18.4276 29.5925 20.4773 29.5933 21.612 29.6109C24.5064 30.1819 27.6124 31.2523 28.0171 31.4334C28.2382 31.5264 28.491 31.6219 29.0211 31.9305" stroke="black" stroke-width="2" stroke-linecap="round"/>
<path d="M29.021 31.9304C29.021 31.9362 29.021 31.9419 29.0773 36.7906C29.1335 41.6393 29.2461 51.3308 29.3213 56.4773C29.3965 61.6237 29.431 61.9314 29.5398 62.5649" stroke="black" stroke-width="2" stroke-linecap="round"/>
<path d="M29.54 62.6016C29.5525 62.978 29.9718 65.9384 30.6819 68.8313C30.7851 69.2516 30.8886 69.3901 31.0099 69.498C31.1312 69.6058 31.298 69.67 32.6873 69.7C34.0766 69.73 36.6832 69.7239 39.2707 69.4666C41.8582 69.2093 44.3476 68.701 45.7368 68.4119C47.126 68.1227 47.3396 68.068 47.541 67.9972C47.7425 67.9264 47.9254 67.8412 48.2514 67.6093" stroke="black" stroke-width="2" stroke-linecap="round"/>
<path d="M48.2512 31.8716V67.6094" stroke="black" stroke-width="2" stroke-linecap="round"/>
<path d="M48.2513 31.7376C48.2513 31.6903 48.2513 31.6429 48.2655 27.3176C48.2796 22.9923 48.308 14.3904 48.2428 9.85322C48.1745 5.0994 47.5352 4.35078 46.9913 3.38848C46.5935 2.68473 46.3721 2.26285 46.0743 2.09107C45.7674 1.91408 45.3808 1.75528 44.0704 1.63797C41.0682 1.36921 38.104 1.60481 36.552 1.75229C35.9643 1.80813 35.7837 1.83774 35.6426 1.91533C35.3677 2.06641 35.2677 2.41507 34.3563 4.47602C33.5114 6.38665 31.7795 10.0032 30.7153 12.1582C29.2791 14.8842 28.7175 15.6483 28.4126 15.9895C28.2857 16.155 28.2156 16.3048 28.1433 16.4591" stroke="black" stroke-width="2" stroke-linecap="round"/>
<path d="M28.1433 16.6501C28.0569 16.8146 27.6212 17.4171 26.9339 17.9871C26.375 18.4508 24.9081 18.9245 22.8938 19.4621C21.0789 19.8004 19.2802 19.9131 17.2707 19.7222C16.1846 19.5389 14.9638 19.1805 13.5415 18.6905" stroke="black" stroke-width="2" stroke-linecap="round"/>
<path d="M13.5415 18.6905C13.5415 18.655 13.5415 18.6195 13.5391 16.2222C13.5367 13.8248 13.5319 9.06665 13.5 6.452C13.468 3.83735 13.4089 3.5104 13.3132 3.28917C13.2175 3.06794 13.0869 2.96232 11.3362 2.89563C9.58545 2.82894 6.2185 2.80437 2.74951 2.77905" stroke="black" stroke-width="2" stroke-linecap="round"/>
<path d="M7.14149 6.39265C7.10313 6.39265 8.41054 6.39265 9.72318 6.41861C9.75292 6.4192 8.31224 6.49648 7.0027 6.62834C4.50207 6.88012 3.41581 7.20422 3.72665 7.23331C4.60436 7.31545 5.91679 7.65369 7.25886 8.23093C7.46674 8.32034 7.51984 8.41193 7.50781 8.48357C7.49578 8.55522 7.40514 8.6279 7.4056 8.68494C7.41259 9.55361 9.81934 8.95872 10.1746 9.10353C10.322 9.16359 10.3716 9.26129 10.3619 9.33753C10.3406 9.50555 10.0523 9.61482 9.15891 9.84675C7.06872 10.3894 5.50973 10.5838 5.36539 10.5839C4.50315 10.5842 7.87688 10.582 9.57091 11.3318C10.2575 11.6356 10.4558 11.9321 10.5768 12.1503C10.6344 12.2543 10.6223 12.3732 10.4532 12.5312C9.99706 12.9575 9.1723 13.1945 8.00975 13.3734C7.26956 13.4873 6.20725 13.5182 5.745 13.523C5.28276 13.5279 5.44839 13.4726 5.79579 13.4463C7.43166 13.3224 9.13341 14.1559 10.0489 14.679C10.1453 14.734 10.1464 14.8642 10.0679 14.9451C9.85852 15.1607 8.0266 15.1991 5.41931 15.2541C4.39603 15.2756 3.98063 15.2172 3.86312 15.1962C3.7865 15.1826 4.32495 15.2116 4.91564 15.3763C5.95146 15.665 7.34272 16.4261 8.57626 17.1697C9.03259 17.4447 9.12369 17.546 9.19434 17.6641C9.265 17.7822 9.30714 17.9228 9.30497 18.0422C9.3028 18.1617 9.25504 18.2558 9.16905 18.3352C8.74239 18.7296 6.24756 18.9811 4.88931 19.1203C4.64734 19.1451 6.40675 19.4939 8.34157 20.1944C9.95641 20.779 11.1425 21.5666 11.9707 22.1397C12.4025 22.4384 12.6081 22.7315 12.7532 23.053C12.8129 23.1851 12.7342 23.2913 12.6407 23.363C12.4384 23.5183 12.0635 23.557 10.7965 23.6095C9.74205 23.6532 7.84895 23.6311 6.81938 23.6285C5.78981 23.6258 5.68036 23.6176 5.69312 23.5997C5.78445 23.4711 7.25246 23.5514 9.68692 23.6856C11.9055 23.8078 13.3212 24.3034 13.9232 24.5185C14.1603 24.6032 14.245 24.674 14.2847 24.7574C14.3244 24.8409 14.3131 24.944 14.263 25.0198C14.1616 25.1732 13.8764 25.2333 12.4598 25.3442C11.2023 25.4426 8.84247 25.4922 7.69279 25.4808C6.54312 25.4693 6.67284 25.361 7.96313 25.2981C9.25342 25.2352 11.7003 25.221 14.6145 25.4806C17.5286 25.7402 20.8358 26.274 22.6324 26.5856C24.429 26.8971 24.6146 26.9703 24.6664 27.0539C24.7182 27.1376 24.6305 27.2294 23.8822 27.2601C23.1338 27.2907 21.7275 27.2574 19.499 26.9508C17.2705 26.6443 14.2624 26.0655 12.6465 25.7293C11.0305 25.3931 10.8979 25.317 10.9101 25.2086C10.9223 25.1002 11.0834 24.9618 13.6566 24.8088C16.2298 24.6558 21.2101 24.4924 23.3025 24.3365C25.395 24.1806 24.4487 24.0372 22.0538 23.4914C19.6589 22.9456 15.844 22.0017 13.9744 21.5004C12.1048 20.9991 12.2961 20.9689 14.1645 20.9657C16.033 20.9625 19.5728 20.9872 21.8865 21.0813C24.2003 21.1754 25.1808 21.3382 25.9253 21.4907C26.6699 21.6432 27.1487 21.7803 27.3342 21.8887C27.5196 21.997 27.3972 22.0724 25.7147 22.1051C24.0322 22.1377 20.7933 22.1254 19.1847 22.0859C17.5761 22.0465 17.6961 21.9803 17.8667 21.906C18.2499 21.7391 18.9106 21.5611 19.8561 21.3583C20.3676 21.2486 20.9545 21.1826 23.974 21.2005C26.9935 21.2183 32.4307 21.3367 35.7072 21.4756C38.9838 21.6146 39.935 21.7706 40.3724 21.8724C40.7256 21.9545 39.4687 22.017 36.348 21.6982C34.3467 21.4938 31.5316 20.92 30.1188 20.594C28.706 20.2681 28.7894 20.135 29.2974 19.8797C29.8054 19.6243 30.7355 19.2507 32.3458 18.8726C33.9561 18.4945 36.2184 18.1233 37.9643 17.9323C39.7102 17.7413 40.8712 17.7418 41.4032 17.7648C41.9352 17.7878 41.8032 17.8334 39.8116 17.8731C37.82 17.9128 33.9729 17.9453 32.0678 17.9178C30.1628 17.8902 30.3165 17.8017 30.4827 17.7278C30.8159 17.5797 31.8683 17.4067 34.5543 17.1977C36.3707 17.0564 39.1232 17.1046 40.3028 17.1495C41.4825 17.1944 41.0099 17.3012 39.558 17.3828C38.1061 17.4644 35.6892 17.5174 34.508 17.4644C33.3268 17.4114 33.4544 17.2508 33.7426 17.082C34.0308 16.9133 34.4757 16.7413 35.9599 16.6019C37.4441 16.4625 39.9542 16.3608 41.3815 16.3231C43.0767 16.2782 43.4445 16.3722 43.5079 16.4177C43.8988 16.6987 41.3969 15.8397 39.0638 14.9846C36.3895 14.0043 35.4231 14.2046 35.328 14.129C35.1398 13.9795 36.2437 13.5585 38.2636 12.9455C39.6375 12.5286 41.784 12.1251 41.6211 11.8959C41.4582 11.6667 38.9372 11.6823 37.2607 11.7585C35.5843 11.8346 34.8286 11.9708 35.7778 11.8695C36.727 11.7681 39.404 11.4251 39.6061 11.1034C39.8083 10.7816 37.4546 10.4915 36.1955 10.3208C34.9365 10.15 34.8434 10.1074 34.7974 10.0179C34.7514 9.92848 34.7553 9.79351 34.8637 9.64134C35.3989 8.89005 36.7826 8.57924 39.1906 8.12631C40.7251 7.83769 42.9627 7.88605 42.6112 7.75369C42.2596 7.62134 39.2686 7.42346 37.7003 7.27693C36.1319 7.13041 36.0768 7.04124 36.0624 6.94839C36.048 6.85555 36.076 6.76174 36.1517 6.67072C36.3215 6.46666 36.9155 6.22703 38.2613 5.81328C39.1565 5.53804 40.5293 5.29472 41.7308 5.11727C42.9323 4.93981 43.9329 4.87764 43.8368 4.84561C41.2164 3.97189 40.4394 4.94378 40.2821 5.00183C38.5634 5.63617 43.8137 4.85368 44.6324 5.22307C44.906 5.3465 45.1095 5.60036 45.3222 5.8977C45.4701 6.10439 45.4203 6.36583 45.3104 6.64962C45.2436 6.8219 45.0286 6.9885 43.9719 7.70162C42.9152 8.41475 40.9911 9.65323 40.0709 10.27C39.1507 10.8869 39.2928 10.8445 39.4428 10.7855C40.7647 10.2659 42.7774 9.71489 43.4186 9.73621C43.5586 9.74087 43.5999 9.91102 43.6135 10.0359C43.705 10.8751 41.5684 12.1427 40.4472 13.0242C39.6367 13.6615 42.5181 12.5136 43.7567 12.5093C44.131 12.5081 44.321 12.6598 44.4622 12.8238C44.5914 12.974 44.6238 13.2686 44.6491 13.6524C44.676 14.0601 44.4978 14.4835 44.1601 14.9298C43.9675 15.1842 43.6563 15.4332 42.5098 16.097C41.3634 16.7607 39.3717 17.8157 38.3007 18.3751C37.2298 18.9345 37.1399 18.9662 37.121 18.9435C36.5782 18.2905 39.4318 17.6222 40.9471 17.3282C41.6081 17.2 42.0517 17.2836 42.3097 17.3441C42.7924 17.4574 43.0837 17.9185 43.3212 18.4557C43.8014 19.5415 43.3131 21.0043 42.7398 22.1898C42.1446 23.4207 40.6632 24.1781 39.1053 25.1122C38.2461 25.6273 37.1663 26.084 36.44 26.4C35.3644 26.868 33.8339 27.1164 31.9491 27.3391C31.2129 27.4261 30.9194 27.4179 30.815 27.3812C29.7077 26.9914 34.525 26.7119 35.1601 26.7626C35.3251 26.7758 35.1293 26.9472 34.9337 27.0417C34.7382 27.1363 34.5382 27.1958 33.8101 27.2908C33.082 27.3859 31.8318 27.5148 30.2092 27.5812C28.5867 27.6476 26.6297 27.6476 25.6627 27.5928C24.6956 27.538 24.7779 27.4284 24.8962 27.3273C25.1478 27.1124 25.6284 26.9222 26.5091 26.6517C27.0774 26.4771 27.9221 26.3334 30.1402 26.1892C32.3582 26.045 35.9317 25.9319 37.8771 25.8885C39.8225 25.8452 40.0315 25.8752 40.061 25.9297C40.0905 25.9843 39.9341 26.0626 37.4491 25.9281C34.964 25.7936 30.1549 25.4438 25.0221 25.0484" stroke="#439EC6" stroke-width="2" stroke-linecap="round"/>
<path d="M28.4505 24.03C28.4466 24.03 28.4427 24.03 31.1725 24.03C33.9023 24.03 39.366 24.03 41.7308 24.0343C44.0957 24.0386 43.1962 24.0471 41.3137 24.3946C39.4311 24.7421 36.5928 25.4282 35.0837 25.8014C33.5745 26.1745 33.4804 26.214 33.4784 26.2556C33.4765 26.2972 33.5694 26.3397 35.3565 26.5393C37.1436 26.7389 40.6219 27.0944 42.5055 27.303C44.3891 27.5115 44.5726 27.5625 44.639 27.6315C44.7053 27.7006 44.649 27.7862 41.9548 28.5872C39.2605 29.3881 33.93 30.9018 32.8 31.9596C31.6701 33.0174 34.9024 33.5734 36.6165 33.8788C38.3306 34.1842 38.4287 34.222 38.4139 34.2594C38.3991 34.2967 38.2684 34.3324 37.2582 34.3709C34.3634 34.4811 32.4491 34.3986 32.5628 34.243C32.7055 34.0477 33.7591 34.1015 35.2305 34.0975C35.8708 34.0957 36.2947 34.1434 37.6104 34.4787C38.9261 34.814 41.1207 35.4479 42.3041 35.7992C43.4876 36.1506 43.5935 36.2 43.6 36.2389C43.6065 36.2777 43.5104 36.3045 41.8463 36.2472C40.1822 36.1899 36.953 36.0477 33.626 35.9012" stroke="#439EC6" stroke-width="2" stroke-linecap="round"/>
<path d="M35.8085 32.5784L35.7671 32.5921" stroke="#439EC6" stroke-width="2" stroke-linecap="round"/>
<path d="M35.767 32.592C35.8011 32.592 35.8352 32.592 37.3961 32.592C38.9571 32.592 42.0438 32.592 42.0559 32.664C42.0681 32.7361 38.9121 32.8801 38.7794 33.0013C38.6467 33.1225 41.6329 33.2166 43.2509 33.2755C44.8689 33.3345 45.0281 33.3555 43.2831 33.3853C41.538 33.4151 37.8837 33.4531 36.9323 33.9246C35.9808 34.3962 37.8429 35.3001 38.7365 35.8104C39.6302 36.3208 39.499 36.4102 38.5056 36.8266C37.5121 37.2429 35.6605 37.9835 34.5806 38.3925C33.5007 38.8015 33.2487 38.8565 35.3832 38.7749C37.5177 38.6933 42.0463 38.4734 44.6444 38.3879C47.2425 38.3024 47.7729 38.358 47.9322 38.4323C48.0916 38.5065 47.8639 38.5978 45.2402 38.6717C42.6164 38.7455 37.6035 38.7993 34.9679 38.8194C32.3324 38.8395 32.2261 38.8244 32.4473 38.8188C32.6686 38.8132 33.2206 38.8176 35.3723 39.2823C37.524 39.747 41.2586 40.6719 43.5311 41.2922C45.8036 41.9124 46.5008 42.2 46.8083 42.4036C47.1157 42.6073 47.0123 42.7183 44.379 42.8195C41.7457 42.9206 36.5857 43.0086 34.4203 43.0425C32.2548 43.0764 33.2403 43.0535 34.8757 43.1885C36.5111 43.3235 38.7665 43.617 39.9922 43.7837C41.2179 43.9504 41.3455 43.9813 41.2983 44.031C41.251 44.0808 41.0251 44.1484 39.2699 44.2006C37.5148 44.2527 34.2374 44.2873 32.9687 44.3065C31.7 44.3256 32.5393 44.3283 33.9039 44.4862C35.2685 44.6441 37.133 44.9572 38.5566 45.2483C40.921 45.7317 41.9458 46.1192 42.0317 46.2482C42.0739 46.3115 41.9459 46.4218 41.8444 46.5006C41.743 46.5794 41.6291 46.6365 40.303 46.9624C38.977 47.2883 36.4421 47.8813 37.1997 48.5927C37.9574 49.3041 42.0844 50.1159 44.1322 50.591C46.18 51.0661 46.0237 51.1798 44.2609 51.2682C42.4982 51.3566 39.1338 51.4162 37.111 51.4193C35.0881 51.4224 34.5088 51.3672 34.3615 51.3423C34.2142 51.3175 34.5165 51.3247 37.0746 51.8656C39.6326 52.4066 44.4373 53.481 46.9704 54.0596C49.5035 54.6382 49.6194 54.6884 49.5999 54.7308C49.5804 54.7732 49.422 54.8063 47.8391 54.7001C46.2562 54.5939 43.2536 54.3474 40.8909 54.0561C38.5282 53.7648 36.8964 53.4361 35.9011 53.2145C34.5886 52.9223 34.1378 52.7047 33.8817 52.5472C33.6582 52.4098 33.5415 52.2103 33.4675 51.9947C33.4241 51.8685 33.4309 51.6907 33.5078 51.5369C33.6733 51.2054 34.2769 50.9896 35.3624 50.7168C37.1265 50.2735 39.2474 50.2767 39.0793 50.2176C37.9913 49.8353 34.6106 50.0424 32.8737 49.9128C31.1368 49.7832 31.0804 49.6442 31.1414 49.4916C31.2884 49.1235 31.8265 48.8395 32.9181 48.3137C33.7339 47.9207 35.1498 47.4223 36.8175 47.0454C38.4852 46.6685 40.3794 46.4667 41.4041 46.3628C42.4288 46.2588 42.5267 46.2588 41.5382 46.378C40.5498 46.4971 38.4721 46.7355 37.2652 46.8584C36.0583 46.9814 35.785 46.9817 35.6311 46.9186C35.4771 46.8554 35.4507 46.7288 35.478 46.6186C35.6032 46.1125 36.5731 45.8006 38.667 45.4454C39.8987 45.2365 42.0929 45.3166 43.2635 45.293C44.5304 45.2675 44.7398 45.3294 44.8654 45.427C44.9146 45.4653 44.7996 45.5694 44.7059 45.6322C44.6123 45.695 44.5091 45.7361 43.6007 45.8749C40.9855 46.2744 39.0645 46.4913 39.7229 46.5375C40.5356 46.5944 42.3229 46.676 43.3927 46.7508C45.2211 46.8788 45.5907 47.1348 45.7455 47.2883C45.9258 47.467 45.8349 47.8037 45.7351 48.0895C45.6145 48.4353 45.0853 48.8964 44.1741 49.6205C42.9265 50.6118 41.5881 51.1725 40.3243 51.5583C39.5385 51.7981 38.4185 51.982 36.9691 52.1121C35.5196 52.2423 33.7642 52.2758 33.0908 52.2931C32.4174 52.3105 32.8793 52.3105 34.0172 52.5499C35.1551 52.7894 36.9552 53.2684 38.0881 53.5973C39.6451 54.0493 40.1546 54.3131 40.2135 54.4494C40.2501 54.5339 39.9946 54.6447 38.9317 54.7184C37.8688 54.7921 35.928 54.8241 34.3009 54.7565C31.4119 54.6363 30.0311 54.3369 30.1708 54.3304C30.4055 54.3195 30.9735 54.3517 32.921 54.7509C34.8686 55.15 38.1787 55.9301 39.928 56.3527C41.6773 56.7753 41.7653 56.8168 41.7753 56.8842C41.7853 56.9516 41.7146 57.0436 41.4943 57.1499C41.274 57.2562 40.9062 57.3741 39.9282 57.4492C38.9503 57.5244 37.3733 57.5532 36.1869 57.5012C34.2454 57.416 33.1446 57.0692 32.9331 56.8678C32.8199 56.7599 33.6574 56.7 34.5327 56.7102C35.408 56.7205 36.5418 56.8178 38.854 57.275C41.1662 57.7322 44.6225 58.5464 46.3319 58.9864C48.0414 59.4265 47.8993 59.4678 47.541 59.4744C47.1826 59.4811 46.6123 59.4519 45.3925 59.2306C44.1727 59.0093 42.3206 58.5968 41.1732 58.3826C39.65 58.0981 39.0919 58.2071 38.8206 58.3007C37.579 58.7287 35.2677 60.1105 34.5679 60.277C34.4472 60.3057 34.3181 60.2847 34.4473 60.2972C34.5764 60.3098 34.9645 60.335 36.3924 60.6636C37.8204 60.9922 40.2765 61.6235 41.7213 62.0157C43.1661 62.408 43.5252 62.5421 43.6201 62.6223C43.7149 62.7025 43.5346 62.7247 41.3884 62.4386C39.2421 62.1524 35.1353 61.5572 33.4302 61.2486C31.7251 60.9401 32.5462 60.9363 34.454 61.2322C36.3619 61.528 39.3316 62.1236 40.9777 62.4699C42.6239 62.8162 42.8565 62.8951 42.9275 62.9434C42.9844 62.9821 42.1 63.0183 40.6125 62.9483C39.8234 62.9112 38.9723 62.756 38.0475 62.6606C36.1557 62.4654 34.9128 62.6474 34.3971 63.0334C33.8593 63.4359 33.1937 63.5894 32.8078 63.7102C32.7139 63.7396 32.8733 63.8023 34.1527 64.0136C35.4321 64.2249 37.8384 64.608 39.1271 64.8272C40.4158 65.0464 40.5139 65.0901 40.4955 65.1455C40.477 65.201 40.3391 65.2668 38.3442 65.4354C36.3492 65.604 32.5013 65.8733 30.9174 65.9625C29.3335 66.0517 30.1302 65.9525 30.9864 65.8945C31.8427 65.8365 32.7344 65.8227 33.4802 65.8622C34.226 65.9016 34.7989 65.9948 35.7896 66.2009C36.7804 66.4069 38.1717 66.7229 39.0805 66.8886C40.3634 67.1226 41.4825 66.9548 42.2308 66.8364C42.861 66.7366 40.0315 67.0492 38.5176 67.0522C37.53 67.0542 36.7382 66.8425 36.1311 66.6103C35.9307 66.5337 36.0346 66.3741 37.308 66.116C38.5814 65.8578 41.043 65.4634 43.032 65.2302C45.021 64.9969 46.4629 64.9368 46.6081 64.7511C47.3232 63.8367 44.1766 63.8538 43.9273 63.675C43.5464 63.402 43.796 62.9133 43.8412 62.751C43.9764 62.2653 42.503 62.7643 42.1486 62.6357C41.6723 62.4628 42.067 61.5764 42.2799 61.1592C42.4812 60.7646 42.9415 60.5631 43.0284 60.4104C43.1953 60.1171 42.2659 60.2589 42.007 60.0913C41.8374 59.9282 41.7252 59.7376 41.6377 59.5132C41.5994 59.3974 41.5734 59.2774 41.5466 59.1538" stroke="#439EC6" stroke-width="2" stroke-linecap="round"/>
</svg>
