<svg width="80" height="92" viewBox="0 0 80 92" fill="none" xmlns="http://www.w3.org/2000/svg">
<path d="M57.2426 1.07035C57.2711 1.0557 57.3225 1.61637 57.7585 4.04795C58.0947 5.92368 58.9178 9.05262 59.5237 11.4048C60.5109 15.2372 61.0537 16.8937 61.172 17.2713C61.3273 17.7671 61.8544 19.2985 62.4831 21.2636C62.7101 21.9731 62.4696 22.1733 57.1078 24.5959C51.7461 27.0184 41.1988 31.6765 35.5569 34.2062C29.915 36.7358 29.4983 36.9958 29.0258 37.2779C26.5802 38.9987 24.3713 41.1185 23.6806 42.0624C23.3187 42.5863 22.9337 43.2016 22.5371 43.8355" stroke="black" stroke-width="2" stroke-linecap="round"/>
<path d="M24.352 41.533C24.3387 41.533 23.7849 42.3397 22.1797 45.6652C20.9921 48.1256 19.5682 52.3903 18.5955 55.3945C17.6228 58.3987 17.2776 60.0732 17.0875 62.0642C16.6833 66.2982 16.89 68.9855 16.9965 69.6549C17.6552 71.2884 18.6199 72.93 18.8724 73.2156C19.0171 73.3564 19.1951 73.4888 19.582 73.7463" stroke="black" stroke-width="2" stroke-linecap="round"/>
<path d="M19.8477 73.799C19.8537 73.799 19.8598 73.799 22.1281 73.8531C24.3965 73.9071 28.927 74.0153 31.6032 73.992C34.2794 73.9688 34.9642 73.8108 35.9633 73.5159C36.9624 73.2209 38.2551 72.7937 39.7805 72.2818C43.0268 71.1923 45.2022 70.4059 45.9438 70.0414C47.2269 69.4109 47.8922 68.2386 48.332 67.1099C49.0263 65.3282 48.981 63.7852 48.9743 63.2858C48.9713 63.0668 48.7146 62.9588 48.4434 62.8979C47.841 62.7626 47.2795 62.8569 45.5508 63.3469C44.0085 63.7842 41.155 64.737 38.977 65.327C35.428 66.2884 32.9902 66.4025 31.4896 66.3451C30.9392 66.324 30.8345 66.1163 30.7504 65.9309C30.5776 65.5499 30.5477 64.0512 30.8431 61.1532C31.2171 57.4847 32.6051 55.0897 33.2377 53.9588C34.6715 51.396 36.1903 50.2666 37.3405 49.3162C37.7835 48.9502 40.4544 48.67 45.3627 48.1628C47.9754 47.8928 50.8683 47.9858 53.562 48.174C56.2557 48.3621 58.6708 48.7418 60.0556 48.9438C61.4403 49.1458 61.7215 49.1586 62.0112 49.1717" stroke="black" stroke-width="2" stroke-linecap="round"/>
<path d="M62.0512 49.1716C62.0573 49.1716 62.0633 49.1716 64.3411 49.1753C66.6189 49.179 71.1682 49.1863 73.6176 49.23C76.067 49.2737 76.2787 49.3537 76.4622 49.4557C77.1489 49.8377 77.9404 51.3278 78.5424 52.7571C78.7045 53.1419 78.7207 53.6704 78.7625 54.8898C78.8402 57.1612 78.4152 59.98 77.7701 62.5376C76.8212 66.2994 75.5369 67.726 74.18 68.9073C73.3372 69.6411 72.2175 70.0587 71.0094 70.4207C69.584 70.8478 67.4568 70.7614 65.2084 70.6361C63.5694 70.5447 62.6493 70.114 62.1796 70.1572C61.5786 70.2124 61.5607 73.3716 61.1673 77.2338C60.9298 79.5657 60.3297 81.0671 59.497 82.6539C57.0366 85.7869 55.7586 86.8576 54.6268 87.5042C53.8917 87.8772 52.8302 88.3417 51.3162 88.9514" stroke="black" stroke-width="2" stroke-linecap="round"/>
<path d="M51.3162 88.9514C51.106 88.9619 48.9315 89.3999 44.1234 90.0373C41.1568 90.4305 37.0491 90.2698 34.6993 90.2413C32.3496 90.2127 31.8638 90.1432 31.4657 90.0569C31.0677 89.9706 30.772 89.8695 30.1416 89.6069" stroke="black" stroke-width="2" stroke-linecap="round"/>
<path d="M30.1415 89.6072C30.1168 89.6072 30.0922 89.6072 28.7846 89.5962C27.4771 89.5852 24.8875 89.5632 21.8562 89.0706C18.825 88.578 15.4305 87.6154 13.1012 86.8881C10.7719 86.1607 9.61058 85.6977 8.41406 85.2207" stroke="black" stroke-width="2" stroke-linecap="round"/>
<path d="M8.41419 85.2206C8.17887 85.1373 7.03979 84.3599 5.3727 82.4093C4.19476 81.0311 3.72947 79.7253 3.37424 78.1829C3.08887 76.9437 2.77738 74.7385 2.51086 72.957C2.24434 71.1756 2.08011 69.8747 1.95273 69.0607C1.82534 68.2466 1.73977 67.9587 1.65161 67.6621" stroke="black" stroke-width="2" stroke-linecap="round"/>
<path d="M1.65161 67.6621C1.65161 67.6558 1.65161 67.6495 1.65161 65.7639C1.65161 63.8783 1.65161 60.1136 1.93541 56.339C2.2192 52.5644 2.78679 48.894 3.47745 44.7966" stroke="black" stroke-width="2" stroke-linecap="round"/>
<path d="M3.47729 44.7967C3.47729 44.759 3.50073 42.894 3.61981 39.7545C3.66898 38.4582 3.88262 37.7747 4.40588 36.6246C4.92913 35.4744 5.80343 33.8808 7.31671 31.85C8.83 29.8191 10.9558 27.3991 13.3501 24.7429" stroke="black" stroke-width="2" stroke-linecap="round"/>
<path d="M13.4377 24.6549C13.4746 24.593 14.5957 23.5102 16.7914 21.6298C17.834 20.7369 18.9367 20.2239 21.3087 19.1758C23.6806 18.1277 27.341 16.6253 29.3198 15.83C31.2986 15.0346 31.485 14.9917 31.6771 14.9475" stroke="black" stroke-width="2" stroke-linecap="round"/>
<path d="M31.717 14.9473C31.7294 14.9347 31.7417 14.9222 33.175 13.641C34.6083 12.3598 37.4621 9.81036 39.2169 8.29377C40.9717 6.77717 41.541 6.37067 42.964 5.53615C44.387 4.70162 46.6464 3.45137 49.2704 2.01807" stroke="black" stroke-width="2" stroke-linecap="round"/>
<path d="M49.2705 2.01807H57.3226" stroke="black" stroke-width="2" stroke-linecap="round"/>
</svg>
