<svg width="74" height="96" viewBox="0 0 74 96" fill="none" xmlns="http://www.w3.org/2000/svg">
<path d="M6.07456 2.55458C6.08167 2.54015 6.08878 2.52571 5.88899 12.1385C5.6892 21.7513 5.28228 40.9918 4.86304 60.8153" stroke="black" stroke-width="2" stroke-linecap="round"/>
<path d="M4.86304 60.9023C4.86304 60.9083 4.86304 60.9144 4.87988 64.2481C4.89672 67.5817 4.9304 74.2428 4.98395 78.563C5.03749 82.8833 5.10988 84.661 5.17008 85.6594C5.26246 87.1916 5.76969 88.1201 7.05103 90.5974C7.40921 91.2898 7.76481 91.4954 8.33983 91.6879C8.74633 91.824 9.42323 91.9098 11.7552 91.9795C14.0871 92.0493 18.0631 92.0677 20.632 91.995C23.2009 91.9222 24.2422 91.7578 24.8464 91.6233C25.4507 91.4888 25.5865 91.3892 25.6706 89.3531C25.7546 87.3171 25.7829 83.3475 26.1103 78.9152C26.4377 74.4828 27.0635 69.708 27.4785 66.9984C28.0789 63.7889 28.7143 62.4513 29.6064 60.8923C30.0541 60.1558 30.4918 59.5305 31.0435 58.7715" stroke="black" stroke-width="2" stroke-linecap="round"/>
<path d="M31.084 58.731C31.0901 58.731 31.0961 58.731 33.7455 58.731C36.395 58.731 41.6876 58.731 44.4169 64.5529C47.1462 70.3748 47.1519 82.0186 47.211 94.3728" stroke="black" stroke-width="2" stroke-linecap="round"/>
<path d="M47.2109 94.3729C47.2352 94.3729 47.5124 94.3245 51.7657 92.4588C55.7545 90.6414 63.4593 87.0563 67.5074 85.1556C71.5555 83.2549 71.7135 83.1472 72.0284 82.9138" stroke="black" stroke-width="2" stroke-linecap="round"/>
<path d="M72.0285 82.9136C72.0285 82.8885 71.984 82.4702 71.0079 78.595C70.0763 75.1253 68.2591 68.6035 66.7851 60.0858C65.3111 51.568 64.2353 41.2518 63.127 30.623" stroke="black" stroke-width="2" stroke-linecap="round"/>
<path d="M62.9005 30.3397C62.9005 30.3334 62.9005 30.3271 62.9005 25.8762C62.9005 21.4252 62.9005 12.5298 62.8424 7.88382C62.7844 3.23784 62.6682 3.11085 60.073 3.04051C57.4778 2.97017 52.4069 2.96034 49.2279 3.00423C46.0489 3.04812 44.9154 3.14603 43.7476 3.24691" stroke="black" stroke-width="2" stroke-linecap="round"/>
<path d="M43.7476 3.24707C43.7476 3.26548 43.7476 3.28389 43.7189 7.98628C43.6901 12.6887 43.6326 22.0745 43.5978 27.01C43.563 31.9456 43.5528 32.1464 43.5422 32.3533" stroke="black" stroke-width="2" stroke-linecap="round"/>
<path d="M32.6531 32.3533H43.5422" stroke="black" stroke-width="2" stroke-linecap="round"/>
<path d="M27.3081 32.3533H32.565" stroke="black" stroke-width="2" stroke-linecap="round"/>
<path d="M27.1116 33.1032C27.1116 33.1097 27.1116 33.1162 27.1021 31.8081C27.0926 30.5 27.0735 27.8771 26.7511 23.6071C26.4286 19.3371 25.8032 13.4995 25.1994 9.52112C24.5956 5.54272 24.0322 3.6004 23.6354 2.58905C23.2387 1.57769 23.0257 1.55614 19.456 1.78092C15.8862 2.00571 8.96618 2.47748 1.83643 2.96354" stroke="black" stroke-width="2" stroke-linecap="round"/>
</svg>
