<svg width="64" height="98" viewBox="0 0 64 98" fill="none" xmlns="http://www.w3.org/2000/svg">
<path d="M4.9761 2.01448C4.96166 2.00716 4.94722 1.99983 4.93257 4.40502C4.91792 6.8102 4.90348 11.6281 4.50032 14.9607C3.30572 19.9946 2.37774 22.1006 2.19412 22.7212C2.12307 22.9885 2.09691 23.1595 2.1955 23.4275" stroke="black" stroke-width="2" stroke-linecap="round"/>
<path d="M1.7417 23.4275C1.76053 23.4275 1.77936 23.4275 4.93077 23.4275C8.08219 23.4275 14.3656 23.4275 17.6069 23.508C20.8482 23.5886 20.857 23.7497 21.0942 24.2538C21.3314 24.7579 21.7967 25.6002 23.2275 29.1641C24.6583 32.728 27.0406 38.988 28.3561 42.7048C29.6716 46.4216 29.8482 47.4055 29.9574 48.6182C30.193 51.2358 30.0867 53.117 29.9851 54.2451C29.9215 54.9518 29.8972 55.9357 30.0198 57.1702C30.1424 58.4048 30.429 59.8616 30.6489 62.7666C30.8687 65.6716 31.013 69.9807 31.1618 74.4204" stroke="black" stroke-width="2" stroke-linecap="round"/>
<path d="M29.9114 73.948C29.8867 73.948 29.3428 73.9723 27.2375 74.363C25.6483 74.658 23.0621 75.4375 20.7492 75.9109C18.4363 76.3843 16.4905 76.6016 14.9397 76.7149C13.389 76.8281 12.2923 76.8306 11.1624 76.8332" stroke="black" stroke-width="2" stroke-linecap="round"/>
<path d="M11.1624 76.8333L11.1807 96.7793" stroke="black" stroke-width="2" stroke-linecap="round"/>
<path d="M11.2214 96.7791C11.2461 96.7791 11.2708 96.7791 15.8684 96.3225C20.4659 95.8659 29.6356 94.9527 36.3617 93.9104C43.0877 92.8681 47.0922 91.7243 50.377 90.4983C53.6619 89.2722 56.1056 87.9986 58.7896 86.6597" stroke="black" stroke-width="2" stroke-linecap="round"/>
<path d="M58.7894 86.6596C58.7894 86.6471 58.7894 86.6345 58.7894 83.5055C58.7894 80.3764 58.7894 74.1313 58.7319 70.8459C58.6743 67.5605 58.5593 67.4241 58.1455 67.2129C57.0532 66.6555 55.1306 66.2714 52.4449 66.0151C50.9207 65.917 49.0689 65.8838 48.0282 65.8491C46.9875 65.8144 46.8138 65.7792 46.5854 65.7214" stroke="black" stroke-width="2" stroke-linecap="round"/>
<path d="M42.2366 65.7214H46.5856" stroke="black" stroke-width="2" stroke-linecap="round"/>
<path d="M42.2366 33.1057V65.7216" stroke="black" stroke-width="2" stroke-linecap="round"/>
<path d="M42.2366 30.1658V33.0649" stroke="black" stroke-width="2" stroke-linecap="round"/>
<path d="M42.2366 30.1659C42.2726 30.1659 44.9079 30.1178 50.1026 29.7619C52.6805 29.4542 55.1402 28.8883 57.1046 28.266C59.069 27.6437 60.4636 26.9822 62.0564 26.2334" stroke="black" stroke-width="2" stroke-linecap="round"/>
<path d="M61.9689 26.3201C61.9689 26.295 61.9329 25.4298 61.724 23.0205C61.5887 21.4599 61.2423 19.228 61.0518 17.4603C60.7293 14.4672 60.5222 12.0738 60.0826 10.0575C59.617 8.51182 59.3194 7.65811 59.2396 7.23004C59.2124 6.98944 59.2124 6.70135 59.2124 6.40454" stroke="black" stroke-width="2" stroke-linecap="round"/>
<path d="M5.97778 1.86288C5.97778 1.85619 5.97778 1.84949 9.78353 1.83297C13.5893 1.81644 21.2008 1.79029 29.022 2.25811C36.8431 2.72593 44.6433 3.68851 49.1473 4.20781C53.6513 4.72712 54.6227 4.77398 55.822 4.91758C57.0214 5.06118 58.4193 5.3001 59.4806 5.42318C60.5419 5.54626 61.2241 5.54626 62.374 5.61282" stroke="black" stroke-width="2" stroke-linecap="round"/>
</svg>
