<svg width="71" height="95" viewBox="0 0 71 95" fill="none" xmlns="http://www.w3.org/2000/svg">
<path d="M4.8874 1.6731C4.8807 1.6731 4.87401 1.6731 4.86721 5.64726C4.86042 9.62142 4.85372 17.5698 4.98947 25.9396" stroke="black" stroke-width="2" stroke-linecap="round"/>
<path d="M4.9895 25.9397H26.7068" stroke="black" stroke-width="2" stroke-linecap="round"/>
<path d="M26.7068 25.9397C26.7189 25.9397 27.3631 25.9485 28.4675 25.9937C29.2162 26.0244 30.5124 28.0867 32.2682 31.6727C33.0667 33.3034 33.4328 34.6641 33.8355 37.2334C34.2381 39.8028 34.6035 43.5685 35.0062 46.5956C35.4088 49.6226 35.8375 51.7967 36.067 53.3124C36.2965 54.8281 36.3139 55.6196 36.3317 56.435" stroke="black" stroke-width="2" stroke-linecap="round"/>
<path d="M36.3316 56.4348C36.3065 56.4348 34.1584 57.1804 29.9449 58.6461C27.8675 59.3687 25.9098 60.0378 22.1142 61.562C18.3185 63.0861 12.7433 65.4422 9.24676 66.8382C5.75027 68.2342 4.5015 68.5986 3.64667 68.8269C2.79185 69.0551 2.36883 69.1361 1.75928 69.2246" stroke="black" stroke-width="2" stroke-linecap="round"/>
<path d="M1.75944 69.2246C1.75944 69.2614 1.62575 69.8168 1.39014 70.8943C1.15865 71.953 1.15692 73.7425 1.8777 77.9115C2.59554 80.8485 4.02822 85.453 4.80727 87.897C5.58632 90.341 5.66833 90.4849 5.75282 90.6332" stroke="black" stroke-width="2" stroke-linecap="round"/>
<path d="M5.75269 90.6332C5.75269 90.6454 5.75269 91.7707 5.99506 93.4283C6.23743 93.9668 6.72217 93.8908 10.6002 92.6798C14.4783 91.4688 21.735 89.125 29.609 86.6348" stroke="black" stroke-width="2" stroke-linecap="round"/>
<path d="M29.6091 86.5942C29.9177 86.5867 31.773 86.1459 36.1061 84.1788C39.173 82.6373 44.0025 79.9927 46.9132 78.3494C49.8239 76.7062 50.6695 76.1444 51.5407 75.5657" stroke="black" stroke-width="2" stroke-linecap="round"/>
<path d="M51.5406 75.5656C51.5406 75.5533 51.5406 75.541 51.5048 69.7013C51.4689 63.8616 51.3971 52.195 51.3474 46.0773C51.2977 39.9595 51.2721 39.7443 51.2458 39.5225" stroke="black" stroke-width="2" stroke-linecap="round"/>
<path d="M51.1196 39.0179C51.1196 38.9932 51.0418 36.4243 50.9567 32.4251C50.8997 29.7437 51.9949 28.1978 52.1847 27.909C52.3885 27.5989 54.127 27.3285 56.8907 26.8233C59.3485 26.374 61.3034 26.1442 62.895 25.6285C65.7761 24.5659 66.3255 24.3985 67.0169 24.1959C67.4863 24.0568 68.1963 23.8438 69.2753 23.5325" stroke="black" stroke-width="2" stroke-linecap="round"/>
<path d="M69.2753 23.5325C69.2753 23.4948 69.2372 20.9743 68.9289 15.5314C68.7618 12.5819 68.1574 9.28275 67.7761 7.25613C67.3949 5.22951 67.1489 4.58326 66.9973 4.14678C66.8458 3.71031 66.7962 3.50319 66.7451 3.28979" stroke="black" stroke-width="2" stroke-linecap="round"/>
<path d="M66.7453 3.28979C66.7016 3.28979 66.6578 3.28979 59.4576 3.63416C52.2574 3.97852 37.902 4.66724 30.403 5.0508C22.904 5.43436 22.6965 5.49189 22.4827 5.55117" stroke="black" stroke-width="2" stroke-linecap="round"/>
<path d="M22.4827 5.55099C22.458 5.55099 20.8337 5.55099 17.8796 5.48236C16.5357 5.45115 15.5124 5.2765 13.9475 4.89805C10.2812 4.01136 7.75301 3.18878 6.68387 2.93127C6.03378 2.75493 5.16534 2.48589 4.5143 2.26747C3.86326 2.04906 3.45593 1.88943 2.82007 1.69897" stroke="black" stroke-width="2" stroke-linecap="round"/>
</svg>
