<svg width="71" height="104" viewBox="0 0 71 104" fill="none" xmlns="http://www.w3.org/2000/svg">
<path d="M1.40137 5.33765C1.40137 5.35648 1.40137 5.3753 1.40137 11.3513C1.40137 17.3272 1.40137 29.2598 1.81989 40.2466C2.23842 51.2334 3.07547 60.913 3.93789 70.8859" stroke="black" stroke-width="2" stroke-linecap="round"/>
<path d="M3.93799 70.8857C3.93799 70.9163 3.93799 70.9468 3.96592 73.1329C3.99385 75.319 4.04971 79.6597 4.17336 82.7564C4.29701 85.8531 4.48677 87.5743 4.58504 88.8045C4.68332 90.0347 4.68436 90.7217 4.68544 91.4296" stroke="black" stroke-width="2" stroke-linecap="round"/>
<path d="M4.72266 91.4297C4.73354 91.7581 4.86065 92.836 5.93035 96.636C6.16644 98.0798 6.40743 99.749 6.78546 101.602C6.9432 102.314 7.03169 102.563 7.2877 102.889" stroke="black" stroke-width="2" stroke-linecap="round"/>
<path d="M31.1973 102.381C31.1973 102.369 31.1973 102.356 31.2051 100.448C31.213 98.5406 31.2286 94.7378 31.4142 91.7411C31.5998 88.7444 31.9549 86.669 32.252 85.2238C32.5491 83.7786 32.7776 83.0265 32.9297 82.5552C33.0818 82.0838 33.1506 81.916 33.3084 81.4775" stroke="black" stroke-width="2" stroke-linecap="round"/>
<path d="M33.3086 81.4775C33.3446 81.4775 33.5324 81.4775 33.9116 81.5102C34.3759 81.5501 35.3224 82.0959 38.7728 85.0646C41.6138 87.5091 46.2942 92.2762 49.0565 94.8877C52.4258 97.9177 53.6898 98.7044 54.9253 99.4501C55.522 99.8401 56.0574 100.254 56.692 100.817" stroke="black" stroke-width="2" stroke-linecap="round"/>
<path d="M56.6918 100.817C56.6918 100.804 56.9104 100.431 58.1622 98.7173C59.1632 97.3473 61.0364 95.0582 62.5586 93.2778C64.0808 91.4974 65.2283 90.32 66.1898 89.4183C67.8407 87.8701 69.0193 87.0806 69.0755 86.1972C69.1208 85.4833 67.7751 84.5059 63.2778 78.7815C58.7806 73.0572 50.8082 62.686 46.5722 57.2141C42.3362 51.7421 42.0783 51.4838 41.583 50.9221" stroke="black" stroke-width="2" stroke-linecap="round"/>
<path d="M42.5635 53.5087C42.5635 53.4706 42.6346 53.2466 44.8905 49.068C47.0449 45.0772 51.3713 37.3559 54.2497 32.5109C57.128 27.6659 58.4584 25.9483 59.8645 24.4248C61.2707 22.9014 62.7124 21.6242 63.5573 20.8475C64.4022 20.0708 64.6066 19.8333 64.9211 19.4365" stroke="black" stroke-width="2" stroke-linecap="round"/>
<path d="M64.921 19.4364C64.9298 18.7818 65.0635 16.9102 65.315 15.9737C65.3716 15.7629 65.4815 15.5818 65.479 15.4198C65.4765 15.2577 65.3777 15.1263 62.2397 14.9463C59.1016 14.7663 52.9271 14.5416 49.6181 14.3944C45.494 14.1165 44.5045 14.0644 43.6072 13.9222C43.1018 13.8268 42.4947 13.6839 41.8267 13.5132" stroke="black" stroke-width="2" stroke-linecap="round"/>
<path d="M42.8511 13.0029C42.8377 13.0029 42.8055 13.4584 42.4805 15.0228C42.2469 16.1474 41.6076 17.8802 40.1901 20.9363C38.7726 23.9924 36.5282 28.303 34.4111 31.8203C32.294 35.3375 30.3722 37.9309 29.2938 39.4179C28.2155 40.905 28.039 41.2071 27.6422 41.9311C27.2455 42.6552 26.634 43.792 25.9146 45.1561" stroke="black" stroke-width="2" stroke-linecap="round"/>
<path d="M25.9146 1.02271V45.156" stroke="black" stroke-width="2" stroke-linecap="round"/>
<path d="M25.9146 1.02271C25.8644 1.02271 25.2854 1.0384 21.46 1.65821C18.1752 2.19042 12.2131 3.45442 8.92215 4.14645C5.63122 4.83848 5.20506 4.99435 4.53174 5.28374C3.85843 5.57314 2.95087 5.99136 1.81738 6.45204" stroke="black" stroke-width="2" stroke-linecap="round"/>
<path d="M7.2876 102.889C7.3058 102.889 7.324 102.889 10.9635 102.889C14.603 102.889 21.8632 102.889 25.7504 102.882C29.6376 102.876 29.9318 102.863 30.1985 102.808C30.4652 102.752 30.6955 102.655 31.1972 102.382" stroke="black" stroke-width="2" stroke-linecap="round"/>
</svg>
