<svg width="60" height="81" viewBox="0 0 60 81" fill="none" xmlns="http://www.w3.org/2000/svg">
<path d="M3.07352 2.53149C3.07352 2.54384 3.07352 2.55618 3.02812 10.8276C2.98272 19.099 2.89193 35.6292 2.76722 46.2147C2.64251 56.8001 2.48665 60.94 2.38722 64.3772C2.28778 67.8143 2.2495 70.4234 2.24023 71.9287C2.29437 74.3391 2.55861 76.0279 2.81628 77.6592C2.86055 78.0391 2.898 78.4673 2.97842 79.1298" stroke="black" stroke-width="2" stroke-linecap="round"/>
<path d="M2.97852 79.1298C2.99086 79.1298 3.0032 79.1298 9.69185 78.8611C16.3805 78.5924 29.7451 78.0549 38.2071 77.888C46.6691 77.721 49.8236 77.9409 52.247 78.2014C54.6704 78.4618 56.2671 78.7562 57.9121 79.0595" stroke="black" stroke-width="2" stroke-linecap="round"/>
<path d="M57.9121 79.0596C57.9121 79.0534 57.9121 79.0471 57.9121 75.9408C57.9121 72.8346 57.9121 66.6286 57.9549 63.1116C57.9977 59.5947 58.0832 58.9549 58.1727 58.1348" stroke="black" stroke-width="2" stroke-linecap="round"/>
<path d="M58.1726 58.1348C58.1604 58.1348 58.1483 58.1348 53.8515 58.1504C49.5548 58.1659 40.9738 58.1971 32.1328 58.2292" stroke="black" stroke-width="2" stroke-linecap="round"/>
<path d="M28.9878 58.229H32.1329" stroke="black" stroke-width="2" stroke-linecap="round"/>
<path d="M28.9878 58.2291C28.9878 58.2166 28.9878 58.204 28.9696 51.1378C28.9514 44.0717 28.915 29.9523 28.539 21.3476C28.163 12.743 27.4486 10.081 27.0537 8.37303C26.4343 4.90405 26.0061 3.73266 25.0712 2.7986C24.7514 2.54821 24.3771 2.30113 23.8533 1.95337" stroke="black" stroke-width="2" stroke-linecap="round"/>
<path d="M23.8533 1.95334C23.8472 1.95334 23.8412 1.95334 20.3072 1.9502C16.7732 1.94706 9.71153 1.94078 5.88801 1.90408C2.0645 1.86737 1.69315 1.80042 1.31055 1.73145" stroke="black" stroke-width="2" stroke-linecap="round"/>
</svg>
