<svg width="86" height="86" viewBox="0 0 86 86" fill="none" xmlns="http://www.w3.org/2000/svg">
<path d="M1.43242 76.2682C1.41903 76.2682 1.63599 76.2868 4.51372 77.3436C7.18877 78.326 12.2447 80.4389 14.897 81.4136C17.5493 82.3884 17.623 82.2183 19.4068 74.7716C21.1906 67.3248 24.6823 52.6067 26.5789 44.443C28.4755 36.2793 28.6711 35.1161 28.8092 34.5956C28.9473 34.0751 29.022 34.2327 31.8355 38.3613C34.6491 42.49 40.1992 50.585 43.1956 55.069C46.192 59.5531 46.4665 60.1809 46.6872 60.7688C47.3818 62.619 47.4045 63.4516 47.6386 64.1225C48.2815 65.9654 50.4167 69.3015 50.9062 70.4365C50.9893 70.6289 51.0859 70.7718 51.1784 70.7427C51.8528 70.5302 51.6498 69.5809 52.5572 66.801C53.4025 64.2115 55.0678 59.2413 56.9674 54.6246C58.8671 50.0079 60.9604 45.8986 62.2344 43.4687C63.8997 40.4128 64.5398 39.4802 64.9591 38.9822C65.1413 38.7719 65.2616 38.6476 65.5878 38.2869" stroke="black" stroke-width="2" stroke-linecap="round"/>
<path d="M65.5879 38.2871C65.5879 38.3181 65.5879 38.349 65.5922 43.8886C65.5965 49.4281 65.605 60.4752 65.6381 67.2884C65.6712 74.1016 65.7285 76.346 65.8294 78.8087" stroke="black" stroke-width="2" stroke-linecap="round"/>
<path d="M65.8293 78.8086C65.8354 78.8086 65.8415 78.8086 68.0948 78.8029C70.3481 78.7971 74.8484 78.7856 77.4983 78.7207C81.6914 78.3806 82.3309 78.2839 82.8525 78.2244C83.134 78.1893 83.4495 78.1443 84.1822 78.0935" stroke="black" stroke-width="2" stroke-linecap="round"/>
<path d="M84.1028 78.3007C84.1028 78.3071 84.1028 78.3136 84.0138 72.6624C83.9248 67.0112 83.7468 55.7021 83.5215 43.8652" stroke="black" stroke-width="2" stroke-linecap="round"/>
<path d="M83.3802 43.8653C83.3802 43.859 83.3802 43.8527 83.3087 41.2668C83.2373 38.6809 83.0944 33.5154 82.5049 27.5645C81.9154 21.6136 80.8835 15.0337 80.1119 10.7988C79.3403 6.56384 78.8602 4.87321 78.3655 3.13135" stroke="black" stroke-width="2" stroke-linecap="round"/>
<path d="M78.2781 3.04386C78.2781 3.03131 78.1798 2.63613 77.9408 2.02353C77.8448 1.77722 77.6203 1.75236 77.3396 1.73218C77.059 1.71201 76.683 1.72038 73.7456 2.36289C70.8081 3.0054 65.3205 4.28179 59.3687 5.70337" stroke="black" stroke-width="2" stroke-linecap="round"/>
<path d="M59.3686 5.6228C59.3686 5.65962 59.2395 6.34639 58.4994 8.82017C57.9529 10.6467 56.7991 13.5501 55.2007 16.9866C53.6022 20.4232 51.5275 24.2837 50.4275 26.3707C49.3275 28.4577 49.2652 28.6542 49.2253 28.9174C49.1855 29.1807 49.17 29.5047 49.1541 29.8386" stroke="black" stroke-width="2" stroke-linecap="round"/>
<path d="M49.154 30.5108C49.154 30.5238 48.8572 30.3286 46.3706 27.3585C44.1048 24.6522 40.1073 19.2619 37.5357 15.7845C34.9641 12.3072 34.0178 10.8423 33.263 9.26313C32.5082 7.68399 31.9734 6.03499 31.6494 5.10203C31.3254 4.16908 31.2283 4.00213 31.0884 3.7832" stroke="black" stroke-width="2" stroke-linecap="round"/>
<path d="M31.0884 3.78317C31.0637 3.78317 31.039 3.78317 27.6405 3.76946C24.2419 3.75576 17.4702 3.72835 13.0954 3.54321C8.72058 3.35806 6.94794 3.016 5.12158 2.66357" stroke="black" stroke-width="2" stroke-linecap="round"/>
<path d="M5.12158 2.66357V41.3225" stroke="black" stroke-width="2" stroke-linecap="round"/>
<path d="M5.12152 41.4631C5.12152 41.4753 5.12152 41.4874 4.64442 48.5396C4.16731 55.5917 3.21311 69.6835 2.22998 84.2023" stroke="black" stroke-width="2" stroke-linecap="round"/>
</svg>
