<svg width="71" height="77" viewBox="0 0 71 77" fill="none" xmlns="http://www.w3.org/2000/svg">
<path d="M1.06348 73.2275C1.10072 73.2275 2.85886 73.2595 6.77318 73.4532C8.95187 73.561 11.5076 73.9053 13.1179 74.0799C14.7281 74.2545 15.312 74.3045 15.8063 74.3773C16.3007 74.4502 16.6877 74.5443 17.2716 74.7053" stroke="black" stroke-width="2" stroke-linecap="round"/>
<path d="M16.2708 75.1698C16.2708 75.1564 16.3076 74.5043 17.5587 69.1258C18.6658 64.3662 21.1636 55.5905 22.422 50.9573C23.7338 46.1265 23.8589 45.5832 23.9924 44.9873C24.056 44.7309 24.1112 44.5679 24.1732 44.3062" stroke="black" stroke-width="2" stroke-linecap="round"/>
<path d="M24.1731 44.2258C24.1731 44.2501 24.1823 44.4917 26.1175 48.903C27.9673 53.1195 31.8861 61.2137 34.0982 65.6914C36.3102 70.1691 36.7753 70.7496 37.402 71.499C38.0288 72.2484 38.803 73.1491 39.255 73.687C39.7069 74.2249 39.8129 74.3728 39.9843 74.6451" stroke="black" stroke-width="2" stroke-linecap="round"/>
<path d="M39.9844 74.685C39.9967 74.685 40.0091 74.685 43.9193 74.685C47.8295 74.685 55.6373 74.685 59.9254 74.6503C64.2136 74.6157 64.7456 74.5465 65.1031 74.5026C65.4605 74.4588 65.6273 74.4425 65.9658 74.3826" stroke="black" stroke-width="2" stroke-linecap="round"/>
<path d="M65.9658 74.3826C65.9658 74.3763 65.9658 74.37 65.9804 68.2842C65.9949 62.1984 66.024 50.0332 66.3277 41.0669C66.6314 32.1005 67.2088 26.7016 67.5215 23.8354C67.8342 20.9692 67.8648 20.7994 67.9064 20.4126" stroke="black" stroke-width="2" stroke-linecap="round"/>
<path d="M67.9062 20.4125C67.9062 20.3757 67.9146 17.5638 67.9852 13.0002C68.023 10.5598 68.5941 8.56925 69.1368 6.28036C69.3682 5.30448 69.5103 4.70551 69.6249 4.27414C69.7395 3.84278 69.8223 3.59716 70.0091 3.12158" stroke="black" stroke-width="2" stroke-linecap="round"/>
<path d="M69.7532 6.39029C69.6888 6.39029 69.2093 6.37209 67.4738 6.10821C64.0303 5.58465 61.6672 4.87036 61.2458 4.78858C60.8493 4.6748 59.1567 3.78244 56.7785 2.42879C55.8968 1.90088 55.6753 1.69586 55.447 1.48462" stroke="black" stroke-width="2" stroke-linecap="round"/>
<path d="M55.4471 1.48462C55.4471 1.53546 55.4471 1.5863 55.4045 3.17027C55.3619 4.75424 55.2768 7.8698 54.7925 12.7057C54.3083 17.5417 53.4275 24.0036 52.9393 27.7708C52.2579 33.4873 52.0397 34.1738 51.8475 34.7764C51.7646 35.0357 51.7117 35.2005 51.6553 35.4154" stroke="black" stroke-width="2" stroke-linecap="round"/>
<path d="M51.6553 35.4154C51.6364 35.4154 51.6176 35.4154 49.4797 35.4154C47.3418 35.4154 43.0854 35.4154 40.7484 35.3654C38.4113 35.3154 38.1226 35.2154 37.8907 35.1278C37.6589 35.0402 37.4925 34.968 36.9934 34.8391" stroke="black" stroke-width="2" stroke-linecap="round"/>
<path d="M36.9051 34.8391C36.9051 34.7767 36.8963 33.3278 36.3965 28.1877C36.033 24.4498 34.9324 18.4774 34.1914 14.5907C33.4504 10.7039 32.9709 9.09887 32.6677 8.12829C32.3645 7.15772 32.2522 6.87026 32.0618 6.3866C31.8715 5.90295 31.6067 5.2318 31.2603 4.44775" stroke="black" stroke-width="2" stroke-linecap="round"/>
<path d="M9.87256 4.44775H31.2602" stroke="black" stroke-width="2" stroke-linecap="round"/>
<path d="M9.87263 4.44775C9.87263 4.45382 9.87263 4.45989 9.75328 10.4725C9.63392 16.4851 9.39521 28.504 8.93353 36.7868C8.47185 45.0695 7.79442 49.2518 7.44367 51.5293C7.09291 53.8067 7.08936 54.0525 7.08569 54.3058" stroke="black" stroke-width="2" stroke-linecap="round"/>
<path d="M7.08579 54.3059C7.08579 54.312 7.08579 54.318 7.06853 55.6515C7.05127 56.985 7.01675 59.6458 6.63034 63.1371C6.24393 66.6285 5.50667 70.8698 4.74707 75.2396" stroke="black" stroke-width="2" stroke-linecap="round"/>
</svg>
