<svg width="61" height="72" viewBox="0 0 61 72" fill="none" xmlns="http://www.w3.org/2000/svg">
<path d="M30.3377 20.7849C29.2457 20.809 26.3467 21.0603 22.9963 22.7312C19.9059 24.2723 18.9086 26.298 18.076 28.2261C17.8179 28.8237 17.7113 29.5671 17.6467 31.3729C17.5822 33.1786 17.6253 36.0475 17.8359 38.379C18.203 42.4436 19.0138 44.6586 19.3642 45.4592C19.7063 46.2406 21.0191 47.215 23.245 48.5228C25.2078 49.676 27.9614 49.3671 31.15 48.6057C34.9765 47.6919 36.3736 45.7519 37.2167 44.7608C37.9066 43.9498 38.0528 42.3845 38.2133 37.7964C38.2762 35.9972 37.3765 33.9091 35.6448 30.4552C34.4635 28.3964 32.6681 25.716 31.6645 24.2904C30.6609 22.8648 30.5036 22.7753 30.2109 22.683" stroke="black" stroke-width="2" stroke-linecap="round"/>
<path d="M24.3662 1.61679C24.131 1.55861 23.2875 1.55483 20.9867 2.48722C19.3249 3.16071 16.4551 4.86843 14.4753 6.04987C12.4954 7.23131 11.5575 7.97756 10.7432 8.73397C9.92886 9.49039 9.2665 10.2343 8.33207 11.5835C7.39764 12.9327 6.2112 14.8645 5.27354 16.7834C4.33587 18.7023 3.68293 20.5496 3.02186 25.9306C2.3608 31.3117 1.71141 40.1705 1.38692 44.845C1.06243 49.5195 1.08251 49.7413 1.24464 50.3549C1.67336 51.9776 2.44403 53.9382 3.23777 55.5749C3.8084 56.7516 5.17363 57.9227 6.97061 59.3791C7.8148 60.0633 8.61445 60.5173 11.0971 61.7678C13.5797 63.0183 17.7449 65.021 21.8503 66.6691C25.9557 68.3172 29.875 69.5498 33.9131 70.8198" stroke="black" stroke-width="2" stroke-linecap="round"/>
<path d="M33.9133 70.8197C33.9255 70.8197 34.6978 70.8197 36.4606 70.7128C38.6805 70.5782 40.8475 69.7862 42.8556 68.8304C43.9443 68.3122 45.0687 67.5171 46.3127 66.5694C47.5568 65.6217 48.8593 64.492 49.8363 63.5407C50.8133 62.5893 51.4252 61.8506 52.089 60.8023C52.7528 59.7541 53.4499 58.4187 54.3716 56.7512" stroke="black" stroke-width="2" stroke-linecap="round"/>
<path d="M53.9207 57.6636C53.9207 57.6446 53.9207 57.6255 53.937 56.4841C53.9533 55.3427 53.9859 53.0794 54.8526 48.0912C55.7192 43.103 57.4188 35.4585 59.2929 27.2742" stroke="black" stroke-width="2" stroke-linecap="round"/>
<path d="M21.3162 2.54346C21.335 2.54346 21.3538 2.54346 24.5264 2.54931C27.6989 2.55517 34.0246 2.56689 37.9803 2.67104C41.936 2.7752 43.3299 2.97144 44.4852 3.20601C46.534 3.62201 47.6755 4.10538 48.4097 4.51844C49.6069 5.19196 51.4339 6.79699 53.5226 8.81665C55.2119 10.45 56.1301 12.116 57.0048 13.9031C58.0346 16.4142 58.799 18.6726 59.1056 21.6212C59.215 23.7859 59.2309 27.3075 59.2473 30.9359" stroke="black" stroke-width="2" stroke-linecap="round"/>
</svg>
