<svg width="66" height="88" viewBox="0 0 66 88" fill="none" xmlns="http://www.w3.org/2000/svg">
<path d="M1.37939 28.2135C1.40278 28.2135 1.62129 28.2228 3.32603 28.7166C4.8385 29.1546 7.6081 30.1602 9.48207 30.8842C12.278 31.9645 13.6408 32.7774 14.6141 33.2765C15.5592 33.7613 16.1145 34.2006 16.4276 34.3039C16.781 34.4205 17.6448 33.6736 19.3023 31.9774C20.3738 30.881 21.689 29.0979 23.0504 27.5973C25.6112 24.7744 27.5442 23.0631 28.3495 22.1308C28.8332 21.5708 29.4311 21.1542 30.0403 20.8234C30.2453 20.7121 30.3272 20.9461 30.4249 23.2603C30.5226 25.5745 30.6562 30.0207 30.623 32.9367C30.5899 35.8527 30.386 37.1036 30.283 41.1852C30.1801 45.2668 30.1842 52.1412 30.1322 56.0048C30.0714 60.5151 29.8415 61.3446 29.8156 62.4652C29.699 67.5239 29.7483 68.8363 29.4967 69.0351C29.3622 69.1415 29.1614 69.1828 26.0337 69.3441C22.906 69.5055 16.8442 69.766 13.4409 69.9548C9.47643 70.2528 8.56875 70.4872 7.96098 70.7237C7.68274 70.8382 7.46577 70.9419 7.24222 71.0486" stroke="black" stroke-width="2" stroke-linecap="round"/>
<path d="M7.24228 71.0486C7.19552 71.0486 6.75967 71.0486 6.1148 71.2066C5.58243 71.3371 5.79045 73.0357 5.79363 74.705C5.79526 75.565 6.40131 77.8884 7.27534 81.3155C7.73776 83.1287 7.81943 83.8031 8.39916 84.2816C9.75246 85.3987 11.4001 85.7497 15.5231 85.9514C19.231 86.1328 26.2333 86.0814 31.4006 85.9299C36.5679 85.7784 39.6915 85.4279 42.9015 85.226C46.1115 85.0242 49.3132 84.9816 51.756 85.0723C54.1987 85.163 55.7855 85.3883 57.0508 85.5046C60.2811 85.8017 60.9271 85.1563 62.2002 84.4644C62.9318 84.0668 63.4472 83.5479 63.8281 82.9275C63.9039 82.7249 63.9537 82.4756 63.982 81.3714C64.0103 80.2672 64.0156 78.3157 64.0211 76.305" stroke="black" stroke-width="2" stroke-linecap="round"/>
<path d="M63.8163 76.482C63.8163 76.4467 63.8163 74.2029 63.5528 70.7988C63.4595 69.5947 62.7621 69.5562 59.7665 69.399C56.7708 69.2418 51.3224 68.9933 48.0771 68.7605C44.8318 68.5277 43.9546 68.3181 43.4321 68.1698C42.9095 68.0216 42.7683 67.9412 42.5867 67.6877" stroke="black" stroke-width="2" stroke-linecap="round"/>
<path d="M42.5867 67.6878C42.5867 67.6704 42.5867 67.653 42.6095 64.6406C42.6322 61.6283 42.6778 55.6216 42.8819 51.1305C43.086 46.6393 43.4472 43.8458 43.9167 40.7095" stroke="black" stroke-width="2" stroke-linecap="round"/>
<path d="M43.9167 20.2898V40.7094" stroke="black" stroke-width="2" stroke-linecap="round"/>
<path d="M43.9166 20.2899C43.9166 20.2839 43.9166 20.278 43.9166 17.5523C43.9166 14.8265 43.9166 9.38118 43.8762 6.50952C43.8358 3.63786 43.755 3.5049 43.5935 3.41105C43.4321 3.31719 43.1925 3.26646 42.0134 3.1051C40.8342 2.94373 38.7227 2.67325 34.2669 2.40492C29.811 2.13659 23.0747 1.8786 16.1343 1.61279" stroke="black" stroke-width="2" stroke-linecap="round"/>
<path d="M16.1343 1.61279C16.1343 1.62429 16.0923 1.78912 13.6455 6.41535C11.2407 10.8827 6.47442 19.6536 3.99557 24.2456C1.51673 28.8377 1.46977 28.9851 1.42139 29.137" stroke="black" stroke-width="2" stroke-linecap="round"/>
<path d="M12.9313 72.864C12.6005 73.0972 10.4157 75.805 9.18041 77.6841C8.52249 78.685 10.8723 75.8884 11.2898 75.6973C11.7316 75.4951 11.6023 76.752 11.7783 77.0509C12.1751 77.7244 13.295 76.3773 13.6679 76.2992C14.0451 76.2203 13.2222 77.9906 12.9445 78.9151C12.3923 80.7537 15.7943 75.8832 16.2583 75.492C16.6985 75.1209 15.4729 78.5129 14.9051 79.881C13.3575 83.6098 18.2841 73.408 18.3005 74.1077C18.3208 74.9709 17.4592 76.5943 16.7069 78.2153C16.4932 78.6757 16.5196 78.3502 16.6444 78.0481C16.8989 77.4322 17.5694 76.6567 18.1387 76.0881C18.4142 75.8128 17.3942 78.314 16.2806 80.3015C15.9462 80.8984 15.9868 80.6049 16.2106 80.1203C16.7613 78.928 17.8238 77.3909 18.8049 76.2712C19.1002 75.9342 19.2736 76.3896 19.2972 76.7614C19.472 79.5161 17.6009 82.9996 17.5227 83.19C15.6085 87.8475 24.2148 72.5576 24.2583 73.4414C24.4338 77.0071 21.9441 80.678 21.7106 81.0798C21.4393 81.5468 23.4758 77.4234 25.9518 73.6364C26.7594 72.4012 26.9228 72.7448 26.9543 73.1865C27.1197 75.5049 26.0356 77.8807 26.5075 78.0546C30.5537 79.5462 31.2941 72.3671 31.3603 72.9385C31.4281 73.5242 29.9261 77.3704 27.9354 82.5735C27.2951 84.247 27.298 83.915 27.9756 82.7146C29.8607 79.3754 32.073 76.5268 33.2027 75.5175C33.5512 75.2062 33.4436 77.079 33.9138 77.2123C35.0397 77.5315 36.3494 73.3713 37.2719 72.0419C38.1944 70.7125 38.2763 71.0644 37.7772 72.807C37.2781 74.5496 36.1954 77.6722 35.7194 79.0569C35.3984 79.9908 37.5049 77.1678 40.452 73.7723C41.4015 72.6782 41.5166 73.1148 41.1508 74.2758C40.785 75.4368 40.0049 77.3737 40.4693 77.234C40.9338 77.0943 42.6664 74.8192 43.6107 74.0085C44.4084 73.3236 44.7413 75.1307 45.6971 74.889C46.8686 74.5927 48.6604 72.2869 49.7981 71.4008C50.9358 70.5147 51.1676 70.6945 51.1212 71.2638C50.9939 72.8273 49.112 75.9619 47.73 78.8989C47.2815 79.852 50.9889 77.5188 52.4953 76.9103C53.0135 76.701 52.0396 79.2676 51.1052 81.4903C50.8055 82.2032 51.2787 82.2154 51.6593 82.1272C52.0399 82.039 52.4207 81.8862 52.6645 81.9549C52.9083 82.0236 53.0036 82.3183 53.1852 82.4105C54.1491 82.8995 57.8791 79.1035 59.0425 78.3218C59.406 78.0776 59.6975 77.3653 59.8226 77.0258C59.9985 76.5482 58.0048 77.1042 56.6353 77.28C56.1794 77.3386 56.2041 76.9064 56.0336 76.8202C55.5481 76.575 54.4493 77.7316 53.5358 78.5442C52.2102 79.7234 55.872 74.8751 55.716 74.4391C54.992 72.4148 49.2388 77.8044 46.4797 79.7797C45.6763 80.3548 45.9143 79.8043 46.1468 79.4287C46.3793 79.0532 46.5554 78.8033 46.4489 78.7769C45.9327 78.6489 43.6953 80.5979 41.0094 82.593C40.1977 83.196 40.3921 82.8074 40.9706 82.1534C41.549 81.4995 42.4767 80.551 42.7918 80.0826C43.0308 79.7274 40.9788 80.5732 38.8309 81.7412C38.1805 82.095 38.3004 81.7113 38.7765 81.172C39.2526 80.6327 40.0502 79.8848 39.3784 80.029C38.7066 80.1732 36.5412 81.2322 35.4853 81.5808C34.4293 81.9294 34.5483 81.5357 34.9424 80.9492C35.9012 79.5225 36.987 78.555 37.1989 78.252C37.5306 77.7779 34.6344 79.3515 32.5154 80.4693C31.9139 80.7866 32.1924 80.4263 32.5081 80.1499C32.8239 79.8735 33.1476 79.6484 33.2313 79.6884C33.315 79.7284 33.1489 80.0402 32.9289 80.3245C32.709 80.6088 32.4401 80.8561 33.2386 80.5769C35.9638 79.6241 38.8505 78.3577 40.5749 77.8096C41.7243 77.4442 44.0048 75.6905 46.9217 73.7257C47.8667 73.0891 47.9361 73.5291 47.8663 73.9028C47.7964 74.2765 47.6392 74.6588 48.0821 74.5867C49.672 74.328 50.9794 73.917 52.3122 74.2613C52.8904 74.4107 53.8109 74.2796 54.2863 74.4444C54.7618 74.6093 54.7837 74.9389 54.9388 75.064C55.7337 75.7051 57.2095 74.2522 58.5446 74.3475C58.9875 74.3791 59.5863 73.9247 59.9357 73.9027C60.285 73.8807 60.3596 74.1851 60.2993 74.8426C60.2391 75.5002 60.0418 76.5017 59.585 77.966C59.1282 79.4303 58.4178 81.3272 57.6746 83.3703" stroke="#FEBB5D" stroke-width="2" stroke-linecap="round"/>
<path d="M36.5161 71.8123C36.4026 71.8711 35.4759 72.488 34.51 73.1582C34.3602 73.2621 35.4814 71.9798 36.9589 70.4759C37.4194 70.0071 37.1984 70.0477 36.625 70.3515C36.0516 70.6554 35.1085 71.1986 34.7193 71.3238C34.3301 71.4491 34.5235 71.1399 34.8328 70.7766C35.5208 69.9688 36.5235 69.1652 36.867 68.8911C37.0517 68.7437 35.7631 69.7606 35.279 70.0595C34.7949 70.3584 34.7723 70.2105 35.0159 69.7441C35.6907 68.4525 37.0796 66.9189 37.6836 66.0791C37.7951 65.9241 36.3384 66.6804 35.7644 66.9146C35.1903 67.1487 35.2433 66.9299 35.4383 66.5858C35.6332 66.2416 35.9686 65.7786 35.5256 65.9482C33.7113 66.6428 32.6338 67.638 32.8359 67.3373C33.6446 66.1344 35.5568 65.7567 35.8146 65.6573C36.0107 65.5817 34.757 66.0612 34.3822 66.1265C34.0073 66.1918 34.1447 65.9832 34.2872 65.7998C34.5576 65.4517 35.2211 64.9625 36.282 64.3173C38.1712 63.1685 39.5817 63.2138 40.0191 63.1038C41.75 62.6684 36.3027 63.3872 35.7355 63.3493C35.3088 63.3208 36.649 61.8937 36.9264 61.2226C37.6785 59.4024 33.6125 62.999 33.4637 63.0258C32.7051 63.162 35.7519 61.1638 37.004 60.3938C37.4078 60.1454 37.2834 60.0972 37.1506 60.0903C36.5636 60.06 34.8431 60.8171 33.7904 61.2507C33.5525 61.3487 35.0764 59.7284 36.386 58.3872C36.6198 58.1477 35.874 58.7114 35.5618 58.8961C35.3882 58.9988 36.3924 57.5255 38.1085 55.5915C38.8911 54.7095 39.6084 54.1337 39.8518 53.8549C39.9949 53.6911 38.0607 54.433 35.6609 55.4674C34.8595 55.8129 34.8364 55.6268 34.8781 55.4658C35.0993 54.6128 36.4709 53.4911 37.3181 52.7651C38.5013 51.7512 33.1706 54.4324 33.0774 54.3813C32.8163 54.2381 33.7125 53.5 34.7541 52.5735C35.366 52.0294 36.2293 51.4311 36.5909 51.1311C36.8508 50.9155 35.2198 51.8921 33.2437 53.158C32.3169 53.7517 35.1397 51.4259 36.1111 50.6747C37.274 49.7753 37.6928 48.675 37.7587 48.4256C37.8074 48.2415 36.8075 48.9364 35.9367 49.5122C34.8712 50.2167 38.5491 46.398 38.3487 46.5436C37.8777 46.8858 36.7027 47.8337 36.154 48.2957C35.6054 48.7577 35.7304 48.7207 36.1564 48.5274C38.3686 47.5238 39.1239 47.3524 39.25 47.4428C39.4458 47.583 38.8476 48.6291 38.3793 49.804C38.2281 50.1835 38.3954 50.1726 38.5422 50.1095C38.6889 50.0465 38.8466 49.9442 38.8775 49.9808C39.908 51.2021 36.5782 53.1272 36.8565 53.057C37.6551 52.8556 38.2348 52.6241 38.5043 52.6916C39.021 52.821 38.3121 54.3035 37.3909 56.4542C37.0395 57.2745 38.9982 56.2903 39.2105 56.3555C39.3332 56.3932 39.4303 56.5629 39.4888 56.6871C39.7345 57.2093 38.8879 58.4842 38.3102 59.5289C38.1315 59.8519 39.133 59.555 39.2493 59.6294C39.4754 59.7739 38.27 60.9827 36.9526 62.2879C36.5347 62.7019 36.5906 62.5753 36.753 62.3267C37.5555 61.0987 37.7552 60.404 37.7381 59.7614C37.7339 59.6001 37.6166 59.4865 37.5144 59.3983C37.0729 59.0174 36.0999 59.1428 35.2672 59.3746C34.9754 59.4558 34.5991 59.7051 34.3516 59.7857C34.104 59.8662 34.0135 59.8169 33.9838 59.7208C33.9137 59.4942 34.8067 57.7952 35.639 55.8738C35.9583 55.1365 34.0931 57.4484 33.8334 57.9342C33.6286 58.3173 33.4458 59.2854 33.2816 60.4533C33.2265 60.8452 33.3852 60.844 33.6395 60.6614C33.8939 60.4789 34.2792 60.1186 34.4785 59.9801C34.6778 59.8416 34.6795 59.9356 34.3402 60.8589C34.0009 61.7821 33.3205 63.5316 32.8873 64.8013C32.4541 66.0709 32.2887 66.8076 32.2466 67.2307C32.2044 67.6537 32.2906 67.7408 32.4284 67.7583C32.7528 67.7995 33.4127 67.4384 34.1285 67.1483C34.3668 67.0518 34.3948 67.1904 34.3869 67.4173C34.3671 67.9904 34.1159 69.506 33.9112 71.2182C33.8457 71.7654 34.0836 71.6746 34.5438 71.2603C35.7729 70.1537 36.5921 69.2827 36.7582 69.2224C37.1944 69.0642 36.7794 70.3766 36.7556 70.8223C36.7453 71.0147 37.5907 70.4037 38.41 69.815C38.6869 69.6161 38.7943 69.8056 38.8771 70.3264C39.101 71.733 39.1751 72.7463 39.2905 72.8783C39.4554 72.9335 39.6798 72.887 39.991 72.7221C40.1753 72.6117 40.4131 72.4473 40.8054 72.1643" stroke="#FEBB5D" stroke-width="2" stroke-linecap="round"/>
<path d="M35.9899 47.8282C35.5446 48.0185 34.3814 48.617 33.6063 49.0731C33.3837 49.2041 33.4373 48.9873 34.1504 48.0119C34.8635 47.0365 36.2165 45.2724 36.2177 44.9437C36.219 44.6151 34.8276 45.7752 33.9865 46.5089C33.1454 47.2425 32.8968 47.5144 34.0489 46.6555C35.201 45.7965 37.7613 43.7985 38.6257 43.134C38.6881 43.086 36.9979 44.3045 36.0781 44.7201C35.8232 44.8353 35.9261 44.5402 36.546 43.7468C37.1659 42.9534 38.2813 41.6153 39.2725 40.5678C41.0168 38.7243 42.0455 38.0167 42.1473 37.9885C42.1702 37.9822 42.0903 38.1005 41.4071 38.7025C40.724 39.3045 39.4287 40.4143 38.5595 41.1063C37.6904 41.7982 37.2865 42.0386 37.1247 42.0955C36.3977 42.3509 38.628 40.5098 38.8264 40.3276C38.8627 40.2942 38.7052 40.3347 37.7729 40.8261C36.8406 41.3176 35.122 42.247 34.2473 42.6103C33.3726 42.9737 33.3937 42.7427 34.7171 40.9803C36.0406 39.2179 38.6657 35.931 39.9488 34.3178C41.2319 32.7046 41.0934 32.8646 39.7895 33.9982C38.4855 35.1317 36.0204 37.2339 34.7768 38.27C33.5332 39.306 33.5859 39.2122 35.1408 37.2196C36.6956 35.227 39.7511 31.3385 40.3254 30.436C41.3607 28.8093 36.816 33.8761 36.8074 33.5975C36.8026 33.4451 36.8798 33.2732 37.4947 32.1218C38.1096 30.9705 39.281 28.8455 39.9494 27.6565C40.6177 26.4675 40.7474 26.2788 39.8636 27.3111C38.9798 28.3435 37.0785 30.6027 36.131 31.6964C35.1835 32.7902 35.2474 32.6501 36.3265 31.3499C37.4055 30.0498 39.4979 27.5938 39.1136 27.7449C38.7294 27.8959 35.8053 30.7283 34.3154 32.104C32.8256 33.4797 32.8587 33.3128 34.0096 31.5153C35.1605 29.7178 37.4282 26.2946 38.6272 24.4654C39.8262 22.6362 39.8878 22.5047 38.5842 23.914C37.2807 25.3233 34.6101 28.2775 33.2499 29.7278C31.8897 31.1781 31.9209 31.0349 33.1803 29.2398C34.4397 27.4448 36.9265 24.0021 38.2473 22.185C39.5682 20.368 39.6478 20.2809 38.9257 21.3368C38.2035 22.3926 36.6771 24.5942 35.9638 25.5932C35.2506 26.5922 35.3966 26.322 36.5973 24.6084C37.798 22.8948 40.0489 19.746 40.0566 19.5746C40.0642 19.4031 37.7605 22.3045 36.5925 23.7376C35.4245 25.1708 35.4621 25.0479 36.0656 24.2073C36.6691 23.3667 37.8374 21.8121 38.3618 21.0586C38.8863 20.305 38.7315 20.3997 38.0314 21.0295C37.3312 21.6593 36.0904 22.8213 35.5528 23.2144C35.0152 23.6075 35.2183 23.1964 36.3323 21.6197C37.4464 20.043 39.4652 17.3131 40.0032 16.4752C40.3023 16.0093 38.2631 18.1306 38.0299 18.1234C37.8375 18.1175 38.2968 17.3557 39.2204 15.9782C40.1441 14.6008 41.7231 12.4389 42.4539 11.44C43.1847 10.4412 43.0194 10.671 42.389 11.3719C40.6915 13.2592 39.446 14.5215 39.2883 14.5913C39.2328 14.6159 39.2121 14.4649 39.2134 14.3294C39.2146 14.1939 39.2345 14.0391 39.4375 13.5667C39.6405 13.0942 40.026 12.3088 39.0742 13.1349C38.1225 13.961 35.8218 16.4225 34.6556 17.6193C33.4893 18.8162 33.5273 18.6739 34.4389 17.1851C35.3505 15.6963 37.1345 12.8654 37.9461 11.5342C38.7577 10.2031 38.5428 10.4575 38.1508 10.8088C36.5347 12.2566 35.9673 12.3254 35.769 12.3659C35.6677 12.3866 35.5608 12.3845 35.4996 12.2637C35.0039 11.2839 36.6491 8.89481 37.1881 8.04685C37.1964 8.03372 37.1138 8.19101 35.8071 9.58951C34.5004 10.988 31.9657 13.6524 30.7452 14.9139C29.5248 16.1754 29.6954 15.9533 29.9025 15.7183C30.3336 15.229 31.3533 13.7728 32.554 11.862C32.9896 11.1687 33.0933 11.0492 30.236 14.8604C27.3788 18.6715 21.5627 26.4201 18.5446 30.368C15.5265 34.3158 15.4827 34.2281 15.4375 34.0704" stroke="#FEBB5D" stroke-width="2" stroke-linecap="round"/>
<path d="M17.3925 22.7833C17.407 23.1903 16.9191 25.5204 16.6863 26.7865C16.6694 26.8784 16.957 26.7187 17.7243 26.1756C19.8365 24.6808 21.3809 23.5869 21.6335 23.549C21.7247 23.5353 21.6824 23.7946 20.8282 24.9805C19.9741 26.1665 18.2945 28.3382 18.1323 28.7694C17.97 29.2006 19.376 27.8254 19.5767 27.7338C19.7775 27.6422 18.7304 28.8758 18.1589 29.5578C17.5874 30.2399 17.5233 30.3331 18.2652 29.3564C19.0071 28.3796 20.5569 26.33 21.3009 25.2837C22.0448 24.2373 21.9358 24.2562 21.1078 24.7855C20.2797 25.3147 18.7358 26.3538 17.8002 26.9515C16.8645 27.5493 16.5838 27.6744 16.422 27.6541C16.2603 27.6339 16.2259 27.4644 16.2666 27.2082C16.3072 26.9519 16.4239 26.6139 17.0852 25.3999C17.7465 24.1859 18.949 22.1062 19.5067 21.1495C19.9333 20.4178 18.4933 22.2021 16.3636 24.66C15.564 25.5829 15.296 25.813 15.156 25.8691C15.016 25.9253 15.0022 25.7917 15.043 25.6005C15.0838 25.4093 15.1797 25.1644 15.1437 25.0646C15.1076 24.9648 14.9367 25.0176 14.2038 25.6901C13.4709 26.3626 12.1811 27.6532 11.4871 28.1501C10.7931 28.6471 10.734 28.3111 10.7331 27.9194C10.7322 27.5278 10.7913 27.0905 10.9998 26.4017C11.2082 25.713 11.5641 24.7861 12.2495 23.444C12.9348 22.1018 13.9388 20.3724 13.8592 20.1585C13.2631 18.5567 11.2848 22.617 11.1671 22.3911C11.0951 22.2529 11.1026 22.0239 11.0793 21.8352C11.0372 21.4927 10.0043 22.5249 8.54769 24.1738C8.29006 24.4655 9.56759 22.2994 11.0296 20.2277C11.6176 19.3944 9.05934 22.3395 8.68142 22.6989C8.60688 22.7698 8.77794 22.6221 10.0115 21.8677C11.245 21.1134 13.5378 19.7589 14.1014 20.3027C14.6651 20.8465 13.4301 23.3297 14.1903 22.8193C14.9505 22.3089 17.7432 18.7296 18.7243 17.7998C19.7054 16.87 18.7903 18.6981 19.2642 18.6711C19.7382 18.6442 21.6289 16.7068 22.5733 15.7754C23.5176 14.8441 23.4583 14.9776 22.9662 15.6574C22.4742 16.3372 21.5514 17.5592 21.1357 18.1527C20.72 18.7463 20.8395 18.6743 22.2886 17.3215C23.7377 15.9687 26.5129 13.3372 28.0034 11.9362C29.494 10.5351 29.6159 10.4442 28.4771 11.9378C27.3382 13.4315 24.9349 16.5123 24.4753 17.2108C24.0157 17.9092 25.5726 16.1318 26.3207 15.3346C27.0689 14.5375 26.961 14.7744 26.4086 15.6811C25.8562 16.5879 24.8625 18.1571 24.7746 18.5216C24.5583 19.4189 26.7113 16.8413 27.1483 16.5448C27.2518 16.4746 26.4682 17.7595 26.4914 18.0541C26.5713 19.0699 29.4897 14.9698 31.1188 13.3559C32.748 11.7419 33.6898 10.9808 34.1839 10.6506C34.6779 10.3203 34.6958 10.4441 34.2859 11.02C33.1093 12.6734 31.9222 13.9374 32.2747 13.6897C32.9218 13.2349 34.3495 11.8913 34.9949 11.2735C35.6403 10.6556 35.4168 10.7479 34.9193 11.0892C34.4219 11.4304 33.6574 12.018 32.3516 13.2214C31.0458 14.4249 29.222 16.2265 28.9253 16.215C28.6285 16.2034 29.9142 14.3241 30.4991 13.3897C31.084 12.4552 30.9292 12.5225 29.7657 13.2729C28.6022 14.0233 26.4347 15.4548 24.9322 16.3849C22.6985 17.7678 21.672 18.1652 21.3658 18.1738C21.2366 18.1774 21.2177 17.9268 22.6341 16.2802C24.0504 14.6335 26.9173 11.5337 27.1109 11.1907C27.3046 10.8477 24.7381 13.3554 23.2507 14.7701C21.7634 16.1848 21.4329 16.4304 21.2807 16.4993C21.1284 16.5682 21.1643 16.4529 22.0787 15.1282C22.993 13.8034 24.7847 11.2727 25.6385 9.96416C26.4923 8.65563 26.3539 8.64598 24.911 9.59647C23.468 10.547 20.7246 12.4579 19.3711 13.341C18.0176 14.2242 18.137 14.0217 18.687 13.381C19.2369 12.7404 20.2138 11.6678 20.6554 11.1523C21.097 10.6368 20.9737 10.711 20.1668 11.5342C19.3599 12.3574 17.8731 13.9274 16.9445 14.9504C16.0159 15.9734 15.6907 16.4019 15.5818 16.5889C15.473 16.7758 15.5905 16.7081 16.5305 15.6904C17.4704 14.6727 19.2293 12.7071 20.0485 11.7308C20.8676 10.7546 20.6938 10.8272 19.3478 12.1673C18.0018 13.5075 15.4889 16.1128 14.2041 17.3799C12.9193 18.647 12.9388 18.4969 13.8664 16.4569C14.7941 14.417 16.6294 10.4918 17.5889 8.40453C18.5484 6.31724 18.5765 6.18678 18.5108 6.18804C18.4451 6.1893 18.2847 6.32623 17.371 7.39712C16.4573 8.46801 14.7952 10.4687 14.4737 10.7329C14.1522 10.9972 15.2216 9.46431 15.7498 8.72547C16.278 7.98663 16.2326 8.08826 15.8025 8.73347C13.6264 11.9984 13.2022 12.3904 13.2067 12.429C13.2154 12.5023 13.4494 12.2243 14.4877 11.0148C15.5259 9.80538 17.4157 7.55524 18.3435 6.53753C19.2712 5.51983 19.1796 5.80273 17.7949 8.48382C16.4103 11.1649 13.7355 16.2356 12.3194 18.9051C10.9033 21.5746 10.8271 21.6891 11.6855 20.4121C12.5438 19.1351 14.3391 16.4631 13.6635 17.0826C12.9879 17.7021 9.78707 21.6941 8.15642 23.6838C6.52577 25.6734 6.56229 25.5398 7.41539 24.1818C8.2685 22.8238 9.93707 20.2454 10.8806 18.8194C12.2685 16.7216 13.1018 16.2578 13.6404 15.9697C13.837 15.8646 14.0992 15.6626 14.9799 14.7405C15.8606 13.8184 17.3444 12.1693 18.226 11.2199C19.3162 10.0461 20.365 9.3066 21.8082 8.243C22.4786 7.74893 22.9905 7.30399 22.9693 7.41853C22.9481 7.53306 22.37 8.20941 22.1583 8.53126C22.009 8.75817 23.6946 7.97703 25.863 6.79696C26.63 6.37955 26.7321 6.35285 26.7545 6.45674C26.8276 6.79562 26.2336 7.73202 25.6782 8.75126C25.0066 9.98355 29.401 7.02236 29.5596 7.01817C29.7232 7.01384 28.9581 8.00563 28.1167 9.02147C27.8672 9.32277 28.0516 9.24664 28.8328 8.64142C29.6141 8.0362 31.0054 6.91889 31.978 6.17895C33.4339 5.07146 34.134 4.70336 34.3221 4.69249C34.5648 4.67847 33.4851 6.00683 32.4019 7.36004C32.0441 7.80698 32.2137 7.8692 32.7803 7.63285C33.3469 7.3965 34.3404 6.88579 34.8306 6.6779C35.3208 6.47002 35.2774 6.58045 35.0373 6.93342C34.7971 7.2864 34.3615 7.87859 34.2515 8.14743C33.8565 9.11304 37.1234 6.98827 37.6288 6.9637C37.9592 6.94763 36.7831 8.68284 35.9667 10.1671C35.6229 10.7923 37.7852 9.20749 38.9866 8.6569C40.981 7.74297 42.379 7.2795 42.5286 7.36813C42.5659 7.48852 42.5248 7.76201 42.2316 8.34961C41.9384 8.9372 41.3942 9.83061 40.983 10.5986" stroke="#FEBB5D" stroke-width="2" stroke-linecap="round"/>
</svg>
