<svg width="49" height="85" viewBox="0 0 49 85" fill="none" xmlns="http://www.w3.org/2000/svg">
<path d="M1.64004 5.73766C1.63335 5.73096 1.62665 5.72427 1.62624 15.3378C1.62582 24.9514 1.63189 44.1853 1.87738 56.9801C2.12288 69.7749 2.60762 75.5477 2.89311 78.6749C3.1786 81.802 3.25015 82.1088 3.3889 82.3961C3.52764 82.6835 3.73141 82.9423 3.94136 83.209" stroke="black" stroke-width="2" stroke-linecap="round"/>
<path d="M3.94141 83.2088C3.95354 83.2088 5.70482 83.195 9.7595 83.0154C12.0692 82.8496 14.8906 82.5322 16.4341 82.3518C17.9776 82.1714 18.1577 82.1375 18.4866 82.1025" stroke="black" stroke-width="2" stroke-linecap="round"/>
<path d="M18.5264 82.1027C18.5264 82.0839 18.5264 82.0651 18.556 75.0379C18.5856 68.0108 18.6448 53.9759 18.6887 46.5915C18.7326 39.2071 18.7593 38.8985 18.8338 38.3542" stroke="black" stroke-width="2" stroke-linecap="round"/>
<path d="M18.874 38.3541C18.9108 38.3541 21.8123 38.342 26.9675 38.1895C29.2436 38.1222 30.8158 37.7809 32.2409 37.4195C34.928 36.7381 36.935 35.6789 38.2167 34.8746C39.8795 33.8312 41.284 31.567 42.7057 28.8985C43.7077 27.0178 44.9993 23.9252 45.7583 22.102C46.7552 18.619 46.6465 16.8536 46.071 15.6605C45.7871 15.197 45.3385 14.5288 44.8764 13.8403" stroke="black" stroke-width="2" stroke-linecap="round"/>
<path d="M1.01929 4.93928C1.14918 4.87798 3.38841 4.11313 7.93938 2.9375C10.5717 2.25749 13.9935 1.99158 17.1037 1.7933C20.2139 1.59502 22.9431 1.62159 24.8705 1.71593C26.7979 1.81027 27.8408 1.97157 29.585 2.50551C31.3292 3.03946 33.743 3.94115 35.7848 4.87053C37.8266 5.79991 39.423 6.72964 41.1129 7.97985C44.6653 10.6081 46.4509 12.5419 46.709 12.9559C46.841 13.1897 46.9749 13.4717 47.1278 13.9227C47.2808 14.3738 47.4488 14.9853 47.6948 15.7897" stroke="black" stroke-width="2" stroke-linecap="round"/>
<path d="M24.3812 16.2134C23.4163 16.1864 20.5579 16.3097 18.4688 17.3287C16.0359 18.5155 14.6957 20.2726 14.0828 20.9565C12.5331 22.6858 11.9816 24.6011 11.6602 26.5904C11.3093 28.7629 11.9658 29.9816 12.8892 31.812C13.4846 32.9923 14.4962 33.1567 16.1075 33.4583C17.9958 33.8118 19.9744 32.9611 21.876 32.0539C23.2844 31.382 24.5337 30.2555 25.6923 29.1523C27.0953 27.8165 28.0576 26.0472 28.7134 24.593C29.6038 22.6183 29.3969 20.6659 28.7451 19.6217C28.3451 19.2854 27.6302 18.9161 26.1824 18.4024C25.2501 18.1201 23.9166 17.794 22.5426 17.4579" stroke="black" stroke-width="2" stroke-linecap="round"/>
</svg>
