<svg width="78" height="75" viewBox="0 0 78 75" fill="none" xmlns="http://www.w3.org/2000/svg">
<path d="M36.0645 28.7682C34.5469 28.7421 30.9615 28.8059 29.3549 29.4607C27.4574 30.2341 26.6415 31.9854 26.0833 33.3247C25.6859 34.278 25.8142 36.6292 25.8918 39.5467C25.9778 42.7805 27.0766 44.0668 27.6712 44.5317C27.8057 44.6368 27.9894 44.6691 29.5467 44.8779C31.1039 45.0867 34.0484 45.4404 36.1164 45.6245C39.2797 45.906 40.741 45.7726 41.505 45.6205C43.6004 45.2032 44.792 44.1217 45.5413 43.4023C46.267 42.7056 46.6789 41.1195 47.0069 39.0929C47.693 34.8543 46.7406 33.4646 46.0475 32.2531C45.3304 30.9997 43.5818 29.8625 41.8958 28.9833C41.2607 28.7692 40.258 28.483 39.6105 28.3144C38.9631 28.1459 38.7014 28.1036 38.4317 28.0601" stroke="black" stroke-width="2" stroke-linecap="round"/>
<path d="M28.2368 6.07764C28.1987 6.07764 26.0265 6.07764 22.5635 6.11686C20.8459 6.13632 19.7407 6.59551 18.3908 7.18889C17.0973 7.75744 15.1559 9.21159 12.4392 11.4563C11.0349 12.6167 9.79094 14.0657 8.57984 15.6163C7.36874 17.1669 6.28252 18.8378 5.47483 20.3288C4.66714 21.8197 4.17089 23.08 3.55572 25.4939C2.94055 27.9079 2.22149 31.4373 1.85201 34.7238C1.48253 38.0103 1.48441 40.947 1.67545 43.1656C1.86648 45.3842 2.24662 46.7957 3.21841 49.2651C4.1902 51.7345 5.74212 55.2189 6.80541 57.3966C7.8687 59.5743 8.39633 60.3399 9.39473 61.4586C10.3931 62.5773 11.8463 64.0261 13.2039 65.1665C14.5615 66.3069 15.7796 67.095 17.9441 68.171C20.1086 69.247 23.1828 70.587 25.4472 71.4449C29.0168 72.7975 31.4875 73.0495 33.1414 73.1436C33.7833 73.1801 34.0262 73.1611 35.8725 72.6822C37.7188 72.2032 41.1615 71.2566 43.515 70.5154C45.8685 69.7743 47.0284 69.2674 48.0562 68.7215C49.9933 67.6927 51.6857 66.3439 53.1143 65.235C53.9335 64.599 54.4625 64.3498 54.9644 64.1813C55.5243 63.9934 56.0754 64.118 56.7924 64.4718C58.2361 65.1842 59.6873 66.7486 61.3249 68.4879C64.6909 72.2389 65.4983 72.9385 65.8184 73.1418C65.9789 73.2337 66.1354 73.303 66.4272 73.3743" stroke="black" stroke-width="2" stroke-linecap="round"/>
<path d="M66.4678 73.3744C66.7819 73.4315 68.4233 73.5548 69.4979 73.5817C69.6837 73.5863 69.8658 73.3886 70.5288 72.0998C71.1917 70.8111 72.3217 68.3765 73.4229 65.5561C74.5241 62.7356 75.5625 59.6031 76.1384 57.9109C76.7142 56.2188 76.7963 56.0619 76.9067 55.8691" stroke="black" stroke-width="2" stroke-linecap="round"/>
<path d="M76.9067 55.8692C76.8816 55.8692 76.4563 55.8692 75.6539 55.8341C75.2639 55.7991 74.9087 55.729 72.9787 54.9223C71.0488 54.1155 67.555 52.5743 63.9553 50.9863" stroke="black" stroke-width="2" stroke-linecap="round"/>
<path d="M63.9553 50.9863C63.9553 50.9618 63.9553 50.9373 63.9553 50.1187C63.9553 49.3002 63.9553 47.6882 64.7346 43.3367C65.5139 38.9851 67.0726 31.9429 68.6784 24.6873" stroke="black" stroke-width="2" stroke-linecap="round"/>
<path d="M68.6785 24.6874C68.6785 22.8337 68.6371 18.8373 67.7642 16.9441C67.1341 15.5775 65.5992 13.223 64.6151 11.6801C63.6311 10.1371 63.1304 9.53541 62.0774 8.52375C59.4955 6.04326 57.2537 4.33037 56.2704 3.74917C55.5254 3.30887 53.7178 2.7825 49.8316 2.09761C47.4198 1.67255 44.0308 1.66775 42.1678 1.60023C40.3048 1.53271 40.0489 1.55028 38.3022 2.11845C36.5555 2.68662 33.3257 3.80485 29.998 4.95697" stroke="black" stroke-width="2" stroke-linecap="round"/>
</svg>
