<svg width="58" height="100" viewBox="0 0 58 100" fill="none" xmlns="http://www.w3.org/2000/svg">
<path d="M3.18322 7.92041C3.18322 7.95932 3.18322 7.99824 2.97945 15.2204C2.77568 22.4425 2.36813 36.8466 1.94824 51.6873" stroke="black" stroke-width="2" stroke-linecap="round"/>
<path d="M1.99217 51.7747C1.99217 51.7929 1.99217 51.8111 1.90838 56.951C1.8246 62.091 1.65702 72.3521 1.50102 78.0478C1.34503 83.7435 1.20569 84.5627 1.04565 85.7188" stroke="black" stroke-width="2" stroke-linecap="round"/>
<path d="M1.04565 85.7188C1.04565 85.7307 1.04565 85.7426 1.04565 87.7327C1.04565 89.7228 1.04565 93.6907 1.30539 95.7394C1.56512 97.7882 2.08459 97.7976 3.35829 97.9405C6.65014 98.3099 9.51381 98.6511 10.8171 98.6322C11.9447 98.3754 13.0962 97.9764 14.5122 97.679C15.2409 97.553 15.9903 97.4775 16.8715 97.3997" stroke="black" stroke-width="2" stroke-linecap="round"/>
<path d="M16.8713 71.9001V97.3997" stroke="black" stroke-width="2" stroke-linecap="round"/>
<path d="M16.4263 69.2856C16.4263 69.2567 18.7939 69.2402 22.4707 69.2489C24.6943 69.2542 26.2313 69.8525 26.9745 70.1315C27.2806 70.2464 27.4258 70.3496 28.0812 72.2577C28.7367 74.1657 29.8936 77.8863 30.7476 81.202C31.6015 84.5177 32.1174 87.3156 32.4836 88.9991C33.0507 91.1666 33.4944 91.9702 33.9576 92.5204C34.184 92.7657 34.3928 92.9423 34.6079 93.1242" stroke="black" stroke-width="2" stroke-linecap="round"/>
<path d="M34.6479 93.1642C34.6659 93.1642 34.6839 93.1642 36.7826 93.0749C38.8812 92.9855 43.06 92.8069 45.4283 92.6829C48.2302 92.5363 48.9063 92.4041 49.4732 92.3146C50.2294 92.1481 51.8634 91.6477 54.024 90.8706C54.987 90.4884 55.6793 90.1311 56.4318 89.7629" stroke="black" stroke-width="2" stroke-linecap="round"/>
<path d="M55.7206 90.7995C55.6746 90.7995 55.5023 90.5162 52.1311 85.8385C48.9085 81.444 42.6163 72.9469 38.9117 67.6864C35.207 62.4258 34.2806 60.6592 33.3262 58.8391" stroke="black" stroke-width="2" stroke-linecap="round"/>
<path d="M32.994 58.3071C32.9195 57.7478 32.3453 55.4917 31.6 53.6635C31.1864 52.6488 30.616 51.3651 30.5034 50.5294C30.4573 50.1872 30.7609 50.0058 33.4531 48.8396C36.1454 47.6735 41.3007 45.5268 44.5217 44.0494C47.7427 42.5721 48.873 41.8292 49.9249 40.9915C50.9768 40.1539 51.916 39.244 52.5784 38.5514C53.2409 37.8587 53.5982 37.4108 54.1648 36.7673" stroke="black" stroke-width="2" stroke-linecap="round"/>
<path d="M54.1647 36.8054C54.1647 36.7868 54.1647 36.7681 54.1331 35.1516C54.1015 33.5351 54.0384 30.3212 53.7672 27.4928C53.4961 24.6644 53.0189 22.319 52.1759 19.7445C51.333 17.1699 50.1388 14.4374 48.8875 12.052C47.6363 9.66665 46.3641 7.71116 45.5882 6.568C44.6097 5.12643 43.6778 4.39233 42.2831 3.4892C40.6995 2.71913 38.8389 2.17488 37.0129 1.85794C36.1882 1.72657 35.5704 1.65502 34.9338 1.5813" stroke="black" stroke-width="2" stroke-linecap="round"/>
<path d="M34.934 1.5813C34.9278 1.5813 34.9215 1.5813 32.6649 1.61174C30.4084 1.64218 25.9018 1.70306 21.9263 2.06749C17.9508 2.43191 14.643 3.09804 12.603 3.55825C9.87211 4.1743 8.61616 4.79879 7.5754 5.37655C6.76728 5.82516 5.27565 7.53269 3.33379 9.88242C2.59072 10.8181 2.33966 11.2325 2.19705 11.5673C2.05443 11.902 2.02786 12.1445 2.00049 12.3943" stroke="black" stroke-width="2" stroke-linecap="round"/>
<path d="M29.8685 18.2795C29.8556 18.2795 29.0346 18.301 27.5336 18.4039C26.2949 18.4887 24.315 19.5432 21.7237 21.0084C18.3992 22.8881 17.7354 24.3151 17.3125 25.356C17.1239 25.8203 17.0719 26.6301 16.9334 28.2555C16.5875 32.317 16.5741 34.9938 16.8 35.3117C17.6941 36.5697 21.2564 36.8522 24.3961 37.2433C28.9866 37.815 30.346 36.9871 31.6863 36.3672C33.5147 35.5216 34.2546 34.3985 34.8687 33.6247C35.4318 32.9151 35.6579 31.8911 35.8853 30.4143C36.1417 28.7493 35.9322 27.2098 35.6578 26.1086C35.284 24.6089 34.1136 23.0262 32.9248 21.4367C31.034 18.9087 29.6903 18.2519 28.6469 17.6998C27.7118 17.4034 26.3463 17.3464 24.9153 17.8813C24.5622 18.0928 24.1635 18.3518 23.7526 18.6186" stroke="black" stroke-width="2" stroke-linecap="round"/>
</svg>
