<svg width="56" height="90" viewBox="0 0 56 90" fill="none" xmlns="http://www.w3.org/2000/svg">
<path d="M40.232 2.92065C40.5763 3.14828 41.5514 4.07152 44.1832 9.25552C45.4276 11.7067 45.5956 13.1637 45.6881 14.2553C45.8938 16.6833 45.7308 18.9019 45.3972 20.1665C45.0412 21.5165 43.6965 23.7614 42.1079 26.3261C40.9833 28.1416 40.0891 28.7352 39.0175 29.3339C37.7116 30.0635 36.2413 30.3114 33.2312 30.5676C30.698 30.7832 26.1041 30.9146 23.6074 31.0504C20.0253 31.2452 18.558 32.4169 17.883 33.2732C17.4882 33.7742 17.3559 34.7187 17.1874 36.6072C16.8801 40.0517 17.2484 42.7949 17.4352 43.7716C17.732 45.324 19.8051 47.0323 21.6687 48.269C22.4156 48.7647 24.0221 48.9079 29.0286 49.0979C32.9154 49.2453 39.5455 49.0968 43.9363 49.3345C48.3271 49.5723 50.2803 50.0986 51.3835 50.4162C52.6909 50.7926 53.0141 51.0183 53.2892 51.2518C54.0076 51.8616 54.1966 53.7657 54.2189 57.5994C54.2245 58.5639 54.0211 59.3212 53.691 60.4878C53.3609 61.6545 52.8379 63.2054 51.6724 65.6467C50.5069 68.0881 48.7148 71.3729 47.5596 73.3464C46.4044 75.32 45.9404 75.8828 44.835 76.9311C43.7296 77.9794 41.9969 79.4962 40.6781 80.8033C39.3592 82.1104 38.5067 83.1619 37.5516 84.3042" stroke="black" stroke-width="2" stroke-linecap="round"/>
<path d="M37.5517 84.3044C37.5394 84.3044 37.527 84.3044 35.4368 84.8902C33.3466 85.476 29.1789 86.6476 26.4448 87.3366C23.7107 88.0256 22.5364 88.1965 20.9734 88.2794C19.4103 88.3624 17.4942 88.3521 15.8053 88.2034C10.9098 87.7724 9.95471 86.8764 9.04736 86.1564C8.20863 85.4909 8.20579 82.2086 8.47156 80.0067C8.56207 79.2567 9.14256 78.7814 9.44382 78.4744C9.96676 77.9415 12.433 77.3207 16.3465 76.4874C18.1608 76.1011 19.6913 76.1309 21.2797 76.1198C24.4844 76.0974 26.4027 76.1328 27.0089 75.9843C28.7824 75.5499 30.5432 74.1711 31.4811 73.3127C32.1877 72.6661 32.2498 70.9048 32.2776 67.5248C32.2852 66.605 32.0447 66.1397 31.8219 65.7287C31.6913 65.5352 31.5252 65.3725 31.2063 65.137C30.8875 64.9016 30.4209 64.5985 29.9403 64.2861" stroke="black" stroke-width="2" stroke-linecap="round"/>
<path d="M29.9402 64.286C29.9278 64.286 29.9155 64.286 28.1369 64.2718C26.3583 64.2575 22.8139 64.2291 19.2015 63.9148C15.5891 63.6006 12.0162 63.0014 10.0682 62.6462C7.89518 62.2499 7.51909 62.0007 7.09754 61.6857C6.49733 61.1487 5.51326 60.0234 4.3019 58.359C3.72068 57.4869 3.20749 56.5591 2.51074 55.1682" stroke="black" stroke-width="2" stroke-linecap="round"/>
<path d="M2.51061 55.1682C2.51061 55.1305 2.49283 54.5069 2.31975 52.5215C2.19904 51.1368 1.87219 49.0002 1.84715 45.7657C1.82212 42.5312 2.07317 38.2671 2.68954 34.1625C3.30592 30.0579 4.28 26.2421 4.97427 23.8286C5.93651 20.4836 6.93506 18.8419 8.19987 17.0952C8.93986 16.0733 10.0398 14.8975 11.4956 13.4261C12.9515 11.9546 14.771 10.2542 15.939 9.21646C17.5261 7.80635 18.9557 7.09004 23.1062 5.94581C26.3446 5.2336 31.8816 4.25428 35.4335 3.5252C38.9853 2.79612 40.3843 2.34694 42.0254 1.94312" stroke="black" stroke-width="2" stroke-linecap="round"/>
</svg>
