<svg width="65" height="86" viewBox="0 0 65 86" fill="none" xmlns="http://www.w3.org/2000/svg">
<path d="M7.60864 1.80396C7.62161 1.80396 7.62474 2.03974 6.6369 5.04705C5.71904 7.84129 3.6877 13.1187 2.64692 15.9348C1.54356 18.9201 1.49709 19.2755 1.54447 19.6434C1.59655 20.0479 1.88553 20.429 2.20612 20.7756C2.51406 21.1085 2.96162 21.2705 3.61179 21.4837C4.69682 21.8395 6.94362 22.1311 11.2736 22.409C14.0528 22.5873 18.0289 22.5393 20.7796 22.6765C24.9516 22.8845 26.5668 23.3933 26.9011 23.5871C27.2411 23.7843 27.4244 24.2041 27.6561 24.9632C27.7962 25.5193 27.982 26.4225 28.1482 31.7035C28.3144 36.9844 28.4554 46.6159 28.6007 56.5392" stroke="black" stroke-width="2" stroke-linecap="round"/>
<path d="M28.6006 56.5391C28.6006 56.5571 28.6006 56.575 28.6006 60.4365C28.6006 64.298 28.6006 72.0024 28.6184 76.0911C28.6411 81.3223 29.6285 83.1092 30.3145 83.709C30.4889 83.8616 30.7872 83.8316 33.8944 83.9993C37.0015 84.1669 42.9502 84.4648 46.0203 84.3704C49.0904 84.2761 49.1017 83.7805 49.1337 81.8783C49.1657 79.976 49.218 76.6822 49.2193 74.8347C49.2206 72.9871 49.1693 72.6856 49.1165 72.375" stroke="black" stroke-width="2" stroke-linecap="round"/>
<path d="M48.8647 71.8723C48.8647 71.8415 48.8647 71.8108 49.0258 64.4893C49.1869 57.1678 49.5091 42.5565 49.6993 34.9433C49.8894 27.3301 49.9377 27.1577 50.0826 26.7437" stroke="black" stroke-width="2" stroke-linecap="round"/>
<path d="M50.0828 26.7436C50.1077 26.7436 50.1326 26.7436 51.9968 26.7436C53.861 26.7436 57.5638 26.7436 59.5605 26.6998C61.5571 26.656 61.7354 26.5683 61.895 26.4728C62.1991 26.2909 62.4869 25.976 62.7914 25.5632C63.1032 25.1405 63.261 24.7066 63.3402 22.3276C63.3668 20.1256 63.366 15.9039 63.0834 12.5844C62.8009 9.26493 62.2366 6.97553 61.5551 4.39868" stroke="black" stroke-width="2" stroke-linecap="round"/>
<path d="M61.517 4.39861C61.5047 4.39861 61.4923 4.39861 53.8612 4.45709C46.23 4.51556 30.9805 4.63251 22.1826 4.52874C13.3847 4.42496 11.5005 4.09692 9.85465 3.77081C8.2088 3.4447 6.85834 3.13047 6.05 2.95206C5.24165 2.77366 5.01633 2.7406 4.78418 2.70654" stroke="black" stroke-width="2" stroke-linecap="round"/>
</svg>
