<svg width="53" height="71" viewBox="0 0 53 71" fill="none" xmlns="http://www.w3.org/2000/svg">
<path d="M1.8785 6.84157C1.86582 6.82889 2.06595 6.93689 2.46241 7.19275C2.85711 7.44748 4.30902 9.49058 6.67073 12.9492C9.72239 17.4183 9.62024 18.5359 9.95558 18.9637C10.2103 19.2885 12.2934 18.0001 15.7438 16.2277C17.457 15.3477 19.2342 14.7958 20.5633 14.4203C22.7235 13.8101 24.345 13.8322 25.4783 13.8695C26.06 13.8887 26.3416 14.1342 26.5962 14.4088C26.8468 14.679 26.9716 15.1111 27.1941 15.9107C27.6004 17.3711 27.7908 19.9778 27.8703 22.5833C27.924 24.3394 26.6135 26.5587 24.9169 28.707C24.4143 29.3433 23.5159 29.9534 22.158 30.8519C20.8001 31.7504 18.9238 32.8404 17.436 33.5801C15.9482 34.3199 14.9058 34.6764 14.3986 34.9417C13.8914 35.2069 13.951 35.3702 14.2198 35.7609C14.4886 36.1515 14.9648 36.7646 16.1471 37.9993C17.3294 39.2341 19.2035 41.0719 20.3829 42.0239C21.5622 42.9759 21.99 42.9864 22.9107 42.7175C25.2729 42.0275 27.4153 41.2068 28.954 41.007C31.6078 40.6625 32.1583 40.7698 32.3622 40.756C33.7208 40.6641 29.7673 44.4308 28.7838 45.2876C28.4434 45.5842 26.8921 45.9237 23.6078 47.1125C21.6008 47.988 18.9028 49.4163 17.4499 50.2017C15.997 50.9871 15.871 51.0864 15.6559 51.2733" stroke="black" stroke-width="2" stroke-linecap="round"/>
<path d="M15.6558 51.2732C15.6558 51.2962 15.6558 51.953 16.0062 54.5559C16.2716 56.5271 17.0575 59.765 17.5221 61.7127C18.4175 65.4667 19.8113 67.1659 20.6795 68.2443C21.6534 69.4541 22.5762 69.5935 25.4314 69.8909C26.4887 70.001 27.7931 69.9452 30.4622 69.5952C33.1314 69.2453 37.1304 68.5414 39.3253 68.1367C41.7961 67.681 42.765 67.21 44.0851 66.557C46.0196 65.6832 47.8896 64.8328 49.9511 63.5768C50.4603 63.2155 51.0439 62.7693 51.9153 62.1288" stroke="black" stroke-width="2" stroke-linecap="round"/>
<path d="M51.9155 62.1287C51.9155 62.1228 51.9155 62.1168 51.8178 58.4484C51.7201 54.78 51.5248 47.4492 51.2191 42.6235C50.9135 37.7977 50.5035 35.6991 50.175 34.3201C49.4763 31.387 48.6106 30.5806 47.3069 29.4457C46.4768 28.723 44.6808 28.4569 41.5235 26.7702C40.153 26.038 42.3907 22.1519 43.1447 20.0165C44.2993 16.7465 44.9864 14.9887 45.1794 13.4738C45.2486 12.6028 45.2593 11.5245 45.2382 10.8302C45.2172 10.1359 45.1641 9.85829 45.1094 9.57227" stroke="black" stroke-width="2" stroke-linecap="round"/>
<path d="M45.1092 9.57246C44.9057 9.25623 43.6338 7.00573 42.3362 5.02989C42.0222 4.55175 41.4899 4.23725 40.6457 3.74578C39.4439 3.04606 37.8631 2.69346 33.165 2.35451C29.2404 2.07137 22.1678 1.89509 17.2729 2.02482C12.378 2.15455 9.87004 2.68064 8.15976 3.11285C4.00591 4.69022 2.36207 5.79412 2.14301 6.04126C2.05513 6.18061 2.01451 6.34824 1.97266 6.75333" stroke="black" stroke-width="2" stroke-linecap="round"/>
<path d="M7.27427 6.33112C7.25741 6.32257 9.43852 6.31389 11.8623 6.70574C13.7963 7.01842 8.56314 8.65204 8.88129 8.47036C9.42422 8.16032 10.7874 7.84228 12.9143 7.54746C15.2758 7.22011 16.6828 7.43117 16.8964 7.48223C17.0093 7.50923 17.1227 7.56994 17.1544 7.66632C17.228 7.89042 16.3046 8.32464 13.9922 8.96518C12.4643 9.38839 10.1513 9.75352 9.03509 9.8975C7.91883 10.0415 8.05259 9.88745 8.34246 9.66225C9.04999 9.11259 10.537 8.41547 12.3673 7.67673C13.7687 7.11112 15.2097 6.93033 16.392 6.88901C16.791 6.87506 16.7758 7.08307 16.6263 7.32999C16.4768 7.5769 16.1919 7.90952 15.3775 8.6529C14.5631 9.39627 13.2278 10.5403 12.7008 10.9768C12.0391 11.5248 15.2825 9.47343 16.4296 9.11059C16.6506 9.04069 16.8376 9.0492 16.875 9.13265C16.9875 9.38405 15.4478 10.4734 13.2958 11.9697C12.3942 12.5966 11.8278 12.8786 11.6121 12.969C11.2098 13.1375 13.1489 12.3207 15.7256 12.137C16.228 12.1011 16.3415 12.1334 16.4714 12.1749C16.6013 12.2163 16.7452 12.2861 16.8355 12.4382C16.9259 12.5903 16.9584 12.8226 16.9298 13.0052C16.8787 13.3319 16.4341 13.715 15.7826 14.2838C14.1129 15.7414 12.2835 16.1781 11.7731 16.1892C11.6682 16.1915 11.7094 15.9137 11.7681 15.7498C11.8854 15.4222 12.2702 15.1431 12.8735 14.6986C13.8445 13.983 14.892 13.5357 15.8089 13.2353C17.0685 12.8225 18.8446 12.6965 19.8458 12.7238C19.9164 12.7257 18.8349 12.9795 18.8385 12.8656C18.842 12.7517 19.8959 12.333 20.8197 12.0282C21.7435 11.7235 22.5052 11.5454 23.5719 11.4238C25.9783 11.1496 27.4647 11.2186 27.5472 11.3411C27.5948 11.4118 27.4391 11.5579 27.3001 11.6548C27.0147 11.854 26.0788 11.9765 24.3701 12.1398C22.2042 12.3469 20.6184 12.1677 19.9524 12.0783C19.6272 12.0347 19.3325 11.9623 19.2477 11.883C19.163 11.8037 19.2982 11.7113 20.2344 11.638C21.1707 11.5646 22.9039 11.5131 24.0669 11.5058C25.2299 11.4986 25.7701 11.5372 27.1169 11.8358C28.4637 12.1345 30.6006 12.6922 31.7481 13.0012C32.8957 13.3103 32.9891 13.3539 32.924 13.3891C31.3968 14.2134 28.6237 12.9737 28.5797 12.9133C28.5282 12.8428 28.902 12.7583 29.7177 12.6218C30.5334 12.4854 31.9036 12.3167 33.4858 12.2261C35.0681 12.1356 36.821 12.1282 37.838 12.1376C39.4699 12.1528 39.856 12.3544 40.0215 12.4558C40.1072 12.5084 40.1672 12.6047 40.1558 12.7081C40.0934 13.2744 38.8341 13.4704 36.7531 13.8203C35.2687 14.0699 32.8796 14.2296 31.7695 14.3381C30.6595 14.4466 30.8921 14.4386 31.096 14.4457C31.4691 14.4587 31.8367 14.5796 33.0874 15.3754C34.1625 16.0595 36.052 17.4343 37.1672 18.2425C38.9555 19.5385 39.1176 19.894 39.1885 20.0884C39.2253 20.1891 39.1842 20.3147 37.917 20.4476C36.6497 20.5804 34.1372 20.7221 33.0722 20.8039C32.0072 20.8857 32.4659 20.9033 33.0849 21.032C33.704 21.1606 34.4695 21.3998 35.2971 21.7437C38.0482 22.887 38.2485 23.255 38.318 23.3995C38.3793 23.5269 37.6786 23.4668 36.2899 23.2449C35.3054 23.0875 33.7771 22.7022 32.8676 22.5181C31.9581 22.334 31.7199 22.3278 31.5651 22.3621C31.4104 22.3965 31.3462 22.4716 31.3269 22.5792C31.3075 22.6868 31.3349 22.8246 31.3894 22.9501C31.4974 23.1988 32.9761 24.2116 34.9585 25.6237C35.6026 26.0826 35.3924 26.1757 33.986 26.2324C32.5796 26.2891 29.9529 26.3468 28.6392 26.4145C27.3255 26.4822 27.4044 26.5581 28.3353 27.0338C29.2662 27.5096 31.0467 28.383 32.0206 28.8683C33.1138 29.4131 33.3019 29.5611 33.4457 29.7108C33.5211 29.7894 33.5669 29.9034 33.5572 30.0334C33.5476 30.1635 33.4724 30.3139 33.3516 30.4238C33.2309 30.5336 33.067 30.5985 31.6856 30.8429C30.3041 31.0872 27.7101 31.5092 26.2276 31.7785C24.4428 32.1028 24.0344 32.3193 23.8122 32.4398C23.7054 32.4978 23.616 32.5591 25.0918 32.8318C26.5676 33.1044 29.6127 33.5891 31.2539 33.8687C32.895 34.1484 33.04 34.2082 32.9888 34.2827C32.9377 34.3571 32.6859 34.4443 31.8344 34.6397C30.9829 34.835 29.5394 35.1359 28.3485 35.4559C27.1577 35.7759 26.2633 36.106 25.508 36.4158C24.7528 36.7256 24.1638 37.0052 23.8534 37.0871C23.543 37.1689 23.5291 37.0446 23.5835 36.913C23.706 36.6171 24.6536 35.9936 25.9816 35.1564C26.5305 34.8104 26.8809 34.7162 27.72 34.5435C28.559 34.3707 29.8904 34.1459 30.8395 34.0336C31.7887 33.9213 32.3154 33.9283 32.6086 33.9776C32.9017 34.0269 32.9453 34.1181 32.9478 34.2429C32.9533 34.5258 32.7423 34.7962 32.4539 35.0235C32.1221 35.285 31.6324 35.4723 30.7147 35.7456C30.0702 35.9376 29.0379 36.15 27.6853 36.368C26.3327 36.5859 24.6848 36.7806 23.524 36.881C21.7435 37.0348 20.8045 36.9705 20.0117 37.011C19.5097 37.0367 18.8133 37.1759 20.4164 36.8226C22.0194 36.4693 25.9449 35.6456 27.7288 35.2809C29.5127 34.9162 29.0359 35.0354 28.16 35.1262C26.0297 35.3468 24.5471 35.3161 23.9927 35.1857C23.0218 34.9572 21.995 34.4185 21.2721 33.9988C21.0025 33.8422 20.9664 33.7416 21.0457 33.6499C21.125 33.5583 21.3301 33.4638 23.0629 33.3656C24.7956 33.2674 28.0499 33.1685 29.6062 33.1215C31.1625 33.0746 30.9224 33.0826 30.6129 33.061C29.9295 33.0131 29.3743 32.8756 29.082 32.7403C28.9546 32.6813 28.909 32.5712 28.923 32.4772C28.9541 32.2685 29.755 32.0414 32.308 31.6774C34.2078 31.4065 37.3655 31.2066 39.0257 31.0417C40.6859 30.8768 40.7607 30.8159 40.4407 30.7063C38.162 29.926 36.7665 30.116 36.563 29.9898C36.4628 29.9277 36.4329 29.7875 36.4319 29.6771C36.431 29.5666 36.4763 29.4691 36.5549 29.4068C36.7177 29.2777 37.2696 29.2707 38.1321 29.2429C39.0586 29.2131 40.1949 29.4742 41.3335 29.8589C42.1804 30.145 42.592 30.5371 42.7747 30.7998C42.861 30.9239 42.8737 31.0665 42.8283 31.2176C42.612 31.938 41.0592 32.4195 39.4391 32.8692C38.0583 33.2525 36.445 33.1431 35.2881 33.1193C34.8257 33.1097 34.6186 33.0476 34.6177 33.0168C34.612 32.8011 35.9108 33.0771 38.4396 33.6347C40.1226 34.0058 42.5482 34.8398 43.8471 35.2571C45.1459 35.6745 45.2267 35.7225 45.3087 35.7981C45.3907 35.8737 45.4713 35.9755 45.4038 36.0692C45.3363 36.1629 45.1183 36.2455 43.3921 36.3364C41.6659 36.4273 38.4382 36.524 36.6418 36.6015C34.8453 36.679 34.5779 36.7344 34.5184 36.7891C34.4588 36.8439 34.6152 36.8964 35.6228 37.1608C36.6304 37.4252 38.4845 37.8999 39.5408 38.1855C40.8065 38.5277 41.1062 38.6935 41.287 38.8158C41.3746 38.8751 41.4324 38.9578 41.4139 39.0083C41.3954 39.0587 41.2933 39.0818 38.3991 39.0924C35.505 39.103 29.8219 39.1004 28.4036 38.7824C26.9853 38.4643 30.0038 37.8308 30.9498 37.5449C31.276 37.4463 29.3828 37.2798 29.3455 37.0201C29.3289 36.9049 29.3931 36.8189 29.5038 36.7281C29.7666 36.5125 30.551 36.2583 32.4897 35.9226C33.8345 35.6897 35.9606 35.6736 37.8646 35.7102C39.7687 35.7467 41.3987 35.9243 42.5201 36.1014C43.6415 36.2785 44.205 36.4496 44.3732 36.5884C44.5415 36.7272 44.2974 36.8284 42.9603 36.8392C41.6231 36.8499 39.2003 36.7671 38.0697 36.7065C36.9391 36.6459 37.1743 36.61 37.4028 36.591C37.845 36.5542 38.3622 36.6057 39.1495 36.757C40.3415 36.986 41.5486 37.5803 42.4885 38.1837C43.2428 38.668 43.5404 39.1474 43.6012 39.4273C43.6525 39.6637 43.5429 39.918 43.3676 40.1973C43.1605 40.5272 42.7175 40.792 41.9033 41.2279C41.3351 41.532 40.4076 41.9175 39.149 42.3243C36.3487 43.2293 34.438 43.5541 34.7635 43.6433C35.3474 43.7095 36.7813 43.8184 38.0237 43.9427C39.266 44.0669 40.2734 44.2034 41.3113 44.344" stroke="#7C500A" stroke-width="2" stroke-linecap="round"/>
<path d="M41.3113 44.3441C41.2972 44.3441 40.027 44.8293 37.2177 45.698C35.6957 46.1687 33.8799 46.3489 32.5173 46.4997C31.1547 46.6505 30.2752 46.6767 31.0205 46.2929C31.7657 45.909 34.1623 45.1141 36.1626 44.5951C38.1629 44.0761 39.6943 43.8569 40.5308 43.7426C41.3674 43.6282 41.4627 43.6253 41.3692 43.7167C41.2757 43.8081 40.9906 43.9939 39.8257 44.4429C38.6608 44.892 36.6246 45.5988 33.2705 46.466C29.9164 47.3331 25.3059 48.3393 22.8443 48.8875C20.3827 49.4358 20.2096 49.4956 20.2449 49.4997C20.2802 49.5038 20.5291 49.4503 21.8157 49.1409C23.1022 48.8316 25.4188 48.268 27.2532 47.9449C29.0877 47.6218 30.3697 47.5563 30.9861 47.6082C31.6024 47.66 31.5141 47.8312 31.3894 47.986C31.1361 48.3007 30.3153 48.7769 29.0902 49.4473C27.9809 50.0542 26.8629 50.3829 25.0825 50.7678C23.8304 51.0386 21.8372 51.2954 20.871 51.4179C19.9048 51.5404 20.0174 51.4779 21.5992 51.1285C23.1811 50.7791 26.2287 50.1445 28.3707 49.7916C30.5127 49.4386 31.6566 49.3866 32.2136 49.4225C32.7706 49.4584 32.706 49.5839 32.3107 49.8122C31.9155 50.0405 31.1917 50.3679 29.5519 50.9077C27.9122 51.4475 25.3786 52.1898 24.0213 52.5832C22.6641 52.9767 22.56 52.9988 23.56 52.7618C24.56 52.5248 26.6672 52.028 28.7851 51.713C30.9029 51.398 32.9675 51.2799 34.0323 51.2841C35.0972 51.2883 35.0997 51.4184 35.0439 51.5364C34.9249 51.7878 34.0583 52.2149 32.6166 52.8694C31.8857 53.2011 31.1031 53.4085 30.0413 53.6309C27.6634 54.1291 25.6947 54.2808 26.1708 54.3252C27.2254 54.4235 29.9484 54.3687 31.4957 54.3976C34.0116 54.4446 34.9601 54.9234 35.2306 55.2253C35.4485 55.4686 34.4528 56.0141 33.2392 56.5592C32.6458 56.8257 32.0672 57 30.8045 57.2648C29.5419 57.5295 27.6048 57.861 25.6717 58.0717C23.7386 58.2824 21.8681 58.3621 21.1199 58.3597C20.3718 58.3573 20.8026 58.2704 22.169 58.1948C23.5354 58.1192 25.8244 58.0576 27.2968 58.0764C29.3589 58.1026 30.0437 58.3429 30.1067 58.4196C30.4077 58.7856 28.7421 58.4071 26.9849 58.019C25.7415 57.7443 23.8032 57.2282 22.8251 56.9298C21.8469 56.6314 21.8924 56.5449 22.1241 56.442C22.3557 56.3391 22.772 56.2223 24.0297 56.1416C25.2874 56.0609 27.374 56.0199 28.3541 55.9763C29.3341 55.9328 29.1444 55.8879 28.9724 55.8272C28.6441 55.7113 28.4259 55.5489 28.3137 55.3856C28.2537 55.2983 28.271 55.1573 28.3169 55.0449C28.4104 54.8157 29.2016 54.4323 31.9394 53.4535C34.0065 52.7145 37.5523 51.7892 37.5291 51.2735C37.5059 50.7577 33.8326 50.7577 34.958 50.5799C36.0834 50.402 42.1189 50.0463 43.7766 49.7616C45.4344 49.4768 42.5316 49.2738 40.829 49.1257C38.707 48.941 38.1565 48.7561 37.904 48.6558C37.6545 48.5566 37.4664 48.343 37.3397 48.0635C37.1974 47.7493 37.282 47.435 37.3429 47.2248C37.5091 46.6508 38.2926 46.0748 39.9253 45.2756C41.0368 44.7316 42.7272 44.6125 44.549 44.4403C45.3995 44.3599 46.1067 44.3772 46.3935 44.4357C46.6803 44.4942 46.527 44.6148 46.1472 44.7906C45.7673 44.9663 45.1654 45.1937 44.2258 45.4525C43.2861 45.7113 42.0269 45.9947 39.9473 46.2319C37.8678 46.4691 35.0062 46.6516 33.5925 46.7155C32.1788 46.7793 32.2997 46.719 32.7789 46.5917C33.2581 46.4645 34.0919 46.2723 35.3245 46.1404C36.557 46.0086 38.1631 45.943 39.1725 45.9233C41.1395 45.8849 41.9862 46.2299 42.9827 46.8807C43.1833 47.0116 43.1667 47.1847 43.1525 47.3537C43.0922 48.0742 42.4636 48.5971 41.4992 49.2558C40.7732 49.7515 39.6927 49.8965 38.9478 49.941C38.7361 49.9537 40.2812 49.1016 42.6524 48.3089C43.7534 47.9409 44.7042 47.8272 45.7434 47.7327C47.8904 47.5374 49.1357 47.6516 49.2665 47.8249C49.6161 48.2878 48.2293 49.3731 47.0918 50.2544C46.711 50.5494 46.0459 50.8617 45.1839 51.1996C43.2868 51.9432 41.3875 52.2844 40.7004 52.4729C39.7271 52.74 42.935 52.5947 43.5476 52.7174C45.1707 53.0424 45.9811 53.8454 46.1545 54.2454C46.2072 54.3668 46.1828 54.5393 46.1377 54.6805C46.0491 54.9577 45.7232 55.1894 45.2787 55.4737C44.695 55.847 43.652 56.0826 41.5726 56.361C40.1371 56.5531 37.9014 56.5969 37.8469 56.6522C37.7925 56.7075 39.98 56.7086 41.51 56.7782C43.8532 56.8846 44.7945 57.1734 44.9565 57.2904C45.0247 57.3397 44.9693 57.4574 44.8785 57.5302C44.7876 57.6031 44.6386 57.6502 42.5763 57.7639C40.514 57.8775 36.543 58.0562 34.4406 58.1408C32.3382 58.2254 32.2248 58.2105 32.1578 58.1444C32.0908 58.0783 32.0737 57.9614 32.0862 57.8385C32.1409 57.3038 32.8216 56.826 33.6129 56.3091C33.9283 56.103 34.4678 55.8985 35.9917 55.5569C37.5156 55.2152 40.028 54.7778 41.268 54.5722C42.508 54.3666 42.3996 54.406 41.7705 54.4848C41.1414 54.5637 39.995 54.6807 38.7709 54.7368C36.2819 54.8508 34.7901 54.7513 34.4519 54.6914C34.1721 54.6418 33.9645 54.4973 33.839 54.2913C33.7641 54.1682 33.8388 53.9376 33.98 53.7137C34.2987 53.2085 34.9877 52.8064 35.8296 52.3656C36.8567 51.828 38.2849 51.5683 39.9006 51.332C42.6088 50.9358 43.2015 51.6314 44.1837 51.7779C44.7347 51.8601 45.2679 52.127 45.6817 52.6174C46.0007 52.9955 45.5344 53.6307 45.4993 54.2045C45.4539 54.945 47.3796 54.9169 47.8231 55.1809C47.9135 55.2347 47.9687 55.3323 47.9902 55.4536C48.039 55.7287 47.3286 56.3877 45.9656 57.3567C45.2539 57.8626 44.4226 58.281 43.5666 58.6287C42.7106 58.9764 41.8349 59.211 40.81 59.3532C39.7852 59.4954 38.6377 59.5381 38.111 59.5235C37.5843 59.5089 37.7132 59.4356 39.6932 59.3093C41.6732 59.1829 45.5004 59.0058 47.5212 58.9245C49.5419 58.8431 49.6403 58.8629 49.677 58.9308C49.7137 58.9986 49.6859 59.1139 49.609 59.2148C49.1585 59.8058 48.0225 60.0451 46.2979 60.5558C44.9588 60.9525 42.6525 61.5411 41.4052 61.856C40.158 62.1709 40.0332 62.1718 40.4484 62.1747C43.05 62.1928 43.7071 62.371 44.0017 62.5135C44.1374 62.5792 44.1914 62.7217 44.0187 62.907C43.8461 63.0923 43.4316 63.3392 42.7792 63.573C42.1269 63.8069 41.2494 64.0203 39.33 64.2165C37.4107 64.4126 34.4762 64.5851 31.4527 64.7628" stroke="#7C500A" stroke-width="2" stroke-linecap="round"/>
<path d="M31.4527 64.7627C31.4381 64.7627 31.2078 64.7786 30.2938 65.0206C28.3994 65.5221 27.1061 66.1704 26.8101 66.2328C26.6701 66.2624 26.5466 66.2637 27.8502 66.0027C29.1539 65.7418 31.8872 65.2125 33.4952 64.8809C36.0421 64.3557 36.4872 64.2545 36.7496 64.2985C36.9444 64.3312 35.7905 64.782 33.4952 65.306C31.8739 65.6762 29.2617 65.9428 26.9555 66.1169C24.6493 66.291 22.7118 66.2839 21.6517 66.2496C20.5916 66.2152 20.4675 66.1538 20.4307 66.048C20.394 65.9422 20.4483 65.7939 20.632 65.6232C21.0799 65.2068 22.096 64.8116 23.7772 64.3219C26.1464 63.6319 27.9064 63.6893 27.4925 63.7048C23.4136 63.8577 23.0455 63.6895 22.857 63.5884C22.7596 63.5362 22.6987 63.4202 22.6818 63.2957C22.6649 63.1712 22.7041 63.0258 22.7887 62.8986C22.9631 62.6364 23.7416 62.2544 25.32 61.6697C26.2679 61.3184 27.6087 61.1436 29.1972 60.9932C30.7857 60.8428 32.6054 60.7954 31.8998 60.8237C31.1942 60.8521 27.9083 60.9576 25.9859 60.9783C23.6041 61.0039 22.9691 60.8096 22.7922 60.7142C22.6653 60.6457 23.774 60.6243 25.9521 60.8136C27.4181 60.9411 29.5983 61.3072 30.5849 61.4796C31.5715 61.6521 31.2939 61.6644 31.0918 61.6494C30.4647 61.6028 29.658 60.9635 29.1646 60.5193C28.9111 60.2912 28.8113 59.9357 28.8187 59.6361C28.8226 59.4817 28.9711 59.3436 29.1272 59.2357C29.2834 59.1277 29.4797 59.0594 30.3573 59.011C31.2349 58.9626 32.788 58.9361 34.6797 59.1146C36.5715 59.2932 38.7549 59.6776 39.7992 59.9407C40.8435 60.2038 40.6825 60.334 39.5854 60.6294C38.4884 60.9247 36.4601 61.3811 34.5171 61.6731C32.5742 61.9651 30.7781 62.0787 29.8455 62.0884C28.913 62.0982 28.8985 62.0007 28.9478 61.9216C29.2743 61.3974 30.4117 61.5022 31.9366 61.4571C33.1288 61.4218 35.1722 61.4705 36.5306 61.5207C37.8891 61.5708 38.501 61.6489 38.7722 61.7222C39.0434 61.7955 38.9552 61.8617 36.5044 62.0228C34.0537 62.1839 29.243 62.4378 26.9026 62.4959C24.5621 62.5539 24.8377 62.4083 25.7898 62.0547C26.7418 61.7011 28.362 61.144 30.1946 60.7082C32.0272 60.2724 34.023 59.9749 35.9822 59.8368C37.9415 59.6987 39.8036 59.7291 40.8434 59.7601C42.0453 59.796 42.3943 59.9452 42.6781 60.1711C42.8088 60.2751 42.7871 60.4786 42.7287 60.6579C42.3947 61.6824 40.936 62.4961 39.2467 63.345C38.3712 63.7849 36.7852 64.2457 36.1124 64.4837C35.4396 64.7216 35.689 64.635 36.1207 64.5475C36.5524 64.4599 37.1587 64.3741 38.167 64.3379C39.1752 64.3017 40.567 64.3178 41.6422 64.3949C43.442 64.5239 44.4082 64.8317 44.8077 64.992C44.9764 65.0596 45.0542 65.1483 45.0286 65.2387C44.9602 65.4809 43.3014 65.7123 40.9161 65.9734C39.9567 66.0784 39.4989 66.0458 39.2526 65.9133C38.839 65.6908 38.9779 65.1332 39.0339 64.8506C39.1626 64.2005 40.0562 63.1691 40.617 62.5817C41.0887 62.3271 42.4133 62.0467 43.4472 61.7496C43.5889 61.6821 43.6992 61.6149 43.8129 61.5457" stroke="#7C500A" stroke-width="2" stroke-linecap="round"/>
<path d="M39.7154 10.84C39.7192 10.84 39.723 10.84 37.2992 10.92C34.8753 11 30.0238 11.16 27.5836 11.1906C25.1434 11.2213 25.2617 11.1177 25.5868 10.978C26.4221 10.6193 27.9394 10.3347 30.2209 10.0969C31.5438 9.95913 33.2198 10.0017 31.9905 10.0096C30.7612 10.0175 26.5805 10.0445 24.3847 10.0322C22.1889 10.02 22.1048 9.96771 22.124 9.92673C22.1433 9.88575 22.2685 9.85766 24.0659 9.78443C25.8634 9.7112 29.3293 9.59369 31.1727 9.52174C33.0161 9.44978 33.132 9.42694 30.7216 9.28209C28.3111 9.13724 23.3707 8.87107 20.6829 8.70904C17.9952 8.547 17.7097 8.49717 17.5799 8.40382C17.3788 8.25918 18.342 7.61684 20.3237 6.74908C21.463 6.25018 22.9569 5.83394 24.4172 5.4967C25.8775 5.15947 27.2803 4.96537 28.4159 4.8597C29.5515 4.75403 30.3773 4.74267 29.8916 5.02668C29.4058 5.31069 27.5835 5.89042 25.0912 6.37229C22.599 6.85416 19.4921 7.22061 17.5168 7.40939C15.5414 7.59817 14.7918 7.59817 14.7409 7.55878C14.69 7.51938 15.3606 7.44059 18.3603 7.34809C21.36 7.25559 26.6684 7.15176 29.5971 7.12991C32.914 7.10517 33.6287 7.33449 34.0592 7.51609C34.1906 7.57151 34.0811 7.66605 32.3534 7.73198C30.6256 7.7979 27.2665 7.86142 25.3482 7.8721C23.43 7.88277 23.0545 7.83867 22.4685 7.71555C21.0897 7.42585 20.1538 7.11374 19.9932 6.97934C19.8922 6.89484 20.7066 6.73594 22.4688 6.64838C23.6652 6.58894 25.4805 6.67125 27.4895 6.92164C29.4985 7.17204 31.6476 7.63206 32.7041 7.88614C33.7606 8.14022 33.6593 8.17442 33.1653 8.20694C31.789 8.29754 30.7289 8.27201 30.4528 8.19884C30.2065 8.13354 30.0112 7.83077 29.8824 7.43335C29.7603 7.05668 30.1169 6.69838 30.414 6.4381C30.9688 5.95197 31.9197 5.75197 34.1996 5.57739C35.3175 5.49179 36.0583 5.95932 36.7529 6.29248C37.0181 6.41969 37.0974 6.47968 36.4914 6.52657C34.5932 6.67345 33.161 6.61134 33.0457 6.50354C32.991 6.45239 33.0751 6.32636 33.1496 6.25373C33.4727 5.93876 35.7488 5.96118 37.2891 6.04869C37.9864 6.0883 38.5627 6.46595 38.8776 6.65756C39.0115 6.73901 39.0352 6.86812 39.0145 6.96114C38.9722 7.15128 38.3407 7.50163 37.1917 8.12918C35.7677 8.90697 34.517 9.28051 34.722 9.44073C35.1712 9.79172 36.7992 9.47831 37.8078 9.54585C38.8164 9.61339 39.2783 9.76156 39.5506 9.87398C39.909 10.0219 38.2669 10.4627 35.2058 10.9845C33.8462 11.2162 32.8555 11.2212 32.4576 11.2198C32.2714 11.2192 33.8662 11.1287 36.0983 11.1739C37.3059 11.1983 38.7688 11.7404 40.5157 12.3774C41.1428 12.6061 41.2336 12.6687 41.2583 12.7582C41.4626 13.5001 39.0105 13.75 38.1263 13.9512C37.8672 14.0102 37.9864 13.9499 38.1162 13.9041C38.7671 13.6745 39.7718 13.6876 40.4746 13.8369C40.7116 13.8872 40.8255 14.1049 40.9308 14.3171C41.0757 14.6091 41.0206 14.997 40.862 15.4033C40.6271 16.0051 39.3991 16.855 37.9337 17.945C36.8915 18.7202 36.2629 18.9015 36.0581 18.9549C35.9516 18.9827 35.8366 18.9976 35.8087 18.9042C35.7226 18.6156 35.9875 18.3239 36.1705 18.1865C36.6091 17.8571 37.2472 17.7594 38.5841 17.6832C38.8758 17.6665 39.0033 17.7417 39.1086 17.8103C39.3114 17.9425 39.4063 18.1838 39.4389 18.4278C39.4545 18.5442 39.4119 18.6498 39.3458 18.7408C38.9762 19.2497 37.4705 19.5718 35.5537 20.0154C34.5087 20.2573 33.2849 20.3828 32.6674 20.3694C32.0499 20.356 32.0676 20.1614 32.1388 19.9918C32.4407 19.2731 33.3264 18.8226 34.7958 18.0875C36.0648 17.4526 37.7538 17.5946 38.532 17.7391C38.6601 17.7628 38.6846 17.9005 38.6733 17.9975C38.6492 18.2046 37.9478 18.5672 36.8527 19.0436C35.9457 19.4382 34.8403 19.5767 33.8856 19.6384C33.5685 19.6588 33.5955 19.4442 33.818 19.1638C34.3962 18.4348 35.3283 17.7474 36.1539 17.1473C37.4371 16.2146 38.4077 16.091 38.697 16.097C38.8268 16.0997 38.9134 16.185 38.9639 16.3443C39.0897 16.7403 39.0188 17.2055 38.9658 17.6273C38.9027 18.1294 38.3035 19.5066 37.6189 21.2117C37.3869 21.7896 37.6009 21.8579 38.1239 21.6621C39.5673 21.1218 40.5995 20.5155 40.8801 20.4796C40.994 20.4951 41.0499 20.5787 40.521 21.3149C39.9921 22.051 38.8766 23.437 37.6666 24.9624" stroke="#7C500A" stroke-width="2" stroke-linecap="round"/>
</svg>
