<svg width="69" height="79" viewBox="0 0 69 79" fill="none" xmlns="http://www.w3.org/2000/svg">
<path d="M1.91821 2.12567C1.91821 2.11933 1.91821 2.11299 2.58281 3.31566C3.2474 4.51834 4.57659 6.93021 5.78959 9.67061C7.00259 12.411 8.05912 15.4068 8.64164 17.017C9.22415 18.6272 9.30064 18.7609 10.3779 18.6243C11.4553 18.4876 13.5311 18.0764 17.2246 17.8181C20.9182 17.5599 26.1666 17.4669 29.6622 17.5745C34.7416 17.993 36.6342 18.429 37.1045 18.6473C37.314 18.75 37.4644 18.8359 37.713 19.035" stroke="black" stroke-width="2" stroke-linecap="round"/>
<path d="M37.7129 19.0352C38.8082 19.0352 41.3168 19.1719 42.3038 20.0392C43.7588 21.3178 45.1103 23.455 46.1811 25.3834C46.9516 26.7709 47.1821 27.6892 47.4048 30.5875C47.6066 33.214 47.7606 38.202 47.7816 41.1274C47.6277 44.7683 47.221 46.0837 46.7463 47.2128C46.4982 47.7637 46.2352 48.2698 45.8652 49.0524" stroke="black" stroke-width="2" stroke-linecap="round"/>
<path d="M45.8653 49.0525C45.8653 49.064 45.6792 49.2611 45.2148 49.6991C44.6022 50.2767 43.1127 51.2108 38.7613 53.2796C35.4926 54.6853 30.0706 56.8132 26.7593 58.034C23.448 59.2549 22.4117 59.5041 21.105 59.9009" stroke="black" stroke-width="2" stroke-linecap="round"/>
<path d="M21.1052 59.9009C21.0588 59.9009 18.1483 59.9009 13.7446 60.9027C10.435 61.6557 12.155 66.3434 12.4567 67.9144C13.0783 71.1506 13.688 73.9479 13.8018 75.1384C13.9125 75.7479 13.9892 76.0589 14.0444 76.3818C14.0786 76.5522 14.1254 76.7361 14.2312 77.1813" stroke="black" stroke-width="2" stroke-linecap="round"/>
<path d="M14.231 77.2191C14.2367 77.2191 14.2424 77.2191 18.075 77.1538C21.9076 77.0885 29.5669 76.9579 34.5774 76.8103C39.5878 76.6627 41.7173 76.502 43.9114 76.3364" stroke="black" stroke-width="2" stroke-linecap="round"/>
<path d="M43.9116 76.3365C43.9346 76.3365 43.9576 76.3365 47.4275 76.3329C50.8975 76.3293 57.8137 76.3222 61.4714 76.3057C65.6848 76.2866 66.4922 75.8298 67.2445 75.4166C67.6742 75.1805 67.8335 72.9687 67.9382 68.9151C68.0441 64.815 67.4226 62.6759 67.0266 62.5972C66.8303 62.5582 66.6485 62.4977 63.9539 62.3985C61.2594 62.2993 56.059 62.1572 53.1853 62.0486C49.3667 61.7769 48.8942 61.72 48.5594 61.6776C48.3837 61.6535 48.1962 61.624 47.9016 61.6482" stroke="black" stroke-width="2" stroke-linecap="round"/>
<path d="M47.9014 61.648C47.9129 61.648 48.4976 61.3728 50.3496 60.2945C51.6506 59.5372 53.5731 58.1691 54.8876 57.1783C56.2022 56.1875 56.822 55.5685 58.5416 53.5271C60.2612 51.4857 63.0619 48.0407 66.1095 44.2427" stroke="black" stroke-width="2" stroke-linecap="round"/>
<path d="M2.73903 1.16455C2.73288 1.16455 2.72674 1.16455 6.4258 1.22122C10.1249 1.27789 17.5293 1.39123 23.025 1.87703C28.5207 2.36283 31.8833 3.21764 34.0145 3.85794C36.1456 4.49823 36.9433 4.8981 37.8896 5.471" stroke="black" stroke-width="2" stroke-linecap="round"/>
<path d="M37.8896 5.50879C37.9479 5.50879 39.6509 5.52484 42.6226 5.63486C43.9239 5.68303 44.7952 5.90022 45.9987 6.27931C47.2023 6.65839 48.709 7.23996 50.2071 8.01788C51.7053 8.79581 53.1492 9.75248 54.2533 10.5437C56.1167 11.8792 57.2123 13.0284 58.008 14.1873C58.9898 15.6172 59.5155 17.5095 59.9738 18.9504C60.1452 19.4892 60.1994 19.6353 60.8235 21.5761C61.4476 23.5169 62.6416 27.2475 63.3185 29.5023C63.9953 31.7571 64.1187 32.4231 64.1887 33.857C64.2586 35.291 64.2713 37.4729 64.0047 39.5276C63.1918 43.444 62.5651 45.5255 62.3979 46.0473C62.2945 46.4055 62.1534 46.9536 61.8459 47.8197" stroke="black" stroke-width="2" stroke-linecap="round"/>
<path d="M61.8458 47.8196C61.8458 47.8311 61.8458 48.4013 61.8187 49.3692C61.7915 49.7728 61.7372 49.9985 61.6339 50.2756C61.5305 50.5528 61.3797 50.8746 61.0022 51.5772" stroke="black" stroke-width="2" stroke-linecap="round"/>
<path d="M7.95656 5.1022C7.92724 5.13128 7.87 5.23848 7.84554 5.4071C7.83428 5.4847 7.94201 5.54127 8.03946 5.5598C8.46607 5.6409 8.76464 5.36215 8.91509 5.37641C9.11057 5.39493 8.89513 5.98397 9.02541 6.20269C9.52104 7.03483 10.6083 5.17568 10.8191 5.12562C10.9875 5.08563 10.1851 6.57234 9.24946 8.28058C8.94162 8.84261 9.06098 8.83182 9.591 8.41171C10.121 7.99161 11.0806 7.1743 11.5618 6.80737C12.0429 6.44045 12.0166 6.54867 11.5947 7.27735C11.1728 8.00603 10.3562 9.35188 9.98009 10.0076C9.6578 10.5695 10.9567 9.07646 12.1819 7.95251C12.4141 7.73957 11.1346 10.3617 10.6591 11.3652C10.1835 12.3686 10.3665 12.2131 11.1981 11.2077C12.0296 10.2022 13.5042 8.35153 13.5144 8.59527C13.5245 8.83902 12.0255 11.2333 12.6258 10.8142C13.2261 10.3951 15.9712 7.09006 17.3658 5.46455C18.7605 3.83904 18.7215 3.9932 18.0277 5.22241C17.3339 6.45163 15.9865 8.75123 15.8931 9.28329C15.7998 9.81534 17.0014 8.51016 16.6063 9.26366C16.2112 10.0172 14.183 12.8689 13.1642 14.2793C12.1454 15.6898 12.1975 15.5725 13.149 14.278C14.1006 12.9835 15.95 10.5153 16.8624 9.30829C17.7747 8.10124 17.6938 8.23011 16.9116 9.09786C16.1293 9.96562 14.6481 11.5684 15.3296 10.9603C16.011 10.3522 18.9 7.48469 20.4285 5.9813C21.957 4.47791 22.0375 4.42551 22.0185 4.54858C21.9995 4.67165 21.8786 4.97177 21.1611 6.24973C20.4437 7.5277 19.1334 9.77441 19.1644 10.2315C19.1954 10.6886 20.6075 9.28805 21.3033 8.62762C21.9059 8.05576 20.472 10.1316 19.4536 11.755C19.1984 12.1619 22.0368 8.90148 23.1396 7.65315C24.2424 6.40482 24.1787 6.54627 23.1897 7.9201C22.2007 9.29394 20.2885 11.8959 20.287 12.1114C20.2855 12.3269 22.2527 10.0771 22.5188 10.1434C22.7848 10.2096 21.29 12.6601 20.6228 13.8336C19.9555 15.0072 20.1609 14.8296 21.1065 13.8993C22.0522 12.969 23.7317 11.2914 24.565 10.4878C25.3982 9.68433 25.3342 9.80575 24.8075 10.5769C24.2808 11.348 23.2933 12.7652 23.881 12.2684C24.4688 11.7715 26.6616 9.3176 27.1796 8.95153C27.6976 8.58546 26.4742 10.3816 27.073 9.97093C27.6717 9.56029 30.1296 6.88849 31.3158 5.70817C32.5019 4.52784 32.3418 4.91994 31.7851 5.91414C31.2284 6.90834 30.28 8.49275 29.7071 9.49134C28.5219 11.5571 27.8656 12.5292 27.5378 12.7805C27.383 12.8991 28.5188 11.0015 29.8191 9.00085C30.1024 8.56503 28.7139 9.68179 27.1304 11.1008C26.6512 11.5302 26.7244 11.243 27.0283 10.6854C27.3322 10.1277 27.8374 9.27598 28.048 8.86193C28.2587 8.44789 28.1595 8.49736 27.6774 8.76788C26.3303 9.52363 25.3341 10.0727 25.1917 10.0386C24.9373 9.97752 25.9235 8.67497 26.8798 7.33348C27.12 6.99649 26.0603 7.8907 24.6749 9.12703C24.1269 9.61605 27.5842 6.65701 28.2851 6.38281C28.3851 6.3437 28.4721 6.47005 28.5148 6.57999C28.6085 6.8212 28.5299 7.18475 27.9248 8.35372C27.4077 9.35278 26.24 11.0518 26.7441 11.0259C27.2481 11 29.402 9.16602 30.5261 8.26877C31.6501 7.37151 31.6791 7.46655 31.212 8.30289C30.745 9.13922 29.7811 10.714 29.2642 11.5742C28.7472 12.4343 28.7064 12.5322 28.8328 12.5175C28.9593 12.5029 29.2541 12.3728 30.0962 11.742C30.9382 11.1112 32.3185 9.98361 32.9753 9.5131C33.465 9.16228 32.0054 11.3357 30.9402 12.9438C30.7109 13.2899 33.412 10.3323 34.0427 9.90949C34.6735 9.48666 33.7397 11.0876 33.3111 11.8903C32.8825 12.693 32.9874 12.649 33.7927 11.9862C34.5979 11.3235 36.1004 10.0432 36.8562 9.46692C37.6121 8.89064 37.5758 9.05713 36.8631 10.1878C36.1504 11.3185 34.7624 13.4084 34.0112 14.5589C33.26 15.7094 33.1875 15.8572 33.2142 15.9219C33.2409 15.9865 33.3689 15.9636 34.3697 15.0903C35.3704 14.2171 37.2401 12.4943 38.1715 11.6702C39.1028 10.8462 39.0393 10.9731 38.4318 11.7506C37.8243 12.528 36.6748 13.9522 36.1399 14.6596C35.6051 15.3671 35.7198 15.3147 36.7568 14.4994C37.7938 13.6841 39.7497 12.1075 40.7238 11.3864C41.6979 10.6654 41.631 10.8476 41.0437 11.6758C40.4565 12.504 39.3511 13.9726 38.8296 14.719C38.3081 15.4655 38.4041 15.4452 39.2806 14.7658C40.1571 14.0864 41.8111 12.7485 42.5948 12.1799C43.3785 11.6114 43.2417 11.8527 42.69 12.6333C42.1383 13.4139 41.1759 14.7264 40.7303 15.3971C40.2847 16.0678 40.3851 16.057 40.8262 15.802C42.0678 15.0844 42.9464 14.488 43.1058 14.4983C43.3389 14.5132 42.7193 15.7737 42.016 17.1477C41.8071 17.6299 41.8986 17.6757 42.2259 17.5829C42.5532 17.49 43.1135 17.2571 43.8906 16.96" stroke="#989898" stroke-width="2" stroke-linecap="round"/>
<path d="M38.5501 10.7184C38.6788 10.6096 39.1309 10.4194 42.5104 10.3532C43.2477 10.3388 43.4184 10.3046 43.5205 10.3581C43.6225 10.4117 43.6504 10.5487 43.6506 10.6722C43.6518 11.9379 42.1053 13.6704 42.2622 13.7705C43.9042 14.8172 44.8055 12.8281 45.8735 12.4101C46.7537 12.0655 47.7349 12.1374 47.9906 12.1877C48.2448 12.2377 47.1875 13.5223 45.6045 15.179C44.8506 15.968 44.0928 16.5492 44.7866 16.2559C45.4804 15.9625 47.6221 14.7508 48.8627 14.0733C50.1033 13.3957 50.378 13.2891 50.5024 13.2809C50.6268 13.2728 50.5924 13.3663 49.8101 14.0659C49.0278 14.7655 47.4984 16.0682 46.7716 16.7262C46.0448 17.3842 46.1668 17.3579 47.0825 16.9478C47.9983 16.5377 49.704 15.7446 50.8402 15.2485C51.9763 14.7524 52.4913 14.5774 52.7301 14.5438C52.9688 14.5102 52.9157 14.6235 52.1317 15.395C51.3477 16.1665 49.8345 17.5928 49.4535 18.1348C49.0725 18.6768 49.8695 18.2912 50.3085 18.1464C50.7475 18.0017 50.8043 18.1096 50.7034 18.5721C50.6024 19.0347 50.342 19.8487 49.9437 20.8286C49.5454 21.8085 49.0171 22.9296 49.2221 23.2465C50.6439 25.4443 52.4816 22.1994 52.6183 22.2613C52.7977 22.3425 52.0998 23.4542 51.4392 24.7431C51.2314 25.1486 51.494 25.1416 52.1139 24.8376C53.7878 24.0168 55.2743 23.1789 56.0444 22.8864C56.349 22.7707 56.4884 22.7475 56.5688 22.8212C56.7687 23.0042 55.8904 24.5159 54.2847 26.8553C53.522 27.9665 52.6891 28.7971 52.6689 28.9258C52.5286 29.8193 55.0111 27.3523 56.283 26.6949C56.7566 26.4501 56.9002 26.4234 56.9762 26.4919C57.0523 26.5605 57.0613 26.7346 57.0019 26.9207C56.9425 27.1067 56.8144 27.2994 56.0092 28.182C55.2041 29.0647 53.7258 30.6315 53.01 31.3822C52.2941 32.1329 52.3855 32.0201 52.4894 31.9178C53.0817 31.3347 54.8152 30.776 55.8007 30.5902C56.0082 30.551 56.2847 30.576 56.4701 30.6178C56.6556 30.6595 56.745 30.7464 56.8003 30.9098C56.9308 31.2958 56.8425 31.7609 56.7299 32.1382C56.421 33.1732 54.5955 34.4031 53.4497 35.0005C53.1034 35.181 52.5963 35.1885 52.086 35.134C51.9013 35.1143 51.9094 34.9316 52.018 34.8162C52.7554 34.0329 54.8058 34.3894 55.8893 34.5328C56.707 34.6411 57.3061 35.1756 57.5651 35.4873C57.6318 35.5675 57.6033 35.6981 57.5534 35.7716C57.2157 36.2691 56.0369 35.9522 54.6931 35.6244C51.7272 34.9009 50.0724 34.0728 50.5202 34.0187C51.0448 33.9554 51.5697 34.0945 52.3115 34.3787C55.0662 35.4343 56.0663 36.4735 56.1814 36.6635C56.2951 36.8513 56.2142 37.0984 56.1013 37.3087C55.8001 37.8693 54.4523 37.9787 53.4661 38.0615C53.3549 38.0709 54.8884 37.9172 56.8889 37.9225C58.8388 37.9276 59.7461 38.4426 60.105 38.7375C60.1965 38.8126 60.2299 38.9495 60.2366 39.0713C60.25 39.3183 60.0697 39.5235 59.8758 39.6793C59.4265 40.0405 56.9641 40.1859 55.283 40.1538C54.8967 40.1465 54.2734 39.9014 54.1707 40.0169C53.7577 40.4812 55.3866 41.4436 56.1007 42.3408C56.9861 43.4534 57.1037 44.4457 57.0799 45.151C57.0721 45.3821 56.4169 45.4488 55.0505 45.3767C52.5745 45.2461 50.7539 44.4384 51.218 44.7249C51.9857 45.1989 53.9564 46.1256 55.0174 46.6873C56.2221 47.3251 56.3953 47.5598 56.526 47.7428C56.6761 47.9531 56.7268 48.2107 56.7182 48.4271C56.7139 48.536 56.6116 48.6279 56.3746 48.6899C55.7587 48.851 55.1572 48.7618 54.0634 48.3251C53.1398 47.9563 51.5121 47.1829 50.6289 46.8295C49.7458 46.4762 49.6677 46.5393 49.6347 46.7806C49.5454 47.4336 49.824 48.9932 50.1172 50.7748C50.2252 51.4315 50.219 51.591 50.2114 51.6084C49.9499 52.207 48.8666 49.4231 48.3172 48.893C47.0439 47.6644 50.8531 52.9127 50.4681 52.9548C49.7784 53.0303 48.666 52.7221 47.7304 52.5216C47.4731 52.4664 47.6344 52.689 48.6297 53.5454C49.625 54.4019 51.4436 55.9323 52.4176 56.7667C53.3916 57.6011 53.4658 57.693 53.4457 57.7696C53.3968 57.9556 52.1624 57.9335 49.6518 57.6653C48.1569 57.5056 46.2552 56.9868 45.2919 56.8169C44.3286 56.6469 44.3719 56.762 44.4892 56.8914C44.7636 57.1942 45.1247 57.3815 45.2497 57.5133C45.5769 57.8586 42.9544 57.2291 40.6922 56.6718C39.8128 56.4552 44.5845 57.8062 44.8526 58.056C44.8922 58.0929 44.6943 58.1208 43.4969 58.0995C42.2995 58.0782 40.0365 58.015 38.9241 58.0424C37.8116 58.0698 37.9183 58.1896 38.6441 58.5858C40.6857 59.7003 42.2102 60.3828 42.3684 60.4939C42.4344 60.5403 42.3757 60.6565 42.2863 60.7276C42.197 60.7988 42.0543 60.8445 40.783 60.9545C39.5116 61.0645 37.1159 61.2375 37.24 61.4757C37.364 61.7139 40.0805 62.012 41.7403 62.2332C43.9302 62.5251 44.5608 62.7711 44.6305 62.8598C44.6661 62.9052 44.421 62.9561 43.5041 62.9735C42.5871 62.991 40.9338 62.9746 39.2346 62.8622C37.5354 62.7497 35.8405 62.5417 34.8664 62.4335C33.8924 62.3253 33.6906 62.3232 33.4827 62.3211" stroke="#989898" stroke-width="2" stroke-linecap="round"/>
<path d="M30.3605 60.2539C30.3567 60.2501 30.3529 60.2463 31.7591 60.2425C33.1653 60.2387 35.9816 60.2349 35.2768 60.2471C34.5721 60.2594 30.2609 60.2879 27.9731 60.312C25.6853 60.3361 25.5516 60.3551 25.5566 60.388C25.5828 60.5584 27.2467 60.6982 29.3913 60.996C30.1526 61.1017 30.2445 61.1518 30.2206 61.2473C30.1488 61.5346 29.0672 62.1004 26.8861 63.0292C25.5756 63.5872 23.7183 63.978 21.9871 64.3198C20.2559 64.6616 18.6729 64.8547 20.7756 64.8587C22.8784 64.8626 28.7147 64.6716 29.4938 64.7755C30.2728 64.8793 25.8178 65.2839 23.6253 65.4197C21.4329 65.5556 21.6381 65.4105 21.8571 65.2932C22.0761 65.1758 22.3027 65.0907 23.4777 64.8885C24.6526 64.6862 26.7689 64.3695 29.2866 64.1672C31.8042 63.965 34.659 63.8868 36.189 63.8517C37.719 63.8165 37.8378 63.8268 37.9011 63.885C37.9645 63.9433 37.9689 64.0492 37.9273 64.1505C37.8385 64.3669 37.5209 64.5844 37.0429 64.9138C36.3866 65.366 35.3838 65.8221 33.7839 66.4177C32.7743 66.7936 31.3054 67.1531 28.5454 67.6294C25.7854 68.1057 21.7641 68.6455 22.5726 69.0863C23.3812 69.5271 29.1414 69.8527 32.122 70.0685C35.1025 70.2843 35.1288 70.3806 35.0828 70.4668C35.0368 70.553 34.9179 70.6263 34.4006 70.7921C33.8834 70.9579 32.9716 71.2139 30.2058 71.4898C27.44 71.7657 22.8478 72.0537 23.3328 72.4864C23.8178 72.9191 29.5191 73.4877 32.509 73.7924C35.4989 74.0971 35.6046 74.1207 35.5617 74.1555C35.5188 74.1903 35.324 74.2356 32.8627 74.2142C30.4014 74.1928 25.6795 74.1033 23.1668 74.0449C20.654 73.9866 20.4934 73.9622 20.4455 73.9013C20.3976 73.8404 20.4674 73.7437 24.6639 73.3004C28.8603 72.8571 37.1815 72.0699 41.6452 71.6809C46.109 71.2918 46.4632 71.3246 46.1033 71.3335C45.7434 71.3424 44.6586 71.3263 41.7581 70.9137C38.8576 70.5012 34.1744 69.6929 31.7312 69.2371C29.288 68.7813 29.2268 68.7026 29.2479 68.6104C29.2689 68.5182 29.3741 68.4149 29.5638 68.3186C29.7535 68.2223 30.0246 68.1362 33.9745 68.099C37.9244 68.0618 45.545 68.0761 47.8409 68.0536C50.1367 68.0311 46.8769 67.9713 43.9671 67.7306C41.0572 67.49 38.5961 67.0701 37.2724 66.8247C35.9487 66.5793 35.8369 66.521 35.8492 66.4381C35.8615 66.3552 36.0013 66.2494 36.2102 66.1653C36.4192 66.0811 36.6932 66.0217 40.0146 65.9447C43.336 65.8676 49.6965 65.7746 53.1006 65.7086C56.5046 65.6425 56.7596 65.6061 54.4949 65.4264C52.2301 65.2467 47.4381 64.9248 45.0362 64.7314C42.6344 64.5379 42.768 64.4825 45.7837 64.4015C48.7993 64.3204 54.693 64.2152 58.1322 64.206C61.5715 64.1967 62.3778 64.2866 62.7282 64.3781C63.0786 64.4695 62.9487 64.5598 62.509 64.6128C62.0693 64.6659 61.3238 64.6789 59.9208 64.5409C58.5177 64.4028 56.4798 64.1132 55.0266 63.9581C53.5735 63.8029 52.767 63.7911 54.0195 64.147C55.272 64.5029 58.6081 65.2268 60.553 65.6285C62.498 66.0302 62.9508 66.0876 63.1564 66.174C63.362 66.2603 63.3067 66.3739 60.5638 66.7008C57.8208 67.0276 52.392 67.5642 49.421 67.879C46.4501 68.1938 46.1016 68.2705 46.0116 68.3308C45.9215 68.3912 46.1005 68.4328 48.9347 68.8045C51.769 69.1762 57.2532 69.8766 60.1602 70.2743C63.0673 70.6721 63.2309 70.746 63.2691 70.7998C63.3275 70.8821 62.9501 70.9398 61.1866 71.0407C59.5934 71.1319 56.5799 71.2529 54.5757 71.4073C52.5714 71.5617 51.667 71.7327 50.9867 71.8893C50.3064 72.0458 49.8777 72.1828 49.8734 72.2042C49.8692 72.2255 50.3025 72.1272 51.951 72.0658C53.5995 72.0044 56.4501 71.9829 58.0526 71.9951C60.4975 72.0137 61.1742 72.4773 61.3565 72.6323C61.4515 72.713 61.5111 72.8398 61.4765 72.9603C61.4418 73.0807 61.3007 73.2016 61.1203 73.2789C60.9399 73.3562 60.7244 73.3861 59.0174 73.3485C57.3105 73.3109 54.1186 73.2049 52.4146 73.1594C50.7107 73.1139 50.5915 73.1323 52.4006 73.1065C54.2096 73.0808 57.9506 73.0104 59.9673 72.9852C61.984 72.9601 62.1631 72.9822 62.1711 73.0428C62.1792 73.1035 62.0107 73.2021 61.5966 73.2893C61.1826 73.3765 60.528 73.4493 56.0858 73.2153C51.6435 72.9813 43.4336 72.4383 38.6342 72.0622C33.8348 71.6861 32.6947 71.4932 32.2985 71.3904C31.9023 71.2876 32.2843 71.2808 34.9409 71.4725C37.5975 71.6641 42.517 72.0545 45.4361 72.3393C48.3552 72.6241 49.1249 72.7914 49.6528 72.9249C50.1807 73.0584 50.4436 73.1529 50.5348 73.2503C50.626 73.3476 50.5376 73.4448 49.8808 73.5083C49.224 73.5717 48.0015 73.5985 45.3165 73.5964C42.6315 73.5943 38.521 73.5625 35.4988 73.4223C32.4765 73.282 30.6671 73.0341 28.8029 72.7788" stroke="#989898" stroke-width="2" stroke-linecap="round"/>
<path d="M16.1911 71.5525C16.1826 71.5483 16.174 71.544 17.1345 71.4809C18.0951 71.4178 20.0249 71.296 21.3814 71.1548C22.7378 71.0136 23.4624 70.8566 22.5652 70.803C21.668 70.7494 19.127 70.8039 17.8159 70.7588C16.5047 70.7138 16.5003 70.5676 16.5312 70.4327C16.6726 69.8167 17.4421 69.3664 18.8886 68.7206C19.4 68.4922 20.0696 68.3459 20.5023 68.2335C20.935 68.1212 21.1275 68.0897 20.4181 68.1624C19.7087 68.2352 18.0916 68.4131 17.0311 68.5048C15.9707 68.5965 15.5159 68.5965 15.2707 68.5318C15.0255 68.467 15.0036 68.3375 15.0534 68.2211C15.162 67.9672 15.4558 67.8541 16.697 67.5851C17.8286 67.3398 19.9993 66.9729 20.604 66.6074C21.2963 66.1889 19.025 65.5238 18.8824 65.3998C18.8232 65.3482 18.8934 65.2415 18.9789 65.1687C19.0643 65.0959 19.1892 65.0403 21.37 64.7172C23.5508 64.3941 27.7838 63.805 29.2678 63.4514C30.7517 63.0977 29.3583 62.9971 27.9227 62.8936" stroke="#989898" stroke-width="2" stroke-linecap="round"/>
<path d="M51.2445 51.5256C51.2277 51.5339 52.5385 51.5423 53.9455 51.5453C55.0423 51.5476 51.5106 51.4939 51.295 51.3919C51.1886 51.3415 51.1228 51.2331 51.1256 51.1286C51.1284 51.0242 51.2106 50.9114 51.3331 50.8329C51.5917 50.6672 51.9941 50.6451 53.1837 50.5682C54.1598 50.505 55.8949 50.4426 56.7204 50.3526C57.5459 50.2626 57.41 50.1596 57.0569 49.9978C56.153 49.5837 55.4869 49.3254 55.3895 49.1401C55.0974 48.585 56.5489 47.5245 58.3354 46.4105C58.6613 46.2073 58.8086 46.1653 58.8489 46.1797C58.9504 46.2159 58.5627 46.5781 58.2797 46.8075C57.4414 47.487 60.4804 44.4654 60.8762 44.0753C60.9804 43.9725 60.279 44.0463 59.592 44.1598C59.3443 44.2007 59.2883 44.0094 59.2611 43.8892C59.1607 43.4449 59.4214 42.9609 59.4925 42.6632C59.5197 42.5494 59.3918 42.499 59.2846 42.4991C59.0545 42.4993 58.4227 42.8898 58.0494 42.7832C56.3427 42.2958 59.7033 40.1559 59.434 40.1734C59.3093 40.1815 59.2156 40.2457 59.1651 40.2236C57.7605 39.6099 61.3547 36.3982 61.3681 36.2623C61.3736 36.2062 61.2373 36.2079 61.1848 36.1434C61.0621 35.9925 61.3645 35.4975 61.3892 35.1159C61.403 34.9029 60.5265 35.3098 60.1859 35.381C59.8454 35.4522 59.839 35.3438 59.8577 35.2374C59.9852 34.5122 60.6847 33.7611 60.7247 33.5915C60.8773 32.9443 59.2296 33.8262 59.0555 33.7957C58.1597 33.6387 59.9894 31.7899 59.9399 31.4247C59.9283 31.3393 59.8359 31.2897 59.7483 31.2689C59.57 31.2266 58.8522 31.4711 57.937 31.6849C57.6377 31.7548 58.1148 30.7126 58.49 29.7218C58.611 29.4021 57.9481 29.3738 57.6935 29.2877C57.3618 29.1754 58.0224 27.9848 58.7999 26.644C59.0528 26.208 58.8577 26.1849 58.5083 26.2377C58.159 26.2906 57.6205 26.3988 57.3577 26.3427C57.0012 26.2665 57.8698 24.3163 58.8773 22.0091C59.2148 21.2361 59.0163 21.197 58.7953 21.1928C58.2899 21.1832 57.8384 21.1444 57.5676 20.9927C56.8103 20.5683 56.6109 19.154 56.4283 18.9567C56.2299 18.8389 55.959 18.8055 55.6186 18.8605C55.4435 18.9096 55.2636 19.0019 55.0068 19.108" stroke="#989898" stroke-width="2" stroke-linecap="round"/>
<path d="M54.8398 15.0718C54.8477 15.0718 54.172 16.7032 53.0866 19.3704C52.6673 20.4007 52.5694 20.7966 52.8035 20.6403C53.0376 20.4841 53.6206 19.7693 53.9607 19.4392C54.3008 19.1091 54.3804 19.1855 54.4379 19.3531C54.5787 19.7632 54.5768 20.2616 54.6485 20.6081C54.6767 20.7441 54.8066 20.7605 55.0871 20.5787C55.3676 20.3969 55.8251 20.0065 56.0314 19.8969C56.2376 19.7873 56.1789 19.9703 56.0238 20.2798C55.8688 20.5892 55.6192 21.0197 55.3399 21.5235" stroke="#989898" stroke-width="2" stroke-linecap="round"/>
<path d="M55.3398 14.911C55.2946 14.911 53.7433 14.911 51.4524 14.7718C50.6786 14.7248 50.7387 14.3542 51.124 13.6343C51.5093 12.9143 52.2293 11.7612 52.5422 11.2018C52.8551 10.6423 52.7389 10.7115 52.4162 10.9731C51.555 11.6714 50.9148 12.2069 50.69 12.2825C50.5805 12.3193 50.4641 12.2908 50.3788 12.22C50.1915 12.0646 50.1538 11.7126 50.0396 11.4307C49.4812 10.0514 46.2592 11.3709 46.2331 11.1353C46.2206 11.0217 46.3195 10.9211 46.3086 10.8602C46.1782 10.135 43.9642 11.0236 43.3234 10.7494C42.8502 10.5469 42.7706 9.9256 42.5394 9.67239C42.0352 9.12041 39.9915 9.12178 38.5607 9.26941C38.0583 9.32124 37.5612 9.55064 37.1349 9.5798C36.9673 9.56694 36.8984 9.49792 36.8047 9.46078C36.7111 9.42364 36.5948 9.42046 36.3462 9.59116" stroke="#989898" stroke-width="2" stroke-linecap="round"/>
<path d="M50.721 18.3837C50.5276 18.3252 49.7152 18.3768 47.2662 19.5715C46.8651 19.7671 46.9612 19.6193 47.3227 19.2764C48.2827 18.3656 49.0817 17.7282 49.3336 17.6172C49.4342 17.5729 49.5121 17.665 49.5418 17.7484C49.6866 18.1545 49.1363 19.1299 48.7585 20.1249C48.6369 20.4452 48.7815 20.4309 48.9331 20.3699C49.6228 20.0923 50.0235 19.9563 50.2009 20.0328C50.7851 20.2849 49.8739 23.1831 49.7444 24.6257C49.6728 25.4236 51.3454 23.9873 51.5241 24.001C51.7743 24.0201 51.737 25.0699 51.6313 26.6313C51.5069 28.467 51.1831 29.3813 51.3488 29.2457C51.4413 29.1699 51.5411 29.0686 51.6067 29.0725C51.7519 29.0811 51.697 29.9843 51.7198 31.0166C51.7275 31.3663 51.9004 31.3478 52.0587 31.2437C52.217 31.1396 52.3996 30.9467 52.5202 30.8913C52.6409 30.8359 52.694 30.9239 52.7179 31.05C52.8323 31.6537 52.2679 33.0122 51.3874 35.044C50.4866 37.1226 49.5656 38.1088 49.4495 38.6687C49.356 39.1203 49.4008 39.9429 49.4536 40.3535C49.5064 40.7642 49.6192 40.746 49.8801 40.5739C50.141 40.4019 50.5466 40.0765 50.7747 39.9562C51.0112 39.8315 51.0513 40.1836 51.1786 40.1895C53.005 40.2749 53.1219 38.0929 53.2554 38.0906C55.0425 38.0601 52.2904 42.5176 52.5706 42.4356C52.9373 42.3282 53.2189 42.1735 53.4091 42.1836C54.2428 42.2279 54.4011 43.8323 54.5047 43.9644C54.6546 43.9585 55.0795 43.4369 55.5983 42.755C55.781 42.5555 55.8001 42.6532 55.8243 42.9793" stroke="#989898" stroke-width="2" stroke-linecap="round"/>
</svg>
