<svg width="55" height="75" viewBox="0 0 55 75" fill="none" xmlns="http://www.w3.org/2000/svg">
<path d="M1.69633 3.4856C1.68189 3.49271 1.66746 3.49982 3.60694 3.61301C5.54641 3.72619 9.44024 3.94524 12.1822 4.17503C16.4067 4.52907 18.1968 5.00083 18.6594 5.267C18.8587 5.3817 18.9021 5.57732 18.9445 8.18962C18.9869 10.8019 19.0055 15.8562 18.9043 19.4233C18.8031 22.9903 18.5816 24.917 18.4708 26.986C18.36 29.055 18.3667 31.2079 18.7124 34.558C19.0581 37.9081 19.7427 42.39 20.1184 44.7828C20.5783 47.7111 20.9837 48.3453 21.6645 48.9351C22.6788 49.8138 26.1122 49.8583 27.8041 49.7754C28.698 49.7316 29.3406 48.7385 29.8228 48.0842C30.0702 47.7485 30.2881 47.0498 31.3516 41.0598C32.3274 35.5643 33.8997 25.0333 34.8686 19.3146C35.8375 13.5959 36.0814 12.9959 36.5003 12.1225C38.1628 8.6563 38.9973 7.61681 40.0737 6.57851C41.0815 5.60648 42.1455 5.56491 44.3631 5.53523C46.7222 5.50366 49.9916 7.50473 50.6497 8.1081C50.9232 8.35889 51.054 8.84411 51.4591 10.0602C51.7717 10.9986 52.2638 12.6015 52.6731 16.4348C53.0824 20.2682 53.3843 26.2865 53.4646 30.0578C53.5449 33.8291 53.3945 35.171 53.0978 36.9993C52.8012 38.8277 52.3629 41.1018 52.1324 42.6416C51.9019 44.1814 51.8925 44.9181 51.8828 45.677" stroke="black" stroke-width="2" stroke-linecap="round"/>
<path d="M51.8295 45.9426C51.8295 45.9487 51.8295 45.9548 51.8215 47.9432C51.8136 49.9316 51.7977 53.9022 51.6044 56.8238C51.4112 59.7453 51.0411 61.4974 50.7067 62.7855C50.1663 64.8674 49.4768 66.1826 48.7417 67.2756C47.9365 68.4728 46.7976 69.2793 45.7324 70.0505C44.43 70.9934 42.857 71.6109 39.6165 72.2607C37.1336 72.7585 32.8815 73.2284 30.0151 73.5053C25.7796 73.7576 23.6907 73.5882 22.5536 73.3332C22.0946 73.2221 21.8756 73.1483 21.6499 73.0722" stroke="black" stroke-width="2" stroke-linecap="round"/>
<path d="M21.6499 73.0722C21.588 73.0722 19.8195 73.0513 16.784 72.8968C14.6457 72.7879 13.0522 71.8965 11.7566 71.2815C10.3589 70.3869 8.98505 69.0966 7.9503 67.5659C7.26744 66.4838 6.26428 64.7821 5.23071 63.0288" stroke="black" stroke-width="2" stroke-linecap="round"/>
<path d="M5.13042 62.8285C5.13042 62.8096 5.13042 62.7908 5.00207 52.7245C4.87372 42.6581 4.61702 22.5448 4.35254 1.82202" stroke="black" stroke-width="2" stroke-linecap="round"/>
</svg>
