<svg width="67" height="73" viewBox="0 0 67 73" fill="none" xmlns="http://www.w3.org/2000/svg">
<path d="M5.07064 7.74058C5.06373 7.74058 5.05683 7.74058 5.04229 11.1779C5.02775 14.6152 5.00578 21.4899 5.13119 25.6932C5.25659 29.8966 5.53003 31.2202 6.21222 33.5259C6.89442 35.8316 7.97708 39.0792 8.70501 41.0723C9.43294 43.0653 9.77332 43.7055 11.161 45.5747C12.5488 47.4439 14.9735 50.5226 16.3689 52.3595C18.1134 54.656 18.6014 55.7356 19.667 57.7887C20.4682 59.3321 21.8833 61.8491 22.7994 63.5898C24.1631 66.1809 24.9311 67.6499 25.843 68.7767C27.6598 71.0216 28.2638 71.7605 28.6211 71.7747C29.0101 71.7902 30.9359 70.2005 34.4029 67.2347C36.1907 65.7053 37.7398 63.7961 39.2801 61.7548C40.8204 59.7136 42.2293 57.5137 43.8596 55.2796C45.49 53.0455 47.2993 50.8438 50.7849 45.8788C54.2706 40.9138 59.3779 33.2523 62.0777 29.1719C64.9424 24.8422 65.1323 24.357 65.2523 23.9594C65.3131 23.7581 65.3087 23.5407 65.2388 23.3337C64.7647 21.9299 61.934 20.5874 59.0141 19.2173C57.2475 18.3884 54.0739 16.7239 52.3409 15.8475C50.111 14.7199 48.8859 14.7296 47.8899 14.8796C46.995 15.0145 46.4514 15.939 45.4782 17.8291C44.7528 19.2378 43.6461 21.604 42.6313 23.5068C41.6164 25.4096 40.7497 26.7887 40.0649 27.7483C39.3801 28.708 38.9035 29.2063 37.7111 30.2077C34.6741 32.7582 32.3551 34.4267 31.6044 34.8443C29.7839 35.8569 28.5452 35.8752 27.7353 35.631C27.3835 35.525 26.8932 34.5965 24.9988 29.8986C23.3995 25.9327 21.0735 18.5375 19.5256 14.1548C17.9778 9.77213 17.4238 8.57042 17.0811 7.78347C16.1867 5.72976 16.0975 3.94631 15.1858 2.55081C14.8853 2.09083 14.5955 1.87383 14.2619 1.71102C13.456 1.31773 11.6115 2.62261 8.33581 4.93943C6.48252 6.34387 4.24145 8.21275 3.01772 9.22519C1.79398 10.2376 1.65548 10.337 1.51025 10.5193" stroke="black" stroke-width="2" stroke-linecap="round"/>
</svg>
