<svg width="111" height="83" viewBox="0 0 111 83" fill="none" xmlns="http://www.w3.org/2000/svg">
<path d="M12.1705 1.39404C12.1571 1.39404 12.029 1.88109 10.5211 5.60425C9.19942 8.86752 6.48547 14.8108 4.82647 19.0845C3.16746 23.3581 2.57853 25.754 2.20506 28.9765C1.83159 32.1991 1.69142 36.1758 1.64034 38.3217C1.58464 40.6615 1.90582 41.4823 2.89156 43.4431C3.58283 44.8181 4.91875 46.828 5.77602 48.1063C6.96811 49.884 7.74158 50.5587 10.558 52.4212C13.0553 54.0727 17.8443 56.9683 21.322 59.4496C24.7998 61.9309 26.8526 63.8615 30.2284 67.2713C33.6043 70.6812 38.241 75.5119 40.8058 78.1225C43.6662 81.034 44.3894 81.387 44.9281 81.6592C45.1614 81.7772 45.3208 81.8386 45.5464 81.6218C45.772 81.405 46.061 80.9042 48.4008 77.4115C50.7406 73.9187 55.1225 67.4493 57.4504 64.0684C59.7784 60.6874 59.9196 60.591 60.2087 60.4443C60.4978 60.2977 60.9304 60.1037 61.5163 59.8513" stroke="black" stroke-width="2" stroke-linecap="round"/>
<path d="M61.5164 59.8511C61.5285 59.8511 61.6847 59.9846 63.8498 61.7448C65.8649 63.3715 69.7406 66.4875 72.5664 68.9026C75.3922 71.3176 77.0509 72.9373 78.9601 74.8939" stroke="black" stroke-width="2" stroke-linecap="round"/>
<path d="M79.1204 75.1615C79.1204 75.1303 79.1204 75.0992 79.1365 74.7831C79.1526 74.467 79.1848 73.867 83.7792 62.5566C88.3737 51.2461 97.5294 29.2435 102.563 17.3959C107.597 5.54828 108.231 4.52252 109.237 3.15503" stroke="black" stroke-width="2" stroke-linecap="round"/>
<path d="M91.1335 3.71558H108.44" stroke="black" stroke-width="2" stroke-linecap="round"/>
<path d="M91.1335 3.71558C91.1335 3.81893 91.1214 4.15816 91.0668 4.70696C91.0166 5.21143 89.9029 7.13771 87.3771 11.0666C85.9081 13.3516 83.7272 16.0057 81.9684 18.1709C80.2097 20.3361 78.8544 21.875 77.0907 24.3664C75.3269 26.8578 73.1956 30.2549 70.9092 33.9636" stroke="black" stroke-width="2" stroke-linecap="round"/>
<path d="M70.9093 34.0041C70.8909 34.0041 70.8725 34.0041 70.5276 33.999C70.1828 33.9938 69.512 33.9836 67.5574 33.1323C65.6027 32.2809 62.3844 30.5888 59.0686 28.8455" stroke="black" stroke-width="2" stroke-linecap="round"/>
<path d="M59.0686 28.8455C59.0686 28.8944 57.2078 31.395 54.2229 35.3321C52.7672 37.1668 52.2419 37.7093 51.7978 38.0804C51.5376 38.2934 51.2066 38.5564 50.8066 38.9567" stroke="black" stroke-width="2" stroke-linecap="round"/>
<path d="M50.8065 38.9569C50.7814 38.9569 50.5267 38.818 49.4705 37.9544C48.6265 37.2645 47.2766 35.9237 44.5549 32.5713C41.8332 29.2189 37.8111 23.8598 34.2532 19.7606C30.6953 15.6614 27.7235 12.9845 26.1079 11.5098C24.4923 10.0351 24.3231 9.84371 24.1487 9.64648" stroke="black" stroke-width="2" stroke-linecap="round"/>
<path d="M24.1488 9.64629C24.1239 9.64629 24.0991 9.64629 22.1786 8.58476C20.2582 7.52322 16.4431 5.40015 12.4673 3.17725" stroke="black" stroke-width="2" stroke-linecap="round"/>
</svg>
