<svg width="87" height="91" viewBox="0 0 87 91" fill="none" xmlns="http://www.w3.org/2000/svg">
<path d="M20.5963 4.05355C20.5963 4.04017 20.5963 5.55005 20.3101 9.85327C20.1243 12.6482 19.4515 16.6499 19.1797 18.7952C18.9078 20.9405 18.9538 21.0995 19.9234 22.1405C20.8929 23.1814 22.7846 25.0994 24.8622 27.0148C26.9398 28.9302 29.1459 30.7849 30.4751 31.9503C32.7768 34.2872 33.3931 35.4714 33.7945 37.4319C33.8652 37.9114 33.8975 38.2499 34.0378 39.0279" stroke="black" stroke-width="2" stroke-linecap="round"/>
<path d="M34.0777 39.0278C34.0716 39.0337 34.0656 39.0395 31.8954 41.1205C29.7253 43.2016 25.3913 47.3575 21.4375 50.621C17.4836 53.8845 14.0413 56.1295 12.0011 57.5371C9.96091 58.9447 9.42721 59.4468 8.44138 60.6583C6.03375 63.7755 4.43603 66.0415 4.22752 66.5909C4.15187 66.8379 4.13743 67.0201 4.12256 67.2079" stroke="black" stroke-width="2" stroke-linecap="round"/>
<path d="M4.12248 67.2078C3.37978 68.6371 1.66434 72.1151 1.52496 72.9208C1.44745 73.3688 2.58869 73.7821 4.18295 74.9253C5.2639 75.7005 6.85862 76.9243 9.8078 78.7188C12.757 80.5134 17.0025 82.8551 20.9026 84.7735C24.8027 86.692 28.2287 88.1163 31.8511 89.6713" stroke="black" stroke-width="2" stroke-linecap="round"/>
<path d="M31.8511 89.71C31.8511 89.6853 31.8511 87.2361 31.9728 82.6923C32.0294 80.5822 32.3381 78.8805 32.7514 77.0586C33.1648 75.2367 33.7405 73.349 34.3067 71.8188C34.8728 70.2886 35.412 69.173 36.5363 67.5193C37.6606 65.8655 39.3537 63.7073 40.6409 62.1695C41.9281 60.6318 42.7581 59.7799 43.8832 58.6682" stroke="black" stroke-width="2" stroke-linecap="round"/>
<path d="M43.8833 58.6682C43.8954 58.6682 44.1103 58.732 45.8386 59.5758C47.3736 60.3252 50.1829 61.8499 52.8237 63.5462C55.4646 65.2424 57.8362 67.0954 59.2716 68.2368C61.7516 70.2091 62.4973 70.6316 63.5182 71.35C64.0236 71.7057 65.6896 73.2603 68.0632 75.3138C69.1298 76.3359 69.4893 76.7177 69.8753 77.0006C70.1029 77.1525 70.3949 77.3213 70.6959 77.4953" stroke="black" stroke-width="2" stroke-linecap="round"/>
<path d="M70.7828 77.5821C70.7828 77.0169 70.9007 75.4177 71.7809 73.0074C72.4405 71.2011 73.9458 68.3754 75.7012 65.4241C77.4566 62.4728 79.5222 59.5238 80.9083 57.6483C83.719 53.8454 84.8587 52.9402 85.727 51.4087C85.8837 51.1324 85.6282 51.0083 83.3892 50.7085C81.1502 50.4086 76.8526 49.9038 73.9888 49.4586C71.1251 49.0134 69.8255 48.6431 68.2527 47.9773C64.8033 46.5171 62.3751 45.1352 61.1752 44.6966C60.6123 44.5055 60.1428 44.3783 59.6191 44.1991C59.0955 44.0198 58.5319 43.7924 57.9512 43.5581" stroke="black" stroke-width="2" stroke-linecap="round"/>
<path d="M57.9512 43.5581C57.9577 43.2991 58.1077 42.316 59.6364 39.6167C60.8522 37.4699 63.4877 33.5258 65.6318 29.6298C67.7759 25.7338 69.4452 22.063 70.8326 19.2418C72.2199 16.4205 73.2747 14.56 73.798 13.5098C74.3212 12.4596 74.2808 12.2761 73.5579 11.8392C72.835 11.4023 71.4308 10.7176 69.0933 9.87937C66.7559 9.04115 63.5277 8.07021 60.9054 7.07356C58.2831 6.07692 56.3645 5.08401 54.3103 4.03882" stroke="black" stroke-width="2" stroke-linecap="round"/>
<path d="M23.7174 1.37875C23.7105 1.37185 23.7036 1.36494 25.6458 3.31876C27.588 5.27258 31.4795 9.18733 34.18 12.0992C36.8804 15.0111 38.2719 16.8016 39.8082 18.7122" stroke="black" stroke-width="2" stroke-linecap="round"/>
<path d="M39.8081 18.7123C39.8453 18.7621 41.2497 20.6403 43.4038 23.3128C44.1092 24.1879 44.2834 23.8639 44.9399 22.3007C45.5964 20.7376 46.7954 17.8884 48.6314 14.6881C50.4674 11.4879 52.9041 8.02292 54.1883 6.16117C55.4725 4.29942 55.5305 4.14585 55.6084 3.97637C55.6862 3.80688 55.7822 3.62612 55.9731 3.35938" stroke="black" stroke-width="2" stroke-linecap="round"/>
</svg>
