<svg width="78" height="92" viewBox="0 0 78 92" fill="none" xmlns="http://www.w3.org/2000/svg">
<path d="M12.9003 8.18872C12.9003 8.20127 12.9003 8.21383 11.9461 9.7833C10.9918 11.3528 9.08343 14.4788 7.64014 17.0034C6.19686 19.5281 5.27654 21.3566 4.40201 22.955C1.77304 27.4869 1.43169 28.1816 1.28423 28.4889C1.21732 28.6448 1.16648 28.8004 1.10522 29.1859" stroke="black" stroke-width="2" stroke-linecap="round"/>
<path d="M1.10522 29.2266C1.44868 29.2266 2.37917 29.2927 7.5063 31.5337C9.38161 32.3533 11.3942 33.6096 13.3903 34.7985C15.3864 35.9874 17.2594 37.1679 18.8576 38.3965C20.4558 39.6251 21.7224 40.8659 22.4572 41.5573C23.192 42.2488 23.3566 42.3532 23.5263 42.4607" stroke="black" stroke-width="2" stroke-linecap="round"/>
<path d="M23.6138 42.5044C23.651 42.5165 24.4035 43.2161 25.6524 44.4512C26.4437 45.3623 27.2057 46.7618 28.612 51.6455C29.5405 55.5101 30.9052 62.1893 32.3112 69.071" stroke="black" stroke-width="2" stroke-linecap="round"/>
<path d="M32.3645 69.3384C32.3645 69.357 32.3645 69.3756 32.3967 71.7403C32.4289 74.105 32.4934 78.8151 32.5945 81.768C32.7317 85.7782 33.1264 87.472 33.4161 88.5379C33.6164 89.2749 33.8368 89.7391 33.9993 90.0918C34.6452 90.5293 36.3991 90.6488 39.7938 90.2554C42.0182 89.8721 45.2612 89.1158 49.0012 88.1768" stroke="black" stroke-width="2" stroke-linecap="round"/>
<path d="M49.001 88.1769C49.001 88.1457 49.001 88.1145 49.001 86.1441C49.001 84.1737 49.001 80.265 49.5075 75.2181C50.014 70.1712 51.027 64.1045 52.0707 57.854" stroke="black" stroke-width="2" stroke-linecap="round"/>
<path d="M52.0708 58.4063C52.0708 58.394 52.0708 58.3816 52.0708 56.385C52.0708 54.3885 52.0708 50.408 52.2885 47.3084C52.5062 44.2088 52.9415 42.1106 53.3155 40.6292C53.6895 39.1478 53.9889 38.3467 54.5357 37.1733" stroke="black" stroke-width="2" stroke-linecap="round"/>
<path d="M54.5356 37.1732C54.5356 37.136 54.5658 36.8471 57.4385 32.3379C60.2811 28.0983 65.9352 19.8971 69.6486 14.8452C73.3619 9.79326 74.9632 8.13924 76.88 6.27661" stroke="black" stroke-width="2" stroke-linecap="round"/>
<path d="M76.9206 6.27664C76.908 6.27664 74.4785 6.2553 69.6343 5.92296C67.1991 5.75589 64.8676 5.01194 62.6075 4.29792C60.3474 3.58389 58.244 2.77404 56.8863 2.28539C55.5285 1.79675 54.9802 1.65386 54.2954 1.50537" stroke="black" stroke-width="2" stroke-linecap="round"/>
<path d="M54.2952 1.50537C54.2952 1.95992 54.2358 3.10884 53.7232 4.4714C53.4611 5.16787 52.8329 6.2148 50.4632 9.21535C48.0935 12.2159 43.9375 17.111 41.7067 19.7185C39.4759 22.326 39.2962 22.4976 39.0817 22.7539C38.8673 23.0103 38.6235 23.3463 38.3008 23.87" stroke="black" stroke-width="2" stroke-linecap="round"/>
<path d="M38.301 24.0101C37.8548 24.7115 36.4259 26.6365 35.543 27.376C34.9496 27.873 34.1277 27.8661 33.5397 27.8028C33.2705 27.7739 33.0885 27.5971 30.6746 25.1702C28.2607 22.7432 23.6275 18.032 21.2142 15.5203C18.6903 12.8934 18.6923 11.459 18.2028 10.4201C16.7302 9.89892 15.8022 9.34698 15.0736 8.53248C14.9198 8.31852 14.8016 8.12123 14.5378 7.56738" stroke="black" stroke-width="2" stroke-linecap="round"/>
</svg>
