<svg width="77" height="85" viewBox="0 0 77 85" fill="none" xmlns="http://www.w3.org/2000/svg">
<path d="M1.92896 2.97175C1.92896 2.95836 1.94444 4.91553 2.05953 9.29112C2.12299 11.7039 2.34241 14.5021 2.49299 16.0045C2.64357 17.5069 2.75592 17.6274 10.7843 17.4772C18.8127 17.327 34.7537 16.9025 42.0875 17.7662C49.4212 18.6299 47.6647 20.7946 46.1703 22.4636C44.6758 24.1327 43.4967 25.2404 39.5475 28.6113C35.5982 31.9821 28.9146 37.5825 22.0284 43.3526" stroke="black" stroke-width="2" stroke-linecap="round"/>
<path d="M22.0282 43.3525C22.0282 43.3712 22.0282 43.3898 20.4249 46.4139C18.8216 49.438 15.6151 55.467 13.6819 59.0444C11.7488 62.6219 11.1862 63.565 10.8612 64.1415C10.5363 64.7181 10.466 64.8995 10.3936 65.0863" stroke="black" stroke-width="2" stroke-linecap="round"/>
<path d="M11.7382 62.759C11.7094 62.759 11.68 63.2578 11.6378 64.109C11.6106 64.6561 10.6173 67.0098 9.14245 70.6407C7.76096 74.0419 7.9127 76.7224 8.37795 78.1624C8.61212 78.8872 9.61988 79.3964 10.6922 80.1285C12.0421 81.0501 13.3544 81.4648 17.8133 81.8586C21.8617 82.2161 29.5645 82.5148 38.1438 82.7592C46.7231 83.0037 55.9528 83.088 60.8518 83.0891C66.0399 83.0904 66.4905 82.8476 66.8244 82.6868C67.2105 82.5008 67.5477 82.2443 67.771 81.9459C67.9891 81.6543 67.9053 80.4093 67.7314 77.9983C67.5021 74.8178 67.0477 72.397 66.9329 71.2171C66.7639 69.4808 66.2571 69.024 65.9858 68.7302C65.8582 68.5921 65.6912 68.5385 62.2893 68.4787C58.8875 68.419 52.2404 68.3707 47.4669 68.4211C42.6934 68.4715 39.9948 68.6221 38.4601 68.6778C36.183 68.7603 35.1044 68.5117 34.2988 68.4559C34.1745 68.4473 34.2048 68.1722 34.2381 67.9478C34.2714 67.7234 34.3448 67.4753 36.0149 64.7436C37.685 62.0118 40.9495 56.8039 44.6707 51.644C48.3919 46.4841 52.4709 41.53 54.7017 38.7658C56.9325 36.0015 57.1915 35.5772 57.3756 35.2291C57.5596 34.8811 57.6609 34.6221 57.7652 34.3552" stroke="black" stroke-width="2" stroke-linecap="round"/>
<path d="M1.85038 3.65821C1.82736 3.65821 1.80435 3.65821 11.5613 3.31228C21.3182 2.96635 40.8557 2.27449 52.1377 1.97341C63.4197 1.67234 65.8541 1.78301 68.3622 1.89703" stroke="black" stroke-width="2" stroke-linecap="round"/>
<path d="M68.362 1.89697C70.2455 1.89697 74.4973 2.04468 75.2439 2.43928C75.9248 2.79923 75.9611 3.72148 75.9848 4.93073C75.9914 5.26521 75.9058 5.57077 75.4388 6.55756C74.9718 7.54434 74.0925 9.20212 71.3681 12.862C68.6437 16.5218 64.1009 22.1335 61.0964 26.1736C58.092 30.2138 56.7635 32.5124 56.0253 33.8282C55.2872 35.144 55.1797 35.4074 55.0156 35.7751" stroke="black" stroke-width="2" stroke-linecap="round"/>
</svg>
