<svg width="1280" height="832" viewBox="0 0 1280 832" fill="none" xmlns="http://www.w3.org/2000/svg">
<g clip-path="url(#clip0_19_401)">
<rect width="1280" height="832" fill="#3D70CE"/>
<path fill-rule="evenodd" clip-rule="evenodd" d="M1280 205.976L1256.53 185.378C1233.07 164.781 1185.07 123.585 1138.13 109.854C1090.13 96.122 1043.2 109.854 995.2 96.122C948.267 82.3903 900.267 41.1952 853.333 75.5245C806.4 109.854 758.4 219.708 711.467 260.903C663.467 302.098 616.533 274.634 568.533 226.573C521.6 178.512 473.6 109.854 426.667 116.72C379.733 123.585 331.733 205.976 284.8 219.708C236.8 233.439 189.867 178.512 141.867 137.317C94.9333 96.122 46.9333 68.6586 23.4666 54.9269L-6.67572e-05 41.1952V9.54804e-06H23.4666C46.9333 9.54804e-06 94.9333 9.54804e-06 141.867 9.54804e-06C189.867 9.54804e-06 236.8 9.54804e-06 284.8 9.54804e-06C331.733 9.54804e-06 379.733 9.54804e-06 426.667 9.54804e-06C473.6 9.54804e-06 521.6 9.54804e-06 568.533 9.54804e-06C616.533 9.54804e-06 663.467 9.54804e-06 711.467 9.54804e-06C758.4 9.54804e-06 806.4 9.54804e-06 853.333 9.54804e-06C900.267 9.54804e-06 948.267 9.54804e-06 995.2 9.54804e-06C1043.2 9.54804e-06 1090.13 9.54804e-06 1138.13 9.54804e-06C1185.07 9.54804e-06 1233.07 9.54804e-06 1256.53 9.54804e-06H1280V205.976Z" fill="#0099FF"/>
<path fill-rule="evenodd" clip-rule="evenodd" d="M0 267.167L23.4667 281.157C46.9333 295.146 94.9333 323.125 141.867 323.125C189.867 323.125 236.8 295.146 284.8 276.494C331.733 257.841 379.733 248.515 426.667 267.167C473.6 285.82 521.6 332.452 568.533 337.115C616.533 341.778 663.467 304.473 711.467 309.136C758.4 313.799 806.4 360.431 853.333 365.094C900.267 369.757 948.267 332.452 995.2 332.452C1043.2 332.452 1090.13 369.757 1138.13 379.084C1185.07 388.41 1233.07 369.757 1256.53 360.431L1280 351.105V491H1256.53C1233.07 491 1185.07 491 1138.13 491C1090.13 491 1043.2 491 995.2 491C948.267 491 900.267 491 853.333 491C806.4 491 758.4 491 711.467 491C663.467 491 616.533 491 568.533 491C521.6 491 473.6 491 426.667 491C379.733 491 331.733 491 284.8 491C236.8 491 189.867 491 141.867 491C94.9333 491 46.9333 491 23.4667 491H0V267.167Z" fill="#0099FF"/>
<path fill-rule="evenodd" clip-rule="evenodd" d="M1280 597.833L1256.53 583.843C1233.07 569.854 1185.07 541.875 1138.13 541.875C1090.13 541.875 1043.2 569.854 995.2 588.506C948.267 607.159 900.267 616.485 853.333 597.833C806.4 579.18 758.4 532.548 711.467 527.885C663.467 523.222 616.533 560.527 568.533 555.864C521.6 551.201 473.6 504.569 426.667 499.906C379.733 495.243 331.733 532.548 284.8 532.548C236.8 532.548 189.867 495.243 141.867 485.916C94.9333 476.59 46.9333 495.243 23.4666 504.569L-6.67572e-05 513.895V374L23.4666 374C46.9333 374 94.9333 374 141.867 374C189.867 374 236.8 374 284.8 374C331.733 374 379.733 374 426.667 374C473.6 374 521.6 374 568.533 374C616.533 374 663.467 374 711.467 374C758.4 374 806.4 374 853.333 374C900.267 374 948.267 374 995.2 374C1043.2 374 1090.13 374 1138.13 374C1185.07 374 1233.07 374 1256.53 374H1280V597.833Z" fill="#0099FF"/>
<path fill-rule="evenodd" clip-rule="evenodd" d="M0 608.167L23.4667 622.157C46.9333 636.146 94.9333 664.125 141.867 664.125C189.867 664.125 236.8 636.146 284.8 617.494C331.733 598.841 379.733 589.515 426.667 608.167C473.6 626.82 521.6 673.452 568.533 678.115C616.533 682.778 663.467 645.473 711.467 650.136C758.4 654.799 806.4 701.431 853.333 706.094C900.267 710.757 948.267 673.452 995.2 673.452C1043.2 673.452 1090.13 710.757 1138.13 720.084C1185.07 729.41 1233.07 710.757 1256.53 701.431L1280 692.105V832H1256.53C1233.07 832 1185.07 832 1138.13 832C1090.13 832 1043.2 832 995.2 832C948.267 832 900.267 832 853.333 832C806.4 832 758.4 832 711.467 832C663.467 832 616.533 832 568.533 832C521.6 832 473.6 832 426.667 832C379.733 832 331.733 832 284.8 832C236.8 832 189.867 832 141.867 832C94.9333 832 46.9333 832 23.4667 832H0V608.167Z" fill="#0099FF"/>
<path d="M-12 425.059C-12 425.059 60.078 383.188 111.047 383.001C162.016 382.813 189.764 433.386 246.599 434.244C303.434 435.103 315.125 383 388.653 383.001C462.182 383.001 401.658 450.198 493.694 460.35C585.729 470.502 693.77 397.02 777.803 411.04C861.835 425.059 816.317 477.122 892.346 484.522C968.376 491.921 949.368 411.04 1036.4 411.04C1123.43 411.04 1126.44 484.522 1194.46 484.522C1262.49 484.522 1293 448.264 1293 448.264" stroke="#3D70CE" stroke-width="50"/>
<path d="M-12 757.059C-12 757.059 60.078 715.188 111.047 715.001C162.016 714.813 189.764 765.386 246.599 766.244C303.434 767.103 315.125 715 388.653 715.001C462.182 715.001 401.658 782.198 493.694 792.35C585.729 802.502 693.77 729.02 777.803 743.04C861.835 757.059 816.317 809.122 892.346 816.522C968.376 823.921 949.368 743.04 1036.4 743.04C1123.43 743.04 1126.44 816.522 1194.46 816.522C1262.49 816.522 1293 780.264 1293 780.264" stroke="#3D70CE" stroke-width="50"/>
<path d="M0 42.0592C0 42.0592 72.078 0.188492 123.047 0.000522677C174.016 -0.187447 201.764 50.3863 258.599 51.2445C315.434 52.1027 327.125 0.000422343 400.653 0.000522677C474.182 0.00062301 413.658 67.1978 505.694 77.3499C597.729 87.502 705.77 14.0201 789.803 28.0397C873.835 42.0592 828.317 94.1219 904.346 101.522C980.376 108.921 961.368 28.0397 1048.4 28.0397C1135.43 28.0397 1138.44 101.522 1206.46 101.522C1274.49 101.522 1305 65.264 1305 65.264" stroke="#3D70CE" stroke-width="50"/>
</g>
<defs>
<clipPath id="clip0_19_401">
<rect width="1280" height="832" fill="white"/>
</clipPath>
</defs>
</svg>
