<svg width="992" height="100" viewBox="0 0 992 100" fill="none" xmlns="http://www.w3.org/2000/svg">
<path d="M380.826 66.0061C380.706 66.0061 380.002 66.1827 378.742 67.0889C376.851 68.4501 376.685 71.419 376.208 73.6213C375.952 74.8038 375.928 76.1674 377.34 76.1802C378.751 76.193 381.667 74.8262 383.211 74.6298C384.756 74.4333 384.842 75.4486 384.456 77.5998C384.07 79.751 383.21 83.0074 383.2 84.5997C383.189 86.1919 384.056 86.0213 385.758 85.4861" stroke="#E72121" stroke-width="10" stroke-linecap="round"/>
<path d="M20.2811 19.1479C19.2473 19.3211 14.6042 23.2627 7.26065 33.0387C5.87092 34.8888 5.54838 35.5982 5.65485 35.8008C5.9865 36.4316 15.025 30.0807 27.1493 22.4187C31.1173 19.9111 31.1081 20.971 29.7178 23.2766C28.3274 25.5822 25.6733 29.2967 26.5869 28.8275C27.5005 28.3582 32.0623 23.5926 34.4856 21.5838C36.6429 19.7955 31.8594 30.4769 27.3468 40.1839C26.9092 41.1251 35.3608 32.6686 38.7136 29.1332C41.102 26.6148 32.7574 37.8928 24.9913 46.839C24.5276 47.3733 33.5569 34.827 37.58 29.5751C41.6031 24.3231 40.9684 25.4808 36.185 32.8776C31.4016 40.2744 22.4889 53.8751 18.1568 60.3309C13.8248 66.7866 14.3435 65.6852 17.9618 60.5493C21.5802 55.4133 28.2824 46.2762 31.5798 41.9535C36.2939 35.7738 14.0696 66.6213 14.9036 64.7996C17.1873 59.8115 22.6629 56.7619 23.678 56.8015C27.3664 56.9455 19.9847 69.5528 20.7973 72.4859C22.2524 77.7381 34.9223 53.3823 40.1477 46.6208C45.3731 39.8594 45.0959 41.9077 43.1806 46.5982C41.2654 51.2887 37.7206 58.5591 36.0434 61.8054C33.2415 67.2284 47.9118 42.7149 48.5733 42.6577C49.1005 42.6122 48.5395 44.7488 45.5284 51.0443C42.5173 57.3398 36.6954 68.2958 32.3727 75.7911C28.0499 83.2864 25.4026 86.9891 24.1916 88.4302C23.5233 89.2254 27.3399 81.6905 34.8321 69.839C41.5735 59.1751 46.9908 53.8419 48.2087 53.0638C49.6416 52.1482 42.8857 63.7668 36.279 74.8345C34.1494 78.4021 34.2495 77.6557 41.1244 65.2305C47.9994 52.8053 61.5814 28.6845 68.46 16.6161C75.3386 4.54767 75.1023 5.2626 70.4751 13.7865C65.8479 22.3104 56.8371 38.6216 52.1653 46.4267C47.4934 54.2318 47.4337 53.0365 47.5322 51.6299C47.7424 48.6277 51.6824 37.9286 52.5647 29.4374C52.8448 26.7418 40.9971 40.5728 35.8573 46.5287C30.7176 52.4847 29.6316 53.5341 29.096 53.5909C28.0687 53.7 35.2283 40.6081 44.6684 25.0134C47.4406 20.4339 46.5063 22.8667 44.8799 25.9219C43.2536 28.9771 41.0636 32.6431 42.0456 31.816C43.0277 30.989 47.2481 25.5579 52.1166 20.2902C61.938 9.66331 68.5752 4.8229 69.1383 5.62653C70.9949 8.27615 62.6758 19.0835 56.5176 30.6564C55.6626 32.2633 66.8372 21.1139 78.9518 7.32518C82.7287 3.02634 82.5035 4.95402 77.1312 15.2744C71.7589 25.5948 61.4538 44.4406 59.9173 48.1085C58.3808 51.7763 65.9251 39.695 69.6439 33.8718C73.3627 28.0486 73.0275 28.8497 67.7692 36.6259C62.5109 44.402 52.3397 59.1289 46.8386 66.9663C41.3374 74.8037 40.8144 75.3054 41.2024 73.9556C41.5903 72.6059 42.905 69.3896 47.4713 61.7172C52.0376 54.0448 59.8157 42.0138 64.3425 35.1676C68.8694 28.3215 69.9094 27.0247 70.5138 26.7069C71.1182 26.3891 71.2556 27.0895 68.113 34.7796C64.9704 42.4698 58.5437 57.1284 54.2101 66.509C49.8764 75.8896 47.8306 79.5478 52.9479 70.769C58.0652 61.9901 70.4075 40.6634 76.6958 30.0198C82.984 19.3762 82.8441 20.0621 79.281 28.1309C75.7178 36.1996 68.7357 51.6303 69.3884 52.4178C70.041 53.2053 78.54 38.882 82.8624 31.8599C87.1848 24.8378 87.073 25.551 83.4463 33.6197C79.8197 41.6884 72.6814 57.091 76.769 52.293C80.8566 47.495 96.3863 22.0296 104.345 9.2391C112.303 -3.55139 112.219 -2.89533 106.847 8.89306C101.474 20.6814 90.815 43.5823 89.8656 48.1344C88.9162 52.6865 97.9996 38.1959 102.644 31.0629C107.287 23.93 107.217 24.5937 100.594 35.4805C93.9712 46.3672 80.7987 67.4568 73.9289 77.9833C67.059 88.5098 66.8909 87.8341 66.9259 86.9767C66.9609 86.1193 67.2041 85.1007 70.1976 78.6312C73.1911 72.1618 78.9276 60.2724 81.7241 54.5439C84.1472 49.5802 77.5835 61.7866 68.1377 78.3506C65.1245 83.6346 65.1622 82.2497 68.3471 74.4531C71.532 66.6566 77.7189 52.4058 79.9494 46.2469C82.1798 40.088 80.2662 42.4529 76.913 47.5338C73.5597 52.6146 68.8248 60.3398 74.6461 55.219C80.4674 50.0982 96.9885 31.8973 106.083 22.0224C115.177 12.1476 116.344 11.1502 116.93 10.9918C117.516 10.8334 117.485 11.544 111.141 23.9693C104.797 36.3945 92.1411 60.5128 89.2705 66.8817C86.2909 73.4925 101.695 47.9533 102.29 47.4665C103.373 46.5794 98.0973 56.3938 91.4852 67.1965C88.7227 71.7099 86.9258 74.109 92.2495 65.757C97.5732 57.4049 110.011 38.1914 116.236 29.0536C122.462 19.9159 122.097 21.4362 118.218 29.518C114.338 37.5998 106.954 52.197 108.584 52.2049C110.213 52.2127 121.079 37.189 126.484 29.9656C131.257 23.5851 121.022 41.6509 112.932 55.8971C111.329 58.7205 129.283 30.875 136.393 20.1623C143.504 9.44963 142.928 11.1602 137.021 22.0214C131.114 32.8826 119.893 52.8427 118.392 57.5439C116.89 62.2451 125.447 51.0826 129.444 46.3257C133.441 41.5688 132.618 43.5558 126.662 54.2967C120.707 65.0375 109.642 84.472 104.575 92.8769C101.253 98.3873 108.934 83.1959 114.995 70.1937C115.691 68.7012 105.54 77.7813 101.39 81.0278C97.2393 84.2743 97.8595 81.4649 99.9015 76.4818C101.944 71.4987 105.388 64.427 103.499 66.5197C101.61 68.6124 94.2826 80.0837 90.7271 85.3503C87.1715 90.6169 87.61 89.3313 89.4069 85.6301C91.2039 81.9289 94.346 75.8511 94.6389 74.5923C94.9318 73.3336 92.2802 77.078 91.7939 78.5501C91.3578 79.8698 105.382 70.8164 117.813 62.9794C119.495 61.9192 112.775 69.0939 110.044 70.4407C107.406 71.7417 117.111 52.1612 122.041 41.8246C122.765 40.3068 111.373 56.3084 109.373 60.2216C107.373 64.1348 112.935 58.0187 114.15 58.1926C115.365 58.3665 112.065 65.0159 111.159 67.7469C110.252 70.4779 111.841 69.0889 118.996 61.1742C126.15 53.2595 138.823 38.8611 138.461 41.7607C138.1 44.6603 124.321 65.2944 122.933 66.7669C121.545 68.2393 132.965 49.925 135.808 45.5695C138.651 41.214 132.572 51.3723 135.811 46.529C139.051 41.6856 151.793 21.5328 158.153 11.7503C164.512 1.96785 164.103 3.16651 157.726 14.3348C151.349 25.5031 139.017 46.6046 132.795 56.793C126.574 66.9815 126.836 65.6173 130.761 58.237C134.686 50.8567 142.266 37.5017 140.455 38.518C138.644 39.5344 127.214 55.3269 121.542 63.078C115.871 70.8292 116.304 70.0605 124.717 58.5729C133.131 47.0852 149.511 24.9019 157.728 14.0606C165.944 3.21938 165.501 4.39245 158.509 16.9173C151.517 29.4421 137.99 53.2831 131.308 65.0674C124.626 76.8517 125.199 75.857 131.275 66.8217C137.351 57.7863 148.914 40.7406 154.535 32.7239C160.156 24.7072 159.486 26.236 155.758 32.6696C152.031 39.1033 145.267 50.3955 146.659 49.4293C148.051 48.4632 157.803 34.8965 162.378 28.8406C166.954 22.7846 166.056 24.6504 158.644 36.9515C151.231 49.2527 137.331 71.9325 135.519 75.4136C128.276 89.3242 155.214 46.4346 152.494 52.007C150.148 56.8152 145.181 65.3096 149.046 59.639C152.91 53.9685 165.588 33.79 164.092 36.3116C162.597 38.8332 146.544 64.6663 148.857 62.7478C151.169 60.8293 172.333 30.3765 176.208 25.1337C180.083 19.8908 166.027 40.7808 164.598 44.5602C163.17 48.3397 174.794 34.3755 172.774 39.1266C170.753 43.8777 154.736 67.7674 153.073 70.661C151.409 73.5547 164.584 54.7284 165.747 53.7654C166.911 52.8023 155.663 70.2729 155.052 71.6117C154.441 72.9505 164.807 57.6281 163.971 58.1851C163.134 58.7421 150.781 75.6428 144.144 84.6056C137.507 93.5684 136.961 94.0811 136.845 93.7233C136.344 92.1871 143.265 80.4301 147.799 71.1391C148.563 69.5732 137.746 85.2215 136.548 87.0073C131.176 95.0174 145.538 74.0368 147.691 72.1259C154.288 66.2722 166.987 45.8008 173.962 36.288C180.937 26.7752 180.507 27.6394 176.4 33.6859C172.293 39.7324 164.521 50.935 161.352 56.1916C158.182 61.4482 159.849 60.4193 162.122 58.601C167.379 54.3949 174.62 46.6077 175.807 47.8881C180.597 53.0514 161.302 71.6546 163.418 68.2502C165.534 64.8457 181.316 39.9631 190.665 25.6752C202.092 8.20924 205.495 4.87921 205.788 4.50373C205.968 4.27234 204.51 5.55727 198.348 13.3309C192.186 21.1045 180.93 35.7367 177.772 38.8599C173.443 43.1407 184.262 24.5163 181.843 25.701C180.47 26.3735 178.913 27.4053 178.299 27.3958C177.241 27.3795 181.839 20.1581 185.275 14.5655C191.181 4.95071 173.543 24.8141 167.517 28.1338C166.165 28.8783 176.443 23.1624 185.141 18.2023C187.973 16.587 188.014 17.5984 185.176 22.0347C182.338 26.471 176.727 34.505 178.679 32.5996C180.631 30.6943 190.317 18.6062 195.089 12.9224C199.862 7.23863 199.428 8.32553 195.286 15.5732C191.143 22.8209 183.306 36.1964 179.795 42.6279C176.283 49.0593 177.334 48.1413 181.457 43.1417C185.58 38.142 192.743 29.0885 188.098 37.4204C183.453 45.7524 166.782 71.7441 167.283 73.8702C167.784 75.9964 185.961 53.4692 195.028 42.4393C204.095 31.4094 203.501 32.5595 198.73 39.7215C193.959 46.8835 185.028 60.0228 180.61 66.4438C176.193 72.8648 176.559 72.1695 184.809 60.8519C193.059 49.5343 209.183 27.6154 209.099 27.5298C209.015 27.4443 192.236 49.8563 187.336 56.5014C182.436 63.1465 189.924 53.3457 186.336 56.7228C182.749 60.0999 167.859 76.9519 164.962 79.6451C162.064 82.3383 171.611 70.3619 176.31 64.6491C181.009 58.9363 180.572 59.8501 177.183 64.5617C173.794 69.2734 167.467 77.7553 165.874 80.0149C164.281 82.2746 167.613 78.055 168.95 75.7358C170.286 73.4166 169.526 73.1256 168.673 73.1221C166.872 73.1146 155.889 80.1061 143.164 87.6547C140.661 89.1393 145.51 84.5331 148.276 82.6673C151.042 80.8015 151.405 81.4764 150.994 83.3482C150.584 85.2199 149.39 88.2682 149.552 89.159C149.715 90.0498 151.271 88.6907 157.388 81.8416C163.506 74.9925 174.137 62.6945 179.308 57.3117C184.479 51.9289 183.868 53.8339 181.893 57.9788C179.918 62.1236 176.598 68.4505 182.272 63.1707C187.947 57.8909 202.718 40.8128 201.425 44.9592C200.132 49.1056 182.329 74.9942 173.378 87.7284C164.426 100.463 164.867 99.2579 173.808 85.8718C182.749 72.4857 200.178 46.9547 208.899 34.2562C217.621 21.5577 217.107 22.4654 212.487 29.0249C207.866 35.5844 199.154 47.768 202.79 44.7291C206.427 41.6901 222.677 23.0592 224.49 22.5581C226.302 22.057 213.185 40.2502 206.293 49.9283C199.402 59.6064 199.133 60.2181 204.987 53.1941C210.841 46.1701 222.826 31.4918 219.834 36.6045C216.841 41.7172 198.508 67.0657 194.19 73.7442C189.872 80.4228 200.125 67.6632 201.888 66.1078C203.651 64.5525 196.612 74.588 193.148 79.4203C189.685 84.2527 190.009 83.5779 199.188 71.0683C208.367 58.5587 226.391 34.2349 229.23 30.5792C232.069 26.9235 219.177 44.6731 217.11 47.7104C215.043 50.7478 224.193 38.5351 221.299 41.7993C218.405 45.0635 203.189 64.1747 202.078 66.6952C200.967 69.2158 214.422 54.5665 217.466 52.5819C220.51 50.5974 212.735 61.7215 215.335 58.6758C217.935 55.6302 231.145 38.0777 234.191 33.5627C237.237 29.0477 229.719 38.102 225.631 43.1059C221.037 48.7287 232.263 34.8564 245.725 16.8404C247.592 13.4565 239.38 21.7644 237.923 22.4623C236.467 23.1602 242.015 15.9964 247.371 7.19618" stroke="#E72121" stroke-width="10" stroke-linecap="round"/>
<path d="M253.126 10.601C253.179 10.6539 253.073 11.4797 245.707 23.7992C238.727 35.4746 224.146 57.5393 214.809 71.3727C205.473 85.206 201.562 89.9801 199.945 91.7571C198.328 93.534 199.123 92.1689 205.77 85.5275C212.417 78.886 224.891 67.0094 232.876 59.0216C240.86 51.0337 243.977 47.2944 244.634 46.777C245.29 46.2597 243.393 49.0776 238.196 55.1486C224.863 70.7233 216.092 79.3557 216.745 78C217.113 77.2354 217.785 76.4362 225.945 67.1449C234.104 57.8536 249.789 40.1253 257.407 31.7395C265.024 23.3537 264.1 24.8476 257.11 33.8836C250.121 42.9197 237.095 59.4527 238.335 58.6973C239.575 57.942 255.475 39.3973 260.522 32.1159C265.57 24.8344 259.283 29.3783 261.46 24.6456C263.637 19.913 274.469 5.76625 279.258 0.0500016C284.047 -5.66624 282.467 -2.52327 275.457 6.61498C268.447 15.7532 256.056 30.7915 253.964 32.7841C251.872 34.7767 260.454 23.2678 264.547 17.4887C268.639 11.7097 267.982 12.0091 264.366 15.172C260.751 18.3348 254.198 24.352 257.94 21.3702C261.683 18.3883 275.919 6.22513 283.573 -0.243814C291.228 -6.71276 291.868 -7.11885 292.198 -6.96931C292.528 -6.81976 292.527 -6.10227 292.328 -5.19945C292.129 -4.29662 291.732 -3.23019 283.339 8.86387C274.946 20.9579 258.568 44.0473 255.958 48.6181C253.348 53.1888 265.002 38.5412 263.089 43.1097C261.176 47.6781 245.342 71.9065 246.181 71.7519C247.019 71.5973 265.009 46.3255 274.046 33.8575C283.083 21.3894 282.621 22.4908 275.884 33.9259C269.147 45.3611 256.147 67.0965 258.796 65.8689C261.444 64.6412 280.134 39.7918 281.47 39.3603C282.806 38.9287 266.223 63.6681 262.797 69.3153C259.371 74.9626 269.606 60.768 270.369 58.8275C271.132 56.8869 262.113 67.6305 261.961 67.7161C249.793 74.5663 279.269 46.6369 275.431 50.5008C260.139 65.8968 252.908 68.9388 249.702 69.3364C244.005 70.0431 249.713 53.9871 249.064 51.8861C248.506 50.0777 243.422 58.3361 241.696 60.8637C239.97 63.3912 240.717 62.8964 242.18 61.5721C243.643 60.2478 245.799 58.109 243.992 60.0008C242.185 61.8927 236.349 67.88 229.543 75.0674" stroke="#E72121" stroke-width="10" stroke-linecap="round"/>
<path d="M282.226 29.1789C282.199 31.0982 280.191 43.0655 275.592 59.1872C273.097 67.9322 268.881 77.394 271.526 76.3932C274.17 75.3924 283.445 63.5329 288.509 57.2622C293.572 50.9915 294.143 50.6691 294.409 50.8595C295.164 51.3994 288.763 63.792 280.053 80.5003C277.211 85.9514 277.295 85.1078 284.638 71.125C291.98 57.1421 306.506 30.008 313.935 16.5626C321.363 3.11724 321.253 4.18281 318.76 9.25211C316.267 14.3214 311.395 23.3621 306.417 31.5668C301.439 39.7715 296.503 46.8662 293.693 50.7361C290.884 54.6059 290.352 55.0359 294.667 48.5624C298.982 42.0889 308.16 28.6988 312.129 22.3768C316.098 16.0548 314.58 17.2065 308.663 22.9426C302.746 28.6786 292.475 38.9641 290.814 39.9483C289.153 40.9326 296.413 32.3039 296.787 33.368C297.16 34.4321 290.427 45.4504 292.049 45.5563C293.671 45.6623 303.851 34.522 308.337 30.3878C310.623 28.281 305.832 38.5721 304.728 42.1097C303.654 45.5512 317.171 29.3378 318.264 29.4895C319.357 29.6413 311.613 40.7705 307.895 46.2239C304.609 51.044 315.065 37.0179 323.851 26.4734C325.863 24.0594 310.767 49.3421 309.314 52.9613C307.862 56.5805 317.407 43.3262 322.048 37.3116C326.689 31.2971 326.137 32.924 322.068 41.1294C317.999 49.3348 310.43 64.0694 306.85 71.4454C303.271 78.8214 303.91 78.3922 307.576 73.7272C311.242 69.0621 317.916 60.1741 315.258 62.4794C312.599 64.7847 300.406 78.5527 294.449 84.787C288.491 91.0213 289.139 89.3048 291.799 84.1271C294.46 78.9494 299.114 70.3626 300.922 66.1186C302.73 61.8747 301.551 62.2339 299.138 64.0279C292.852 68.7036 287.512 74.4074 284.902 76.8012C284.312 77.3427 284.672 75.7134 289.353 68.1052C294.034 60.497 302.887 46.7538 307.417 40.49C311.948 34.2261 311.887 35.8582 307.83 44.5555C303.774 53.2528 295.723 68.966 291.907 76.7816C288.091 84.5973 288.755 84.0393 296.784 74.8055C304.813 65.5716 320.188 47.6787 328.517 37.9087C336.847 28.1387 337.666 27.0339 337.812 27.2091C338.906 28.5271 331.788 38.3804 330.235 41.8775C327.93 47.0662 345.912 20.2334 349.807 15.0119C357.617 4.54116 339.445 29.7365 338.382 30.2886C337.358 30.82 340.629 22.8483 340.247 18.9642C339.918 15.6255 328.495 28.9087 324.188 32.755C319.88 36.6014 320.267 35.5673 322.606 31.916C324.945 28.2647 329.223 22.0274 330.395 20.6242C331.566 19.221 329.501 22.8408 328.901 24.5367C328.302 26.2325 329.231 25.8947 330.399 25.3449C331.567 24.795 332.945 24.0434 333.537 24.3101C342.824 28.4939 322.224 46.497 323.648 45.3598C324.486 44.6911 325.48 43.7432 325.948 43.6712C326.416 43.5992 326.308 44.4079 323.09 51.1173C319.873 57.8267 313.549 70.4123 311.264 75.7175C310.089 78.4439 317.988 67.575 322.93 59.513C323.25 58.9895 317.344 70.2439 321.177 66.214C325.01 62.1841 338.304 43.688 344.839 34.8819C351.375 26.0758 350.751 27.5202 346.361 35.5675C341.972 43.6149 333.836 58.2215 330.043 65.0828C326.997 70.5916 335.884 56.9151 342.034 47.5437C343.957 44.6131 328.157 69.1456 322.383 77.9794C316.61 86.8133 317.431 85.2785 325.724 72.7567C334.016 60.235 349.755 36.7728 352.797 33.4914C355.838 30.2101 345.705 47.8206 341.026 56.4661C336.346 65.1116 337.427 64.2585 341.603 59.8604C345.779 55.4624 353.017 47.5452 356.628 43.9436C360.238 40.342 360.002 41.2958 357.916 45.2509C355.831 49.206 351.903 56.1335 355.483 50.8854C359.063 45.6374 370.271 28.0038 375.343 19.2428C380.414 10.4818 379.01 11.1276 374.584 14.0432C370.158 16.9587 362.753 22.1245 359.068 23.9995C355.383 25.8745 355.643 24.3021 357.484 20.6576C362.305 11.1125 368.507 2.62195 372.213 -2.0359C377.205 -8.30965 356.477 24.7787 358.755 23.4841C359.9 22.8334 360.891 21.9762 361.415 22.104C368.643 23.8663 355.029 41.7468 353.646 44.6964C353.441 45.1334 362.31 34.5104 366.542 31.8953C372.837 28.005 349.199 61.4427 342.182 72.9536C335.165 84.4646 335.679 83.9083 344.149 72.1701C352.618 60.4318 369.028 37.5284 370.904 36.1175C372.78 34.7067 359.625 55.4823 358.756 58.5502C357.886 61.6181 369.7 46.3486 369.715 48.0423C369.73 49.7361 357.587 68.8558 351.749 78.3154C345.91 87.7751 346.744 86.9953 353.581 78.8744C360.418 70.7535 373.234 55.3151 375.47 53.5792C377.706 51.8434 368.973 64.2779 370.421 62.095C371.87 59.9121 383.764 42.735 386.282 38.7742C388.8 34.8135 381.581 44.5896 378.021 49.2389C374.95 53.25 384.229 38.7658 392.353 24.9308C392.877 24.0383 379.972 38.0412 374.298 44.5037C368.624 50.9661 369.007 50.0908 374.186 42.2333C379.364 34.3759 389.327 19.5628 392.149 14.2733C394.97 8.98374 390.348 13.6666 390.24 13.1054C390.132 12.5442 394.678 6.59694 396.173 5.43059C398.251 3.80911 394.141 12.903 394.165 14.6383C394.177 15.4472 394.59 16.0794 395.757 16.4457C401.6 18.2811 404.976 15.9247 410.811 13.4105C411.64 13.0532 411.293 15.0732 406.688 22.7868C402.084 30.5004 393.295 44.3656 393.682 44.5898C394.068 44.814 403.896 30.9769 400.785 35.384C397.675 39.7911 381.33 62.8617 379.886 63.48C378.443 64.0983 392.396 41.5652 390.613 42.4792C388.831 43.3931 370.89 68.4371 371.808 67.8623C372.727 67.2875 393.048 40.3351 403.52 27.0051C413.993 13.6751 414.002 14.7841 411.15 21.0237C408.299 27.2633 402.587 38.5999 402.624 40.6605C402.661 42.7211 408.62 35.1623 404.917 40.9779C401.214 46.7936 387.668 66.2128 387.217 67.48C386.767 68.7472 399.822 51.2741 406.39 42.614C412.957 33.9539 412.64 34.6364 408.126 41.8507C403.612 49.065 394.91 62.7903 390.845 69.1229C386.779 75.4556 387.613 73.9796 394.47 64.6636C401.327 55.3475 414.182 38.2361 413.755 40.4535C413.328 42.6709 399.231 64.7357 392.506 75.8366C385.781 86.9376 386.856 86.4061 388.327 85.3282C389.799 84.2503 391.634 82.6421 393.941 81.1817" stroke="#E72121" stroke-width="10" stroke-linecap="round"/>
<path d="M422.423 33.261C422.134 36.1004 418.986 45.0798 414.202 54.8226C412.083 59.1365 410.167 61.9556 415.418 52.6504C420.669 43.3452 433.036 21.7752 436.351 17.9616C439.666 14.1481 433.554 28.7444 427.981 40.2547C422.407 51.7651 417.557 59.7471 423.571 55.0823C429.585 50.4176 446.611 32.8642 445.72 36.6263C444.83 40.3885 425.508 65.998 424.385 64.7766C423.263 63.5552 440.926 34.7267 439.803 34.3723C438.68 34.0178 418.236 63.0109 407.887 77.4498C397.538 91.8887 397.903 90.8948 400.425 86.8026C402.947 82.7104 407.616 75.5499 405.838 76.9605C404.06 78.371 395.694 88.5694 397.184 86.2844C398.675 83.9994 410.275 68.9218 410.794 67.8262C411.313 66.7305 400.4 80.0736 401.952 77.0483C403.504 74.0231 417.852 54.2251 424.768 44.213C431.683 34.2009 430.732 34.5746 428.853 35.4991C426.973 36.4236 424.195 37.8875 422.721 37.9967C413.607 38.6721 429.791 14.5805 429.309 14.6621C427.852 14.9089 425.769 18.9574 426.879 17.8795C433.219 11.722 438.495 5.13907 439.397 5.41747C450.797 8.93951 433.753 30.8081 434.111 32.1354C434.499 33.5732 442.769 26.7712 451.971 19.5199C454.461 17.5579 448.56 28.5896 439.58 41.8763C437.581 44.8339 445.883 34.9104 456.638 20.8319C460.471 15.814 460.901 15.033 454.206 25.4537C447.512 35.8743 433.655 57.4997 426.219 69.2415C418.784 80.9834 418.19 82.1863 418.264 82.5313C418.446 83.3721 429.886 71.2014 441.009 62.7993C442.948 61.3341 434.064 80.15 436.763 78.9277C439.463 77.7054 453.17 59.6069 454.883 58.1733C456.596 56.7397 445.899 72.5193 449.086 67.9821C452.272 63.4449 469.666 38.1126 472.487 33.4064C480.335 20.3134 449.862 63.4781 452.866 58.8639C456.434 53.3835 463.956 41.4039 467.532 35.3938C471.108 29.3837 470.462 29.6737 463.172 35.6522C455.882 41.6307 441.969 53.2889 435.083 58.3694C428.197 63.4499 428.759 61.5994 432.469 55.9957C436.179 50.3919 443.019 41.091 446.132 37.0231C448.246 34.2594 441.07 44.9728 436.067 53.5791C435.277 54.9393 447.268 42.8029 448.343 43.8292C449.419 44.8556 441.576 57.523 437.854 63.8349C434.132 70.1469 434.768 69.7194 442.363 60.4799C449.958 51.2403 464.492 33.2015 465.444 32.5468C466.396 31.8921 453.325 49.1682 453.161 49.0879C452.996 49.0075 466.135 31.0472 472.585 21.7032C479.036 12.3592 478.402 12.1758 473.074 16.3931C467.745 20.6104 457.743 29.2339 456.577 29.5459C455.411 29.8578 463.385 21.5969 464.848 22.4724C474.953 28.5209 455.569 45.0839 456.464 45.9873C458.467 48.0099 472.796 34.7142 482.972 29.9553C487.428 27.8713 466 53.5941 464.835 54.1343C463.669 54.6746 477.165 36.1896 484.342 26.275C491.52 16.3604 491.97 15.5764 483.643 26.2083C475.315 36.8402 458.195 58.9118 448.107 72.3888C438.02 85.8658 435.483 90.0795 434.607 92.1619C433.732 94.2442 434.593 94.0676 442.48 85.4133C450.367 76.7589 465.254 59.6321 468.039 58.0605C470.824 56.4889 461.056 70.9914 456.787 77.8481C452.518 84.7049 454.043 83.4763 460.997 75.2693C467.95 67.0622 480.285 51.9139 487.198 43.2703C494.111 34.6267 495.23 32.9468 490.267 38.5414C485.304 44.136 474.226 57.056 476.671 52.8423C479.116 48.6286 495.42 26.8897 495.082 27.3683C494.744 27.8468 477.271 51.2015 467.67 64.2514C458.069 77.3013 456.869 79.3386 456.644 80.2878C456.419 81.2371 457.205 81.0366 465.26 72.7543C473.316 64.472 488.618 48.1138 497.52 38.3386C506.423 28.5633 508.462 25.8665 509.139 24.7626C509.816 23.6588 509.07 24.2295 501.762 33.1778C494.455 42.126 480.609 59.4346 474.372 67.701C468.135 75.9674 469.925 74.6672 479.982 63.3323C490.038 51.9974 508.305 30.6672 509.419 30.4754C510.532 30.2836 493.938 51.8766 486.016 62.8667C478.095 73.8568 479.35 73.5898 488.764 64.3625C498.177 55.1351 515.711 36.9556 517.119 37.5068C518.528 38.058 503.281 57.891 495.189 68.4816C487.096 79.0723 486.621 79.8196 495.195 70.4626C503.768 61.1056 521.404 41.6216 530.127 31.8386C538.849 22.0556 538.124 22.5641 529.117 32.5011C520.11 42.4381 502.844 61.7881 504.338 58.804C505.833 55.8198 526.612 29.9151 536.58 17.2212C546.549 4.52724 545.077 5.82914 538.5 13.1782C531.922 20.5272 520.284 33.884 515.935 38.7159C511.586 43.5479 514.879 39.4502 516.052 37.341C517.225 35.2319 516.178 35.2353 514.358 35.8274C512.537 36.4195 509.974 37.6003 508.955 37.6071C507.689 37.6155 511.216 32.6787 513.601 29.2262C514.264 28.2661 509.043 30.705 508.01 30.3001C496.185 25.6631 515.739 17.9641 516.778 15.6153C518.749 11.1583 501.858 18.7716 486.855 21.0182C484.716 21.3386 484.844 20.2623 485.664 18.8607C486.485 17.459 487.97 15.4934 488.409 14.6143C492.942 14.2168 505.406 14.4385 511.991 15.5633C516.12 15.9134 523.499 16.3058 531.666 17.4857" stroke="#E72121" stroke-width="10" stroke-linecap="round"/>
<path d="M553.685 23.3362C553.739 23.2799 553.08 24.2687 547.25 32.194C542.148 39.1307 532.533 51.8679 526.795 59.6969C521.058 67.5259 519.449 70.0308 518.675 70.8681C517.902 71.7054 518.013 70.7994 521.817 63.8791C525.621 56.9588 533.115 44.0516 538.747 35.1941C547.404 21.5775 552.356 16.6331 553.014 15.8759C553.099 15.7787 551.823 16.5716 541.117 26.2988C530.411 36.0261 510.096 54.7423 505.548 58.6769C501 62.6115 512.835 51.1973 513.697 52.9077C514.558 54.618 504.087 69.7988 504.657 71.3755C505.228 72.9522 517.157 60.4648 524.629 52.2283C532.101 43.9919 534.754 40.3848 535.876 38.9549C536.998 37.525 536.507 38.3815 530.104 48.1574C523.701 57.9333 511.4 76.6026 515.175 72.6193C518.95 68.6361 539.173 41.4345 543.154 37.4311C547.135 33.4277 534.261 53.4466 535.52 54.47C536.779 55.4933 552.561 36.9145 550.58 42.2744C548.6 47.6343 528.378 77.4959 528.826 78.4559C529.274 79.416 551.005 50.5697 556.827 42.7013C562.649 34.833 551.903 48.8168 546.638 55.3526C541.374 61.8883 541.918 60.5523 547.146 52.452C552.374 44.3517 562.271 29.5275 567.036 22.0529C571.801 14.5783 571.134 14.9025 560.659 28.323C550.183 41.7436 529.918 68.2506 519.292 82.2031C508.666 96.1556 508.292 96.7502 517.006 84.7048C525.72 72.6594 543.533 47.9558 554.875 32.8C566.218 17.6442 570.55 12.7848 572.522 10.6111C574.494 8.43749 573.974 9.09697 568.425 15.273C562.876 21.4491 552.313 33.1218 546.697 39.4173C541.08 45.7129 540.729 46.2777 541.185 46.305C542.981 46.4127 549.935 41.456 560.101 34.3651C564.642 31.1975 567.59 28.431 568.751 27.8423C569.912 27.2536 569.11 28.8054 561.537 39.5371C553.963 50.2688 539.642 70.1333 539.108 71.5221C538.574 72.9108 552.261 55.2218 552.331 56.6319C552.4 58.042 538.436 79.0873 541.133 77.6342C543.83 76.1811 563.61 51.5919 574.466 38.1872C585.323 24.7825 586.656 23.3074 580.579 32.4908C574.501 41.6743 560.972 61.561 554.642 71.1423C548.312 80.7237 549.591 79.397 556.893 69.6243C564.195 59.8515 577.482 41.6728 575.284 43.3493C573.086 45.0259 555.002 67.1086 556.107 65.9165C557.213 64.7244 578.057 39.5883 580.786 36.8033C583.515 34.0183 567.498 54.3461 567.489 55.2926C567.48 56.2392 583.963 37.1886 585.025 36.3898C586.086 35.5909 571.226 53.6212 570.306 55.8127C569.385 58.0041 582.855 43.8105 583.742 44.5718C584.63 45.3332 572.527 61.4797 572.389 62.9324C572.251 64.3851 584.445 50.6547 584.415 51.5165C584.385 52.3783 571.761 68.2484 574.847 65.1368C577.933 62.0253 597.112 39.4512 607.434 27.3917C617.755 15.3323 618.639 14.4714 611.397 21.7284C604.154 28.9854 588.758 44.3863 587.888 43.3186C587.017 42.2509 601.138 24.248 607.505 15.5432C613.872 6.8384 612.056 7.97734 606.649 12.4143C592.117 24.3371 583.45 31.8217 585.89 28.484C591.422 20.9189 595.969 15.8038 595.944 15.3154C595.853 13.5759 585.413 22.8635 577.5 28.2808C576.846 28.7285 584.811 19.6178 585.542 18.889C586.273 18.1602 579.986 24.8403 577.071 28.2018C574.156 31.5633 574.804 31.4037 576.876 30.2483C578.947 29.0929 582.424 26.9464 584.223 26.2586C586.022 25.5709 586.038 26.407 584.606 29.4415C583.173 32.476 580.291 37.6835 575.162 45.3869C570.032 53.0903 562.742 63.1318 559.76 67.1994C558.372 69.0924 563.75 62.6644 565.071 63.2786C569.927 65.5358 553.589 81.7047 549.797 88.1712C546.004 94.6378 547.66 93.4588 552.443 88.3933C557.227 83.3279 565.086 74.4117 565.413 75.4992C565.739 76.5866 558.296 87.9479 560.294 87.522C578.727 83.5923 585.636 62.3166 583.198 66.2975C581.17 69.6079 577.248 75.3555 575.7 77.9349C574.151 80.5142 575.022 79.7046 583.048 70.2617C591.074 60.8188 606.23 42.7672 609.454 38.1926C612.679 33.618 603.512 43.0674 596.431 50.9434C589.35 58.8195 584.633 64.8358 582.713 67.6455C580.794 70.4552 581.815 69.8759 584.076 68.2726C586.336 66.6693 589.805 64.0596 593.379 61.3707" stroke="#E72121" stroke-width="10" stroke-linecap="round"/>
<path d="M602.303 44.8352C602.094 46.4399 601.08 54.0569 599.908 61.8241C599.42 65.0593 599.449 66.9023 604.06 60.9764C618.842 41.9795 626.779 28.7516 623.267 34.3643C620.671 38.5148 615.598 44.7657 617.36 43.3673C619.122 41.9689 627.663 32.5929 631.991 28.1749C636.319 23.7569 636.176 24.581 630.807 33.0831C625.438 41.5852 614.848 57.7403 608.933 66.618C603.018 75.4957 602.098 76.6065 601.738 76.6314C601.378 76.6563 601.606 75.5617 604.978 69.5288C608.35 63.4959 614.86 52.5578 617.905 47.1111C620.951 41.6645 620.336 42.0407 615.403 46.3219C610.47 50.6031 601.237 58.7779 595.618 63.5441C589.999 68.3103 588.274 69.4203 587.492 69.4017C586.165 69.3701 591.124 60.769 599.413 48.8307C607.35 37.4007 615.19 30.9315 619.774 27.2369C627.393 21.0957 631.613 20.1367 633.124 20.2949C634.645 20.4541 632.227 26.5533 624.385 39.6723C618.801 49.0131 608.605 62.9581 604.192 69.1203C599.78 75.2824 601.113 73.0233 609.147 64.3275C617.181 55.6318 631.874 40.5679 642.632 30.4189C653.39 20.27 659.768 15.4924 663.064 13.5051C666.36 11.5178 666.382 12.4657 658.844 22.5006C651.306 32.5355 636.208 51.6288 628.539 60.978C620.871 70.3272 621.091 69.3538 628.104 60.2514C635.116 51.149 648.914 33.9471 657.002 24.1194C665.089 14.2916 667.049 12.3593 657.366 25.244C647.682 38.1287 626.297 65.889 615.385 79.7773C604.473 93.6656 604.683 92.8406 607.969 87.182C611.255 81.5234 617.611 71.0562 615.964 70.2684C614.318 69.4807 604.476 78.6895 599.525 83.0866C594.575 87.4837 594.813 86.7901 599.913 78.7801C605.012 70.7701 614.965 55.4648 614.116 53.673C613.268 51.8811 601.316 64.0665 594.607 70.7644C587.897 77.4623 586.793 78.3035 587.054 77.9405C588.656 75.7148 593.942 72.3019 601.861 67.9652C612.095 62.3608 619.363 60.4161 620.226 60.4774C620.537 60.4995 619.99 61.4866 615.139 67.3338C610.288 73.1809 600.996 84.1096 595.36 90.5671C589.723 97.0246 588.025 98.6797 587.504 98.5145C585.399 97.8465 594.134 86.7055 605.169 73.3629C614.114 62.5479 621.923 58.5159 624.941 56.8351C630.109 53.9569 639.559 41.7003 645.812 36.2488C646.611 35.5518 647.263 35.3158 647.501 35.9427C648.285 38.013 642.303 49.1869 639.381 58.1956C638.675 60.3707 651.471 47.3338 651.183 48.2689C650.895 49.204 640.183 61.8612 634.933 67.9354C629.684 74.0095 630.221 73.1172 637.417 64.0002C644.613 54.8833 658.451 37.5688 661.76 34.7611C665.069 31.9534 657.43 44.1772 660.624 40.714C663.818 37.2507 678.077 17.73 678.969 18.017C679.861 18.3039 666.955 38.99 665.493 43.1779C664.031 47.3659 674.404 34.4289 671.286 38.7157C668.168 43.0025 651.244 64.9051 642.705 75.5109C634.167 86.1167 634.526 84.7619 638.313 77.9487C642.1 71.1355 649.304 58.9049 648.54 57.6199C647.777 56.3349 638.827 66.3661 640.192 64.1331C641.557 61.9002 653.508 47.099 655.401 46.4307C657.294 45.7624 648.767 59.6754 645.226 66.1448C641.685 72.6143 643.389 71.2185 650.678 63.1352C657.967 55.0519 670.789 40.3233 677.375 33.0634C683.961 25.8036 683.922 26.4588 679.768 33.8718C675.615 41.2849 667.348 55.4359 663.392 62.5654C659.435 69.695 660.04 69.3742 664.873 63.6968C669.706 58.0194 678.748 46.9952 678.605 47.8826C678.463 48.77 668.861 61.9033 664.419 68.1907C659.978 74.4781 660.989 73.5218 666.99 65.4809C672.99 57.4401 683.95 42.3438 686.435 39.7664C688.92 37.1889 682.598 47.5879 679.17 53.3403C675.742 59.0928 675.4 59.8836 681.774 52.0544C688.149 44.2252 701.249 27.7519 708.224 18.8984C715.199 10.0449 715.652 9.31031 715.655 9.27145C715.658 9.2326 715.199 9.9117 707.475 20.1524C699.751 30.3931 684.776 50.1749 682.478 52.9628C680.18 55.7507 691.012 40.9453 689.539 40.8805C688.066 40.8157 673.959 55.9402 668.954 59.9223C663.949 63.9044 668.473 56.2859 670.436 52.6035C672.399 48.9211 671.664 49.4057 668.353 52.5705C665.043 55.7353 659.179 61.5656 659.588 59.3987C659.996 57.2318 666.854 46.8909 672.639 39.9684C685.912 24.084 693.198 24.6068 698.507 22.9048C700.078 22.4011 699.309 22.4509 692.075 24.2652C684.84 26.0796 671.147 29.6116 664.21 31.0062C657.273 32.4009 657.506 31.5512 658.247 30.5265C662.334 24.8761 669.091 21.964 672.208 20.8806C673.191 20.5393 665.237 29.0005 658.58 36.1319C657.924 36.8346 663.49 32.1331 666.377 30.0009C669.264 27.8686 669.481 28.5802 669.066 31.8115C668.65 35.0429 667.597 40.7726 667.446 43.7631C667.295 46.7536 668.079 46.8312 674.349 42.5714C680.619 38.3115 692.35 29.7119 698.317 25.9638C704.284 22.2158 704.13 23.58 698.69 32.4085C693.25 41.237 682.529 57.4884 676.265 66.7954C670.001 76.1024 668.519 77.9725 671.212 74.503C673.905 71.0334 680.818 62.1676 680.566 62.8045C680.314 63.4414 672.686 73.8497 671.475 75.2249C670.264 76.6 675.701 68.6265 674.834 69.916C673.968 71.2054 666.634 81.9993 663.577 87.0369C660.52 92.0744 661.962 91.0284 667.968 83.5736C673.975 76.1188 684.502 62.2869 686.106 61.0228C687.71 59.7588 680.073 71.4818 684.153 67.7328C688.233 63.9839 704.262 44.4077 707.351 41.0611C710.439 37.7145 700.103 51.1907 696.712 55.9042C696.396 56.3438 707.574 41.6538 711.881 33.0063C712.971 30.8174 699.011 47.0182 696.84 48.8536C694.669 50.689 701.431 41.2277 704.627 36.5747C707.823 31.9216 707.248 32.3635 701.413 40.208C695.577 48.0525 684.499 63.2862 679.118 71.0008C673.737 78.7153 674.389 78.4491 679.104 73.3847C683.819 68.3203 692.577 58.4656 694.994 55.8119C696.893 53.7261 685.39 68.3075 680.849 75.8184C680.206 76.8831 691.649 67.9446 700.55 61.7194C701.934 60.7518 692.292 74.8767 691.637 75.7537C690.981 76.6307 698.411 66.5526 696.887 68.8126C695.363 71.0725 684.661 85.976 687.604 81.3901C690.547 76.8042 707.461 52.2773 716.791 38.9764C726.12 25.6754 727.354 24.3437 723.168 30.7242C718.982 37.1047 709.339 51.2378 704.668 58.2425C699.997 65.2472 700.59 64.6952 706.04 57.7423C711.491 50.7894 721.782 37.4522 721.478 37.9549C721.175 38.4575 709.965 53.204 709.548 54.6124C709.132 56.0209 719.847 43.6444 725.974 36.6761C732.1 29.7078 733.313 28.5228 733.973 28.2963C734.633 28.0697 734.703 28.8375 728.972 37.4864C723.24 46.1352 711.705 62.6417 712.907 61.659C714.11 60.6764 728.4 41.7042 736.357 31.2793C744.314 20.8545 745.505 19.5517 741.064 26.021C736.623 32.4902 726.515 46.7709 727.547 47.0594C728.579 47.3478 741.059 33.2113 748.799 24.6176C756.54 16.0238 759.164 13.4013 751.021 24.1389C742.878 34.8764 723.89 59.0535 721.879 62.9693C719.868 66.8852 735.409 49.807 737.34 49.2522C739.272 48.6974 727.121 65.1835 726.966 66.5398C726.812 67.8961 739.021 53.6231 734.614 58.4011C730.207 63.1791 708.814 87.4407 698.087 99.1261C687.36 110.811 687.948 109.185 691.675 103.204C695.402 97.2228 702.251 86.9356 706.067 81.2894C709.882 75.6432 710.456 74.9495 709.92 75.2632C707.542 76.6534 702.218 82.174 697.256 86.5116C695.282 88.2365 707.275 70.1625 714.803 60.6139C715.531 59.6903 704.946 74.7007 700.607 81.1704C696.269 87.6402 697.212 87.1522 700.569 84.1507C703.925 81.1492 709.667 75.649 711.07 75.0798C712.473 74.5106 709.365 79.0391 708.31 80.9855C707.254 82.9318 708.347 82.1589 714.867 75.305C721.387 68.4511 733.3 55.5397 739.132 49.3627C744.965 43.1857 744.356 44.1344 740.608 48.9596C736.86 53.7849 729.993 62.4579 732.599 61.0251C735.206 59.5922 747.496 47.7907 750.178 45.6297C752.86 43.4686 745.562 51.3055 742.271 55.065C738.98 58.8246 739.917 58.2692 745.915 52.6223C751.913 46.9755 762.944 36.2541 767.987 31.1383C771.999 27.0684 763.398 35.8046 753.624 47.2694C752.388 48.7193 756.616 44.5112 756.323 44.1017C754.398 41.4107 746.786 53.5256 743.977 56.5565C741.169 59.5874 742.862 58.2412 748.097 52.7206C753.331 47.2 762.056 37.5459 766.792 32.2309C771.529 26.9158 772.013 26.2325 771.707 26.0741C771.401 25.9157 770.289 26.303 764.123 31.9153C757.957 37.5276 746.77 48.3531 741.41 53.7375C736.05 59.1219 736.857 58.7371 739.382 56.4461C741.906 54.1552 746.123 49.9697 748.624 47.41C751.851 44.1079 743.789 53.1516 730.992 68.0154C726.801 72.8833 727.552 72.5461 731.864 68.8277C744.193 58.1939 747.648 55.4212 748.397 56.0564C753.468 60.3602 769.185 39.47 771.969 39.227C786.339 37.9726 754.81 63.4316 759.1 58.3481C768.251 47.5044 773.578 39.0296 773.279 38.6058C771.847 36.5772 768.231 43.2847 767.281 44.7633C766.853 45.4295 770.978 41.5693 772.863 39.9032C774.748 38.2372 775.404 37.7688 766.917 48.0915C758.43 58.4142 740.779 79.5422 740.029 80.5001C739.278 81.4579 755.963 61.6054 761.579 55.3769C767.195 49.1485 761.237 57.1459 758.912 60.7871C756.588 64.4283 758.077 63.4711 765.121 57.0819C772.164 50.6928 784.717 38.9007 790.618 33.3011C796.519 27.7016 795.388 28.652 786.576 38.254C777.764 47.856 761.304 66.0808 752.596 75.7952C743.887 85.5096 743.428 86.1614 743.637 86.1128C743.846 86.0643 744.737 85.2956 752.339 77.3395C759.942 69.3834 774.229 54.2632 778.56 48.7289C782.891 43.1945 776.832 47.7042 774.519 49.6832C773.405 50.6364 787.446 41.4846 799.26 35.7418C801.994 34.4126 786.508 53.8979 786.09 55.1478C785.672 56.3977 797.826 43.3199 799.161 41.6646C806.717 32.292 780.153 61.2277 780.537 61.5748C781.1 62.0842 783.05 60.2643 791.919 52.7404C800.787 45.2165 816.679 31.2753 824.461 24.3844C832.243 17.4935 831.434 18.0754 821.623 27.6504C811.812 37.2255 793.024 55.7762 784.072 64.8352C775.119 73.8942 776.573 72.8995 784.278 65.6869C791.982 58.4743 805.894 45.074 812.742 38.3334C819.59 31.5927 818.953 31.9178 809.169 40.969C799.384 50.0202 780.47 67.7877 775.45 71.8738C770.43 75.96 779.878 65.8264 779.794 65.6588C779.711 65.4911 769.81 75.5966 774.251 71.3351C778.692 67.0737 797.774 48.1391 807.444 38.739C817.114 29.3388 816.793 30.0469 810.128 38.5042C803.464 46.9614 790.465 63.1463 784.528 71.0007C778.592 78.8551 780.11 77.8885 788.078 71.6067C796.046 65.3249 810.417 53.7571 817.532 48.19C824.648 42.6229 824.072 43.4069 822.15 45.4152C820.227 47.4234 816.976 50.6321 815.599 52.1425C814.222 53.653 814.817 53.3681 817.926 50.6947C821.034 48.0213 826.638 42.9682 832.411 37.7619" stroke="#E72121" stroke-width="10" stroke-linecap="round"/>
<path d="M824.497 40.3007C824.425 41.048 817.406 53.8304 813.371 63.4212C812.249 66.0875 827.52 47.5321 839.208 34.7639C850.896 21.9956 862.249 11.2938 858.44 20.564C854.632 29.8341 835.317 59.4006 825.673 73.9403C816.029 88.48 816.639 87.097 825.672 74.2312C834.704 61.3654 852.138 37.0586 855.319 34.5502C858.5 32.0418 846.898 52.0684 848.829 53.5914C850.76 55.1144 866.575 37.5269 874.642 28.8165C882.708 20.1061 882.546 20.8056 877.369 29.3592C872.192 37.9127 862.006 54.2989 865.024 54.2721C868.043 54.2452 884.575 37.3087 886.325 40.3264C888.074 43.3442 874.54 66.8294 867.954 78.5307C861.368 90.232 862.141 89.4377 872.854 76.9084C883.567 64.3791 904.196 40.1389 915.091 27.4203C925.987 14.7017 926.525 14.2393 926.854 14.5556C927.183 14.8719 927.288 15.981 922.029 27.4755C916.77 38.9701 906.143 60.8164 900.652 72.4575C895.161 84.0986 895.128 84.8724 895.465 85.0278C895.803 85.1833 896.513 84.697 902.938 78.2357C909.364 71.7743 921.484 59.3526 925.935 56.0773C930.386 52.802 926.801 59.0495 925.282 62.0146C923.763 64.9796 924.418 64.4729 930.808 57.202C937.198 49.9311 949.303 35.9114 950.967 35.1355C963.872 29.1163 934.604 60.0766 938.952 55.0122C942.845 50.4782 949.821 41.669 947.744 43.4016C945.667 45.1341 934.239 57.6019 927.942 64.3754C921.645 71.1488 920.827 71.8501 920.515 71.4435C917.275 67.2256 926.36 55.1359 931.759 43.8634C933.527 40.1724 932.75 40.3416 926.477 46.0714C920.204 51.8013 908.312 63.02 901.851 69.0562C895.389 75.0924 894.717 75.606 894.56 75.322C894.404 75.038 894.781 73.9409 898.854 67.7445C902.926 61.5482 910.681 50.2859 913.778 44.897C916.875 39.5081 915.079 40.334 906.632 45.8979C898.186 51.4618 883.142 61.7387 875.48 66.6715C867.818 71.6044 867.993 70.8818 872.075 64.6852C876.157 58.4885 884.142 46.8398 881.536 47.5463C878.93 48.2528 865.491 61.6675 859.021 67.4264C852.551 73.1853 853.457 70.8819 855.979 66.3257C858.5 61.7696 862.61 55.0307 864.001 51.9652C865.393 48.8997 863.942 49.7119 856.102 57.3978C848.263 65.0836 834.08 79.6186 826.775 86.7727C819.471 93.9268 819.475 93.2597 819.654 92.4775C822.012 82.2108 832.62 69.3155 831.175 68.641C825.343 65.9171 810.572 75.6646 801.417 79.5878C798.328 80.9118 803.815 67.8493 809.498 56.6618C809.944 55.7838 802.632 64.3501 808.223 58.6724C813.814 52.9947 831.812 32.7369 841.416 22.1181C851.02 11.4993 851.684 11.1333 851.844 11.3082C852.003 11.4831 851.637 12.2099 847.688 17.7702C843.74 23.3304 836.219 33.7021 832.669 38.8352C829.118 43.9682 829.766 43.5485 834.108 39.9517C838.45 36.3549 846.467 29.5938 850.507 26.6534C853.971 24.1327 845.201 40.2396 838.166 54.2092C837.276 55.9768 853.262 38.3906 859.86 30.74C866.458 23.0893 866.106 23.7215 857.955 35.2527C849.804 46.7839 833.866 69.1951 834.409 68.8359C834.953 68.4767 852.461 44.6682 854.128 38.8781C855.795 33.0879 841.09 46.0377 833.775 52.2017C826.46 58.3656 826.981 57.3512 834.191 49.4545C841.402 41.5579 855.287 26.8096 864.616 17.4934C877.852 4.27638 883.376 0.871672 883.989 1.0719C884.49 1.23567 883.445 2.9895 880.059 9.10583C876.672 15.2222 870.482 26.0221 867.187 31.9312C863.892 37.8403 863.68 38.5313 864.042 38.5576C864.404 38.5838 865.346 37.9243 870.501 32.9158C885.129 18.7045 895.37 8.05498 892.982 11.8895C889.983 16.7068 882.797 26.9966 880.586 31.0177C879.86 32.3393 886.562 27.0448 885.468 29.9754C883.173 36.1237 872.435 49.2957 874.461 48.3941C876.487 47.4925 890.346 31.4944 894.15 28.7911C897.954 26.0878 891.282 37.1642 888.616 42.4176C885.951 47.6709 887.493 46.7658 893.068 41.7151C898.644 36.6645 908.205 27.4958 912.884 23.3044C916.777 19.8176 908.641 34.2579 903.786 45.4938C902.385 48.7357 921.153 26.869 928.365 18.4957C935.577 10.1223 935.269 10.7631 931.693 16.229C928.117 21.695 921.283 31.9668 918.181 37.2216C915.078 42.4765 915.915 42.4031 923.005 36.7418C930.095 31.0806 943.414 19.8336 946.719 19.2017C956.947 17.2457 935.086 40.4397 937.194 39.364C940.111 37.876 945.518 32.4716 948.284 30.2482C951.051 28.0248 950.691 28.634 946.283 34.8255C941.875 41.017 933.429 52.7724 929.389 58.6222C925.348 64.472 925.969 64.0599 932.712 56.7128C939.454 49.3657 952.301 35.0961 958.625 28.4037C964.949 21.7113 964.361 23.0286 961.598 27.8824C958.835 32.7363 953.915 41.0868 951.698 45.1962C949.48 49.3056 950.114 48.9208 953.624 45.18C957.133 41.4391 963.499 34.3538 961.306 38.6836C959.113 43.0134 948.167 58.9731 943.226 66.7865C938.284 74.6 939.679 73.7835 945.358 67.6209C951.037 61.4582 960.957 49.9741 960.862 51.2828C960.766 52.5916 950.354 67.0412 945.323 74.209C940.291 81.3767 940.955 80.8248 945.825 75.0556C950.695 69.2864 959.751 58.3167 959.359 60.2168C955.323 79.7914 939.126 92.3261 943.087 88.3863C946.476 85.016 952.179 78.3925 954.992 75.5029C957.805 72.6133 957.432 73.5381 956.015 75.8726C954.599 78.2072 952.151 81.9235 954.961 78.3599C957.77 74.7963 965.911 63.8403 969.522 58.3592C973.133 52.8782 971.967 53.2041 968.34 55.6238C964.712 58.0436 958.657 62.5473 958.048 61.1618C954.085 52.155 967.908 44.0877 967.862 43.0781C967.705 39.5931 959.707 45.4502 956.847 46.542C955.284 47.1387 963.844 34.2766 973.104 20.469C976.235 15.7989 975.383 15.3591 974.656 15.4717C973.929 15.5842 973.148 16.1311 972.548 16.133C971.407 16.1366 971.144 13.9339 970.743 12.3062C969.999 9.28302 964.27 13.3847 953.875 20.9873C944.529 27.8221 927.482 41.4535 918.916 47.9048C910.35 54.356 910.925 53.4065 913.275 50.1621C915.625 46.9178 919.733 41.4073 911.819 45.4364C903.905 49.4655 883.844 63.201 873.402 69.6507C862.96 76.1004 862.744 74.848 863.786 71.175C864.827 67.502 867.134 61.4464 867.961 58.2399C868.788 55.0333 868.066 54.8593 862.519 56.3368C856.972 57.8144 846.622 60.9488 841.071 62.2948C835.521 63.6408 835.084 63.1033 834.941 60.4572C834.542 53.0836 835.992 43.607 836.913 36.6702C837.234 34.2496 826.859 40.0381 813.738 48.1912C809.326 50.933 808.83 49.7332 810.845 45.3793C812.859 41.0253 817.234 33.2703 819.142 29.3917C821.049 25.5131 820.358 25.746 817.801 27.385C815.245 29.024 810.845 32.0621 809.515 32.3888C807.362 32.9177 816.257 22.8584 820.877 17.8882C824.724 13.7496 811.278 29.3133 807.544 32.0368C806.436 32.8449 809.803 26.2637 815.187 19.0843C816.354 17.5272 808.705 24.9704 802.236 29.1807C800.056 30.5991 811.872 14.7925 813.668 11.5303C815.846 7.57584 801.516 21.7584 797.643 24.2432C796.777 24.7988 799.631 19.3771 798.298 17.4319C795.648 13.5656 783.041 28.3964 777.237 32.5386C771.432 36.6808 771.289 35.9591 775.168 30.4855C779.046 25.0119 786.949 14.8083 786.914 14.8103C786.878 14.8122 778.664 25.3289 774.525 30.0709C770.386 34.8129 770.572 33.4615 773.369 29.0077C776.166 24.5539 781.57 17.0385 778.052 19.6884C774.534 22.3383 761.931 35.3811 755.777 41.3809C749.623 47.3807 750.302 45.9424 755.337 37.5478C760.373 29.1533 769.746 13.8463 769.703 11.5033C769.467 -1.6146 749.55 31.084 750.757 27.8917C751.829 25.0565 755.722 20.6598 755.732 20.7719C756.262 26.9324 746.682 34.6273 744.076 39.9717C743.444 41.2664 750.66 35.1465 760.073 25.7363C763.531 22.2788 764.398 21.5814 761.955 26.895C759.513 32.2086 753.756 43.5758 751.023 48.9641C748.29 54.3525 748.754 53.4174 753.747 46.1899C758.74 38.9625 768.249 25.4709 775.193 16.2838C782.138 7.09667 786.23 2.62281 788.5 0.641001C790.771 -1.3408 791.095 -0.694977 791.145 0.281842C791.194 1.25866 790.96 2.5469 788.236 11.2808C785.513 20.0147 780.308 36.1553 778.099 44.2594C775.89 52.3635 776.834 51.942 780.76 49.0555C791.699 41.0114 801.027 34.2321 804.961 32.5527C806.49 31.9003 807.181 31.9363 807.529 32.5547C808.475 34.2315 804.992 45.2401 801.187 59.4325C799.946 64.0605 801.519 63.7847 806.164 60.1164C810.81 56.448 818.841 49.4779 823.028 46.5305C827.215 43.583 827.314 44.8696 827.194 46.0928C826.961 48.4708 822.722 57.1288 817.764 68.2928C816.199 71.8148 817.629 71.4101 819.814 69.4632C821.999 67.5162 825.167 64.148 826.595 62.9333C827.38 62.2647 821.623 72.1943 813.456 84.4305C811.43 87.465 821.026 74.5414 833.245 59.9514C836.192 56.4315 829.722 73.0697 832.653 72.0911C836.335 70.8615 842.779 64.61 846.584 62.1845C850.389 59.7591 850.928 60.4459 850.272 63.2678C849.617 66.0897 847.751 71.026 849.206 71.3845C856.446 73.1684 861.666 62.0392 863.464 61.2079C864.411 60.7703 862.203 68.0138 860.067 75.4763C857.158 85.6406 886.301 60.6356 887.352 60.563C888.578 60.4782 886.164 65.8661 884.203 70.4723C883.814 71.3858 891.661 64.7556 901.119 56.605C902.588 55.3393 897.639 66.4562 891.953 75.7235C891.2 76.9509 900.106 68.314 908.138 61.7336C916.623 54.7816 901.497 82.8456 903.046 83.5265C905.106 84.4321 915.954 75.9515 930.183 66.1403C934.913 62.8795 935.081 63.8597 934.231 65.9893C933.382 68.1188 931.639 71.5603 931.289 73.0539C931.016 74.22 942.127 66.9256 955.556 57.4879C959.939 54.4079 959.74 55.3208 954.226 63.2724C948.712 71.224 937.98 86.3203 938.649 86.6229C939.318 86.9254 951.714 71.9767 958.571 63.8053C965.429 55.6339 966.373 54.6929 966.844 54.9052C968.361 55.59 966.383 59.6173 965.438 62.0097C965.147 62.7437 973.336 56.8408 980.76 52.1275C981.702 51.5295 976.849 59.4843 974.844 62.5685C969.54 70.7304 994.123 38.2918 991.829 39.9271C990.291 41.0241 988.604 43.4162 987.629 44.1419C986.654 44.8677 986.598 44.0469 986.853 42.7556C987.108 41.4644 987.676 39.7274 987.316 39.0373C986.537 37.5408 980.735 41.9411 976.583 44.5548C976.079 44.8725 978.533 41.2621 979.416 39.655C980.178 38.2675 978.47 37.4155 978.034 36.1229C977.816 35.4749 977.238 34.9958 976.197 35.2418C973.362 35.9116 970.769 38.4886 969.001 39.1778C967.387 39.8071 970.696 31.065 973.647 23.748C974.389 21.4474 973.596 22.0148 972.946 22.6001C972.296 23.1854 971.814 23.7715 971.452 24.409" stroke="#E72121" stroke-width="10" stroke-linecap="round"/>
</svg>
