<svg width="91" height="105" viewBox="0 0 91 105" fill="none" xmlns="http://www.w3.org/2000/svg">
<path d="M44.8216 25.304C44.3514 25.5198 42.0653 27.811 38.0288 33.0579C31.8415 41.1003 28.5 46.7752 28.4079 47.5351C28.3232 48.2333 29.5592 48.5989 31.6425 49.3585C36.0136 50.9523 43.1115 52.1561 50.4006 52.8983C53.5326 53.2172 55.5381 53.1506 56.4712 52.8335C57.4042 52.5164 57.2102 51.8822 54.8205 47.7393C52.4308 43.5965 47.8513 35.9644 43.0317 27.863" stroke="black" stroke-width="2" stroke-linecap="round"/>
<path d="M41.2141 1.31177C41.1837 1.31177 40.4203 1.90599 37.6091 5.18169C35.4056 7.74932 32.189 12.6139 27.3406 21.586C22.4921 30.5582 16.2536 43.6077 11.7186 54.4092C7.18362 65.2107 4.54128 73.3687 3.13044 77.8573C0.519022 86.1654 1.50526 93.2561 2.40262 95.2457C4.03457 98.8639 8.9161 101.46 12.1892 102.933C15.3893 104.372 20.1848 103.167 21.1116 102.527C21.6675 102.144 22.2649 101.465 24.3145 97.9024C26.364 94.3396 29.8139 87.8685 32.7334 82.8189C37.7142 74.2041 40.9572 70.0604 42.4338 68.6052C45.4405 65.6421 50.5177 65.8033 53.8059 66.467C56.8727 67.0861 59.9825 71.9127 63.2162 78.4073C65.8001 83.597 67.3011 87.4758 70.4315 93.7261C72.0912 97.04 75.6438 98.3497 78.2237 99.176C81.2016 100.13 84.3369 99.8206 86.2354 99.0822C87.4041 98.6276 88.1317 97.2198 88.8338 95.7209C91.1167 90.8477 89.4541 84.7035 87.11 78.3208C85.2136 73.157 81.3232 64.2993 76.887 55.0114C72.4507 45.7234 67.4437 36.3283 62.0601 27.6795C56.6765 19.0306 51.0681 11.4126 48.0612 7.30758C45.0542 3.20256 44.8187 2.84137 44.4501 2.15147" stroke="black" stroke-width="2" stroke-linecap="round"/>
<path d="M41.2983 1.03411C41.2983 1.01843 41.9185 1.00252 42.9765 1.02263C43.6514 1.11457 44.0607 1.33982 44.3743 1.69301C44.5227 1.88687 44.6494 2.11044 44.8581 2.60441" stroke="black" stroke-width="2" stroke-linecap="round"/>
</svg>
