<svg width="63" height="90" viewBox="0 0 63 90" fill="none" xmlns="http://www.w3.org/2000/svg">
<path d="M1.78406 4.49097C1.75164 4.49097 1.79522 7.50007 2.75231 18.0648C3.43879 25.6425 5.38061 37.6316 6.42964 45.8614C7.47866 54.0912 7.79274 58.1758 8.51761 63.6188C9.24247 69.0619 10.3686 75.7397 11.1222 79.8532C11.8759 83.9668 12.2229 85.3138 12.737 86.935" stroke="black" stroke-width="2" stroke-linecap="round"/>
<path d="M1.98047 4.85324C2.90552 4.42416 6.21461 3.21816 11.9939 2.59809C16.4226 2.12294 23.954 2.08745 28.0327 1.99234C33.6892 1.86044 36.6395 3.3839 39.5265 5.21451C42.4208 7.04966 46.557 15.4415 48.6761 21.3502C49.328 23.1676 48.6857 24.6288 47.2008 27.1918C43.6082 33.3933 39.7647 38.1404 38.2537 39.7225C37.6497 40.3548 37.3484 40.6141 38.4273 40.776C41.9342 41.302 45.4059 41.3851 48.0088 43.0453C52.6435 46.0017 56.2183 51.0555 58.7379 54.7064C60.4212 57.1454 61.0903 59.3743 61.5538 61.8773C62.1021 64.8383 59.177 70.7166 55.0718 77.4267C52.9184 80.9466 51.3798 81.9991 48.8118 83.2973C43.4427 86.0115 39.2144 87.4498 36.9745 87.8631C32.3905 88.709 25.4878 88.8826 19.4102 88.7958C17.2161 88.7231 16.8291 88.5924 16.4474 88.4248C16.0656 88.2572 15.7009 88.0565 15.3251 87.8499" stroke="black" stroke-width="2" stroke-linecap="round"/>
<path d="M26.2658 16.999C24.6691 16.999 20.1327 17.4671 18.3137 18.4355C16.7812 19.2514 16.4235 21.8597 15.9724 24.2902C15.8764 24.8072 15.9565 25.255 16.2234 25.688C17.505 27.7674 22.6691 27.8911 25.6857 27.5299C28.5745 27.1841 30.9739 23.0674 32.2171 21.3731C32.4658 21.0341 32.6027 20.6546 32.4116 20.1487C31.6587 18.9969 30.6746 17.9424 29.8716 17.2876C29.4738 17.0218 29.0959 16.8911 27.5721 16.7012" stroke="black" stroke-width="2" stroke-linecap="round"/>
<path d="M33.5207 55.946C31.3831 55.9277 26.1796 56.2747 24.2903 57.5163C22.2806 58.837 21.2112 63.9727 20.7621 70.2157C20.6495 71.7812 21.4531 72.5944 22.2402 73.3531C24.1892 75.2319 28.2151 75.9386 33.7482 76.077C37.9906 76.1831 40.4864 72.8512 43.3621 69.9014C45.7148 67.4881 45.9151 64.9657 46.0156 60.7748C46.049 59.3816 45.3962 58.6523 44.5484 57.8486C43.1339 56.5074 41.6275 55.8706 40.6508 55.7411C39.3297 55.6937 38.0204 55.8421 36.7853 56.2752C36.0932 56.5574 35.2684 56.9662 33.7801 57.9769" stroke="black" stroke-width="2" stroke-linecap="round"/>
<path d="M13.281 86.5874C13.281 86.6026 13.4859 86.618 14.1083 86.7591C14.5259 86.8926 15.1501 87.1518 15.5722 87.2983C15.9942 87.4447 16.1953 87.4705 16.65 87.4971" stroke="black" stroke-width="2" stroke-linecap="round"/>
</svg>
