<svg width="66" height="95" viewBox="0 0 66 95" fill="none" xmlns="http://www.w3.org/2000/svg">
<path d="M62.1379 3.83557C62.1379 3.80517 62.1379 9.44348 61.543 18.0782C61.296 21.6617 53.5639 23.0383 45.0275 26.2085C39.2316 28.3608 35.1305 31.9453 31.0964 35.4992C27.7919 38.4105 25.7837 41.3606 24.1383 44.077C20.4746 50.1254 21.0984 57.392 21.361 60.5992C21.5567 62.9892 23.5971 64.7738 27.13 67.3381C30.4096 69.7186 34.7865 70.854 38.1352 71.749C40.5412 72.3922 44.3054 72.3572 50.0507 72.0791C56.4 71.7718 60.6203 70.6411 62.0514 70.918C63.1322 71.1272 63.2722 75.3805 63.9271 81.1887C64.5385 86.6116 63.9962 89.7544 63.572 90.5837C62.7217 92.2458 59.64 92.7562 53.7444 93.3547C43.7305 94.3711 36.9981 93.8533 34.645 93.3284C29.3647 92.1503 25.1949 90.7927 23.2734 89.8168C20.4388 88.3771 17.5562 85.6932 14.7547 83.048C12.1658 80.6035 10.475 78.1242 8.3889 74.3144C4.49687 67.2063 2.34143 60.5992 1.76412 56.1365C0.953032 49.8665 1.55675 45.5842 2.75215 41.6653C3.79904 38.2333 6.10357 31.9871 7.60849 28.1337C9.11341 24.2803 9.84187 23.0386 12.6824 20.223C15.523 17.4073 20.4535 13.0553 24.0875 10.2254C29.6631 5.88355 33.7411 4.42126 37.6163 3.23658C42.7804 1.65788 48.9817 1.35672 54.3438 1.21639C56.6683 1.15556 58.1881 1.13432 59.1524 1.23626C60.1166 1.33819 60.4794 1.56869 60.7845 2.29052C61.0896 3.01234 61.3262 4.21851 61.5145 5.03035C61.7027 5.84219 61.8354 6.22314 62.0059 7.37244" stroke="black" stroke-width="2" stroke-linecap="round"/>
</svg>
