<svg width="62" height="89" viewBox="0 0 62 89" fill="none" xmlns="http://www.w3.org/2000/svg">
<path d="M1.83398 3.85791C1.83398 3.8726 1.83398 3.88729 1.87046 7.97133C1.90693 12.0554 1.97988 20.2083 3.2325 31.4399C4.48511 42.6715 6.91519 56.7348 8.2633 64.2968C9.72707 72.5077 10.2069 73.6345 10.9142 76.1195C12.2111 81.6127 13.186 85.6107 13.4232 86.4546C13.5038 86.9013 13.5038 87.3856 13.5038 87.8846" stroke="black" stroke-width="2" stroke-linecap="round"/>
<path d="M1.65283 3.40956C2.30829 3.15424 4.70166 2.31064 12.3739 1.62228C16.617 1.24159 23.6974 1.49508 27.6879 1.5369C32.3824 1.5861 35.1449 2.4576 38.9221 3.8587C42.1431 5.05353 44.7817 7.22314 47.7949 10.0912C51.7416 13.8478 54.8841 19.2481 57.3863 24.1845C59.3259 28.0111 59.9876 31.4929 60.4519 35.4015C60.7258 37.7072 60.6159 40.7103 60.1555 44.2511C59.695 47.7918 58.7695 51.7903 57.7058 55.4063C55.7049 62.2089 53.2652 67.1511 51.145 70.6367C49.0954 74.0063 45.7653 76.9424 42.2065 79.9268C34.97 84.2046 28.8964 86.0551 23.9992 86.7731C21.4996 87.0271 18.9707 87.057 15.7803 87.1891" stroke="black" stroke-width="2" stroke-linecap="round"/>
<path d="M15.8232 21.6743C15.8075 21.6743 15.7918 21.6743 16.1188 26.517C16.4459 31.3596 17.1161 41.045 17.6564 46.9136C18.6069 57.2387 19.8407 59.666 20.553 61.8679C21.3574 64.3547 22.793 65.8893 23.7593 66.0457C25.195 66.2782 27.3203 64.5782 31.1188 61.4718C37.7055 56.0852 41.4017 51.4392 42.4385 49.7271C45.9654 43.9032 46.0766 40.1872 46.126 34.4243C46.1579 30.7053 38.0507 27.3078 34.0912 25.3776C30.1215 23.4173 26.7135 21.8926 24.0775 21.4658C22.2749 21.278 19.5282 21.1488 15.7327 21.3258" stroke="black" stroke-width="2" stroke-linecap="round"/>
</svg>
