<svg width="68" height="86" viewBox="0 0 68 86" fill="none" xmlns="http://www.w3.org/2000/svg">
<path d="M1.16162 1.8292C1.16162 1.81299 1.16162 1.79677 1.7485 11.6308C2.33537 21.4649 3.50912 41.1496 4.25411 52.3012C5.13486 65.4849 5.65349 67.9623 6.22771 70.1708C6.71734 71.9745 7.60943 75.165 8.51884 77.8265C9.42825 80.488 10.3279 82.524 11.3884 84.7644" stroke="black" stroke-width="2" stroke-linecap="round"/>
<path d="M3.25232 3.5177C3.23611 3.5177 3.2199 3.5177 9.99266 3.5177C16.7654 3.5177 30.3276 3.5177 37.8725 3.4488C46.536 3.36969 50.7901 3.04645 56.0861 5.8321C64.2391 10.1205 60.7223 21.9479 60.5703 24.5026C60.5144 25.4427 59.9143 25.578 55.9561 26.4048C51.9978 27.2317 44.5496 28.7251 39.2739 29.5569C27.8513 31.3581 25.2953 31.0007 23.3936 31.6389C17.7485 33.5333 28.0199 45.7435 28.6588 48.6512C28.8474 49.5096 31.5327 48.5758 36.4831 47.0574C43.9528 44.7663 50.9435 44.2425 54.5756 44.5462C56.861 44.7373 57.3581 48.461 58.0843 50.9961C58.3648 51.9751 58.2908 52.3761 57.1032 52.9347C49.3776 56.5683 43.6307 56.6376 41.0198 57.2543C39.8395 57.5331 39.0101 58.0251 38.5016 58.7324C37.1494 60.6135 38.9545 63.6454 40.0684 67.0547C40.3369 67.8766 40.2748 68.7133 40.5227 69.1253C40.9464 69.8298 46.2852 67.0881 54.1055 63.1651C61.5012 59.4552 64.1541 60.1398 65.0376 60.3376C66.8288 60.7387 66.0245 70.9319 65.6276 76.0581C65.4854 77.8938 62.5003 79.8661 58.153 82.4274C55.9703 83.7134 54.0489 83.9258 48.1134 84.2964C42.7601 84.6306 32.6324 84.865 26.3468 84.8746C20.0613 84.8843 17.9194 84.5605 15.9012 84.3938C13.8829 84.227 12.0532 84.227 10.1679 84.227" stroke="black" stroke-width="2" stroke-linecap="round"/>
</svg>
