<svg width="50" height="86" viewBox="0 0 50 86" fill="none" xmlns="http://www.w3.org/2000/svg">
<path d="M0.993408 9.0171C0.993408 8.98468 1.02431 9.51407 2.04554 20.2842C3.01518 30.5102 4.98469 50.3936 6.0474 60.9218C7.51994 72.9768 7.91114 74.2773 8.29858 75.8811C8.64245 76.9412 9.2853 78.5015 10.5233 81.0378" stroke="black" stroke-width="2" stroke-linecap="round"/>
<path d="M1.43393 8.3556C1.36402 8.28569 1.87055 8.13975 5.09051 7.27588C12.6009 5.26095 18.519 3.58354 22.3535 3.11891C29.7775 2.21932 36.3718 1.52904 39.4439 1.56218C41.1381 1.58045 42.4309 1.87622 43.79 2.21676C44.7726 2.46297 45.7125 5.56546 47.0342 10.7659C48.4008 16.1431 48.4899 20.132 48.4343 21.8893C48.4117 22.6033 48.1102 22.9328 47.7346 23.2502C46.9118 23.9455 43.653 24.6933 38.8559 25.7729C35.1301 26.6114 31.7267 28.2844 28.7845 29.8763C24.5694 32.1568 27.5834 41.2761 29.0221 45.3256C29.3118 46.1408 29.8615 46.0674 30.7092 45.4483C35.2039 42.1659 37.3532 40.2486 41.6118 39.7764C42.8882 39.6348 42.8647 44.2878 42.5222 49.1956C42.0902 55.3869 29.7032 56.7804 27.7865 57.52C27.3879 57.6738 27.1197 58.0427 26.9327 58.4092C25.0311 62.1368 27.2613 72.8727 27.6266 76.3338C27.823 78.1949 25.5806 80.6903 24.9301 82.6087C24.3724 83.3048 18.8465 83.8167 10.3699 84.0567C7.0544 84.1199 5.74083 84.0642 4.38746 84.0068" stroke="black" stroke-width="2" stroke-linecap="round"/>
</svg>
