<svg width="53" height="72" viewBox="0 0 53 72" fill="none" xmlns="http://www.w3.org/2000/svg">
<path d="M1.36246 8.40915C1.28212 8.40915 1.20056 15.4674 1.39507 26.1875C1.46164 29.8563 2.14052 29.901 4.91353 29.6281C12.7173 28.8599 18.4033 28.1335 21.1132 28.0749C23.298 28.0277 27.1263 27.9199 29.2138 33.3769C31.3014 38.8339 31.5321 49.8525 31.8145 56.3807C32.1713 64.6276 33.0204 67.1407 33.6499 68.411C34.992 71.1192 46.3483 70.2852 51.2515 69.8994C52.0964 69.8329 51.9193 67.838 51.019 60.0321C50.2334 53.2206 48.6582 40.6365 47.452 32.1098C46.2458 23.5831 45.4252 19.4987 44.8721 16.0563C43.3683 6.69552 43.2758 4.84105 42.7055 3.64718C40.4312 -1.11453 29.3367 3.22634 28.8568 4.28529C28.1879 5.76151 29.0188 10.7852 29.1393 16.771C29.1812 18.8496 28.4414 18.9634 26.6976 19.0243C22.0408 19.1869 18.579 18.9825 17.6892 18.7143C16.8084 18.4489 16.2278 12.4928 15.5418 3.99791C15.3058 1.07432 14.3606 1.08065 12.7054 1.20141C5.30432 1.74135 3.20989 2.05737 1.5499 2.45254C1.3457 2.72605 1.3985 3.2305 1.43603 3.79912C1.47356 4.36773 1.49422 4.98524 1.95548 6.53967" stroke="black" stroke-width="2" stroke-linecap="round"/>
<path d="M7.61869 8.85285C7.6496 8.85285 8.39492 8.85285 8.25516 8.90923C5.13613 10.1674 2.43955 9.16338 3.45013 9.00629C4.34998 8.86641 6.0439 8.66059 7.06435 8.48825C8.3954 8.26346 8.81072 8.00931 8.93202 7.861C9.06911 7.69339 7.55037 7.23861 5.87654 6.67518C5.32014 6.48789 5.40051 6.3863 6.39308 6.33251C7.38564 6.27873 9.29867 6.24655 10.3359 6.23566C11.3731 6.22476 11.4765 6.23613 10.199 6.18496C8.92152 6.1338 6.25993 6.01977 5.25032 5.95866C4.6346 5.9214 8.67519 6.33934 10.0339 6.81199C10.1108 6.83875 9.93755 6.95596 8.68025 7.68124C7.42295 8.40651 4.99058 9.79087 3.85113 10.5031C2.71168 11.2154 2.93885 11.2136 3.61142 11.1472C4.284 11.0809 5.39509 10.95 6.48758 10.8823C8.61729 10.7504 9.85522 10.8467 10.0852 10.9486C10.2457 11.0198 7.97214 11.6796 5.56585 12.3381C2.50857 13.1748 9.63589 12.6915 10.1105 12.9217C10.2356 12.9823 9.98112 13.1144 8.71246 13.2505C7.4438 13.3867 5.13171 13.5703 5.16807 13.6675C5.20442 13.7646 7.65926 13.7697 9.32913 13.8395C11.8157 13.9435 13.08 14.2943 13.7758 14.4986C14.0407 14.5764 14.1081 14.6591 13.9547 14.7403C13.8013 14.8214 13.4202 14.9132 11.927 15.0428C10.4338 15.1723 7.84007 15.3368 6.84776 15.4312C6.52418 15.4619 7.46524 15.6089 8.45927 15.9579C10.6229 16.7176 12.2112 17.565 12.6468 17.8681C12.8422 18.0041 12.955 18.1454 13.0271 18.27C13.0991 18.3945 13.1192 18.5087 13.0819 18.595C13.005 18.7729 12.6932 18.8295 10.8521 18.9467C9.17043 19.0539 5.96544 19.1519 4.42642 19.2159C2.8874 19.2799 3.10998 19.2799 3.33963 19.2939C3.80032 19.3219 5.29211 19.8003 7.50338 20.6126C8.46731 20.9667 9.07552 21.2935 9.36478 21.4942C9.66904 21.7052 7.55693 21.9018 5.84061 22.1821C5.47994 22.241 8.67757 22.9069 9.90993 23.181C11.1423 23.4551 10.9573 23.5157 10.1885 23.6319C8.0777 23.9509 6.20597 24.2247 5.52855 24.4377C5.32436 24.5019 5.42833 24.5456 7.91715 24.5407C10.406 24.5357 15.2829 24.4983 17.7389 24.5104C20.1949 24.5226 20.0823 24.5854 19.3741 24.6072C18.666 24.6289 17.3658 24.6077 16.0895 24.5286C14.8132 24.4495 13.6002 24.3131 13.2199 24.1604C12.8395 24.0076 13.3286 23.8426 16.0463 23.627C18.7639 23.4114 23.6953 23.1501 26.1637 23.0154C28.6321 22.8807 28.4881 22.8804 27.5103 22.6932C26.5326 22.506 24.7256 22.1319 23.4402 21.9247C22.1549 21.7176 21.4461 21.6889 21.3074 21.6325C21.1687 21.5762 21.6216 21.493 23.1886 21.4465C24.7556 21.4 27.423 21.3926 28.8377 21.4183C30.2523 21.4441 30.3336 21.5032 30.3516 21.5899C30.3696 21.6766 30.322 21.7891 30.1861 21.8898C30.0503 21.9905 29.8277 22.0759 28.5585 22.2681C27.2893 22.4604 24.9801 22.7569 25.2692 22.9171C25.5584 23.0774 28.5157 23.0923 30.1935 23.1199C32.1808 23.1525 32.6265 23.3012 32.8711 23.4751C32.9963 23.5641 33.0865 23.7018 33.141 23.8296C33.1954 23.9574 33.2018 24.083 33.1757 24.2006C33.1238 24.4339 32.9319 24.6014 32.6975 24.7486C32.4016 24.9345 31.3671 25.2102 29.42 25.6249C28.3237 25.8584 26.9868 26.0342 26.3475 26.1123C25.7083 26.1904 25.8019 26.1386 27.126 25.7954C28.4501 25.4521 31.0018 24.8189 33.2836 24.4287C35.5654 24.0385 37.4999 23.9105 38.5694 23.8521C40.0767 23.7697 40.5703 23.9935 40.7705 24.1309C40.9549 24.2576 40.0666 24.2443 38.2641 24.0298C36.7471 23.8493 34.0185 23.4311 32.4988 23.2264C30.9791 23.0218 30.7538 23.0199 30.6778 22.9772C30.5677 22.9152 32.2563 22.321 35.0876 21.5511C36.4176 21.1894 37.568 21.0303 38.535 20.9231C39.502 20.8159 40.2601 20.8021 40.566 20.795C40.7027 20.7918 40.3671 20.7667 39.2457 20.5453C38.2833 20.3553 36.5305 19.9666 35.2456 19.742C33.9606 19.5174 33.1986 19.4582 33.0545 19.347C32.9103 19.2357 33.407 19.0743 35.0576 18.9309C36.7081 18.7875 39.4974 18.6669 39.0536 18.6048C38.6098 18.5427 34.8483 18.5427 32.9712 18.5072C31.0941 18.4716 31.2153 18.4005 31.377 18.3234C31.5387 18.2462 31.7373 18.1653 32.887 17.8885C34.0367 17.6117 36.1316 17.1415 37.2649 16.8804C38.3981 16.6194 38.5063 16.5817 38.4644 16.5413C37.8033 15.9028 36.1074 16.4687 35.3632 16.4537C35.0989 16.4483 35.0869 16.2521 35.132 16.115C35.2262 15.8293 35.5925 15.6002 36.3436 15.217C37.7621 14.4934 39.4784 14.0512 40.8647 13.7949C41.5148 13.6747 42.0726 13.672 40.6032 13.7003C39.1338 13.7286 35.6243 13.813 33.9037 13.8132C32.1831 13.8134 32.3578 13.7268 33.163 13.5145C35.3888 12.9276 37.0029 12.5614 37.1602 12.4116C37.2284 12.3467 37.1067 12.2026 36.9997 12.1147C36.786 11.9391 36.2566 11.8172 35.2637 11.6113C33.7937 11.3064 32.2292 11.2933 31.3466 11.2546C31.1189 11.2447 31.3493 11.1469 33.1241 10.8308C34.8989 10.5147 38.2139 9.95576 39.035 9.66227C39.9765 9.32575 36.1713 9.29221 36.052 9.12347C35.9828 9.02556 36.0344 8.83495 36.1823 8.63905C37.0225 7.52596 38.7183 7.32386 38.358 7.38109C37.4439 7.52622 35.0761 8.07564 34.1018 8.24876C33.6336 8.33196 34.976 7.92375 36.7317 7.71004C37.6479 7.59853 38.6304 7.63042 39.003 7.65301C39.3756 7.6756 39.1123 7.72616 37.6948 7.75234C36.2773 7.77852 33.7137 7.77877 32.4592 7.74085C31.2047 7.70293 31.3369 7.62682 32.2461 7.46809C33.1553 7.30936 34.8373 7.07031 35.8286 6.94493C37.7621 6.70036 38.9241 6.54501 39.3112 6.29615C39.3992 6.23958 39.442 6.13898 39.4453 6.04284C39.4486 5.94669 39.3973 5.84057 39.2719 5.76011C38.9779 5.57151 37.6491 5.55142 36.0842 5.45988C35.6107 5.43219 35.8047 5.27999 36.074 5.18379C36.6733 4.96975 37.2421 4.92322 37.4184 4.91499C38.5944 4.86011 34.8872 5.17479 34.7451 5.11012C34.7061 5.04544 34.7346 4.91608 34.8003 4.79115C34.866 4.66622 34.968 4.54963 35.2043 4.32812" stroke="#439EC6" stroke-width="2" stroke-linecap="round"/>
<path d="M37.9909 22.8948C37.8121 22.9112 37.1127 22.9719 33.3753 24.5871C32.4599 24.9828 32.0384 25.2448 31.9353 25.3716C31.8141 25.5207 33.0327 25.4281 35.0522 25.2836C36.3547 25.1904 38.2294 25.2063 39.1103 25.2347C39.9913 25.2631 39.8239 25.3417 39.0866 25.6048C38.3492 25.8679 37.0471 26.3131 36.0821 26.6864C34.5075 27.2955 33.7986 27.7267 33.9541 27.7118C34.2485 27.6836 34.9198 27.3351 35.7683 27.0828C36.6168 26.8304 37.6065 26.6136 38.7929 26.4795C41.3224 26.1935 42.8265 26.2846 42.9372 26.3628C42.9772 26.3911 42.8646 26.4753 40.8551 26.7121C38.8457 26.949 34.9123 27.3561 34.042 27.5762C32.6248 27.9346 38.2272 27.8927 38.7866 28.0231C38.9934 28.0713 39.0089 28.196 38.8965 28.3174C38.784 28.4389 38.5342 28.5821 37.2556 29.213C35.9769 29.8438 33.677 30.9578 32.8817 31.3393C32.8668 31.3464 34.3756 30.7432 36.0795 30.4114C38.3073 29.9777 39.8373 30.1658 40.3706 30.3238C41.2199 30.5752 41.7691 31.0028 41.8911 31.2163C41.9506 31.3204 41.8691 31.4683 41.6863 31.5977C41.5035 31.7272 41.187 31.8473 40.3426 32.0145C39.4981 32.1818 38.1352 32.3926 36.5499 32.5092C34.9647 32.6258 33.1984 32.6417 32.3537 32.6161C31.5089 32.5905 31.6393 32.5228 32.0709 32.411C32.5025 32.2992 33.2314 32.1453 34.4173 32.0565C35.6031 31.9676 37.2239 31.9485 38.1545 31.9623C39.2781 31.979 39.5729 32.1341 39.7577 32.2778C39.9465 32.4244 39.9964 32.6891 39.9819 32.9471C39.9661 33.2259 39.7295 33.4196 39.4161 33.626C38.8724 33.984 37.0379 34.5189 35.5481 35.0842C32.6439 36.1861 39.4864 35.5648 40.0982 35.9022C40.3499 36.041 40.4323 36.3381 40.5142 36.5871C40.5599 36.7259 40.5574 36.9055 40.5023 37.0848C40.3852 37.4655 39.6862 37.9967 37.8955 39.0476C36.6479 39.7798 34.5914 40.7 33.707 41.1247C32.8227 41.5494 33.1419 41.3954 33.4342 41.2704C33.9758 41.039 35.2167 40.7778 37.0519 40.4996C39.5294 40.124 40.3871 40.7019 41.5793 41.3678C41.7256 41.5214 41.6116 41.6196 41.3525 41.7427C41.0934 41.8657 40.6927 42.0107 40.2798 42.16" stroke="#439EC6" stroke-width="2" stroke-linecap="round"/>
<path d="M39.411 32.9031C39.4148 32.8992 39.4187 32.8952 39.9264 32.8912C40.4341 32.8872 41.4456 32.8832 41.1501 33.6666C40.8546 34.4499 39.2215 36.0207 38.4304 36.8449C37.6393 37.6692 37.7396 37.6992 38.3777 37.746C40.187 37.8789 41.5902 37.9668 41.8366 38.0708C41.9577 38.1219 41.0127 38.5651 39.522 39.2841C38.7061 39.6777 37.8222 40.2345 37.414 40.4984C37.0059 40.7624 37.1136 40.7435 37.542 40.6541C40.3051 40.0777 42.1368 40.2345 42.2636 40.3979C42.4064 40.582 42.1942 40.8858 42.0174 41.1151C41.8493 41.3331 41.5765 41.5359 40.936 41.9312C38.4596 43.4598 36.924 43.6086 36.3611 43.7004C36.2982 43.7106 36.8898 43.4995 38.256 43.3477C39.1584 43.2475 40.5007 43.28 41.4858 43.3237C43.9249 43.432 44.4783 43.826 44.5559 43.9327C44.6712 44.0915 43.2623 44.1773 41.4959 44.2073C40.7505 44.2199 40.3114 44.166 38.8831 43.951C37.4547 43.7359 35.0503 43.3457 33.9139 43.1262C32.7776 42.9068 32.9822 42.87 33.7033 42.8503C34.4244 42.8305 35.6559 42.8288 36.7575 42.8858C37.8591 42.9428 38.7935 43.0585 39.6981 43.1181C41.4464 43.2333 42.2194 43.3859 42.6348 43.6379C44.3264 44.6641 46.1637 43.747 46.4491 43.9259C46.6904 44.0772 46.7519 44.3744 46.7445 44.6316C46.7247 45.3142 44.7518 45.5176 43.9338 45.9163C42.9786 46.3818 45.9928 46.6121 46.1135 46.7483C46.1684 46.8102 46.0233 46.9396 44.292 47.0374C42.5608 47.1352 39.1999 47.2185 37.9343 47.2805C36.4595 47.3528 41.0885 48.1159 41.1058 48.248C41.1416 48.5205 38.8855 48.642 37.7526 48.928C37.1281 49.0857 41.5032 48.8889 43.1785 48.842C45.0003 48.791 45.3044 48.8717 45.5711 49.0087C45.6975 49.0737 45.7567 49.2084 45.7486 49.3224C45.7311 49.566 43.7684 49.9898 41.1008 50.4554C40.2254 50.6082 40.3096 50.519 40.4464 50.4427C41.142 50.0546 42.212 49.9248 45.319 49.8805C45.9344 49.8717 46.0331 49.9039 46.1312 49.9458C46.2292 49.9878 46.3236 50.0539 46.3269 50.1565C46.3302 50.2591 46.2397 50.3961 46.0101 50.5278C45.7806 50.6594 45.4147 50.7815 43.9589 50.9854C42.5031 51.1893 39.9685 51.4714 39.4829 51.8043C36.7643 53.668 43.297 53.3993 43.6597 53.9016C43.8118 54.1122 43.6535 54.3976 43.5072 54.6112C43.1261 55.1674 42.0904 55.5497 39.9637 56.0363C39.0816 56.2381 37.8074 56.2316 37.2757 56.2395C36.7439 56.2475 36.9771 56.1799 38.2231 56.1316C39.4691 56.0834 41.7209 56.0564 42.9637 56.0621C44.7746 56.0705 45.5318 56.5822 45.9018 57.0073C45.9779 57.0947 45.9536 57.2131 45.8457 57.3224C45.2425 57.9339 43.924 57.8135 41.7181 57.6116C40.2285 57.4753 38.0345 56.8881 36.8409 56.6309C35.6473 56.3738 35.5326 56.3667 36.5745 56.3566C37.6165 56.3465 39.8185 56.3335 41.5586 56.4077C44.5171 56.5339 45.8598 56.8716 46.006 57.023C46.1525 57.1749 45.3673 57.7879 43.9848 58.6117C43.276 59.0341 42.4773 59.3327 41.4638 59.7002C40.4502 60.0678 39.2269 60.4613 38.6909 60.6883C38.155 60.9152 38.3434 60.9636 38.8173 61.0082C39.2912 61.0528 40.0447 61.0921 41.1092 61.2716C43.5429 61.682 45.2034 62.2142 45.6793 62.4285C45.8764 62.5173 45.9656 62.6021 45.9611 62.7133C45.9565 62.8244 45.8509 62.9687 45.5749 63.0971C45.2989 63.2254 44.8558 63.3334 43.9349 63.3947C43.0139 63.4559 41.6285 63.467 40.1148 63.3263C38.6011 63.1856 37.0011 62.8928 36.2372 62.7308C35.4732 62.5688 35.5939 62.5464 36.5386 62.5543C37.4833 62.5621 39.2483 62.6008 40.8262 62.7503C43.7567 63.0279 45.2345 63.4833 45.4495 63.6231C45.5578 63.6936 45.6292 63.8111 45.6804 63.9183C45.7315 64.0255 45.7512 64.1312 45.7062 64.2255C45.2561 65.1694 42.5038 64.3729 41.5242 64.2012C41.2093 64.146 41.289 64.0436 41.562 63.9929C42.8916 63.7458 43.5145 63.9683 44.677 64.353C44.9407 64.4403 45.0771 64.5385 45.1764 64.6648C45.2758 64.7912 45.3272 64.9609 45.3158 65.1018C45.2663 65.7128 44.2855 66.0087 43.5358 66.2682C43.3131 66.3454 43.0498 66.382 41.9541 66.45C40.8583 66.5179 38.9329 66.5988 37.9931 66.6596C37.0534 66.7204 37.1576 66.7587 38.6204 66.9058C40.0833 67.0529 42.9017 67.3077 44.427 67.4551C45.9522 67.6026 46.099 67.635 46.224 67.6692C46.349 67.7034 46.4478 67.7384 46.1509 67.7609C45.8539 67.7834 45.1583 67.7923 44.8663 67.7661C44.5744 67.7399 44.7073 67.6782 44.9087 67.6384C45.11 67.5987 45.3758 67.5827 45.6496 67.5663" stroke="#439EC6" stroke-width="2" stroke-linecap="round"/>
<path d="M40.556 44.8679C40.5736 44.8501 39.5777 44.8319 38.9239 44.8869C36.8328 45.0627 42.9188 45.2535 43.0098 45.3339C43.1897 45.4926 41.095 46.1285 38.5326 47.1053C37.5091 47.4954 37.0849 47.7653 36.9303 47.9053C36.2409 48.5294 39.9222 48.7232 40.5438 49.1495C40.813 49.3342 40.6276 49.7433 40.535 49.9641C40.4184 50.242 39.9523 50.7229 39.1783 51.421C38.3308 52.1855 37.0893 52.7833 35.9141 53.2961C35.4295 53.5076 35.1515 53.5712 36.11 53.8098C37.0684 54.0484 39.2665 54.4476 40.4432 54.6758C41.6199 54.904 41.7086 54.949 41.6363 54.9866C40.5642 55.5432 38.3666 54.9234 37.2744 54.6075C36.9069 54.5012 36.9829 54.3248 37.068 54.2322C37.2305 54.0555 38.5249 53.7903 40.9276 53.3654C43.4686 52.916 45.161 52.929 45.7519 52.7837C46.277 52.6545 46.598 52.4826 46.769 52.4539C46.9507 52.4234 47.2429 53.0557 47.6527 53.7172C47.8066 53.9656 47.9155 53.9936 47.3093 54.2447C45.4218 55.0264 43.8795 55.5297 43.6934 55.7024C43.0616 56.2886 46.0137 56.2681 46.5807 56.5163C46.7946 56.6099 46.8139 56.7262 46.8154 56.825C46.8319 57.9217 44.5569 59.2135 44.0692 59.6556C43.381 60.2796 46.0185 59.5106 46.1111 59.6841C46.3385 60.1102 45.713 60.5259 45.6443 60.6923C45.3199 61.4772 47.844 60.8571 48.0074 60.9615C48.2139 61.0935 47.6524 62.2528 46.9944 63.6687C46.7752 64.1406 47.0031 64.1974 47.2726 64.2173C47.5421 64.2372 47.9012 64.2403 48.113 64.3014C48.3247 64.3626 48.3782 64.4817 48.3813 64.5891C48.3353 64.7886 48.1342 65.0579 47.8653 65.4237C47.747 65.6151 47.6656 65.8181 47.5816 66.0273" stroke="#439EC6" stroke-width="2" stroke-linecap="round"/>
<path d="M45.6317 44.7952C45.624 44.7952 45.3515 44.7952 44.9226 44.6758C44.5253 44.5652 44.6933 43.9106 44.7494 43.6231C44.8474 43.1203 45.4833 42.7453 46.1256 42.5416C46.3302 42.4767 46.5981 42.5033 46.6307 42.4965C47.2107 42.3745 45.3555 42.2285 44.9427 41.8739C44.4155 41.4212 44.782 40.4171 44.8654 40.0099C45.0659 39.0318 42.5619 40.1058 42.4099 40.0354C42.0061 39.8485 43.1815 38.7918 43.4853 38.3821C44.2344 37.372 40.6544 39.2212 40.5278 39.2018C39.12 38.9864 43.2165 36.702 43.0892 36.5138C43.0238 36.4171 42.9483 36.3235 42.9352 36.2115C42.8801 35.7379 43.3809 35.378 43.6012 35.0338C43.7263 34.8385 43.315 34.6224 43.2251 34.3655C43.0435 33.8465 43.6199 33.3555 43.749 33.1226C43.8327 32.9716 43.1419 33.2706 42.7965 33.3749C42.532 33.4548 43.7922 31.9201 44.9323 30.4808C45.3038 30.0119 45.1391 29.9878 44.8932 30.0439C44.6473 30.0999 44.2956 30.2147 44.0989 30.2148C43.9023 30.215 43.8712 30.097 43.8552 29.9149C43.8393 29.7328 43.8393 29.4902 43.849 29.3145C43.8587 29.1388 43.8781 29.0374 43.5714 28.983C43.2648 28.9286 42.6316 28.9243 42.3013 28.8419C41.971 28.7596 41.9628 28.5995 41.9817 28.4709C42.0759 27.8297 42.7531 27.2668 42.8279 27.0851C43.0518 26.5403 41.5448 27.2452 41.4081 27.1935C41.3694 27.1332 41.3932 27.0036 41.5859 26.6261C41.7787 26.2485 42.1397 25.627 42.5348 24.9294" stroke="#439EC6" stroke-width="2" stroke-linecap="round"/>
<path d="M42.5349 24.9294C42.5201 24.9294 41.6351 24.9294 40.3223 24.8713C39.8836 24.8519 39.9203 24.6972 40.2671 24.4255C41.2297 23.6712 41.9729 23.1582 41.9716 22.8731C41.9688 22.2041 41.3423 21.9229 41.1865 21.7547C41.1113 21.6736 41.1031 21.5549 41.2104 21.4233C41.4929 21.0767 42.4666 20.6752 43.433 20.1836C43.7477 20.0235 43.6495 19.945 43.4544 19.8816C42.5215 19.5785 42.0052 19.3763 41.6603 19.0822C41.0134 18.5304 41.426 16.8967 41.2923 16.4565C41.2325 16.2597 41.4545 15.5701 41.4401 14.6868C41.428 13.9445 40.194 14.2586 40.1127 14.036C40.0716 13.9234 40.0912 13.7939 40.1487 13.6596C40.4276 13.0076 41.0936 12.8255 41.1925 12.7381C41.6414 12.3411 39.9075 12.6367 39.6312 12.531C39.4972 12.4797 39.4168 12.3481 39.3798 12.2264C39.3428 12.1046 39.3621 11.9749 39.404 11.8663C39.4828 11.6619 40.0718 11.1384 40.7785 10.4342C41.0121 10.2014 40.898 10.1359 40.7772 10.113C40.6563 10.0902 40.5082 10.0902 40.4091 10.0235C40.2042 9.88554 40.2223 9.53769 40.26 9.24354C40.2981 8.94558 40.5567 8.59283 40.7257 8.23576C40.8062 8.0657 40.4558 7.95349 40.2525 7.79635C40.043 7.63435 40.0731 7.17623 40.0169 6.78184C39.9607 6.64066 39.8483 6.61921 39.6562 6.60816C39.4641 6.59711 39.1957 6.59711 38.8921 6.55957" stroke="#439EC6" stroke-width="2" stroke-linecap="round"/>
<path d="M11.6999 21.6525C11.7079 21.6525 13.8852 21.6525 15.8145 21.6514C16.0585 21.6513 12.8434 21.6481 11.2918 21.6673C9.74025 21.6865 9.4468 21.7271 10.0291 21.6059C10.6113 21.4847 12.0782 21.2004 12.0272 21.0644C11.4424 19.5021 8.22597 21.106 7.54894 21.3568C7.33094 21.4376 7.43237 21.5622 7.62483 21.658C7.81728 21.7539 8.11418 21.8526 8.27587 21.9536C8.50441 22.0963 7.16802 23.0647 4.98825 24.4417C4.10546 24.9993 3.70875 25.3213 3.59082 25.5031C3.47289 25.6848 3.65409 25.7295 4.75656 25.7589C5.85903 25.7883 7.87728 25.8011 8.8894 25.8486C9.854 25.8939 8.78583 26.3008 9.39135 26.2426C11.0202 26.0859 15.2531 25.1064 17.6395 24.6625C20.4088 24.1474 20.6806 24.1924 21.8522 24.1795C23.164 24.165 25.9309 24.0584 26.0568 24.1064C28.3784 24.9909 20.7593 24.5606 21.4884 24.4127C22.3632 24.2352 24.2645 23.8563 25.2879 23.6325C26.3113 23.4088 26.3997 23.3534 26.386 23.3027C26.3722 23.252 26.2537 23.2077 24.3534 23.0541C22.4531 22.9005 18.7745 22.639 16.8845 22.4442C14.9946 22.2495 15.0046 22.1294 15.0886 22.0373C15.2812 21.8262 16.0317 21.7926 15.793 21.8316C15.0224 21.9576 12.9041 22.0685 11.77 22.1369C10.636 22.2052 10.5429 22.1685 10.4894 22.094C10.4359 22.0194 10.4247 21.9081 10.4792 21.7576C10.7403 21.0368 11.8668 20.5306 13.269 20.002C13.6306 19.8656 14.0407 19.8138 13.4743 19.7761C11.3683 19.6357 9.65361 19.7163 9.44634 19.5927C9.24984 19.4754 9.24691 19.153 9.2701 18.8794C9.28886 18.6581 7.4913 18.6623 4.63536 18.7286C3.70133 18.7503 3.8126 18.6222 4.53527 18.2685C5.25793 17.9148 6.58841 17.3072 7.25784 16.9462C7.92728 16.5852 7.89535 16.4891 7.51261 16.362C6.42072 15.9992 4.89365 15.8867 3.76579 15.7602C3.37771 15.7167 3.40015 15.5121 3.54325 15.295C3.89779 14.7572 4.64734 14.2327 6.00711 13.4789C8.34632 12.1822 9.88225 11.6602 9.67098 11.5557C9.40595 11.4246 9.1498 11.3492 9.02655 11.2011C8.9648 11.1268 8.98465 11.0031 9.00859 10.8972C9.16792 10.1926 10.4325 9.30333 11.3061 8.8727C11.7527 8.65254 12.1766 8.51366 12.9677 8.39687C13.1903 8.36402 13.4036 8.36181 13.3734 8.3551C13.3432 8.34839 13.0645 8.34839 13.0007 8.38083C12.8789 8.44283 13.2936 8.68314 13.3342 8.95346C13.4109 9.46412 12.1993 10.7246 10.8316 12.2604C10.3763 12.7717 10.5442 12.8541 11.0549 12.9366C12.4446 13.1612 13.6736 13.3296 14.1873 13.5054C14.3941 13.5761 14.4644 13.6791 14.4722 13.7838C14.524 14.4788 13.6324 15.0246 13.5861 15.2613C13.4822 15.7922 14.3606 16.3698 14.6826 16.928C15.0844 17.6244 14.8377 18.9885 14.3454 20.0566C14.1996 20.3728 13.9601 20.6557 13.9136 20.8108C13.867 20.966 13.9889 20.9683 14.1558 20.941C14.3227 20.9137 14.5309 20.8567 14.6689 20.8664C14.8069 20.876 14.8684 20.9539 14.8201 21.1116C14.7718 21.2693 14.6118 21.5045 14.4284 21.9203" stroke="#439EC6" stroke-width="2" stroke-linecap="round"/>
</svg>
