<svg width="81" height="95" viewBox="0 0 81 95" fill="none" xmlns="http://www.w3.org/2000/svg">
<path d="M63.815 3.98154C63.815 4.35033 63.9589 10.905 62.9816 20.586C62.63 24.069 59.4698 23.9772 55.7746 24.8114C52.0793 25.6457 47.1518 27.2368 43.4001 28.6573C37.1233 31.0339 33.6089 33.2839 31.0332 35.2983C27.5788 38 24.5456 41.9774 21.9908 45.9501C19.5845 49.6918 18.7346 54.8174 18.0684 60.5358C17.4034 66.2439 17.9923 69.8346 18.3518 70.9691C19.0137 73.0585 22.08 74.8928 25.0054 76.3139C29.8562 78.6705 39.4426 76.9507 42.3374 76.2685C44.6696 75.7188 46.7687 72.5985 48.0507 70.0611C49.1953 67.7957 49.5817 65.6174 49.5694 64.5672C49.5337 61.5352 39.9599 66.454 32.8262 66.483C31.5969 66.488 31.5616 65.85 31.558 65.4162C31.5257 61.5101 34.6001 55.8679 36.0934 52.904C36.6803 51.739 37.4428 51.1154 38.1284 50.628C38.7966 50.153 39.9828 49.9479 44.6683 49.6418C48.6085 49.3843 55.7417 49.3073 60.4996 49.3654C71.5964 49.5011 75.8402 50.1623 76.5164 50.5059C78.6594 51.5946 79.0575 59.4507 79.5989 63.1892C79.854 64.9505 79.4067 66.4048 78.8491 67.0327C77.2612 68.8211 69.3291 68.2746 64.6582 67.8179C64.0804 67.7614 63.7037 67.5649 63.4508 67.7386C61.2551 69.2462 62.7085 74.8338 59.631 82.1311C57.4545 87.2919 51.6691 90.2867 45.239 92.5255C40.7836 94.0768 34.4998 93.6969 28.6385 93.5265C24.9358 93.4188 22.2825 92.292 18.9871 90.9411C11.2281 87.7602 9.2834 85.398 5.61083 79.3205C3.58827 75.9735 2.74156 70.6485 1.81858 63.8154C0.85864 56.7088 1.56761 52.0799 2.07625 49.6477C2.91799 45.6227 5.12909 40.2051 7.81209 34.4671C10.2236 29.3095 12.9509 25.8952 16.624 22.5243C19.1294 20.225 23.3067 17.1504 27.6963 14.0865C32.086 11.0227 36.6558 8.17011 40.3094 6.16946C46.5617 3.1065 50.6025 1.75213 54.3381 1.34521C56.7106 1.19816 60.051 1.17182 63.5479 1.27209" stroke="black" stroke-width="2" stroke-linecap="round"/>
</svg>
