<svg width="65" height="95" viewBox="0 0 65 95" fill="none" xmlns="http://www.w3.org/2000/svg">
<path d="M1.55225 1.60421C1.56795 1.60421 1.58365 1.60421 1.61327 9.28982C1.64289 16.9754 1.68595 32.3467 2.23397 45.9435C2.78198 59.5403 3.83365 70.8968 4.61047 77.7145C5.61132 86.4984 6.87265 89.6333 7.84649 91.5424C8.23677 92.3075 8.62834 92.5412 9.15804 92.7131C12.91 93.9308 18.301 92.7677 21.55 91.739C22.5942 91.4084 23.8123 90.8583 24.4772 90.3223C25.142 89.7864 25.1988 89.2292 25.1335 84.9403C25.0683 80.6515 24.8793 72.648 24.8509 68.2649C24.819 63.3604 25.2911 62.3928 25.7737 61.3977C26.3929 60.121 27.3483 59.0415 28.7201 58.2014C33.7032 55.1497 41.5758 55.4832 44.4425 56.4157C45.8739 56.8813 46.1298 58.7902 46.5792 60.0628C47.1844 61.7767 47.3317 68.9154 47.4995 78.2954C47.5661 82.0127 48.072 83.0643 48.6891 84.216C49.7844 86.26 58.5146 86.3819 62.7663 86.3914C63.1623 86.3923 63.1832 85.5903 63.2585 82.4593C63.3337 79.3283 63.3458 73.6059 62.0302 60.9826C60.7145 48.3592 58.0707 29.0083 56.6823 17.8446C55.294 6.68087 55.2413 4.29081 54.9546 2.94585C54.6678 1.60088 54.1486 1.37342 53.4657 1.25625C50.2425 0.703193 44.1559 3.15767 40.4248 4.59572C39.5373 4.93776 38.8818 5.51496 38.2991 6.13302C37.6702 6.80008 37.4309 7.85042 37.1528 11.7577C36.4682 21.3751 36.4997 28.5355 36.0803 29.8283C35.4235 31.853 33.5978 32.9463 30.9753 34.4003C28.4836 35.7817 25.3419 35.0975 23.4864 34.3121C21.3672 33.4152 20.0725 30.7403 18.7208 27.1849C17.9264 25.0952 17.9849 18.545 18.1048 9.76696C18.1751 4.6238 19.0159 2.56495 18.7496 1.86336C17.8937 1.50421 13.5258 1.45334 7.59981 1.54998C5.44891 1.60407 5.03655 1.66841 4.6117 1.73469" stroke="black" stroke-width="2" stroke-linecap="round"/>
</svg>
