<svg width="65" height="97" viewBox="0 0 65 97" fill="none" xmlns="http://www.w3.org/2000/svg">
<path d="M1.71425 4.08372C1.64891 9.31621 1.84498 20.2974 2.37985 20.9366C3.5138 22.2916 12.6331 22.6618 18.5398 23.4533C19.6989 23.6086 20.5955 24.4129 21.5418 25.1915C22.6863 26.1332 23.6748 27.8891 25.2621 35.6018C26.6294 42.2463 27.7738 54.6793 28.5377 62.0169C29.5003 71.264 29.0168 73.5654 28.3169 74.154C26.6757 75.5343 19.1548 76.4077 13.3826 77.0321C12.7422 77.1014 12.4175 77.4022 12.1534 77.721C11.0127 79.0977 10.9367 82.5059 11.0183 92.2572C11.0341 94.1453 11.5936 94.3965 12.1156 94.6821C15.1162 96.3238 19.9581 96.2798 26.3194 95.4273C30.9159 94.8112 38.1493 92.9329 43.2473 91.596C51.1189 89.5317 54.9105 87.7212 56.6787 86.6742C58.587 85.5443 59.7947 79.3187 60.3706 70.8146C60.5041 68.8443 59.9667 66.9956 59.6065 65.9805C59.2464 64.9655 58.8163 64.8393 57.6523 64.787C50.998 64.4879 45.1574 66.7726 41.3776 67.9717C40.1072 68.3747 39.9934 67.7326 39.9687 66.0971C39.9023 61.692 40.5513 55.4334 41.3735 48.84C42.7809 37.5536 40.4495 31.1365 41.1348 29.3608C41.7236 27.8352 51.6584 25.8363 58.4891 23.241C61.58 22.0666 62.2635 18.1522 63.2225 13.9036C63.6489 12.0147 62.9529 9.87922 62.1162 7.95303C61.1065 5.62832 55.4157 5.24894 46.0875 4.1426C40.3216 3.70242 32.4599 3.5084 24.7398 3.04573C17.0196 2.58307 9.67926 1.85764 2.02741 1.03809" stroke="black" stroke-width="2" stroke-linecap="round"/>
</svg>
