<svg width="73" height="97" viewBox="0 0 73 97" fill="none" xmlns="http://www.w3.org/2000/svg">
<path d="M1.59082 4.50375C1.59082 4.53313 1.59082 11.335 5.90057 21.9453C8.06875 27.2832 18.8298 26.424 23.5967 26.8526C29.0289 27.3411 30.0986 27.8678 30.9105 28.3321C34.7821 30.5459 38.3864 38.8828 39.4493 44.6396C40.3526 49.5319 36.5113 55.5337 32.065 61.3805C30.4354 63.5234 25.9272 65.5526 20.5294 68.1782C14.0382 71.3357 6.72373 70.9426 3.53884 71.1702C2.35986 71.2545 2.94295 74.6024 3.86842 79.7752C5.49557 88.8699 7.78026 94.6718 8.26266 95.2446C9.40104 96.5963 15.7379 93.9188 25.076 90.5209C33.8125 87.3419 38.5862 84.0714 40.2066 82.9722C43.4527 80.7703 46.341 76.7025 48.0109 75.0166C49.9768 73.0319 51.4855 65.9571 52.2267 57.2911C52.6188 52.7066 52.1151 44.2952 51.962 39.7385C51.7495 33.4118 49.5495 31.433 49.2569 30.4339C48.7626 28.7453 56.015 27.6224 60.5955 26.7255C64.654 25.9309 66.74 25.3785 68.4966 24.53C69.2866 24.1485 69.9846 23.5058 70.6249 22.7321C73.0405 19.8134 70.6195 7.73513 69.7697 3.24362C69.5643 2.89414 69.2736 2.6216 58.3457 2.32694C47.4179 2.03229 25.8618 1.72378 3.6018 1.45044" stroke="black" stroke-width="2" stroke-linecap="round"/>
</svg>
