<svg width="73" height="106" viewBox="0 0 73 106" fill="none" xmlns="http://www.w3.org/2000/svg">
<path d="M1.0957 2.26367C1.0957 2.29204 1.0957 3.14758 2.79934 20.3132C4.42035 36.6463 7.91025 68.4209 9.73795 85.0057C11.5657 101.59 11.7105 102.014 12.0281 102.369C12.7082 103.131 16.1861 103.648 22.0492 104.194C31.6539 105.09 33.5284 103.865 35.0404 102.605C36.2569 101.591 35.752 96.0833 35.7101 89.2121C35.6705 82.717 34.4389 80.4587 34.215 78.1358C34.0811 76.7466 34.0782 74.9159 37.695 77.9094C41.3118 80.903 48.5924 88.7728 52.5085 92.972C56.7232 97.4916 57.473 97.8807 58.2933 98.0117C60.2612 98.3259 66.3341 93.4389 71.3447 90.2508C71.9459 89.8683 71.8728 89.1674 70.0734 85.6828C68.274 82.1982 64.6428 75.8189 62.6111 72.3154C60.2572 68.3779 57.8772 65.4807 53.9292 60.4285C52.0294 57.826 50.34 55.1452 47.8517 52.0285" stroke="black" stroke-width="2" stroke-linecap="round"/>
<path d="M46.8633 51.4085C46.8851 48.7575 47.6421 42.0354 51.0067 36.3054C53.7613 31.9153 58.6422 24.5157 61.9031 19.5044C65.164 14.4931 66.6569 12.0945 68.3593 9.47266" stroke="black" stroke-width="2" stroke-linecap="round"/>
<path d="M68.3592 9.47272C68.3288 9.47272 60.5853 9.47272 48.7119 9.79871C44.5553 9.91283 44.2377 10.7767 43.6605 12.6206C42.1503 17.4456 40.9179 21.8908 39.5431 24.9495C36.1455 32.5091 33.2875 34.8284 31.7417 36.0099C29.185 37.9642 28.3765 39.527 27.6963 40.5233C27.2614 41.1604 27.3537 32.5308 27.3104 22.1321C27.2841 15.8165 26.4272 10.3205 25.9195 2.7406C25.8351 1.48112 25.2135 1.40164 23.7105 1.36113C19.6862 1.3414 14.3342 1.86837 8.99514 2.63438C6.41036 2.89483 4.07856 2.89483 1.76514 2.89483" stroke="black" stroke-width="2" stroke-linecap="round"/>
</svg>
