<svg width="64" height="79" viewBox="0 0 64 79" fill="none" xmlns="http://www.w3.org/2000/svg">
<path d="M4.25599 10.7462C4.22053 10.7462 4.18507 10.7462 4.15566 21.0676C4.12625 31.3889 4.10396 52.0317 4.33158 63.0219C4.55921 74.0122 5.03742 74.7244 5.50363 75.3302C6.365 76.4494 7.24405 77.1536 8.02718 77.5598C8.41049 77.7587 8.83918 77.7801 16.8654 77.8338C24.8915 77.8874 40.5211 77.9309 48.8792 77.9091C57.8509 77.8856 58.9833 77.5745 60.0056 77.2095C61.1227 76.8107 61.8427 75.8478 62.3158 74.842C62.8342 73.7401 63.2673 68.3767 60.558 61.1924C59.1661 57.5013 51.0176 58.5597 46.253 58.6781C41.4884 58.7965 38.6364 59.1805 35.8118 59.3783C32.9872 59.5761 30.2764 59.5761 29.151 54.0511C28.0256 48.5261 28.5677 37.476 29.0488 29.454C29.5299 21.432 29.9336 16.773 30.1507 12.9691C30.5277 6.36434 29.9312 3.178 28.9795 2.67314C28.0862 2.19926 26.6529 2.0283 22.8045 1.79739C9.06837 0.97321 6.79354 2.95149 5.05432 3.47859C4.50426 3.6453 3.77575 3.78327 3.24786 4.03828C2.71996 4.29329 2.4074 4.63473 2.17065 5.36153C1.9339 6.08833 1.78243 7.19014 1.69832 9.02471C1.61421 10.8593 1.60205 13.3932 1.99786 16.5857" stroke="black" stroke-width="2" stroke-linecap="round"/>
</svg>
