<svg width="90" height="84" viewBox="0 0 90 84" fill="none" xmlns="http://www.w3.org/2000/svg">
<path d="M4.75373 82.8311C4.7203 82.8311 11.161 82.8311 20.9756 82.5968C24.3395 82.5165 24.3921 81.8939 24.7514 76.4834C25.1107 71.0728 25.7677 60.7345 26.4269 53.9355C27.3756 44.1498 28.4965 40.6076 28.7193 39.592C28.8226 39.1209 28.9507 38.7501 29.69 38.5573C30.4294 38.3644 31.7875 38.3634 32.7506 38.7322C34.4842 39.396 35.2818 41.4592 38.1533 47.6092C40.6067 52.8638 44.7589 62.5986 47.1401 67.9965C49.8837 74.2159 50.7741 75.7521 51.6369 76.4723C51.9636 76.745 52.4631 75.7092 55.0232 70.0392C57.5832 64.3692 62.2903 53.81 65.061 47.8301C67.8316 41.8503 68.5231 40.7697 69.005 40.4051C69.4868 40.0405 69.7381 40.4244 70.0076 41.2514C70.6758 43.3019 71.089 47.041 71.4493 52.6137C71.9019 59.6137 71.0913 66.1064 70.4319 70.6591C69.9252 74.1575 70.611 76.8523 71.3177 78.6743C71.7343 79.7485 75.9102 79.838 82.3154 79.7542C85.1805 79.7166 87.2576 79.4393 88.2278 72.8778C89.1979 66.3163 88.9968 53.4152 88.5178 43.4219C88.0389 33.4286 87.2881 26.7342 86.7694 21.6743C85.5399 9.68125 85.011 7.20946 84.3131 2.66926C84.1349 1.50992 80.6847 1.5274 74.4644 1.85585C66.3401 2.28483 61.1572 3.57287 60.1148 4.13964C57.7932 5.40195 56.6429 12.0016 53.6346 19.2498C51.62 24.1034 50.2901 27.1693 49.4814 27.4039C47.9356 27.8522 46.581 25.9653 45.7956 25.2762C44.1918 23.869 42.9914 19.6728 41.3135 16.6154C37.4925 9.65274 35.928 7.10556 35.3469 6.54927C34.7738 6.00054 28.3469 6.13218 18.7165 5.99836C13.4062 5.92457 10.9892 5.45017 9.38916 5.39196C8.64417 5.36486 8.03528 5.33983 7.32824 13.3075C6.62119 21.2752 5.83447 37.2355 5.14424 47.1741C4.454 57.1127 3.8841 60.5458 3.54365 63.7505C3.10949 69.8276 2.82398 74.0453 2.44548 76.4582C2.25594 77.6128 2.07155 78.6255 1.75415 80.6328" stroke="black" stroke-width="2" stroke-linecap="round"/>
</svg>
