<svg width="72" height="77" viewBox="0 0 72 77" fill="none" xmlns="http://www.w3.org/2000/svg">
<path d="M1.41939 63.3883C1.40318 63.3883 1.38697 63.3883 2.00779 56.7179C2.62862 50.0474 3.88697 36.7066 5.09271 26.8044C6.29844 16.9022 7.41343 10.843 8.22566 7.58887C9.03789 4.33472 9.51357 4.06927 10.1859 3.85704C13.8811 2.69064 18.3257 3.55716 20.5714 3.93609C23.3814 4.41022 25.4166 4.60404 26.1701 4.92708C26.5706 5.09878 26.8319 5.60219 28.0581 9.42218C29.2844 13.2422 31.4227 20.4443 32.6807 24.4741C34.1488 29.1766 35.3419 30.9999 36.679 32.9325C37.926 34.7348 41.5118 34.4311 45.4557 34.8346C47.4886 35.0425 49.609 34.9771 50.7071 29.5C51.8052 24.0229 51.823 13.0645 53.1958 7.4127C54.5687 1.76088 57.2961 1.74771 58.959 1.81995C62.1388 1.9581 63.6852 3.25736 66.5628 4.52943C67.6155 4.99481 69.0876 5.36232 69.8579 6.28876C71.433 8.18313 70.2353 13.112 69.0964 24.9028C68.2553 33.6107 67.7195 47.921 67.3146 57.1545C66.9097 66.388 66.8666 70.1291 66.6459 72.0669C66.4133 74.108 58.7915 74.0065 48.0651 73.9248C44.1657 73.8951 43.4014 73.8472 42.9855 73.6224C41.6208 72.8849 42.0289 70.6077 40.4648 68.1469C39.7641 67.0444 38.4837 65.5041 35.6381 60.9063C32.7926 56.3085 28.3458 48.7513 25.9672 45.0907C23.5885 41.4302 23.4127 41.8952 22.7401 47.6233C22.0675 53.3515 20.9034 64.3286 19.0121 69.9002C17.1209 75.4717 14.5378 75.305 12.9184 75.1761C8.1787 74.7988 3.84655 74.603 2.96175 74.4088C2.45608 74.2978 1.8039 74.3428 1.46334 73.0877C1.10556 69.3225 1.18203 66.2637 1.38483 65.3396C1.4934 64.8882 1.61346 64.4723 1.91216 63.7951" stroke="black" stroke-width="2" stroke-linecap="round"/>
</svg>
