<svg width="61" height="70" viewBox="0 0 61 70" fill="none" xmlns="http://www.w3.org/2000/svg">
<path d="M29.793 1.70044C29.0002 1.70044 26.2513 1.84431 22.589 3.13002C21.3482 3.56561 20.0412 4.57321 17.9357 6.33128C15.2132 8.60448 12.3509 12.3565 8.91953 18.1041C6.84277 21.5828 5.03023 26.7252 3.67044 30.5151C1.47176 36.6432 1.00443 42.8519 1.07915 49.1327C1.12899 53.3224 2.54498 56.1101 3.59119 58.1546C4.18274 59.3106 5.60329 60.4075 8.43164 62.2466C12.3547 64.7975 19.0498 66.4587 26.8863 67.796C34.1749 69.0398 38.3634 68.4613 39.5148 68.2436C41.1515 67.9341 43.3794 66.5651 45.7685 64.9053C47.6583 63.5924 50.5221 59.3182 54.3831 53.1775C57.2393 48.635 58.1694 44.4453 58.9287 39.0964C60.1198 30.7053 59.272 23.6282 58.5749 20.2175C57.481 14.8654 53.9281 11.4508 46.2634 5.89755C42.2773 3.00958 36.321 2.02158 31.6181 2.03609C30.516 2.18028 29.704 2.44674 28.5172 2.74409C27.3304 3.04144 25.7934 3.3616 24.2098 3.69146" stroke="black" stroke-width="2" stroke-linecap="round"/>
<path d="M32.5117 22.7605C31.5057 22.7427 28.3564 23.2589 26.1634 24.5805C23.13 26.4086 20.0636 30.8905 19.0172 33.1152C18.2612 34.7223 18.2657 37.7717 18.3968 40.9333C18.5707 45.1297 24.2457 47.804 27.07 48.3377C32.4583 49.3559 36.2284 47.1388 39.2001 45.4309C41.7801 43.9482 41.7162 35.1555 40.8366 30.2507C37.9537 25.9083 36.7876 24.7728 35.5991 24.4042C34.7352 24.2692 33.3421 24.2399 31.9068 24.2096" stroke="black" stroke-width="2" stroke-linecap="round"/>
</svg>
