<svg width="66" height="89" viewBox="0 0 66 89" fill="none" xmlns="http://www.w3.org/2000/svg">
<path d="M1.49023 35.6061C1.77259 35.6061 7.28618 35.6061 15.6418 35.5849C19.0741 35.5762 23.258 30.076 29.1411 21.6352C31.272 18.5779 31.7703 18.0822 31.8501 25.7103C31.9298 33.3384 31.6022 49.1237 31.3455 57.793C31.0889 66.4623 30.9133 67.5372 30.591 68.16C30.0881 69.1318 21.2681 69.0637 9.0769 70.9731C2.12157 72.0624 5.12671 81.1725 5.34032 82.22C5.54082 83.2032 5.90292 84.1011 6.59171 84.8791C7.48734 85.8907 11.8332 86.3972 19.184 87.3033C23.2123 87.7998 27.923 87.5953 33.2319 87.1991C44.3563 86.369 52.1439 85.0864 55.2123 84.8106C58.6494 84.5017 62.2713 81.9535 63.7984 80.034C64.7373 78.854 64.2938 74.9796 63.9879 70.7465C63.8453 68.7736 56.0037 68.5344 46.2352 67.9801C42.8836 67.7899 42.8368 67.21 42.4124 57.1171C41.988 47.0241 41.1989 27.2887 40.7789 16.3243C40.3589 5.35983 40.3319 3.76442 37.9992 2.94714C31.377 0.626948 23.3803 2.53243 18.9316 3.35976C17.3201 3.65947 17.155 4.29442 15.0016 8.34518C12.8483 12.3959 8.74611 19.9913 6.1996 24.5311C3.65309 29.0708 2.78652 30.3248 1.59806 32.3889" stroke="black" stroke-width="2" stroke-linecap="round"/>
<path d="M12.655 75.2487C12.6233 75.2959 11.6965 77.1561 10.7433 79.2604C10.6311 79.5082 11.5532 78.1748 11.4741 78.0804C11.3949 77.986 10.3581 79.1925 9.81888 79.6845C9.27961 80.1765 9.26927 79.9176 9.61696 79.0736C9.96465 78.2296 10.6707 76.8085 10.8469 76.2073C11.0231 75.6061 10.648 75.8678 10.365 76.0441C10.0819 76.2204 9.90228 76.3033 9.77071 76.2958C9.63914 76.2883 9.56112 76.1879 9.52744 76.0351C9.45089 75.6877 9.61214 75.3065 9.81855 74.9811C10.0317 74.645 10.3296 74.4319 10.5771 74.2929C10.695 74.2267 10.8191 74.2125 10.8946 74.2803C11.3471 74.6873 10.6826 75.5156 10.287 76.0286C10.1808 76.1662 10.5478 75.3207 10.9185 74.8677C11.0173 74.7469 10.0996 76.6905 8.80259 78.8928C7.93727 80.3621 11.3171 76.2357 11.5039 76.1872C12.1508 76.0189 10.8085 79.198 10.7272 80.389C10.6761 81.139 13.1845 77.2789 14.1509 76.0182C15.1172 74.7575 15.125 74.9591 14.7513 75.9989C14.3776 77.0387 13.6221 78.9107 13.2664 79.7749C12.9909 80.4444 13.8551 78.5755 15.0447 76.1821C15.3075 75.6533 14.4114 77.7663 14.2125 79.2777C14.1147 80.021 17.1218 76.3724 18.2394 75.2326C19.3569 74.0929 19.2859 74.462 18.5736 76.12C17.8612 77.7779 16.5097 80.7134 15.8423 82.1518C15.1749 83.5902 15.2326 83.4426 16.082 82.0368C16.9313 80.631 18.5706 77.9714 19.4125 76.7185C20.2544 75.4655 20.2493 75.6997 20.0548 76.3369C19.8603 76.9742 19.4766 78.0074 19.0198 79.0154C18.563 80.0233 18.0448 80.9748 17.5552 81.7484C16.6811 83.1293 16.0709 83.7486 15.9089 83.7159C15.4959 83.6328 15.8438 82.5668 16.2709 81.3908C16.5438 80.6394 17.1111 79.6455 17.5811 78.8435C18.9212 76.5569 19.6801 76.1291 19.8935 75.9944C19.9942 75.9308 20.0878 75.8906 20.1905 75.9789C21.1429 76.7968 20.0768 79.6301 20.184 80.0154C20.4032 80.8031 21.9858 76.9346 22.6546 75.8061C23.3234 74.6775 23.2935 74.9085 22.6434 76.341C21.9934 77.7734 20.7241 80.4002 20.0671 81.697C19.4102 82.9938 19.4041 82.8809 20.3139 81.4302C21.2237 79.9794 23.0496 77.1942 23.9552 75.9501C24.8608 74.7059 24.7907 75.0872 24.1918 76.6926C23.5929 78.2979 22.4674 81.1156 22.5491 81.2933C23.7004 83.7964 25.2922 76.4152 24.9957 77.0716C24.7471 77.622 24.2065 78.5689 24.8814 77.7023C25.5563 76.8356 27.4393 74.1153 28.4003 72.8015C29.3613 71.4877 29.3431 71.6629 28.639 73.126C27.9348 74.5891 26.5452 77.3347 26.4206 77.898C26.296 78.4614 27.4785 76.7593 28.0567 75.9928C28.635 75.2263 28.5732 75.447 27.839 77.0184C27.1048 78.5898 25.7002 81.5053 25.0059 82.9423C24.3116 84.3794 24.3702 84.2498 25.3613 82.5227C26.3524 80.7957 28.2742 77.475 29.239 75.8903C30.2039 74.3056 30.1534 74.5574 29.6834 75.7575C29.2133 76.9577 28.3252 79.0985 28.6065 79.004C28.8879 78.9094 30.3656 76.5146 30.4615 76.6772C30.5575 76.8398 29.2269 79.6324 29.6257 79.7218C30.0246 79.8113 32.1933 77.1129 33.3039 75.7837C34.4145 74.4545 34.4014 74.5762 33.5727 76.0337C32.7441 77.4913 31.1004 80.2811 30.2871 81.6562C29.4738 83.0313 29.5407 82.9072 30.4245 81.5228C31.3083 80.1384 33.0069 77.4975 33.8601 76.2345C34.7133 74.9715 34.6696 75.1663 34.0473 76.3092C33.4249 77.452 32.2252 79.5369 32.8716 78.8215C33.5181 78.1061 36.047 74.5271 37.337 72.7571C38.627 70.987 38.6014 71.1344 37.8945 72.7336C37.1876 74.3328 35.8 77.3794 35.0701 79.0015C34.3403 80.6235 34.3101 80.7288 35.0513 79.7257C35.7925 78.7226 37.306 76.6081 37.466 76.6249C37.626 76.6417 36.3867 78.8539 36.5706 78.824C36.7544 78.7941 38.3988 76.4549 39.2074 75.3554C40.0159 74.2558 39.9387 74.4668 39.4497 75.3114C38.9608 76.156 38.0626 77.6278 38.3545 77.3342C38.6464 77.0407 40.1557 74.9371 40.9129 73.8996C41.6702 72.8622 41.6297 72.9545 40.7862 74.3627C39.9427 75.771 38.2975 78.4923 37.5126 79.8429C36.7277 81.1936 36.8529 81.091 37.7619 79.9256C38.6709 78.7601 40.3598 76.5349 41.2211 75.441C42.0824 74.3471 42.0649 74.4519 41.2933 76.034C40.5216 77.6161 38.9962 80.6723 38.2665 82.2041C37.5368 83.736 37.6489 83.6509 38.584 82.4397C39.519 81.2285 41.2735 78.8937 42.1644 77.7592C43.0552 76.6246 43.0292 76.7612 42.8469 77.1196C42.6646 77.4781 42.3268 78.0544 42.26 78.2478C42.2116 78.3879 43.6629 76.7678 45.2858 74.8156C45.8698 74.1131 45.9859 74.0109 45.986 74.1276C45.9862 74.2443 45.8716 74.5869 45.2185 75.7594C44.5653 76.9319 43.3769 78.9238 42.8115 79.9137C42.2462 80.9036 42.3398 80.831 43.408 79.601C44.4763 78.3711 46.5164 75.9858 47.4817 74.9331C48.447 73.8803 48.2758 74.2324 46.9366 76.5151C45.5974 78.7978 43.0954 83.0004 41.852 85.1348C40.6086 87.2692 40.6995 87.208 41.8996 85.7177C43.0998 84.2273 45.4064 81.3095 46.5726 79.8749C47.7388 78.4403 47.6947 78.5771 47.2858 79.3877C46.8768 80.1983 46.1042 81.6785 45.6766 82.5264C45.249 83.3744 45.1897 83.5454 45.814 82.9067C47.8054 80.8692 48.8712 79.5223 48.548 79.775C48.4884 79.7052 49.1172 78.6219 49.8169 77.4193C49.9268 77.1794 49.5388 77.6914 49.1391 78.1749" stroke="#FEBB5D" stroke-width="2" stroke-linecap="round"/>
<path d="M47.4712 75.6299C47.4794 75.6214 47.4677 77.0104 47.4877 79.015C47.4938 79.6274 47.6116 79.4135 48.274 78.3729C48.9365 77.3322 50.1708 75.4703 50.9474 74.3334C51.9792 72.8229 52.3761 72.405 52.5006 72.4525C52.8998 72.605 52.0873 74.3744 51.2182 76.4918C50.831 77.4352 50.4885 78.085 51.1758 77.4672C51.8631 76.8493 53.5741 74.937 54.4476 74.0017C55.3211 73.0663 55.3053 73.1658 54.7068 74.1802C54.1083 75.1947 52.9276 77.1211 52.3587 78.0391C51.7899 78.9572 51.8687 78.8084 52.475 78C53.0814 77.1916 54.2129 75.7281 54.7748 75.0479C55.2486 74.4743 54.2214 76.3323 53.5592 77.6458C53.3303 78.0996 55.7221 74.8767 56.6099 73.7442C57.4978 72.6117 57.4236 72.8379 56.8343 73.9847C56.245 75.1314 55.1429 77.1919 55.3082 77.4982C56.271 79.2826 58.5052 74.8359 58.4012 75.4087C58.3117 75.9014 57.8669 76.7323 57.7171 77.1239C57.6076 77.4102 58.8563 75.892 60.5094 73.7993C60.9305 73.2662 59.8723 75.2857 58.2592 78.0586C57.6459 79.1495 57.5578 79.3835 57.559 79.5396C57.5981 79.5765 57.715 79.5273 57.8355 79.4766" stroke="#FEBB5D" stroke-width="2" stroke-linecap="round"/>
<path d="M37.536 72.8224C36.8065 72.7913 35.0426 72.8045 34.3344 72.945C34.0643 72.9985 34.9615 71.0302 36.1944 68.7031C36.6453 67.8521 36.7697 67.6862 36.8008 67.6864C36.9783 67.6874 36.2613 68.6759 35.6029 69.5924C34.8748 70.6058 38.7694 66.6633 38.4794 67.1117C37.1237 69.2082 35.6688 70.2305 35.7439 69.9758C35.8453 69.6318 36.9849 68.1637 38.2427 66.3472C38.3891 66.1357 36.879 67.1285 35.8327 67.9593C35.5222 68.2058 35.5474 67.9366 36.105 66.9403C36.6627 65.9441 37.7233 64.188 38.2928 63.2308C38.8623 62.2736 38.9086 62.1685 38.8505 62.1259C38.6711 61.994 37.5491 62.939 36.1868 64.0917C35.7537 64.4581 35.7713 64.289 36.3652 63.2117C36.9592 62.1344 38.1101 60.1306 38.7268 59.0343C39.3434 57.9381 39.3909 57.8101 39.2918 57.8101C38.9212 57.81 38.0147 58.7091 36.997 59.5329C36.6922 59.7796 36.6685 59.4594 37.1398 58.289C37.6111 57.1186 38.5403 55.0517 38.9654 54.001C39.3905 52.9504 39.2835 52.9786 38.749 53.4134C38.2144 53.8482 37.2555 54.6887 36.7751 55.0428C36.3774 55.336 37.0665 53.5303 38.0996 51.1799C38.4472 50.3889 38.3095 50.361 37.831 50.7267C37.3524 51.0924 36.5048 51.8391 36.0582 52.1416C35.6116 52.4441 35.5918 52.2799 36.0071 51.4485C36.4224 50.6172 37.2734 49.1236 37.6436 48.3368C38.0138 47.5501 37.8774 47.5153 37.3801 47.824C35.9706 48.6986 35.0493 49.5153 34.93 49.4719C34.59 49.348 35.7695 47.6033 36.8334 45.7084C37.1914 45.0706 37.0682 45.0304 36.7772 45.1929C36.4862 45.3555 36.0025 45.7068 35.7536 45.8022C35.5046 45.8977 35.5051 45.7267 35.5904 45.499C35.6758 45.2713 35.8458 44.992 36.5637 44.0408C38.5155 41.4545 39.6999 39.8919 39.2284 40.205C38.3817 40.8191 37.75 41.2669 37.5866 41.2978C37.523 41.2741 37.4987 41.1707 37.4737 41.0641" stroke="#FEBB5D" stroke-width="2" stroke-linecap="round"/>
<path d="M37.2989 38.7958C37.2989 38.8039 37.2868 38.9579 36.9357 39.7998C35.5029 43.2359 35.0651 43.4006 35.007 43.4597C34.987 43.4801 35.0535 43.2843 35.6085 42.3233C36.1636 41.3624 37.2223 39.592 37.8926 38.5122C38.5629 37.4323 38.8127 37.0966 38.8568 36.9686C38.8994 36.8451 37.8081 37.6295 36.6609 38.4517C36.3187 38.697 36.9221 35.7046 36.9542 34.2687C36.9573 34.1299 36.7579 34.0048 36.7225 33.8066C36.6492 33.396 37.2717 31.6629 38.0017 29.4455C38.2336 28.741 38.0321 28.8448 37.7743 29.0746C37.1533 29.628 36.7211 30.0686 36.5875 30.1043C35.1775 30.4812 37.8419 26.2568 37.8659 25.8444C37.8754 25.6815 37.7146 25.6237 37.6008 25.5941C37.1607 25.4797 36.0111 26.1707 34.9944 26.7073C34.8655 26.7753 34.7841 26.6605 34.7618 26.5029C34.7062 26.1112 34.8541 25.5522 35.3393 23.9413C35.7336 22.6321 36.5345 20.3573 36.8506 19.1983C37.1668 18.0394 37.0011 18.0736 36.8546 18.123C36.7081 18.1723 36.5859 18.2358 36.5196 18.1903C36.105 17.906 37.0968 15.9619 37.3899 14.8634C37.4505 14.636 36.4516 15.3534 35.6643 15.9095C34.7138 16.5809 36.5686 13.0839 36.3647 13.0666C36.2648 13.0581 36.1716 13.1171 36.1179 13.0607C35.9642 12.8994 36.2098 12.0807 36.4245 11.1362C36.5003 10.8029 36.3861 10.7438 36.2233 10.7718C35.4078 10.9124 34.7775 11.4704 34.1445 11.9386C33.9403 12.0897 33.8911 11.934 33.8999 11.7842C33.919 11.4572 34.3721 10.2014 34.8591 8.56194C35.0215 8.0153 34.8381 8.00367 34.6849 8.06738C34.3444 8.20899 32.8984 9.90587 31.5979 11.0203C31.2939 11.2808 32.9552 8.25877 33.6774 6.97967C34.3997 5.70057 34.4502 5.57517 33.3937 7.11892C32.3371 8.66266 30.1719 11.8793 29.5926 12.5626C29.0133 13.2459 30.0856 11.2982 30.5412 10.33C30.9969 9.36182 30.8034 9.43206 29.5441 10.7365C28.2847 12.041 25.9654 14.5776 24.5735 16.1942C23.1817 17.8108 22.7876 18.4307 22.559 18.808C22.3304 19.1853 22.2792 19.3012 23.2518 18.1789C24.2244 17.0566 26.2223 14.6926 27.2298 13.5355C28.2374 12.3784 28.194 12.5 26.4276 14.8483C24.6613 17.1965 21.1734 21.7678 20.8403 22.9919C20.5071 24.216 23.4344 21.9544 24.8808 20.8959C26.3271 19.8375 26.2038 20.0507 24.2939 22.4927C22.3841 24.9347 18.6914 29.5989 16.6918 32.0945C14.6921 34.5901 14.4972 34.7756 14.3862 34.8196C14.2751 34.8636 14.2538 34.7604 14.2688 34.6429C14.2838 34.5253 14.3358 34.3964 15.9033 31.7969C17.4709 29.1974 20.5525 24.1312 22.0761 21.5431C23.5997 18.9551 23.472 18.9988 22.5141 19.7925C21.5562 20.5862 19.7718 22.1287 18.2067 23.6693C16.6416 25.2099 15.3496 26.7019 14.7235 27.3613C14.0974 28.0207 14.1762 27.8024 17.0843 24.0126C19.9925 20.2228 25.7276 12.8682 26.0849 12.3199C26.4422 11.7716 21.2479 18.2523 18.29 22.0487C15.3322 25.8451 14.7683 26.7609 14.4631 27.1458C14.1578 27.5308 14.1283 27.3572 14.2118 27.0229C14.2953 26.6885 14.4928 26.1985 15.3306 24.8178C16.1684 23.437 17.6406 21.1804 18.8535 19.4452C20.0664 17.71 20.9753 16.5647 21.76 15.3568C22.5447 14.1488 23.1775 12.913 23.5584 12.1984C23.9393 11.4837 24.049 11.3278 22.2238 13.7069C20.3986 16.0861 16.6353 21.005 14.5934 23.6468C12.5515 26.2887 12.3452 26.5045 12.2448 26.5534C12.1444 26.6024 12.1563 26.4779 13.9333 23.6806C15.7103 20.8834 19.2521 15.4172 21.1794 12.3626C23.1066 9.30802 23.3119 8.83069 23.4673 8.40129C23.6227 7.97189 23.7219 7.60489 23.6371 7.43837C23.5523 7.27184 23.2804 7.31692 22.9421 7.46356C22.6037 7.6102 22.2071 7.85704 20.7075 9.14375C19.2078 10.4305 16.6173 12.7496 15.3104 13.8647C14.0036 14.9798 14.059 14.8207 14.2739 14.4752C14.4889 14.1297 14.8616 13.6025 15.5543 12.7748C16.2469 11.9471 17.2482 10.8347 17.808 10.2279C18.3678 9.62106 18.4558 9.55351 16.5405 13.2172C14.6252 16.8809 10.704 24.2779 8.72968 27.9686C6.75533 31.6594 6.84663 31.4199 7.5619 30.2731C8.27717 29.1264 9.61365 27.0798 10.718 25.572C11.8223 24.0642 12.654 23.1572 12.217 23.8517C11.78 24.5462 10.049 26.8698 9.08296 28.1488C8.11688 29.4279 7.96812 29.592 7.94786 29.5932C7.9276 29.5945 8.04036 29.428 10.9729 26.0961C13.9054 22.7643 19.6544 16.2722 22.6233 13.0476C25.5922 9.82292 25.6069 10.0625 25.5411 10.3765C25.4753 10.6906 25.3285 11.0719 24.4875 12.5375C23.6465 14.0031 22.1157 16.5415 21.4414 17.803C20.7671 19.0644 20.9956 18.9721 22.4683 17.5945C23.941 16.2168 26.6509 13.5566 28.2909 11.8841C29.931 10.2116 30.4192 9.6073 30.6487 9.36369C30.8783 9.12009 30.8343 9.25545 29.483 11.1316C28.1317 13.0078 25.4743 16.6208 24.0171 18.641C22.5598 20.6611 22.3832 20.9791 22.3945 21.1139C22.4057 21.2487 22.6101 21.1908 23.6767 20.4178C24.7433 19.6449 26.6657 18.1588 27.8779 17.2493C29.5123 16.0231 30.1662 15.4835 30.7704 14.6944C31.794 13.3576 32.7442 12.3933 32.9657 11.9651C33.0485 11.8049 32.9399 11.7086 32.6471 11.7005C32.3543 11.6925 31.8469 11.7623 30.2305 12.4079C28.6141 13.0534 25.904 14.2726 24.5251 14.7941C23.1463 15.3157 23.1807 15.1029 24.0296 13.9817C24.8785 12.8605 26.5407 10.8373 27.3109 9.82879C28.0811 8.82024 27.9088 8.88753 27.4428 9.13105C26.9769 9.37456 26.2224 9.79226 25.8527 9.93574C25.4829 10.0792 25.5207 9.93581 25.7805 9.53299C26.0402 9.13016 26.5207 8.47227 26.4707 8.16566C26.4207 7.85905 25.8257 7.92367 24.7473 8.12213C22.1165 8.60627 20.3987 9.00101 20.1761 8.96394C20.0788 8.94774 20.0557 8.81359 20.086 8.68707C20.3916 8.18056 21.2162 7.5909 21.9367 7.22984C22.1342 7.16963 22.4345 7.09238 22.8664 7.00117" stroke="#FEBB5D" stroke-width="2" stroke-linecap="round"/>
</svg>
