<svg width="51" height="84" viewBox="0 0 51 84" fill="none" xmlns="http://www.w3.org/2000/svg">
<path d="M2.62573 11.3904C2.62573 11.4203 2.62573 11.4502 2.63308 20.4612C2.64042 29.4722 2.65511 47.4635 2.75032 57.2307C3.02081 67.9959 3.31234 69.5646 3.58529 71.411C3.74731 72.7168 3.95703 74.7715 4.3911 77.5915" stroke="black" stroke-width="2" stroke-linecap="round"/>
<path d="M1.70456 11.6052C1.84285 11.0667 4.37185 7.78133 8.89645 4.29096C10.3191 3.1935 12.3115 2.70021 16.9678 2.07764C25.9187 0.880876 32.3711 1.6425 33.8473 1.97242C37.6956 2.83248 40.1069 5.13451 44.7979 10.4693C47.8999 13.9971 48.561 17.1157 49.1335 20.2834C50.1234 25.7606 48.8727 27.4863 47.0559 30.1739C45.5148 32.4536 43.0763 34.2519 39.8614 36.1893C30.9064 41.5857 26.1505 41.6521 22.5836 42.5619C20.9862 42.9692 19.8656 43.4331 19.122 46.2634C17.0573 54.1225 17.7623 60.1279 18.3092 63.2106C19.6512 70.7745 20.8302 77.1862 20.6539 79.3778C20.4593 81.7956 13.5139 82.0014 7.77098 82.1866C6.24684 82.0677 4.58271 81.816 3.44378 81.6863C2.30484 81.5566 1.74152 81.5566 1.16113 81.5566" stroke="black" stroke-width="2" stroke-linecap="round"/>
<path d="M24.688 17.1853C24.6272 17.1853 23.3305 17.2056 21.2553 17.3538C17.7162 17.6066 15.7248 24.929 15.1095 27.2531C14.6116 29.1341 15.1347 30.7666 15.667 31.457C16.9332 33.0992 21.3004 32.5852 24.621 31.7975C28.2891 30.9273 31.4743 26.3588 32.676 24.6688C33.1655 23.9805 33.1294 22.705 32.9713 21.4245C31.6416 20.2751 30.0515 19.9402 28.8292 19.7514C28.2548 19.6567 27.7736 19.5645 26.5056 19.2976" stroke="black" stroke-width="2" stroke-linecap="round"/>
<path d="M23.3604 19.2976H26.5058" stroke="black" stroke-width="2" stroke-linecap="round"/>
</svg>
