<svg width="80" height="77" viewBox="0 0 80 77" fill="none" xmlns="http://www.w3.org/2000/svg">
<path d="M35.4981 7.68807C32.2286 7.62273 24.4609 7.70634 19.5779 9.11333C12.0661 11.2778 9.4984 14.6263 5.88688 18.778C3.83332 21.1387 2.97301 24.8556 2.14857 31.4807C1.56642 36.1588 1.75776 43.6138 1.90341 47.9931C2.08652 53.4985 3.99259 56.7968 6.15177 60.5789C7.67936 63.2546 9.58891 64.7833 12.2992 66.5261C16.5234 69.2423 20.3018 70.8854 23.9643 71.7645C26.6039 72.3981 30.9317 72.94 34.6392 73.2782C45.8123 74.2976 50.9594 72.1379 53.7086 70.8474C54.5773 70.1659 55.2256 69.4021 55.6968 68.6069C55.9117 68.2186 56.0773 67.8609 56.2679 67.2483" stroke="black" stroke-width="2" stroke-linecap="round"/>
<path d="M57.2581 65.7671C57.6249 66.0305 59.7758 67.6643 64.528 71.9046C66.4677 73.6354 67.8653 74.514 68.7108 75.0685C72.9067 77.8203 78.0417 63.4534 78.5758 62.4779C81.5261 57.0891 64.2503 51.3929 64.2237 50.1435C64.1716 47.703 65.9679 44.8371 67.2365 40.4977C68.0665 37.6583 68.8718 33.4147 69.3551 29.4491C70.7717 17.8257 68.9001 14.4975 66.8511 11.1198C65.7199 9.25514 62.2955 7.17445 58.6234 4.62868C56.402 3.08863 52.6616 2.40129 47.1884 1.57303C38.7672 0.298652 35.5049 2.72393 30.3163 5.80489C29.3425 6.44022 28.9697 6.74113 28.616 7.03191C28.2623 7.32269 27.9391 7.59422 27.4849 8.23472" stroke="black" stroke-width="2" stroke-linecap="round"/>
<path d="M39.2927 29.0215C37.047 28.9562 31.5119 29.2637 29.7649 30.2972C27.6578 31.5438 25.3822 34.1991 24.5763 37.4558C23.5232 41.7118 25.2404 43.8881 26.3286 45.4914C27.5876 47.3464 31.5654 48.4672 38.2693 48.7595C40.2944 48.8478 41.4548 47.9725 42.431 47.4063C44.226 46.3652 44.929 42.7607 45.1171 35.1898C45.1545 33.6828 44.8055 33.2769 44.4818 32.8956C42.5273 31.5039 40.3478 30.6666 39.1327 30.3012C38.5234 30.1313 37.9292 29.993 36.9885 29.6356" stroke="black" stroke-width="2" stroke-linecap="round"/>
</svg>
