<svg width="61" height="96" viewBox="0 0 61 96" fill="none" xmlns="http://www.w3.org/2000/svg">
<path d="M2.86011 20.6628C2.88235 20.6628 2.90459 20.6628 2.92717 31.8925C2.94975 43.1222 2.972 65.5815 2.99492 88.7215" stroke="black" stroke-width="2" stroke-linecap="round"/>
<path d="M2.13154 18.2907C2.0103 17.5337 2.68034 13.845 5.31248 9.6422C7.80123 5.66833 11.2375 5.21167 24.4778 2.78094C33.4466 1.13438 39.4419 2.30229 41.5364 2.80549C45.6597 3.7961 47.8741 8.14923 51.9713 18.1634C55.5296 26.8601 53.6345 32.4331 52.2856 35.3938C50.4855 39.3447 44.8801 42.1402 39.8643 43.9763C37.6403 44.7904 33.9314 45.3624 32.0505 46.1042C30.1696 46.846 30.1567 47.5069 34.5959 52.8671C39.035 58.2274 47.9266 68.2671 52.7375 73.7931C58.0982 79.9508 59.1258 81.5205 59.7049 82.8013C60.7289 85.0663 46.1194 86.195 39.1688 87.716C35.7468 88.4649 34.6589 78.5711 26.6606 68.5703C25.1047 66.6249 24.6803 66.2412 24.1383 66.0158C21.2402 64.8108 18.1682 66.5394 17.4075 67.3745C13.469 71.6985 17.3868 84.3424 19.1052 91.4359C20.2105 95.9987 7.07657 94.777 3.25177 94.7221C2.57282 94.4892 2.15307 93.9338 1.93683 92.3913C1.7206 90.8488 1.7206 88.336 1.78148 85.6319" stroke="black" stroke-width="2" stroke-linecap="round"/>
<path d="M27.6278 19.9648C27.5417 19.9648 25.6096 19.9648 22.4884 20.1976C19.1698 20.4452 18.0625 24.8387 17.3668 27.8541C17.128 28.8889 17.2954 30.4133 18.2594 31.5719C20.4835 34.2448 23.8482 34.4688 25.6323 34.7293C31.1404 35.5336 35.4309 32.6848 36.9505 30.7829C38.9163 28.3225 38.976 21.3729 38.0033 17.9025C37.5815 17.5401 37.0505 17.355 35.6024 17.2439C34.1543 17.1327 31.8051 17.1011 29.3847 17.0686" stroke="black" stroke-width="2" stroke-linecap="round"/>
</svg>
