<svg width="52" height="92" viewBox="0 0 52 92" fill="none" xmlns="http://www.w3.org/2000/svg">
<path d="M43.1256 1.49243C43.1687 1.49243 43.2124 9.98653 41.9279 22.7061C40.7714 34.1595 21.2377 26.8285 18.7093 28.4639C14.6938 31.0613 13.7486 35.5399 13.2151 43.2956C12.9372 47.3357 16.3885 51.0909 18.9243 52.9346C23.286 56.1059 35.1462 52.7466 44.234 52.6375C46.5788 52.6093 47.7606 54.1379 48.7734 55.4405C50.6352 57.835 50.6937 63.2696 49.285 71.2643C48.3741 76.4332 43.8172 81.1257 40.6634 83.6399C37.8797 85.8592 31.7851 87.312 24.5062 89.1002C17.8436 90.737 12.5681 90.6362 9.64313 90.364C8.53339 90.2607 8.30604 89.5271 8.1328 88.8979C7.77833 87.6106 7.79494 84.9202 8.20358 81.8668C8.82849 77.1972 19.4733 79.8935 22.2567 78.9234C24.6697 78.0824 24.965 74.1213 25.5354 71.2774C25.7876 70.0199 25.1476 68.7927 24.158 67.7716C21.1383 64.6559 12.4752 63.9189 7.39887 61.9869C4.4361 60.8594 3.05378 56.0708 1.6819 46.5019C0.0906025 35.4027 1.73311 26.6824 2.28177 23.6511C3.20976 18.524 5.54356 15.1461 7.58136 13.3839C8.75346 12.3703 16.5467 10.4082 28.0066 7.54312C34.6418 6.28748 38.0407 5.63601 40.5176 4.76805C41.7173 4.33347 42.8008 3.91085 44.7607 3.32756" stroke="black" stroke-width="2" stroke-linecap="round"/>
</svg>
