<svg width="468" height="214" viewBox="0 0 468 214" fill="none" xmlns="http://www.w3.org/2000/svg">
<path d="M79.0201 75.2029C78.8953 75.2029 79.2253 74.9918 83.7312 73.3737C87.8212 71.9049 95.6599 69.3698 105.15 67.0984C114.641 64.8271 125.568 62.9599 133.729 61.9069C146.901 60.2073 151.729 60.5822 150.706 60.9089C150.112 61.0991 149.417 61.494 140.261 66.4989C131.104 71.5037 113.52 81.1462 112.236 82.8488C110.953 84.5514 126.503 78.0219 140.64 73.1499C154.778 68.2779 167.032 65.2613 176.224 63.5379C185.417 61.8146 191.175 61.476 179.221 66.6354C167.267 71.7949 137.425 82.4626 121.828 88.0079C106.23 93.5532 105.782 93.6529 106.117 93.2763C107.391 91.8448 109.782 90.6462 114.028 88.9722C117.207 87.7187 122.61 86.0285 131.443 84.3277C140.275 82.6269 152.41 81.0649 160.816 80.2577C169.221 79.4505 173.531 79.4454 159.22 84.011C144.91 88.5766 111.849 97.7128 103.344 100.232C94.8394 102.751 111.892 98.375 129.298 95.6811C146.704 92.9871 163.947 92.1072 173.535 91.7369C184.528 91.3124 186.589 91.9464 187.402 92.6985C187.807 93.0731 187.417 93.9764 176.854 100.834C166.29 107.692 145.366 120.615 134.303 127.505C123.24 134.394 122.672 134.857 134.007 132.276C145.342 129.695 168.597 124.054 184.925 120.608C201.254 117.161 209.953 116.079 214.279 115.785C218.605 115.491 218.295 116.018 216.287 117.4C214.28 118.781 210.585 121.002 204.972 123.692C199.359 126.382 191.939 129.474 184.439 131.97C176.938 134.467 169.581 136.273 165.331 137.25C161.082 138.227 160.162 138.32 160.163 137.767C160.164 137.214 161.113 136.012 178.433 126.881C195.754 117.751 229.417 100.729 248.959 91.2471C268.501 81.7649 272.902 80.3382 274.631 79.6205C276.36 78.9027 275.284 78.9373 263.978 81.661C252.672 84.3847 231.17 89.7965 220.214 92.2193C209.259 94.6422 209.501 93.9121 212.695 91.0852C215.888 88.2582 222.024 83.3565 229.968 78.219C237.912 73.0816 247.478 67.8568 255.095 64.1131C262.713 60.3693 268.092 58.2649 272.866 56.7469C277.639 55.229 281.644 54.3614 282.872 54.0096C283.324 53.8803 276.582 55.0214 263.789 59.3969C254.982 62.4088 242.049 68.5866 234.186 72.2579C226.322 75.9292 224.067 77.3053 223.157 78.01C222.248 78.7147 222.752 78.7064 228.206 77.6501C233.659 76.5938 244.046 74.4899 254.493 73.2259C264.939 71.962 275.13 71.6017 281.61 71.4973C288.089 71.393 290.548 71.5556 294.178 72.2687C302.603 73.9236 307.828 75.7826 308.55 76.5122C308.95 76.9163 309.008 77.7113 298.67 84.6286C288.331 91.546 267.49 104.644 256.585 111.549C245.681 118.455 245.345 118.77 254.409 118.441C263.473 118.112 281.947 117.129 291.307 116.981C300.666 116.833 300.351 117.55 297.809 119.503C295.267 121.455 290.507 124.622 281.941 129.154C273.375 133.687 261.147 139.489 254.592 142.567C248.037 145.645 247.527 145.823 257.986 141.841C268.445 137.859 289.889 129.711 306.837 124.277C323.785 118.842 335.587 116.368 342.875 115.032C350.163 113.696 352.58 113.574 353.966 113.699C355.352 113.824 355.634 114.2 355.631 114.834C355.628 115.467 355.333 116.346 354.806 117.072C353.748 118.53 350.076 119.862 337.127 122.548C326.934 124.661 309.096 126.759 300.26 127.812C291.425 128.865 292.057 128.416 297.608 126.383C303.158 124.349 313.607 120.745 321.315 118.504C329.024 116.263 333.676 115.495 339.231 115.025C351.08 114.024 358.056 114.568 358.728 115.28C359.047 115.618 358.973 116.168 358.808 116.594C358.472 117.46 356.498 118.332 350.38 119.572C345.761 120.508 337.868 120.887 332.489 121.168C324.44 121.587 320.33 120.798 318.074 120.108C316.675 119.68 315.83 118.849 315.198 117.645C314.861 117.002 314.967 116.097 316.397 114.267C317.827 112.437 320.7 109.658 327.679 105.247C334.659 100.835 345.657 94.8745 351.024 91.7185C356.391 88.5626 355.794 88.3916 352.051 88.3344C348.308 88.2773 341.438 88.3391 335.507 88.6948C329.575 89.0504 324.792 89.6981 323.224 89.0864C321.656 88.4747 323.448 86.5841 331.042 82.2001C338.636 77.816 351.976 70.9958 356.706 67.5384C361.437 64.0809 357.153 64.1928 349.782 65.2287C342.411 66.2645 332.081 68.2208 327.941 68.8113C326.162 69.0649 334.151 66.7568 348.782 65.2023C357.826 64.2416 370.278 64.3679 377.007 64.2973C383.735 64.2268 384.393 64.3225 384.422 64.5924C384.452 64.8623 383.833 65.3033 376.235 68.0867C368.638 70.87 354.081 75.9822 346.322 78.7399C338.564 81.4977 338.044 81.7461 337.57 82.0174C337.095 82.2888 336.681 82.5755 337.961 82.5426C339.241 82.5096 342.227 82.1482 356.443 77.038C370.658 71.9279 396.011 62.0799 399.874 63.8709C403.738 65.6618 385.343 79.3902 375.76 86.6857C366.178 93.9812 365.966 94.4278 366.435 94.461C366.905 94.4942 368.063 94.1005 373.594 91.5858C379.126 89.0711 388.996 84.4472 395.126 81.8066C401.255 79.1659 403.344 78.6486 404.642 78.4511C405.94 78.2537 406.384 78.3918 406.302 78.9101C406.22 79.4284 405.6 80.3228 396.928 85.6217C388.256 90.9207 371.552 100.597 376.01 98.5861C380.469 96.5751 406.596 82.5833 420.402 75.2663C434.207 67.9493 434.9 67.731 427.315 74.6868C419.73 81.6426 403.847 95.7792 395.971 102.925C388.096 110.072 388.709 109.799 392.706 107.853C396.703 105.907 404.066 102.295 409.649 99.9108C418.647 96.0681 422.982 95.3225 424.015 95.2174C424.565 95.1615 425.176 95.2187 425.45 95.8028C425.724 96.3868 425.645 97.5262 425.223 98.8786C424.802 100.231 424.04 101.762 415.905 111.536C407.769 121.309 392.283 139.279 388.423 145.991C381.189 158.569 404.958 140.954 405.625 141.066C405.912 141.114 405.858 141.678 406.071 141.972C406.283 142.265 406.703 142.407 407.252 142.29C407.801 142.174 408.467 141.796 412.381 139.334C423.459 132.368 430.369 128.146 429.279 129.257C428.639 129.908 427.745 130.657 427.795 130.891C428.016 131.923 434.546 127.174 440.78 123.09C442.247 122.129 440.674 124.128 440.055 124.986C439.436 125.844 439.924 125.68 440.999 125C442.075 124.319 443.725 123.127 444.352 122.538C444.98 121.95 444.536 122.001 444.085 122.169C443.633 122.338 443.186 122.622 442.726 122.915" stroke="#FC0000" stroke-width="15" stroke-linecap="round"/>
<path d="M132.221 123.704C132.343 123.704 131.177 123.704 124.313 124.724C118.647 125.565 108.668 127.782 100.928 129.082C93.1867 130.383 88.016 130.884 95.0068 127.079C101.998 123.275 121.306 115.151 133.273 109.621C145.239 104.091 149.278 101.402 152.221 99.1934C155.165 96.9853 156.892 95.3397 157.243 94.4474C157.593 93.5551 156.515 93.466 149.404 95.3213C142.293 97.1766 129.182 100.979 123.312 102.219C117.442 103.459 119.212 102.021 123.32 99.4168C127.429 96.8128 133.823 93.0861 136.894 91.1178C139.966 89.1496 139.521 89.0527 131.801 89C124.081 88.9473 109.1 88.9417 93.3032 88.6626" stroke="#FC0000" stroke-width="15" stroke-linecap="round"/>
<path d="M213.81 72.9836C213.772 72.9836 213.733 72.9836 215.285 72.9836C216.837 72.9836 219.98 72.9836 217.919 76.6513C215.858 80.3189 208.497 87.6543 205.028 91.506C201.559 95.3577 202.205 95.5036 203.7 95.5423C205.195 95.581 207.521 95.5081 209.917 95.4329" stroke="#FC0000" stroke-width="15" stroke-linecap="round"/>
<path d="M256.672 95.5376C256.209 95.6254 249.422 98.8864 250.381 99.1333C256.838 100.797 273.982 88.0304 282.378 83.8636C290.775 79.6967 289.537 80.0292 278.608 84.8744C267.679 89.7196 247.096 99.0675 235.807 104.28C224.518 109.493 223.146 110.287 226.529 110.094C229.912 109.901 238.09 108.697 243.175 108.046C248.261 107.395 250.006 107.333 250.652 107.549C251.299 107.766 250.794 108.262 244.858 111.637C238.922 115.012 227.57 121.252 222.899 123.885C220.507 125.234 227.79 122.691 236.625 120.168C243.748 118.133 247.55 117.981 248.076 118.29C248.673 118.642 244.348 122.776 237.662 129.224C234.364 132.405 230.856 134.969 229.499 136.311C228.143 137.652 228.941 137.584 234.442 136.382C239.942 135.181 250.12 132.848 255.795 131.631C261.469 130.414 262.33 130.383 263.238 131.273" stroke="#FC0000" stroke-width="15" stroke-linecap="round"/>
<path d="M350.92 75.3244C350.798 75.2832 348.517 75.2815 339.748 76.9816C333.108 78.2691 322.378 82.0037 317.159 83.5765C311.94 85.1494 312.648 84.8526 317.65 83.858C322.653 82.8633 331.928 81.1798 337.437 80.2608C342.946 79.3418 344.408 79.2382 341.282 82.9224C338.156 86.6066 330.396 94.0816 326.986 97.774C323.576 101.466 324.751 101.15 327.586 100.285C334.891 98.0576 342.311 96.1467 347.366 95.4948C349.576 95.2098 351.093 95.2606 351.819 95.4899C352.546 95.7191 352.444 96.1875 352.186 96.6799C351.629 97.7415 345.089 103.334 339.812 109.598C338.95 110.62 348.182 107.666 353.892 105.644C363.04 102.404 368.074 101.616 370.116 101.597C371.31 101.586 368.945 106.289 365.609 111.51C364.662 113.231 365.23 113.068 366.329 112.569C367.428 112.07 369.041 111.241 370.85 110.361" stroke="#FC0000" stroke-width="15" stroke-linecap="round"/>
<path d="M435.699 119.296C434.847 119.501 431.356 120.443 424.653 121.541C422.676 121.865 420.618 121.721 419.737 121.513C418.857 121.306 419.195 120.875 419.112 120.586C418.638 118.955 415.379 120.396 404.853 124.297C402.082 125.324 407.688 123.163 417.957 118.764C428.804 114.116 432.749 109.128 433.955 107.429C434.677 106.411 434.706 105.175 434.389 104.345C433.617 102.319 423.686 103.167 415.803 104.268C413.145 104.64 408.891 106.678 406.699 107.124C404.508 107.571 404.622 106.856 406.328 104.862C408.034 102.868 411.33 99.6168 418.141 94.9204C424.952 90.2239 435.18 84.1811 440.08 81.0169C444.979 77.8527 444.241 77.7503 441.534 77.6958C434.175 77.5478 428.222 77.7599 424.576 78.4891C422.063 78.9915 418.297 80.1717 416.537 80.528C414.777 80.8843 415.16 80.4856 417.055 79.1333C422.347 75.4871 429.8 71.4782 430.651 69.0965C427.547 68.3605 417.264 68.5838 405.652 68.9117" stroke="#FC0000" stroke-width="15" stroke-linecap="round"/>
<path d="M216.023 77.2178C216.007 77.2178 215.862 77.2178 215.616 77.14C215.331 77.0499 215.356 76.504 215.411 76.0183C215.819 75.0662 216.374 74.4549 216.572 73.9748C216.591 73.8201 216.591 73.6402 216.591 73.4548" stroke="#FC0000" stroke-width="15" stroke-linecap="round"/>
<path d="M236.443 161.204C236.341 161.204 235.503 161.272 217.781 165.285C200.822 169.125 167.786 177.045 145.407 181.71C123.029 186.376 112.333 187.653 106.256 188.314C100.179 188.974 99.045 188.981 98.7266 188.336C97.8622 186.585 100.753 183.963 104.617 181.019C107.152 179.088 111.106 176.61 117.747 173.622C124.388 170.634 133.661 167.3 154.573 162.674C175.485 158.049 207.755 152.234 197.984 150.35C188.213 148.466 135.423 150.69 108.955 151.429C82.4869 152.169 83.9405 151.358 86.9395 150.238C89.9385 149.117 94.4389 147.712 112.693 145.404C130.947 143.097 162.818 139.931 162.995 140.935C163.171 141.939 130.687 147.211 120.683 147.73C110.68 148.249 124.141 143.856 147.293 140.258C170.445 136.659 202.88 133.988 221.15 132.763C239.421 131.538 242.544 131.84 245.145 132.246C249.762 132.965 252.575 133.978 254.098 134.766C254.863 135.161 255.429 135.862 255.611 136.598C255.793 137.333 255.527 138.163 255.078 138.756C254.63 139.349 254.007 139.681 251.854 140.417C249.701 141.153 246.036 142.283 234.016 144.162C221.996 146.041 201.731 148.635 191.921 150.019C182.111 151.403 183.37 151.499 192.825 151.409C202.28 151.319 219.894 151.039 230.485 151.091C244.116 151.158 247.733 152.059 248.175 152.802C248.495 153.339 247.487 154.546 244.116 156.505C240.744 158.464 234.65 161.226 223.202 164.695C211.753 168.163 195.135 172.254 180.315 174.853C165.495 177.452 152.978 178.436 146.417 178.623C139.855 178.81 139.628 178.171 139.629 177.417C139.637 172.959 145.034 167.436 150.862 161.582C154.62 157.807 160.705 153.128 166.902 148.827C173.098 144.525 179.401 140.929 190.827 136.34C202.252 131.75 218.609 126.277 226.414 123.539C234.219 120.8 232.977 120.963 211.723 123.374C190.468 125.786 149.238 130.441 127.501 132.844C105.764 135.247 104.77 135.257 103.876 135.077C102.982 134.896 102.219 134.525 102.475 133.121C102.73 131.718 104.027 129.294 107.986 125.156C111.945 121.018 118.526 115.239 125.397 110.193C132.268 105.147 139.229 101.01 149.968 96.1851C160.706 91.3599 175.011 85.972 188.189 82.1103C201.368 78.2486 212.987 76.0763 218.778 75.1778C224.57 74.2792 224.182 74.7201 218.769 76.9924C213.355 79.2646 202.928 83.3549 177.822 89.4547C152.716 95.5545 113.247 103.54 93.2844 107.295C73.3222 111.05 74.0632 110.332 75.1519 109.505C76.2406 108.678 77.6545 107.763 82.102 105.636C86.5495 103.509 93.9878 100.198 100.512 97.6835C107.036 95.1688 112.421 93.551 120.965 91.8745C129.51 90.198 141.051 88.512 153.483 87.7367C165.915 86.9615 178.889 87.1481 189.654 88.0518C200.42 88.9555 208.586 90.5706 212.532 91.7304C216.479 92.8901 215.959 93.5457 203.77 95.6804C191.582 97.815 167.74 101.409 152.915 103.346C138.091 105.283 133.006 105.454 130.406 105.04C127.806 104.626 127.846 103.623 128.134 102.675C128.712 100.773 132.804 96.8901 138.997 91.3806C141.817 88.8711 144.287 87.2939 149.03 84.8863C153.773 82.4787 160.791 79.3782 166.447 77.2291C172.102 75.08 176.182 73.9763 179.806 73.161C183.429 72.3456 186.473 71.8522 191.989 71.4398C197.506 71.0274 205.402 70.7111 208.994 70.7334C212.586 70.7558 211.636 71.1263 206.04 72.1551C200.444 73.184 190.232 74.86 166.816 75.9861C143.399 77.1121 107.086 77.6374 88.1739 77.8399C69.2615 78.0423 68.8497 77.9059 68.6987 77.5431C68.5477 77.1803 68.6701 76.5952 69.1425 75.9252C70.243 74.3645 75.003 71.5149 84.6161 66.4856C90.387 63.4664 98.439 60.4409 107.643 57.5685C116.848 54.696 127.08 52.3092 142.42 50.7597C157.761 49.2101 177.898 48.5702 174.608 50.438C171.318 52.3058 143.99 56.7006 131.545 58.1442C119.099 59.5878 122.364 57.947 127.947 55.7834C133.531 53.6198 141.333 50.9832 151.327 48.4734C161.322 45.9636 173.271 43.6605 188.511 42.2998C203.752 40.939 221.921 40.5903 234.25 41.1187C246.578 41.6471 252.514 43.0633 255.782 43.9233C259.05 44.7833 259.468 45.0443 259.65 45.4098C259.831 45.7753 259.763 46.2375 259.471 46.6279C259.179 47.0182 258.665 47.3228 256.857 47.9438C255.049 48.5649 251.964 49.4931 229.265 50.5067C206.566 51.5203 164.346 52.591 142.458 52.9188C120.569 53.2466 120.291 52.7989 120.558 52.2831C120.825 51.7672 121.646 51.1966 124.319 49.8855C126.993 48.5745 131.494 46.5403 152.018 44.5666C172.543 42.5929 208.956 40.7415 230.905 40.097C252.854 39.4525 259.237 40.0712 261.162 40.688C263.086 41.3049 260.359 41.9012 241.262 43.7041C222.165 45.507 186.782 48.4986 168.337 50.09C149.893 51.6813 149.46 51.7819 155.408 50.8656C161.357 49.9492 173.701 48.0127 191.392 47.1658C209.084 46.3189 231.749 46.6201 247.03 47.4618C262.312 48.3035 269.523 49.6766 273.489 50.5173C277.456 51.3579 277.959 51.6245 278.109 52.0686C278.259 52.5127 278.04 53.1264 274.92 55.5446C271.8 57.9628 265.785 62.167 254.322 67.9715C242.859 73.776 226.129 81.0534 217.968 84.1893C209.806 87.3252 210.72 86.099 214.05 83.353C217.38 80.6069 223.099 76.3781 230.697 72.0981C238.295 67.818 247.598 63.6149 254.882 60.9218C266.912 56.4739 272.722 56.0485 272.265 56.6012C271.579 57.4294 269.113 58.408 261.502 61.102C253.89 63.7959 240.989 67.9297 228.224 71.2356C215.46 74.5416 203.224 76.8943 197.118 77.9085C191.012 78.9227 191.406 78.5271 192.025 78.1371C192.643 77.7472 193.474 77.375 197.028 76.423C200.582 75.4709 206.834 73.9503 219.491 72.9898C232.147 72.0292 251.019 71.6749 261.174 71.5472C271.33 71.4194 272.198 71.529 271.543 71.8374C270.888 72.1459 268.684 72.65 250.529 74.1226C232.375 75.5953 198.337 78.0213 180.54 79.3168C162.744 80.6124 162.22 80.7041 166.97 79.3961C171.719 78.0881 181.758 75.3776 199.005 73.2607C216.253 71.1438 240.406 69.7025 236.892 72.25C233.378 74.7975 201.466 81.3774 185.005 84.4418C168.544 87.5062 168.502 86.8557 169.536 85.3163C172.352 81.1256 176.483 77.4553 180.83 74.2317C183.449 72.2895 187.329 70.3291 191.526 68.5935C195.723 66.8578 200.227 65.5607 206.254 64.7207C212.281 63.8806 219.694 63.5369 224.612 63.6432C231.759 63.7977 237.597 66.7364 243.797 70.0861C248.075 72.3974 250.047 74.6464 251.098 75.9984C251.831 76.9405 251.845 77.9659 251.658 78.8346C251.556 79.3055 250.921 79.6436 227.724 82.0584C204.527 84.4732 158.655 88.9049 134.794 91.13C110.934 93.3552 110.476 93.2395 110.18 92.9608C109.575 92.3928 111.044 88.7385 114.693 82.5105C116.658 79.1569 119.976 76.1355 123.74 72.8303C127.503 69.5251 131.898 66.2128 136.531 63.4094C141.164 60.6061 145.903 58.412 150.683 56.6785C159.995 53.3016 166.236 52.3494 167.952 52.2555C168.397 52.2311 167.97 52.5618 152.372 56.4172C136.774 60.2727 106.016 67.7216 89.252 71.6523C72.4885 75.5829 70.6515 75.7696 68.9751 75.8297C67.2986 75.8898 65.8384 75.8177 64.9151 75.3081C63.2272 74.3764 63.2471 72.0716 63.2936 70.3496C63.4117 65.9712 68.1055 60.9375 73.6802 55.3689C77.376 51.677 82.4081 49.2465 87.6599 46.7855C90.6288 45.3943 94.4827 44.3262 99.5597 43.3384C104.637 42.3506 110.889 41.6319 114.919 41.2617C118.95 40.8915 120.57 40.8915 109.653 42.7326C98.7368 44.5737 75.2343 48.256 62.4608 50.327C49.6873 52.398 48.355 52.7462 57.8932 52.4631C67.4313 52.18 87.8802 51.2551 101.43 51.2495C114.98 51.2438 121.011 52.1855 124.523 52.786C128.861 53.5278 130.197 54.0814 131.089 54.642C131.514 54.909 131.679 55.4117 131.474 55.8385C131.269 56.2654 130.638 56.6705 114.092 65.0139C97.5457 73.3572 65.1044 89.6265 46.3893 99.3461C27.6742 109.066 23.6683 111.743 22.0076 112.718C21.2563 113.16 27.6163 108.201 37.196 101.812C41.0973 99.2102 43.2314 98.1867 48.1396 96.4299C53.0478 94.6731 60.7119 92.2851 68.066 90.7579C75.42 89.2307 82.2319 88.6367 86.107 88.341C90.7091 87.9898 92.1498 88.2695 93.4911 88.6955C94.8149 89.1161 95.7301 89.9858 96.3031 90.9793C96.9461 92.0944 96.7793 93.707 96.1406 95.6707C95.2229 98.4924 91.7476 101.516 86.1041 105.981C82.5135 108.821 76.8812 112.075 69.0548 115.767C61.2285 119.458 51.234 123.296 43.2508 125.915C35.2676 128.533 29.5987 129.815 23.8667 130.797C18.1347 131.779 12.5116 132.422 9.38929 132.754C6.26702 133.085 5.81602 133.085 19.9364 130.264C34.0567 127.443 62.7621 121.802 77.4399 119.118C92.1177 116.435 91.8981 116.881 82.7327 123.322C73.5673 129.763 55.4627 142.185 47.7948 147.414C40.1269 152.643 43.4443 150.302 47.5848 147.918C51.7253 145.534 56.5884 143.177 62.6423 141.171C68.6963 139.165 75.7937 137.582 82.9422 136.659C90.0907 135.737 97.0752 135.523 101.443 135.541C107.355 135.566 109.51 136.343 110.728 137.273C111.463 137.833 112.057 138.999 112.394 139.829C112.932 141.155 110.702 144.121 105.847 149.064C103.104 151.856 99.1802 154.589 94.1772 157.829C89.1742 161.068 83.0542 164.569 73.9875 168.725C64.9207 172.881 53.0926 177.587 46.7462 180.081C40.3998 182.576 39.8935 182.717 43.8403 180.774C47.787 178.832 56.2022 174.803 66.4938 171.382C76.7854 167.961 88.6984 165.271 101.552 163.642C114.405 162.012 127.838 161.526 136.755 161.473C145.673 161.421 149.67 161.818 153.126 162.338C159.414 163.285 162.953 164.666 163.673 165.781C163.994 166.279 163.036 167.019 159.59 168.535C156.145 170.052 149.936 172.419 135.661 176.096C121.385 179.772 99.2309 184.686 92.2863 186.08C85.3416 187.474 94.2782 185.2 114.007 183.195C133.737 181.191 163.988 179.525 180.023 178.728C196.057 177.931 196.959 178.054 197.157 178.586C197.356 179.119 196.824 180.056 195.476 181.045C194.128 182.033 191.978 183.044 184.881 185.301C177.784 187.558 165.805 191.03 162.521 191.936C159.237 192.842 165.012 191.076 173.275 189.567C181.537 188.059 192.111 186.861 204.345 186.244C216.579 185.627 230.153 185.627 236.875 185.752C243.596 185.877 243.054 186.127 238.602 186.724C234.149 187.321 225.803 188.258 221.783 188.472C217.764 188.685 218.324 188.147 220.311 187.088C222.297 186.03 225.692 184.469 239.802 180.788C253.912 177.108 278.635 171.355 296.571 168.046C314.507 164.736 324.907 164.043 330.034 163.89C335.16 163.737 334.699 164.145 325.18 164.413C315.662 164.682 297.1 164.799 287.873 164.68C278.646 164.56 279.317 164.202 281.351 163.477C283.386 162.752 286.763 161.671 298.746 159.257C310.728 156.843 331.213 153.128 327.758 151.812C324.304 150.497 296.289 151.693 281.415 152.397C266.541 153.102 265.657 153.278 273.539 151.239C281.421 149.2 298.096 144.941 308.875 142.549C319.653 140.156 324.029 139.759 324.897 139.879C325.765 140 322.992 140.65 308.549 142.167C294.107 143.685 268.078 146.049 254.838 147.127C241.597 148.205 241.934 147.924 245.047 146.473C248.16 145.021 254.039 142.407 272.453 137.419C290.867 132.43 321.639 125.147 337.792 121.361C353.946 117.575 354.549 117.506 344.56 117.219C334.571 116.932 313.972 116.429 301.939 115.954C287.047 115.366 283.749 114.4 283.186 113.68C282.352 112.612 284.149 110.332 286.223 108.29C287.998 106.542 292.085 104.879 298.15 102.567C304.472 100.156 311.761 99.5144 311.642 100.29C311.041 104.193 296.499 104.003 290.87 105.223C285.24 106.444 285.679 106.213 294.13 103.969C302.581 101.724 319.03 97.4732 319.889 95.7272C320.747 93.9812 305.517 94.8692 297.578 95.0347C289.639 95.2002 289.453 94.6162 289.514 94.0046C289.643 92.722 291.354 91.06 294.946 88.1467C297.329 86.2142 301.133 83.7245 307.505 80.4943C313.876 77.2642 322.772 73.4623 333.42 69.825C344.069 66.1877 356.2 62.8301 362.731 61.0574C369.263 59.2847 369.826 59.1987 369.933 59.2848C370.041 59.371 369.675 59.632 366.393 60.8735C363.11 62.115 356.921 64.3292 347.588 66.4417C338.255 68.5541 325.965 70.4978 312.113 71.6553C298.262 72.8128 283.222 73.1252 275.573 73.0193C267.923 72.9134 268.12 72.3797 268.588 71.8781C269.635 70.7562 271.569 70.0255 286.106 67.2267C299.578 64.6329 325.591 60.5667 327.07 58.4446C328.548 56.3224 304.745 56.5001 292.913 56.3631C281.08 56.2261 281.939 55.769 283.814 55.0604C285.689 54.3518 288.554 53.4057 292.465 52.4567C296.375 51.5077 301.246 50.5844 314.784 50.0208C328.322 49.4572 350.379 49.2812 357.226 49.0768C364.073 48.8723 355.04 48.6449 341.929 47.517C328.817 46.3892 311.901 44.3678 301.381 43.3265C290.861 42.2852 287.251 42.2852 300.901 40.5701C314.551 38.855 345.572 35.4247 362.967 33.3467C380.363 31.2686 383.193 30.6466 368.12 30.3739C353.047 30.1013 319.985 30.1968 303.157 30.0762C286.329 29.9555 286.736 29.6157 290.025 28.6248C293.313 27.6338 299.47 26.002 321.76 22.4495C344.05 18.897 382.286 13.4734 404.434 10.6104C426.582 7.74735 431.482 7.60931 434.227 7.65165C436.973 7.69399 437.415 7.92088 437.789 8.29735C438.162 8.67382 438.453 9.193 438.267 9.79688C438.081 10.4008 437.411 11.0736 431.367 12.6908C425.323 14.308 413.925 16.8491 404.956 19.2956C395.987 21.7422 389.791 24.0173 382.506 27.7215C375.22 31.4256 367.033 36.4899 362.584 39.2972C358.135 42.1045 357.672 42.5013 357.725 42.7565C357.873 43.47 359.9 43.0328 371.429 40.015C382.034 37.2393 402.229 31.7093 412.731 29.1512C423.233 26.5931 423.414 27.1162 420.175 29.9623C416.937 32.8083 410.273 37.9615 402.284 43.2092C394.296 48.4569 385.184 53.6431 376.252 57.946C367.319 62.2489 358.842 65.5115 352.755 67.6396C346.668 69.7677 343.228 70.6624 341.099 71.1873C338.971 71.7122 338.258 71.8402 351.109 71.8117C363.961 71.7831 390.398 71.5943 404.068 71.782C417.737 71.9697 417.838 72.5397 402.152 83.6795C386.465 94.8193 354.988 116.512 343.145 124.959C331.303 133.406 340.049 127.95 347.305 124.049C354.561 120.147 360.061 117.965 364.571 116.488C372.326 113.95 377.47 113.47 380.128 113.575C381.226 113.618 381.73 114.337 381.617 115.382C381.324 118.085 378.415 121.348 371.147 127.797C365.632 132.689 355.511 139.806 344.075 146.722C332.639 153.639 319.965 159.867 311.271 163.737C302.578 167.606 298.248 168.929 296.751 169.079C295.253 169.23 296.717 168.168 303.431 165.192C310.144 162.216 322.061 157.356 337.461 152.002C352.86 146.647 371.381 140.944 380.579 138.35C389.777 135.755 389.091 136.443 385.125 138.577C381.16 140.712 373.935 144.273 364.159 148.113C354.384 151.953 342.277 155.964 336.421 157.951C330.566 159.939 331.328 159.782 334.678 158.68C338.029 157.578 343.945 155.535 352.034 153.689C360.124 151.844 370.207 150.257 376.852 149.463C383.496 148.669 386.397 148.715 387.972 149.494C389.548 150.273 389.71 151.783 389.699 152.892C389.681 154.675 386.727 158.485 376.643 168.168C369.459 175.066 356.771 184.565 345.804 192.388C334.837 200.211 325.641 205.705 326.794 205.395C327.947 205.084 339.727 198.804 350.726 193.947C361.725 189.091 371.586 185.848 376.828 184.373C382.071 182.898 382.395 183.288 382.477 183.79C382.654 184.884 381.767 186.422 380.754 188.314C379.634 190.407 375.465 194.786 369.2 200.821C366.358 203.56 363.851 205.267 362.64 205.896C361.629 206.42 366.454 200.426 376.462 191.099C381.425 186.474 386.83 182.821 391.457 179.831C399.738 174.481 404.869 172.367 406.72 171.702C410.23 170.442 412.895 170.506 413.701 170.736C414.106 170.852 414.246 171.492 414.284 172.351C414.496 177.17 408.662 180.666 402.789 183.918C400.917 184.955 399.527 184.971 398.46 184.763C397.935 184.66 397.666 183.952 397.59 182.772C397.399 179.809 399.315 175.092 402.078 169.875C404.318 165.644 408.797 160.56 414.785 154.185C423.6 144.8 427.573 144.629 428.644 144.641C429.132 144.647 429.299 145.504 429.311 146.199C429.337 147.633 428.3 149.244 425.73 152.116C420.866 157.55 415.542 161.482 413.065 162.919C412.24 163.398 412.025 162.805 412.305 161.793C413.04 159.138 416.492 154.747 421.124 149.622C426.861 143.274 429.409 142.921 431.557 142.398C432.065 142.274 432.51 142.427 432.779 142.688C433.049 142.95 433.142 143.403 433.14 143.872C433.13 146.243 426.655 149.864 417.606 154.077C415.835 154.902 414.806 154.96 414.168 154.869C413.53 154.777 413.257 154.397 413.091 153.432C412.664 150.956 412.991 148.306 413.866 145.661C415.193 141.651 419.251 137.442 423.449 133.303C430.468 126.382 437.949 124.056 442.004 123.106C445.885 122.198 431.604 123.358 428.543 121.32C426.53 119.98 427.468 116.989 427.928 115.475C428.466 113.701 430.009 111.95 432.151 109.672C435.185 106.443 439.81 103.538 444.911 100.873C453.427 96.4236 455.52 97.2709 456.084 97.5114C457.212 97.9924 450.758 100.411 444.12 102.705C435.529 105.673 431.231 104.236 430.064 103.639C429.155 103.173 429.142 101.693 429.042 100.215C428.796 96.587 432.79 91.7302 440.222 83.7164C445.296 78.2444 453.919 70.7925 457.892 66.7766C461.865 62.7608 461.158 62.63 456.783 63.0673C452.408 63.5046 444.386 64.5139 439.633 65.0385C434.879 65.5632 433.635 65.5727 432.928 65.2177C432.222 64.8627 432.089 64.1429 432.127 63.4544C432.361 59.1741 439.888 53.7392 445.772 48.9833C452.632 43.4383 457.603 40.8104 458.038 40.4817C458.19 40.366 456.824 40.9215 450.803 43.9791C444.781 47.0367 433.793 52.7247 428.237 55.3704C422.68 58.0161 422.89 57.4472 424.549 55.3728C426.208 53.2984 429.31 49.7357 433.543 45.7667C437.776 41.7977 443.046 37.5303 445.545 35.3224C448.044 33.1146 447.611 33.0956 441.854 35.6275C436.098 38.1593 425.03 43.2426 420.484 44.7296C418.233 45.4657 420.155 41.5576 419.133 41.5441C415.569 41.4969 407.594 48.2646 403.696 51.7687C403.356 52.0748 403.877 52.5138 404.454 52.673C405.03 52.8322 405.854 52.8322 406.178 53.1133C406.821 53.6722 405.767 55.0858 405.529 55.8843C405.352 56.4751 407.982 55.496 409.895 55.1085C410.774 54.9302 409.171 57.8553 408.318 59.5882C408.955 60.118 410.94 59.8333 413.303 59.4636C414.4 59.3326 415.29 59.3164 416.207 59.2997" stroke="#FC0000" stroke-width="15" stroke-linecap="round"/>
</svg>
