<svg width="68" height="82" viewBox="0 0 68 82" fill="none" xmlns="http://www.w3.org/2000/svg">
<path d="M2.51529 1.23463C2.46937 1.18871 2.42275 7.25759 2.7887 16.4417C2.91276 19.5552 3.97909 19.4393 7.02243 19.3396C15.3247 19.0675 21.8635 18.9791 23.8741 19.7852C26.6986 20.9176 26.4651 26.9391 27.2888 37.5051C27.901 45.3585 28.1405 58.3209 28.3906 66.0243C28.6407 73.7276 28.6981 75.792 29.0391 77.0552C29.3801 78.3185 30.0029 78.7182 31.0018 79.1117C33.3067 80.0197 38.0073 80.3159 43.2113 80.3055C45.163 80.3016 45.7117 80.0777 46.4024 77.9244C48.3767 71.7691 48.7545 62.9556 48.5278 52.2724C48.2259 38.0396 47.2816 27.9912 48.7134 25.1413C50.7913 21.0051 59.5689 24.0985 64.482 20.7249C67.6354 18.5596 66.2021 10.3554 65.7244 6.6724C65.2467 2.98938 64.2529 2.76767 54.7027 2.58134C45.1524 2.39501 27.0757 2.25078 16.6757 2.15173C6.27566 2.05268 4.10011 2.00317 1.85864 1.95216" stroke="black" stroke-width="2" stroke-linecap="round"/>
</svg>
