<svg width="51" height="75" viewBox="0 0 51 75" fill="none" xmlns="http://www.w3.org/2000/svg">
<path d="M1.43068 3.95004C1.25025 4.28274 2.7164 11.3407 3.94931 17.9086C4.21045 19.2998 4.31196 20.2506 4.84647 20.7338C6.99391 22.6751 12.8028 16.5319 22.4192 15.4196C24.2157 15.2118 24.7245 15.5118 25.1513 15.7658C26.9403 16.8306 27.1299 20.0284 27.2122 23.56C27.2806 26.4909 23.8904 30.0035 18.7844 33.8033C15.9403 35.9198 12.3906 36.6464 13.0612 37.3709C23.9281 49.1119 32.7496 39.5015 33.4482 40.1285C33.8042 40.448 33.8117 41.0775 33.7643 41.6718C33.5009 44.9786 28.1026 49.0114 16.7592 54.1938C14.4298 55.258 13.5327 55.1989 13.0469 55.4809C10.2471 57.1061 15.9901 68.3701 16.8659 72.6124C16.9634 73.0844 17.0779 73.5588 17.5185 73.8153C17.9591 74.0718 18.7144 74.0976 23.2681 73.3023C27.8219 72.507 36.1513 70.8898 40.8947 69.9095C45.6381 68.9292 46.5431 68.6348 47.1677 68.3101C49.9729 66.8519 49.1934 58.2376 48.7222 50.1152C48.1938 41.0073 46.3365 35.645 45.1456 34.6028C42.9796 32.7072 41.1793 32.5407 40.0236 32.2686C39.4964 32.1445 39.2024 31.7021 39.0478 31.2324C38.7193 30.2349 39.8929 25.5902 41.3412 18.4026C42.412 13.0888 41.3533 9.75773 40.4445 8.14205C39.8398 7.06694 36.8825 5.41293 32.5864 3.11923C24.0704 1.3384 14.4393 0.918142 12.7811 1.49772C11.6353 1.94761 9.87172 2.71375 7.74518 4.12742" stroke="black" stroke-width="2" stroke-linecap="round"/>
<path d="M10.2407 4.65287C10.0888 4.6364 9.6092 4.68723 8.57519 5.26314C7.69668 5.75246 6.16385 6.7526 5.32236 7.29632C4.48086 7.84005 4.39352 7.92535 4.40931 7.96227C4.4251 7.99919 4.54666 7.98514 6.4955 7.36956C8.44434 6.75397 12.2168 5.53728 12.4525 5.88035C12.6882 6.22343 9.27299 8.16314 7.56802 9.16099C5.86304 10.1588 5.97184 10.156 7.35172 9.78936C8.7316 9.4227 11.3793 8.69227 12.6587 8.37671C13.9381 8.06115 13.769 8.18259 12.3412 9.06305C10.9133 9.94351 8.23182 11.5793 7.43618 12.1304C6.64054 12.6815 7.81204 12.0983 9.66339 11.3906C11.5147 10.6828 14.0104 9.86827 15.2228 9.52193C16.4351 9.1756 16.2883 9.3222 15.1711 10.0546C14.0539 10.787 11.9707 12.1007 11.8178 12.3516C11.6649 12.6025 13.5055 11.7508 15.0321 11.1497C16.5586 10.5487 17.7153 10.224 18.5242 10.0306C19.333 9.83725 19.759 9.78489 19.9777 9.83492C20.1964 9.88495 20.1949 10.039 20.1149 10.1955C19.9367 10.5446 18.99 11.1891 17.1395 12.3728C16.0391 13.0768 14.5036 13.8149 13.2721 14.3891C12.0407 14.9633 11.1324 15.3064 10.7089 15.4418C10.2854 15.5771 10.3743 15.4942 10.6668 15.3034C10.9593 15.1126 11.4527 14.8163 12.3382 14.4089C13.2238 14.0014 14.4864 13.4918 15.86 13.0854C17.2336 12.679 18.6799 12.3913 20.1155 12.2151C21.5511 12.039 22.9321 11.983 22.0755 12.052C21.2189 12.1209 18.0828 12.3164 17.5112 12.0617C16.9395 11.807 19.0274 11.0961 21.3919 10.5353C23.7564 9.97454 26.3344 9.58545 27.9559 9.37798C29.5773 9.17052 30.1642 9.15647 28.8743 9.58953C27.5843 10.0226 24.3996 10.9032 22.8112 11.2996C21.2227 11.6961 21.3269 11.5816 21.7866 11.3471C22.2463 11.1125 23.0583 10.7612 24.1926 10.4156C25.3268 10.07 26.7587 9.74083 29.0804 9.5185C31.4021 9.29617 34.5703 9.19069 36.383 9.1617C38.1957 9.13271 38.5569 9.18341 38.7978 9.2463C39.0387 9.3092 39.1483 9.38275 39.1115 9.48308C39.0748 9.58342 38.8885 9.70831 36.6109 10.4149C34.3333 11.1215 29.97 12.406 27.7905 13.0625C25.6109 13.7189 25.7473 13.7085 26.1758 13.6443C26.6043 13.5801 27.3208 13.4625 28.388 13.3947C30.8479 13.2386 32.3699 13.3734 32.393 13.583C32.4382 13.9916 31.0677 14.5651 29.328 15.4138C28.4737 15.8306 27.6226 16.1015 27.5686 16.1967C26.43 18.2066 31.7092 16.1257 31.9766 16.2675C32.0998 16.3329 32.1489 16.4615 32.1807 16.5918C32.2471 16.8637 32.1127 17.1915 31.8754 17.5273C31.6188 17.8905 31.1799 18.1595 30.9001 18.3158C30.3821 18.6052 32.7156 17.4844 34.0967 17.3761C34.3652 17.355 34.5253 17.4534 34.6342 17.5504C34.7432 17.6475 34.7965 17.7814 34.8224 17.9176C34.8733 18.1843 34.7169 18.5023 34.4674 18.8154C33.9425 19.4742 32.7805 19.7904 31.8398 19.9622C31.5895 20.0079 31.3341 19.9953 31.1835 19.9334C31.0328 19.8714 30.9919 19.74 31.0751 19.6011C31.5275 18.846 33.6044 18.9432 34.8814 18.9854C35.4789 19.0051 35.8727 19.5198 36.1096 19.8784C36.1838 19.9907 36.1976 20.1715 36.1759 20.3281C36.1328 20.6405 35.8606 20.8409 35.6029 20.9796C34.8959 21.36 32.7091 21.5362 31.0454 21.6989C28.6919 21.9291 34.8437 22.3047 35.6328 22.7518C35.7362 22.8103 35.7278 22.9513 35.6763 23.0509C35.5537 23.2881 34.9638 23.4536 33.1475 23.6538C31.7307 23.81 29.2854 23.8071 28.1161 23.9136C26.9468 24.02 27.1216 24.1669 27.7508 24.5074C30.6534 26.0782 31.2664 26.4442 31.5807 26.9543C31.7598 27.2449 31.5996 27.5876 31.4641 27.7854C31.1413 28.2566 30.2955 28.2446 29.8071 28.2252C29.7543 28.2231 29.8392 28.1074 29.9576 28.0417C30.5683 27.7032 33.0094 27.7236 34.6721 27.8081C35.5646 27.8535 36.1853 28.5414 36.3793 28.8495C36.4665 28.988 36.44 29.1377 36.3828 29.2561C36.2647 29.5001 35.9444 29.6526 34.4683 30.1335C33.1589 30.5602 30.6719 31.2295 29.3404 31.6192C28.0089 32.009 27.8981 32.0662 27.9227 32.0816C28.3511 32.3507 30.7771 31.7601 31.924 32.0135C32.0615 32.0439 31.7345 32.3146 31.1945 32.6009C30.6545 32.8873 29.7266 33.2883 27.085 34.0327C24.4434 34.7771 20.1161 35.8525 19.4728 36.5399C18.8296 37.2273 22.0014 37.4941 23.7264 37.6578C25.4514 37.8215 25.6334 37.8742 25.6737 37.9961C26.0564 39.1538 23.1807 39.6031 23.0047 39.7654C22.9624 39.8045 23.11 39.8176 24.5402 39.4698C25.9705 39.122 28.7031 38.4289 30.3495 38.0625C32.4567 37.5936 33.0741 37.7072 33.2469 37.8479C33.4324 37.9992 33.2786 38.4209 33.1204 38.8004C32.8568 39.4323 31.9781 39.6118 31.3809 39.7169C31.2593 39.7383 31.1516 39.6908 31.083 39.6261C31.0145 39.5614 30.9866 39.4569 31.0292 39.3158C31.0718 39.1746 31.1858 38.9999 31.316 38.8779C32.325 37.9326 35.2384 38.0614 35.5335 37.9974C36.0138 37.8933 33.2497 37.9974 31.8051 37.9121C29.3079 37.7646 28.1392 37.3923 28.0185 37.2282C27.8512 37.0008 28.8699 36.4672 31.2105 35.6432C32.8242 35.0751 35.3834 34.4456 36.8086 34.0801C38.2338 33.7146 38.468 33.6943 38.4155 33.7218C38.0506 33.9131 36.5636 34.0093 34.8447 34.1819C34.2216 34.2445 34.1062 34.2735 34.7259 34.3102C38.4254 34.5289 39.1699 34.7579 39.3113 34.9198C39.3867 35.0061 39.3607 35.1716 39.32 35.2953C39.2794 35.4189 39.197 35.5136 38.2689 36.185C37.3407 36.8563 35.5693 38.1013 34.8179 38.7672C34.0666 39.433 34.3889 39.4819 35.3625 39.4519C37.9514 39.3114 39.629 39.3462 39.6306 39.6344C39.6188 39.7739 39.5814 39.8998 39.4616 40.1236" stroke="#7C500A" stroke-width="2" stroke-linecap="round"/>
<path d="M39.2548 40.1235C39.2397 40.1235 39.0365 40.1295 38.6359 40.1419C38.2222 40.1547 40.0344 40.2188 43.4148 40.3477C44.769 40.3994 45.3858 40.505 45.6418 40.569C46.9911 40.9063 41.3466 40.7471 41.2063 40.6285C41.1422 40.5743 41.2116 40.4421 41.3362 40.3744C42.5146 39.7337 44.5996 40.4649 45.1255 40.8705C45.2416 40.9601 45.2315 41.1212 45.1418 41.2856C44.9199 41.6924 44.1826 42.0997 42.9161 42.6484C41.033 43.4642 39.2326 43.6914 38.8589 43.819C36.464 44.6367 42.5053 44.2726 42.5813 44.4033C42.994 45.1136 39.5702 45.1049 38.4569 45.778C37.8925 46.1192 40.9826 47.3572 42.0411 47.9132C43.0997 48.4692 42.967 48.5351 40.956 48.6147C38.945 48.6943 35.0597 48.7856 34.9217 49.2445C34.7838 49.7034 38.5108 50.5272 40.536 50.9908C42.5612 51.4545 42.7715 51.533 42.912 51.6124C43.0526 51.6918 43.1169 51.7697 43.0383 51.8585C42.9596 51.9474 42.736 52.0448 40.6361 52.5478C38.5361 53.0507 34.5665 53.9562 31.8441 54.6853C29.1218 55.4145 27.7669 55.9398 27.0157 56.2277C26.2646 56.5156 26.1582 56.5501 26.0068 56.6127" stroke="#7C500A" stroke-width="2" stroke-linecap="round"/>
<path d="M36.8411 49.8892C36.8452 49.8892 36.8493 49.8892 33.5195 51.2089C30.1898 52.5287 23.526 55.1682 19.7115 56.6329C15.897 58.0976 15.1336 58.3075 14.6268 58.4371C14.12 58.5667 13.8928 58.6096 14.5592 58.5089C15.2257 58.4083 16.7927 58.1627 19.4844 57.4282C22.1761 56.6936 25.9451 55.4776 27.9587 54.8428C29.9723 54.2079 30.1163 54.1912 28.5132 55.0582C26.9101 55.9251 23.5556 57.6762 25.2385 57.4904C26.9214 57.3047 33.7435 55.129 37.6454 53.9303C41.5474 52.7315 42.3225 52.5758 39.6695 53.4147C37.0166 54.2537 30.912 56.0921 27.4704 57.1813C24.0288 58.2704 23.4352 58.5546 23.2512 58.7065C23.0673 58.8584 23.311 58.8695 25.4599 58.8347C27.6088 58.7999 31.6554 58.7188 33.6488 58.7271C35.6422 58.7355 35.4599 58.8357 32.8367 59.4928C30.2134 60.1498 25.1548 61.3607 22.7977 61.9424C20.4405 62.5241 20.938 62.4401 23.0502 62.3472C25.1625 62.2543 28.8744 62.1551 31.2043 62.0311C33.5342 61.907 34.3698 61.7612 33.7665 61.8736C33.1632 61.986 31.0958 62.3611 27.7661 62.7948C24.4364 63.2285 19.9072 63.7095 17.6881 63.8966C15.4689 64.0836 15.6973 63.962 16.1927 63.7695C16.6881 63.577 17.4437 63.3173 18.5558 63.0876C19.6679 62.8579 21.1137 62.6661 23.0916 62.5574C25.0695 62.4488 27.5357 62.4291 28.8817 62.4562C30.2276 62.4832 30.3786 62.5575 30.4758 62.663C30.6628 62.866 30.653 63.2394 30.5896 63.6727C30.5116 64.2059 29.9614 64.8522 28.8052 66.2674C27.9661 67.2945 26.5497 68.8953 25.7176 69.8809C24.8854 70.8665 24.6638 71.1748 24.6553 71.2025C24.5635 71.4984 26.1415 69.734 27.8196 68.2292C28.4275 67.6841 28.5564 67.6001 28.2805 67.7084C27.3098 68.0897 26.0104 68.6003 24.2032 68.8711C23.0167 69.0488 21.2509 69.0436 21.2297 68.8369C21.2085 68.6301 22.9771 68.1542 24.5842 67.8299C26.1912 67.5056 27.5831 67.3474 28.4765 67.2659C29.3699 67.1844 29.7226 67.1844 28.3703 67.4538C27.0179 67.7232 23.9499 68.2621 23.9471 68.2643C23.9444 68.2664 27.0999 67.7156 28.3506 67.5307C28.8462 67.4575 26.36 67.8888 23.6736 68.0988C22.5434 68.1872 22.1631 68.1018 21.7692 67.9785C21.4113 67.8665 21.2116 67.5958 21.1112 67.3221C21.0061 67.0356 21.0768 66.7043 21.2208 66.3747C21.5957 65.5166 23.1077 64.9523 25.2252 64.1201C26.4864 63.6245 28.2159 63.2242 30.1745 62.8948C32.1331 62.5653 34.2913 62.3811 33.7256 62.6144C33.1599 62.8476 29.805 63.5039 28.1235 63.8052C26.4421 64.1066 26.5358 64.0331 27.66 63.5682C28.7842 63.1033 30.936 62.2492 33.0604 61.5851C35.1848 60.921 37.2166 60.4729 38.2354 60.3152C39.2543 60.1575 39.1986 60.3037 38.6593 60.7895C38.12 61.2753 37.0988 62.0963 37.514 62.2849C37.9292 62.4735 39.8117 62.0048 41.0398 61.7314C42.7745 61.3452 43.4161 61.3314 43.5423 61.4234C43.6172 61.478 43.521 61.686 43.4316 61.8402C43.2519 62.1497 42.2904 62.7408 39.3336 64.0553C37.2126 64.9982 33.6442 66.0467 33.0134 66.5416C32.3827 67.0366 34.7498 66.83 36.2736 66.6486C38.4165 66.3935 39.2805 66.0648 38.9187 66.2173C38.3119 66.473 36.837 67.0694 35.3039 67.5334C33.7709 67.9973 32.2222 68.3054 31.5409 68.382C30.8596 68.4587 31.0926 68.2948 31.5299 68.1071C31.9672 67.9195 32.6016 67.7131 34.38 67.3079C36.1585 66.9026 39.0618 66.3048 40.4875 65.9833C41.9133 65.6619 41.7735 65.6351 40.9776 65.5758C36.9826 65.2779 36.3648 65.0957 36.2242 64.9227C36.144 64.824 36.172 64.6277 36.267 64.452C36.4806 64.057 37.0713 63.7536 38.8638 63.1248C40.3195 62.6142 42.9662 61.9667 44.3681 61.596C45.77 61.2253 45.8681 61.2153 45.8645 61.1961C45.861 61.177 45.7528 61.1489 44.761 61.0863C43.7691 61.0238 41.8968 60.9276 40.82 60.8527C39.7433 60.7777 39.5188 60.7269 39.3587 60.657C39.1986 60.5872 39.1097 60.4998 39.0776 60.3538C38.9249 59.6598 40.1449 58.7628 42.295 57.3207C42.8503 56.9483 43.4176 56.7485 43.642 56.6256C43.8663 56.5028 43.7587 56.5087 42.5712 56.7156C41.3837 56.9226 39.1196 57.3304 37.9877 57.4791C36.8557 57.6278 36.9244 57.505 37.0358 57.3868C37.2748 57.1334 37.984 56.7715 38.962 56.2846C39.7498 55.8924 41.2923 55.5315 43.2155 55.1363C43.9778 54.9797 44.3178 54.9702 44.441 54.9572C44.6515 54.9351 43.1169 55.1931 41.7862 55.4524C41.3091 55.5453 41.2108 55.4072 41.2654 55.168C41.3199 54.9287 41.5244 54.5536 42.2695 53.6103C43.0147 52.6671 44.2943 51.1672 44.679 50.4007C45.0637 49.6342 44.5146 49.6466 44.1731 49.6616C43.8316 49.6767 43.7144 49.694 43.6714 49.6199C43.5509 49.4117 44.0975 48.5866 44.6475 47.6428C44.8268 47.3351 44.6921 47.3164 43.1052 47.9106C41.5183 48.5048 38.4547 49.6976 36.782 50.3364C35.1093 50.9751 34.9203 51.0237 34.8393 50.9874C34.6878 50.9195 35.4659 50.1111 37.0217 48.8422C38.9775 47.2473 40.1938 46.6495 39.9403 46.6696C39.6411 46.6934 38.5292 47.1585 37.1548 47.6213C36.7521 47.757 36.8836 47.4392 37.7805 46.4079C38.6774 45.3766 40.3195 43.5769 41.1081 42.653C41.8966 41.7291 41.782 41.7355 41.3501 41.8968C40.1598 42.3414 39.3072 42.7224 39.262 42.5473C39.211 42.3492 39.5183 41.9306 40.1683 41.0989C40.8184 40.2671 41.9082 39.0351 42.3667 38.3985C42.8252 37.7619 42.6195 37.758 42.0261 37.9002C41.4326 38.0423 40.4576 38.3305 39.9975 38.4132C39.5374 38.4959 39.6217 38.3644 39.9433 38.0713C40.7938 37.2963 41.5937 36.737 41.8217 36.5289C41.7029 36.4137 40.5674 36.2691 39.0006 36.0825C38.4171 36.0059 38.2634 35.9662 38.0562 35.9226" stroke="#7C500A" stroke-width="2" stroke-linecap="round"/>
<path d="M37.0798 19.344C35.8884 19.3085 33.4322 19.1299 33.4467 18.8194C33.4776 18.1591 34.4142 17.473 35.383 16.7877C36.2301 16.1885 37.3132 15.8613 37.9345 15.6254C39.2773 15.1154 33.8985 15.1615 33.9105 14.9408C33.9244 14.6837 34.8803 14.1324 36.4095 13.2019C38.0101 12.228 39.0762 11.9243 39.1561 11.8839C39.2931 11.8146 37.6649 12.1516 35.6338 12.5332C34.8045 12.6889 34.369 12.6794 34.1176 12.6261C33.8662 12.5729 33.8082 12.4536 33.7811 12.3165C33.6627 11.7178 34.1847 11.0734 34.6004 10.436C34.7235 10.2473 33.5506 10.2686 31.7487 10.4091C29.1921 10.6084 27.61 10.929 27.4618 10.8044C27.3927 10.7463 27.4309 10.6185 27.4749 10.5C27.7729 9.69804 28.9935 8.96262 30.2773 8.33983C30.5934 8.18646 30.8526 8.13889 31.1135 8.0879C31.3744 8.03691 31.6393 8.00703 29.7744 8.02036C27.9094 8.0337 23.9065 8.09117 21.8849 8.04977C19.8633 8.00837 19.9442 7.86637 20.1558 7.70677C20.6699 7.31904 21.3417 7.10585 21.9595 6.93075C22.6573 6.73295 24.2943 6.64708 26.2671 6.59956C26.997 6.58198 27.1771 6.63147 27.2001 6.66777C27.2231 6.70407 27.0838 6.73944 24.9228 6.91984C22.7618 7.10024 18.5833 7.42459 16.539 7.57872C14.4946 7.73284 14.7111 7.70692 15.9299 7.69357C17.1487 7.68021 19.3634 7.68021 19.311 7.39915C19.2586 7.11809 16.8721 6.55597 15.4904 6.21129C13.7958 5.78856 13.396 5.59422 13.3351 5.48621C13.3016 5.42684 13.5328 5.35829 15.927 5.26314C18.3213 5.16799 22.9406 5.04833 25.3854 4.97705C27.8301 4.90577 27.9604 4.88649 27.0969 4.87209C26.2334 4.85769 24.3722 4.84875 25.0153 4.96277C25.6584 5.0768 28.8622 5.31406 30.4267 5.52759C31.9912 5.74112 31.8193 5.92372 31.6069 6.11733C31.3944 6.31094 31.1465 6.51002 31.3535 6.61858C32.1367 7.02945 33.2911 6.8349 33.9351 6.99195C34.376 7.09948 34.4708 7.2769 35.1106 8.01834C35.7384 8.74594 37.2861 9.89374 38.0943 10.6005C39.0369 11.4249 39.1504 11.7717 39.2228 12.0738C39.2958 12.3781 39.2172 12.7507 38.7094 13.6871C37.5649 15.7975 36.5298 17.0277 36.7068 17.1388C36.9014 17.261 37.1232 17.3593 37.3074 17.7024C37.9792 18.9539 37.7652 19.9644 37.656 20.3927C37.4156 21.3356 35.843 21.949 35.1708 22.4137C34.9296 22.5804 34.99 22.7314 35.079 22.8742C35.4623 23.4891 35.6834 23.8723 35.7073 24.2967C35.6189 24.5045 35.4359 24.695 35.114 24.8998C34.9106 25.0182 34.6258 25.1658 34.2213 25.4076" stroke="#7C500A" stroke-width="2" stroke-linecap="round"/>
</svg>
