<svg width="71" height="81" viewBox="0 0 71 81" fill="none" xmlns="http://www.w3.org/2000/svg">
<path d="M6.05888 2.42124C6.05888 2.38337 6.05888 8.2594 6.31111 17.124C6.39585 20.1026 7.06778 19.9571 8.3087 19.7232C11.5043 19.1208 18.0205 18.6386 25.432 18.4261C29.5812 18.307 31.4946 18.8931 34.0462 20.078C44.339 24.8578 48.4918 29.4274 50.5996 32.3237C52.4167 34.8207 51.742 39.5138 50.4362 44.6247C49.2716 49.1829 45.4587 52.5954 42.6484 55.1244C39.8112 57.6775 34.0482 59.4109 27.7141 61.2852C23.7751 62.4507 18.7392 62.3924 13.3523 62.6774C11.4774 62.7766 11.423 63.5322 11.3995 64.1925C11.194 69.9684 13.5585 77.7175 14.5611 78.5064C15.457 79.2114 17.2153 79.361 25.1477 79.3302C31.9763 79.3037 44.4855 78.5832 51.9115 78.1473C64.5743 77.4039 67.529 76.9739 68.3534 76.5671C70.954 75.2839 68.6385 68.5867 67.7647 65.5739C67.4237 64.3982 66.9172 64.0641 65.3618 63.8732C61.1487 63.3561 56.3321 64.0793 53.428 64.2083C52.052 64.2694 54.8247 58.3598 57.6673 51.3699C60.2457 45.0295 60.5667 40.6866 60.708 37.7025C60.9585 32.4103 60.0175 26.957 58.6353 22.9603C56.294 16.1901 51.6816 11.8874 47.1672 8.79404C42.6364 5.68943 38.0749 4.38884 34.4436 3.52888C31.9898 2.94777 28.224 2.3969 23.3027 2.05046C18.3814 1.70402 12.4003 1.66156 8.63077 1.76077C4.86125 1.85998 3.48449 2.10216 1.74951 2.53776" stroke="black" stroke-width="2" stroke-linecap="round"/>
<path d="M13.5401 4.76015C13.5225 4.75121 13.4071 4.88976 12.66 6.40411C11.9904 7.76149 10.8469 10.3702 10.1968 11.8981C9.54668 13.4259 9.45423 13.808 10.1976 12.7894C10.9409 11.7708 12.5228 9.33992 13.482 7.92524C15.1513 5.46339 16.081 5.05764 16.2334 5.0879C16.3197 5.10504 16.2751 5.35056 15.4693 6.82074C14.6635 8.29091 13.0596 11.0358 12.2912 12.4088C11.5227 13.7818 11.6383 13.6998 13.1005 12.0871C14.5627 10.4744 17.3681 7.33343 18.8168 5.78904C20.2655 4.24465 20.2725 4.39201 19.9741 5.13623C19.6756 5.88044 19.0715 7.21705 18.3169 8.60787C17.5622 9.99869 16.6754 11.4032 16.7275 11.6199C17.0397 12.9172 19.2917 9.4396 19.957 9.01728C20.1556 8.89116 20.158 9.1152 19.5734 10.2735C18.9887 11.4318 17.839 13.5612 17.2873 14.6307C16.7356 15.7001 16.8168 15.6449 17.8405 14.6279C18.8642 13.6109 20.8279 11.6338 21.9066 10.5654C22.9853 9.49691 23.1195 9.39705 23.1455 9.46839C23.2559 9.77151 21.6222 12.1563 21.0018 13.6887C20.6437 14.5733 24.6782 9.75003 26.1746 8.10505C27.6709 6.46008 27.6521 6.62494 27.0457 7.7241C26.4393 8.82325 25.2459 10.8517 25.7418 10.828C26.2378 10.8043 28.4593 8.66687 29.6448 7.53859C30.8303 6.41031 30.9124 6.35591 30.9327 6.41447C31.0089 6.63458 29.9207 8.7514 29.3174 10.689C29.2164 11.0133 31.307 8.73624 32.1342 7.79978C32.9614 6.86331 32.9156 7.01348 31.9491 8.50432C30.9827 9.99516 29.097 12.8221 28.2045 14.2277C27.312 15.6333 27.4698 15.532 29.1398 13.8169C30.8098 12.1019 33.9871 8.77627 35.581 7.16089C37.1748 5.54551 37.0889 5.74114 36.168 7.16991C35.2472 8.59867 33.494 11.2546 32.6673 12.5892C31.8406 13.9237 31.9935 13.8562 32.6521 13.24C33.3108 12.6237 34.4707 11.4606 34.3882 12.043C34.3057 12.6254 32.9458 14.9884 32.3329 16.1142C31.72 17.2399 31.8955 17.0568 33.1316 15.5072C34.3678 13.9575 36.6593 11.0469 37.8461 9.59786C39.0329 8.14878 39.0455 8.2494 38.4064 9.5655C37.7673 10.8816 36.476 13.4101 35.9235 14.6231C35.371 15.836 35.5964 15.6567 36.4376 14.7098C37.2789 13.7629 38.7291 12.0538 39.4438 11.2694C40.1585 10.4851 40.0936 10.6773 39.3568 12.174C38.62 13.6707 37.2133 16.4661 36.5499 17.8609C35.8865 19.2557 36.0089 19.1652 36.2192 18.9344C36.4296 18.7037 36.724 18.3356 36.9422 18.039C37.1605 17.7425 37.2935 17.5287 37.4306 17.3085" stroke="#989898" stroke-width="2" stroke-linecap="round"/>
<path d="M40.8215 13.9271C40.8215 13.9192 40.6882 14.0584 39.98 15.0102C39.3878 15.8061 38.3928 17.2881 37.8471 18.09C37.3014 18.892 37.2532 18.9819 38.4149 17.6779C39.5766 16.374 41.9497 13.6734 43.2103 12.2511C44.4708 10.8287 44.5469 10.7664 44.5914 10.8326C44.6359 10.8989 44.6465 11.0955 44.1198 12.2308C43.593 13.3661 42.5285 15.434 42.0804 16.4288C41.6324 17.4236 41.833 17.2826 42.6639 16.5317C43.4949 15.7807 44.9501 14.4241 45.6884 13.8198C46.4266 13.2155 46.4038 13.4048 45.759 14.594C45.1142 15.7833 43.8482 17.9668 43.2462 19.057C42.6443 20.1473 42.7446 20.0782 43.5246 19.3586C44.3045 18.6389 45.7611 17.2708 46.5245 16.6163C47.2879 15.9618 47.3141 16.0624 46.8092 17.0766C46.3043 18.0907 45.2675 20.0154 44.8043 20.961C44.3412 21.9065 44.483 21.8147 44.8771 21.5133C45.9214 20.7145 46.7692 20.0746 47.0887 19.9748C47.2079 19.9375 47.2624 20.1005 47.2574 20.2371C47.2466 20.5304 46.2515 22.2114 44.9789 24.5277C44.5571 25.2953 44.7009 25.2933 45.59 24.6173C46.479 23.9412 48.1373 22.6062 48.996 21.9769C49.8548 21.3476 49.8637 21.4646 49.522 22.1954C49.1803 22.9262 48.4877 24.2672 48.8952 24.2537C51.2965 24.1741 52.4892 21.3211 52.619 21.3028C53.0631 21.2401 52.1504 23.0246 51.5245 24.5796C51.3187 25.0911 51.4425 25.0774 51.8997 24.7557C52.357 24.4341 53.1702 23.8148 53.5783 23.5643C53.9218 23.3535 53.0576 25.2233 51.802 27.6456C51.4 28.4212 51.6032 28.3388 51.8463 28.1702C52.4092 27.7801 52.9472 27.3929 53.3185 27.292C53.4583 27.254 53.5081 27.5123 53.5198 27.7017C53.5427 28.0722 53.0104 29.5035 52.4128 31.3328C52.2266 31.9026 52.5104 31.8078 52.8069 31.6308C53.1034 31.4537 53.4633 31.2134 53.6743 31.1577C53.8853 31.102 53.9364 31.2383 53.959 31.4988C54.0969 33.0874 53.4242 34.6674 53.2488 35.3257C53.0564 36.0472 55.1126 34.4286 55.3514 34.3766C55.9402 34.2483 55.4701 35.8974 55.4251 36.1558C55.406 36.2648 55.7283 35.9781 56.0192 36.0099C56.7946 36.0949 57.211 36.7802 57.4678 37.2567C57.5354 37.382 57.5414 37.528 57.4963 37.6152C57.1579 38.269 55.6247 36.8667 55.3771 36.7368C54.5036 36.2787 56.2178 38.6267 56.2906 39.2958C56.3047 39.4263 56.2477 39.5661 56.1694 39.6901C55.8105 40.2581 54.965 40.2757 53.6947 40.3923C52.5816 40.4945 55.5122 43.0299 55.6534 43.5544C55.6792 43.6504 55.4741 43.6761 55.3559 43.6716C55.1362 43.6631 54.6777 43.3264 54.352 43.3046C51.9983 43.1472 56.1035 46.1759 56.1779 46.4729C56.2102 46.6016 56.0558 46.6999 55.9031 46.7487C55.2248 46.9655 54.5048 46.5687 53.9684 46.464C53.0521 46.2851 53.7993 49.312 53.8309 50.5288C53.8419 50.9518 53.6281 50.9722 53.4636 50.9227C53.1089 50.8161 52.7841 50.435 52.5347 50.218C51.8147 49.5913 53.8293 52.5861 53.9362 53.2334C53.9599 53.3768 53.8367 53.4837 53.6903 53.5565C53.3537 53.724 52.3013 53.7106 51.2855 53.8712C50.7975 53.9483 52.0202 54.7052 52.1184 54.8768C52.1616 54.9522 52.0545 55.048 51.7537 55.0869C50.9327 55.1932 49.2739 54.826 48.5653 54.8974C48.0339 54.951 50.9141 56.2429 51.9147 56.8071C52.9154 57.3714 52.9105 57.4765 52.719 57.561C52.1814 57.7984 50.3415 57.7824 48.1383 57.8305C47.3537 57.8653 47.2461 57.921 47.1553 57.9869C47.0644 58.0528 46.9937 58.1272 46.8833 58.2654" stroke="#989898" stroke-width="2" stroke-linecap="round"/>
<path d="M46.8834 58.2654C48.1198 58.27 51.009 58.3601 51.6587 58.5299C51.8423 58.5779 49.6936 58.8945 46.7696 59.0378C45.7249 59.089 45.5734 59.131 45.4803 59.1978C45.3128 59.318 46.2263 60.2057 47.866 61.5193C48.5972 62.1051 49.1624 62.4777 49.3681 62.708C49.5739 62.9383 49.4128 63.0025 46.7141 63.0763C44.0154 63.1501 38.7839 63.2314 36.1669 63.2733C33.5498 63.3152 33.7058 63.3152 33.8903 63.3327C34.0748 63.3502 34.2832 63.3852 35.2511 63.714C36.2189 64.0427 37.9399 64.6642 39.1571 65.1428C40.3743 65.6213 41.0357 65.938 41.4212 66.1335C41.8067 66.3291 41.8963 66.394 39.1001 66.2895C36.3039 66.185 30.6191 65.9092 28.7382 65.8116C26.8574 65.7141 28.9528 65.8032 31.5944 66.199C34.236 66.5947 37.3604 67.2944 39.0593 67.689C40.7583 68.0837 40.9372 68.1521 37.5923 67.9505C34.2473 67.7489 27.3732 67.2751 25.8766 67.3335C24.38 67.3918 28.4694 67.9966 30.4678 68.3497C32.4663 68.7029 32.2498 68.7862 29.7697 68.8603C27.2896 68.9344 22.5525 68.9969 20.0541 69.021C17.5557 69.0451 17.4396 69.029 17.4597 69.0185C17.4799 69.0081 17.6397 69.0037 18.9775 69.1385C20.3152 69.2732 22.826 69.5471 24.0508 69.6682C25.2756 69.7893 25.1383 69.7494 24.6815 69.5383C22.5029 68.5314 22.2535 68.1581 22.1132 68.0066C21.957 67.8379 20.1035 67.5915 17.5747 67.171C16.7328 67.0311 16.8066 66.9328 17.2229 66.8308C17.6391 66.7287 18.4006 66.5985 20.1083 66.5232C21.8161 66.448 24.447 66.4316 26.0671 66.4686C27.6871 66.5057 28.2165 66.5966 28.5372 66.6567C28.8579 66.7168 28.9538 66.7434 29.0526 66.7708" stroke="#989898" stroke-width="2" stroke-linecap="round"/>
<path d="M16.7225 69.9597C16.7084 69.9597 16.6944 69.9597 19.3529 69.9711C22.0114 69.9824 27.3429 70.0051 31.0924 70.1328C34.8419 70.2605 36.8479 70.4924 35.8837 70.7252C34.9194 70.9579 30.9242 71.1846 28.5827 71.2532C25.6758 71.3383 24.7243 71.018 24.2305 70.8392C24.0936 70.7897 24.2266 70.7383 30.1413 70.6164C36.0559 70.4946 47.758 70.2818 54.4016 70.3439C61.0451 70.406 62.2755 70.7494 63.1889 71.0358C64.1022 71.3223 64.6613 71.5414 64.8657 71.6648C65.0702 71.7882 64.9032 71.8093 61.0059 71.3806C57.1085 70.952 49.4859 70.0729 45.4165 69.5784C41.347 69.0838 41.0617 69.0004 40.8652 68.9296C40.6687 68.8587 40.5696 68.8029 40.5697 68.7279C40.57 68.5317 41.1712 68.3577 43.5397 68.1109C45.5087 67.9057 49.0584 67.8038 52.1621 67.9125C55.2658 68.0211 57.8218 68.4112 59.4625 68.6191C61.1033 68.827 61.7513 68.841 61.8235 68.912C61.8957 68.983 61.3724 69.1107 57.0234 69.7156C52.6743 70.3204 44.5154 71.3986 40.2628 71.9675C36.0101 72.5364 35.911 72.5635 39.7601 72.8219C43.6092 73.0802 51.4094 73.5691 55.8973 73.9271C60.3852 74.285 61.3244 74.4974 61.8652 74.632C62.406 74.7666 62.5199 74.8171 62.5103 74.8619C62.5006 74.9067 62.364 74.9444 58.2906 75.1143C54.2171 75.2842 46.2111 75.5852 45.149 75.5286C44.087 75.472 50.2116 75.0486 48.291 74.6C46.3704 74.1514 36.219 73.6903 30.0434 73.6475C23.8679 73.6047 21.9758 73.9941 20.9313 74.1932C19.8868 74.3923 19.7472 74.3893 19.74 74.3681C19.7328 74.3469 19.8621 74.3077 23.0466 74.3503C26.2311 74.3929 32.4668 74.5184 36.1847 74.6597C39.9027 74.8009 40.9139 74.9542 41.3365 75.0608C41.759 75.1675 41.5622 75.2229 38.8905 75.4571C36.2188 75.6913 31.0781 76.1026 28.3563 76.3323C25.4854 76.5745 25.2239 76.6567 24.5129 76.6911C21.6214 76.8312 21.0828 76.6168 20.5676 76.5814C19.9707 76.5403 19.5127 76.6375 18.9668 76.3465C18.5016 76.0986 18.1456 75.904 18.0998 75.7374C18.0747 75.6462 18.2325 75.5376 20.6406 74.7989C23.0486 74.0602 27.7499 72.6937 28.3944 71.6589C29.039 70.6241 25.4843 69.9623 23.7418 69.503C21.9992 69.0436 22.1766 68.8066 22.6008 68.5568C23.0249 68.3071 23.6905 68.0518 26.1806 67.5946C28.6708 67.1373 32.9653 66.4858 33.9231 66.0785C34.8809 65.6712 32.3718 65.5278 30.8029 65.4813C29.234 65.4349 28.6813 65.4898 28.4364 65.4752C28.1915 65.4606 28.271 65.3748 28.4046 65.29C28.5383 65.2053 28.7236 65.1242 31.5045 64.4337C34.2855 63.7432 39.6566 62.4458 42.0289 61.7712C44.4012 61.0965 43.6121 61.0838 43.2405 61.0406C42.869 60.9974 42.9389 60.924 43.1052 60.8003C43.5217 60.4907 44.2876 60.1064 45.3903 59.6851C46.6931 59.1874 48.442 59.0522 49.5522 59.2663C50.6548 59.4789 48.0914 61.2921 47.7934 61.7905C47.6751 61.9883 48.6358 62.0868 49.5325 62.2154C49.8204 62.2566 49.7321 62.4179 48.1042 63.2897C46.4763 64.1615 43.3022 65.7821 41.7723 66.6012C40.2424 67.4204 40.453 67.389 41.427 67.2093C42.4011 67.0297 44.1323 66.7028 45.6832 66.4929C47.2342 66.283 48.5524 66.2 49.1808 66.1607C49.8091 66.1214 49.7078 66.1283 49.0975 66.3409C48.4872 66.5536 47.3711 66.9718 46.8707 67.1751C46.3703 67.3785 46.5193 67.3544 46.9235 67.2546C47.3278 67.1548 47.9828 66.9801 49.2513 66.7946C50.5199 66.609 52.3822 66.4178 53.7801 66.3194C56.0515 66.1593 57.1852 66.2506 57.6481 66.3601C58.5314 66.5691 58.674 67.2004 58.8697 67.6013C59.2589 68.3984 60.9775 67.1399 63.1344 67.0897C63.5079 67.0811 63.4396 67.1894 63.2952 67.286C62.9441 67.5209 62.6053 67.6837 62.5443 67.792C61.867 68.9949 66.0528 67.9948 66.3439 68.0821C66.4722 68.1206 66.5256 68.236 66.5258 68.3292C66.5262 68.5236 65.4578 69.2252 64.0986 70.1853C63.6565 70.4976 63.8048 70.5704 63.9704 70.6089C64.1361 70.6473 64.3371 70.6785 64.4093 70.7539C64.4815 70.8293 64.4188 70.9478 63.1221 71.2852C61.8253 71.6227 59.2964 72.1755 58.0815 72.4643C56.8666 72.7531 57.0423 72.7611 57.2696 72.7924C57.7729 72.8617 58.3154 73.0327 58.6587 73.2209C58.8069 73.3021 57.2533 73.4442 54.1207 73.1995C52.2412 73.0527 49.8031 72.5545 48.4938 72.3349C47.1845 72.1152 47.0855 72.1111 47.1354 72.085C47.1853 72.0588 47.3871 72.0106 48.7077 71.9792C50.0282 71.9478 52.4615 71.9345 54.6113 72.0825C56.7611 72.2305 58.5537 72.5401 59.5397 72.7178C60.5257 72.8954 60.6507 72.9317 60.6475 72.9703C60.6442 73.0088 60.509 73.0485 60.2551 73.0894" stroke="#989898" stroke-width="2" stroke-linecap="round"/>
<path d="M57.1754 36.0473C57.159 35.8926 57.202 35.3449 57.8457 34.1636C58.0686 33.7545 58.1065 33.3279 58.0774 32.8892C58.0655 32.7108 57.9678 32.6342 57.8696 32.5766C57.4133 32.3088 56.2718 32.3894 54.7797 32.6821C54.3336 32.7696 53.833 33.031 53.9519 32.6646C54.8681 29.8424 55.9049 29.7559 55.8477 29.3492C55.7547 28.6875 54.3781 29.2966 54.2416 29.2863C54.073 29.2737 55.2052 28.1296 56.3503 26.7823C56.7202 26.3471 56.5066 26.2954 56.353 26.2879C56.0733 26.2741 55.296 26.427 54.3064 26.5547C53.966 26.5986 53.943 26.406 54.1049 26.1414C54.5328 25.4421 55.2891 24.8209 55.73 24.3405C55.885 24.1716 55.7517 24.0434 55.5052 23.9198C54.8851 23.609 54.3295 23.4288 54.0795 23.259C53.8287 23.0886 53.7026 22.7926 53.6472 22.4526C53.7115 21.69 54.5827 20.1568 54.9139 19.1279C54.8533 18.9669 54.7334 18.7599 54.5774 18.4309" stroke="#989898" stroke-width="2" stroke-linecap="round"/>
<path d="M51.4778 19.4769C51.3348 19.5391 50.2892 20.0227 49.2818 20.2857C49.1035 20.3323 48.9693 20.3019 48.9118 20.239C48.8544 20.1761 48.8724 20.0504 48.9241 19.9553C49.1928 19.4609 50.1403 19.4748 52.2536 19.4905C52.7026 19.4939 52.7973 19.5836 52.8136 19.6525C52.8298 19.7214 52.7637 19.7952 52.6001 19.8547C52.1913 20.0035 51.1348 20.0144 49.7526 20.0065C48.008 19.9965 47.1581 19.4464 46.6994 19.0584C46.2936 18.715 46.4293 18.2005 46.4661 17.9893C46.5528 17.4915 47.2559 17.1741 48.1562 16.7472C48.4233 16.6205 48.7475 16.5739 48.1925 16.5286C44.5704 16.2328 44.081 16.2614 43.8419 16.088C43.7185 15.9985 43.6632 15.823 43.6407 15.6599C43.6182 15.4968 43.6487 15.3301 43.7113 15.2083C43.9847 14.6766 44.9791 14.6203 45.5185 14.6651C45.7186 14.6817 45.7255 14.8895 45.6289 15.08C45.5323 15.2705 45.3209 15.4894 45.1496 15.6544C44.9784 15.8193 44.8537 15.9238 44.6123 16.1433" stroke="#989898" stroke-width="2" stroke-linecap="round"/>
</svg>
