<svg width="55" height="72" viewBox="0 0 55 72" fill="none" xmlns="http://www.w3.org/2000/svg">
<path d="M1.24512 1.6814C1.24512 1.7229 1.24512 1.7644 1.24512 10.6957C1.24512 19.6271 1.24512 37.4469 1.31633 46.8834C1.39142 56.835 1.96012 57.9936 2.74324 59.4427C3.7738 61.3497 6.40798 63.8119 9.33774 66.3826C11.0839 67.9146 14.134 68.9538 18.2807 70.1256C21.2792 70.9729 25.2617 71.1206 30.4745 70.8237C38.5449 70.3641 40.7685 68.1626 42.381 67.0823C43.9031 66.0626 45.5353 63.4581 47.3452 60.3985C48.8951 57.7785 49.9376 54.6271 51.2442 47.9538C52.191 43.1185 53.0144 35.2174 53.519 29.4539C54.0236 23.6905 54.0057 20.2724 53.6482 16.7248C53.2907 13.1771 52.5942 9.60339 52.1002 7.62705C51.6063 5.65071 51.3361 5.38002 49.341 4.83736C43.6822 3.29826 37.4417 2.56595 33.856 4.4877C31.7821 5.59919 32.6419 10.6217 32.8683 14.6002C33.3069 22.3072 34.0185 27.9475 33.9583 31.0818C33.8867 34.8128 31.856 37.6173 29.4933 40.7715C28.026 42.7303 25.9073 43.6306 24.2203 43.992C23.15 44.2212 22.053 43.8358 21.0415 43.2475C18.3905 41.7056 17.3366 38.5554 16.1752 31.6517C15.6179 28.3393 15.8931 23.0312 16.1423 18.2376C16.6091 9.25784 17.1759 4.92561 16.2218 4.8059C15.6638 4.75882 14.956 4.73949 12.6767 4.45176C10.3974 4.16404 6.56806 3.60851 1.71385 2.80463" stroke="black" stroke-width="2" stroke-linecap="round"/>
</svg>
