<svg width="66" height="75" viewBox="0 0 66 75" fill="none" xmlns="http://www.w3.org/2000/svg">
<path d="M4.05483 17.8562C3.99401 18.565 4.09541 20.9062 5.79159 26.5872C7.25543 31.49 10.348 40.3686 12.4478 46.0799C14.5476 51.7912 15.6643 54.0341 16.9842 56.621C21.5152 65.5014 22.2542 67.2484 23.6281 71.5471C23.9802 72.649 24.3205 73.3889 24.6898 73.6636C25.0592 73.9383 25.4681 73.7186 30.8539 67.0956C36.2398 60.4726 46.5902 47.4529 52.7508 39.914C60.3915 30.5638 63.0828 27.8045 64.2495 25.7538C64.7096 24.9452 64.4975 24.4087 61.4539 22.2375C58.4102 20.0662 52.438 16.2256 49.161 14.3723C45.884 12.519 45.4831 12.7694 43.7586 15.7402C42.034 18.711 38.998 24.3946 36.2302 29.0914C33.4624 33.7882 31.055 37.3261 28.4759 34.7063C25.8969 32.0864 23.2192 23.2017 21.7209 18.379C19.7346 11.9853 17.755 8.34658 16.7366 5.25635C16.4614 4.4213 16.2255 3.11484 15.8861 2.48556C13.9863 -1.0371 3.82672 10.9656 1.55786 13.4142C2.0816 15.7802 2.9608 17.2768 3.35933 18.022C3.58431 18.4205 3.85547 18.8605 4.54785 19.7525" stroke="black" stroke-width="2" stroke-linecap="round"/>
</svg>
