<svg width="125" height="84" viewBox="0 0 125 84" fill="none" xmlns="http://www.w3.org/2000/svg">
<path d="M20.5603 1.33057C20.532 1.37254 20.5037 1.41451 17.632 5.94074C14.7604 10.467 9.04612 19.4762 5.97321 24.3432C2.62268 29.6499 2.11812 30.4411 1.62235 31.0881C1.37309 31.4134 1.1728 31.7653 2.04581 32.5855C4.62087 35.0045 7.69232 36.6561 11.5026 40.081C14.5602 42.8293 19.7633 47.7785 22.8168 50.7291C25.8702 53.6798 26.5813 54.5202 28.1698 56.2587C29.7583 57.9972 32.2025 60.6084 36.32 65.3261C40.4374 70.0438 46.154 76.7889 49.2418 80.129C52.3296 83.4692 52.6154 83.1999 55.4108 79.8815C58.2063 76.5631 63.5027 70.2037 67.0099 66.1533C70.5172 62.103 72.0749 60.5543 73.032 59.8967C74.1211 59.1485 77.5014 65.6363 82.0184 74.5752C83.6031 77.7113 83.9449 77.9054 84.2264 77.8882C84.8338 77.8511 86.5526 74.7714 90.9491 68.4228C93.6531 64.5181 98.0279 59.7432 102.374 53.7016C106.721 47.6601 111.088 40.6287 113.964 36.0973C118.024 29.7019 120.784 24.9854 122.983 20.4061C123.793 18.7196 123.945 18.3097 123.866 17.9259C123.696 17.1054 118.739 15.0824 110.991 12.0538C107.643 10.7448 105.432 10.0174 104.103 9.6265C102.773 9.23564 102.378 9.23375 98.4115 13.6223C94.4447 18.0109 86.9172 26.79 82.6685 31.6658C76.4334 38.8211 73.6863 40.1873 72.2789 40.8161C71.7479 41.0533 71.4453 40.6956 71.3373 40.3483C70.4994 37.6542 71.361 33.4661 70.6128 32.1269C70.4163 31.775 69.7333 31.9038 69.2799 31.9871C63.803 32.9934 58.2786 41.9829 57.6075 42.5399C57.2856 42.8071 57.0294 43.0761 53.033 38.3566C49.0365 33.6371 41.3147 23.9295 36.1612 17.6775C28.6563 8.92319 25.6555 5.67971 24.5777 4.56988C24.078 4.12547 23.6743 3.92221 23.1598 3.70851" stroke="black" stroke-width="2" stroke-linecap="round"/>
</svg>
