<svg width="87" height="89" viewBox="0 0 87 89" fill="none" xmlns="http://www.w3.org/2000/svg">
<path d="M13.0806 13.3564C13.0504 13.3262 15.8978 15.9605 22.273 22.3506C25.8967 25.9828 29.8597 30.8411 32.0742 33.45C34.2887 36.0589 34.5198 36.3824 34.6351 36.7332C34.7503 37.084 34.7428 37.4523 34.5868 37.8437C34.4309 38.235 34.1267 38.6382 30.4677 42.633C26.8088 46.6278 19.8043 54.202 14.5425 60.3064C9.28076 66.4108 5.97399 70.8159 4.08021 73.3842C2.18643 75.9525 1.80586 76.5504 1.78029 77.008C1.73455 77.8263 3.78533 78.4852 8.64127 80.2488C12.183 81.5351 17.8151 83.8766 21.4089 85.3768C25.0028 86.877 26.3628 87.5316 27.2042 87.7165C28.0456 87.9013 28.3272 87.5967 30.9799 83.0681C33.6326 78.5396 38.6479 69.7963 41.4978 64.9069C44.3477 60.0176 44.8801 59.247 45.4189 58.9269C46.3482 58.3749 50.8279 61.8003 57.9453 67.4896C68.1045 75.6103 69.5949 77.6632 70.4566 77.9717C70.8218 78.1024 71.1315 77.7015 73.6926 73.6064C76.2537 69.5113 81.0799 61.6118 83.4374 57.3796C85.7949 53.1474 85.5374 52.822 82.8712 51.7294C80.2049 50.6367 75.1377 48.7867 71.6796 47.3451C63.9077 44.105 62.6545 42.179 61.9902 41.3671C61.6628 40.967 61.5291 40.4632 63.9905 35.6715C66.4518 30.8799 71.5568 21.7829 74.1107 16.9205C76.6646 12.0581 76.5127 11.7058 76.1739 11.3333C75.4042 10.4871 71.5411 8.78987 65.6149 6.40183C60.9954 4.54032 58.252 4.22167 57.3052 4.28772C56.4025 4.3507 55.9176 6.14122 54.362 9.64506C49.0628 21.5806 46.3409 23.4797 45.0056 24.5816C44.5247 24.9785 44.0674 24.4263 42.0815 21.3448C40.0955 18.2633 36.4987 12.5108 34.1632 9.04239C31.0556 4.42753 29.1438 2.96375 27.8784 2.04581C27.3527 1.66444 26.9997 1.54618 26.5607 1.70934C25.5912 2.34408 21.6619 6.4975 16.3921 12.2383C14.5049 14.3116 14.2158 14.6794 13.8565 15.1641" stroke="black" stroke-width="2" stroke-linecap="round"/>
</svg>
