<svg width="79" height="90" viewBox="0 0 79 90" fill="none" xmlns="http://www.w3.org/2000/svg">
<path d="M16.5744 5.39664C16.5461 5.45229 15.8604 6.26002 12.9755 10.1365C10.7024 13.1907 7.02517 18.626 4.65165 21.9912C2.27812 25.3563 1.38069 26.531 1.13248 27.1774C0.863331 27.8784 2.85716 28.1433 11.8029 32.02C19.2242 35.2361 23.3733 38.7186 24.6418 40.098C26.4821 42.0992 28.0385 44.8126 29.2859 47.1286C30.1838 48.7959 30.8144 52.1805 31.5771 60.0016C32.0845 65.2058 31.9662 72.9846 32.1162 77.8995C32.3223 84.6523 32.7561 86.9029 33.071 87.4729C34.4139 89.9042 43.6751 88.4623 47.4005 88.0291C47.9073 87.9702 48.3534 87.7646 48.7242 87.5762C49.4122 87.2267 50.6579 82.4352 52.3964 71.0049C53.4516 64.0669 53.4855 54.6446 53.7868 49.4518C54.2328 41.7667 56.5311 38.6709 60.1679 34.2214C62.1803 31.7592 66.1022 28.0024 68.7127 25.0356C76.2028 16.5233 77.6589 10.3421 77.7473 9.52011C77.8436 8.62339 76.4875 8.05348 74.7164 7.03423C71.2069 5.0145 65.6624 3.1291 60.6893 1.9492C58.8576 1.51462 58.2916 2.16898 55.8329 5.41209C53.3743 8.6552 49.0045 14.6604 45.9626 18.4861C41.59 23.9854 39.3189 25.6899 38.4922 26.2459C35.7904 28.063 30.9772 22.9312 27.7714 19.8216C25.4494 17.3765 21.7158 13.1709 19.4895 10.5964C17.2631 8.02196 16.6571 7.20611 15.9056 6.13403" stroke="black" stroke-width="2" stroke-linecap="round"/>
</svg>
