<svg width="76" height="90" viewBox="0 0 76 90" fill="none" xmlns="http://www.w3.org/2000/svg">
<path d="M1.75649 1.71558C1.75649 1.74293 1.75649 7.89474 1.96493 17.1486C2.03526 20.2709 2.59026 20.1732 9.16815 19.8926C15.746 19.6121 28.4723 19.1452 36.871 19.1419C45.2697 19.1386 48.9552 19.613 50.7297 20.0746C52.5043 20.5361 52.2562 20.9705 46.6743 26.2032C41.0923 31.4359 30.184 41.4538 22.151 49.5432C14.118 57.6325 9.29081 63.4896 6.67133 66.709C3.74807 70.3017 2.95915 71.66 2.07998 73.3277C0.489919 76.3438 2.52699 81.9532 3.57341 85.5305C3.96494 86.869 4.33876 87.1545 11.3232 87.4871C18.3076 87.8197 31.9591 88.1692 41.4683 88.0476C50.9774 87.9261 55.9305 87.3229 58.6471 86.8983C61.3638 86.4737 61.6939 86.2459 62.1464 85.5572C64.4162 82.1032 64.3054 77.7585 64.0498 73.8462C63.9577 72.4356 62.7794 72.39 57.6383 72.3395C52.4973 72.289 43.132 72.2857 38.3685 72.0932C33.6051 71.9008 33.7272 71.5193 36.6468 67.6366C39.5663 63.7539 45.2796 56.3815 50.7624 48.4922C56.2451 40.6028 61.3241 32.4198 64.8886 26.4342C70.5068 17.0003 72.588 12.5634 73.1597 11.0518C73.8016 9.35443 74.1548 7.96532 74.11 7.27766C74.0892 6.95773 73.413 6.92908 66.6547 6.72735C59.8964 6.52562 46.9079 6.21107 34.8761 5.9533C22.8443 5.69552 12.1629 5.50406 1.15771 5.30679" stroke="black" stroke-width="2" stroke-linecap="round"/>
</svg>
